<?xml version="1.0" encoding="UTF-8"?>
<svg width="80px" height="70px" viewBox="0 0 80 70" version="1.1" xmlns="http://www.w3.org/2000/svg" xmlns:xlink="http://www.w3.org/1999/xlink">
    <!-- Generator: Sketch 53.2 (72643) - https://sketchapp.com -->
    <title>Compact unselected</title>
    <desc>Created with Sketch.</desc>
    <g id="Compact-unselected" stroke="none" stroke-width="1" fill="none" fill-rule="evenodd">
        <rect id="Rectangle" fill="#0078D4" fill-rule="nonzero" x="0" y="0" width="80" height="70"></rect>
        <rect id="Rectangle" fill="#FFFFFF" fill-rule="nonzero" x="0" y="0" width="80" height="70"></rect>
        <g id="Group-2" transform="translate(7.000000, 13.000000)" fill-rule="nonzero">
            <rect id="Rectangle" fill="#F3F2F1" x="0" y="0" width="66" height="8"></rect>
            <rect id="Rectangle" fill="#979593" x="4" y="2.28571429" width="58" height="3.42857143"></rect>
        </g>
        <g id="Group-2" transform="translate(7.000000, 22.000000)" fill-rule="nonzero">
            <rect id="Rectangle" fill="#F3F2F1" x="0" y="0" width="66" height="8"></rect>
            <rect id="Rectangle" fill="#979593" x="4" y="2.28571429" width="58" height="3.42857143"></rect>
        </g>
        <g id="Group-2" transform="translate(7.000000, 31.000000)" fill-rule="nonzero">
            <rect id="Rectangle" fill="#F3F2F1" x="0" y="0" width="66" height="8"></rect>
            <rect id="Rectangle" fill="#979593" x="4" y="2.28571429" width="58" height="3.42857143"></rect>
        </g>
        <g id="Group-2" transform="translate(7.000000, 40.000000)" fill-rule="nonzero">
            <rect id="Rectangle" fill="#F3F2F1" x="0" y="0" width="66" height="8"></rect>
            <rect id="Rectangle" fill="#979593" x="4" y="2.28571429" width="58" height="3.42857143"></rect>
        </g>
        <g id="Group-2" transform="translate(7.000000, 49.000000)" fill-rule="nonzero">
            <rect id="Rectangle" fill="#F3F2F1" x="0" y="0" width="66" height="8"></rect>
            <rect id="Rectangle" fill="#979593" x="4" y="2.28571429" width="58" height="3.42857143"></rect>
        </g>
    </g>
</svg>