<?xml version="1.0" encoding="UTF-8"?>
<svg width="80px" height="70px" viewBox="0 0 80 70" version="1.1" xmlns="http://www.w3.org/2000/svg" xmlns:xlink="http://www.w3.org/1999/xlink">
    <!-- Generator: Sketch 53.2 (72643) - https://sketchapp.com -->
    <title>Group</title>
    <desc>Created with Sketch.</desc>
    <g id="quick-settings" stroke="none" stroke-width="1" fill="none" fill-rule="evenodd">
        <g id="Med-selected" fill="#FFFFFF" fill-rule="nonzero">
            <g id="Group">
                <path d="M0,0 L80,0 L80,70 L0,70 L0,0 Z M7,29 L7,41 L73,41 L73,29 L7,29 Z M7,43 L7,55 L73,55 L73,43 L7,43 Z M7,15 L7,27 L73,27 L73,15 L7,15 Z" id="Combined-Shape" fill-opacity="0.9"></path>
                <g id="Group-2" transform="translate(7.000000, 29.000000)">
                    <path d="M0,0 L66,0 L66,12 L0,12 L0,0 Z M4,4 L4,8 L62,8 L62,4 L4,4 Z" id="Combined-Shape"></path>
                </g>
                <g id="Group-2" transform="translate(7.000000, 43.000000)">
                    <path d="M0,0 L66,0 L66,12 L0,12 L0,0 Z M4,4 L4,8 L62,8 L62,4 L4,4 Z" id="Combined-Shape"></path>
                </g>
                <g id="Group-2" transform="translate(7.000000, 15.000000)">
                    <path d="M0,0 L66,0 L66,12 L0,12 L0,0 Z M4,4 L4,8 L62,8 L62,4 L4,4 Z" id="Combined-Shape"></path>
                </g>
            </g>
        </g>
    </g>
</svg>