<?xml version="1.0" encoding="UTF-8"?>
<svg width="80px" height="70px" viewBox="0 0 80 70" version="1.1" xmlns="http://www.w3.org/2000/svg" xmlns:xlink="http://www.w3.org/1999/xlink">
    <!-- Generator: Sketch 53.2 (72643) - https://sketchapp.com -->
    <title>Group 2</title>
    <desc>Created with Sketch.</desc>
    <g id="quick-settings" stroke="none" stroke-width="1" fill="none" fill-rule="evenodd">
        <g id="Compact-selected" fill="#FFFFFF" fill-rule="nonzero">
            <g id="Group-2">
                <path d="M0,0 L80,0 L80,70 L0,70 L0,0 Z M7,13 L7,21 L73,21 L73,13 L7,13 Z M7,22 L7,30 L73,30 L73,22 L7,22 Z M7,31 L7,39 L73,39 L73,31 L7,31 Z M7,40 L7,48 L73,48 L73,40 L7,40 Z M7,49 L7,57 L73,57 L73,49 L7,49 Z" id="Combined-Shape" fill-opacity="0.9"></path>
                <path d="M7,13 L73,13 L73,21 L7,21 L7,13 Z M11,15.2857143 L11,18.7142857 L69,18.7142857 L69,15.2857143 L11,15.2857143 Z" id="Combined-Shape"></path>
                <path d="M7,22 L73,22 L73,30 L7,30 L7,22 Z M11,24.2857143 L11,27.7142857 L69,27.7142857 L69,24.2857143 L11,24.2857143 Z" id="Combined-Shape"></path>
                <path d="M7,31 L73,31 L73,39 L7,39 L7,31 Z M11,33.2857143 L11,36.7142857 L69,36.7142857 L69,33.2857143 L11,33.2857143 Z" id="Combined-Shape"></path>
                <path d="M7,40 L73,40 L73,48 L7,48 L7,40 Z M11,42.2857143 L11,45.7142857 L69,45.7142857 L69,42.2857143 L11,42.2857143 Z" id="Combined-Shape"></path>
                <path d="M7,49 L73,49 L73,57 L7,57 L7,49 Z M11,51.2857143 L11,54.7142857 L69,54.7142857 L69,51.2857143 L11,51.2857143 Z" id="Combined-Shape"></path>
            </g>
        </g>
    </g>
</svg>