<svg xmlns="http://www.w3.org/2000/svg" viewBox="0 0 688.32 144" fill="currentColor">
  <path d="M688.32,0v144h-.24l-60.7-49.96,10.45-.11c16.46-.43,32.07-.68,33.46-21.22-.55-11.21.75-23.13,0-34.26-.99-14.69-11.04-20.75-24.82-21.46h-109.05v79.2l-47.5,47.32V42.29c-.96-18.81-8.35-24.46-26.74-25.29h-99.11c-18.54.83-25.84,6.6-26.75,25.52l-.11,53.8-47.38,47.21V16.77h-29.03v47.92h-89.97V16.77H0V0h688.32Z" />
  <polygon points="461.12 39.06 461.12 87.21 396.46 87.21 366.11 117.4 366.11 39.06 461.12 39.06" />
  <polygon points="142.03 38.82 142.03 87.1 85.41 143.52 85.41 38.82 142.03 38.82" />
  <rect y="38.82" />
  <path d="M565.72,72.84v-34.5h66.83c6.31.42,10.42,1.73,10.92,8.73.33,4.66.44,13.37-.08,17.91-.71,6.31-5,7.41-10.6,7.86h-67.07Z" />
  <polygon points="227.2 87.21 170.82 143.52 170.82 87.21 227.2 87.21" />
  <polygon points="565.72 143.52 565.72 93.92 593.19 93.92 604.58 104.83 565.72 143.52" />
</svg>
