<?xml version="1.0" standalone="no"?>
<!DOCTYPE svg PUBLIC "-//W3C//DTD SVG 1.1//EN" "http://www.w3.org/Graphics/SVG/1.1/DTD/svg11.dtd" >
<svg xmlns="http://www.w3.org/2000/svg" xmlns:xlink="http://www.w3.org/1999/xlink" version="1.1">
<metadata>
Created by FontForge 20170924 at Fri Feb  8 23:14:27 2019
 By www-data
Copyright Je'son Garnica 2018
"Roadtest (old), which is based on "testt
</metadata>
<defs>
<font id="Auto-Techno" horiz-adv-x="4568" >
  <font-face 
    font-family="Auto Techno"
    font-weight="400"
    font-stretch="normal"
    units-per-em="4096"
    panose-1="0 0 4 0 0 0 0 0 0 0"
    ascent="3276"
    descent="-820"
    x-height="3150"
    cap-height="3150"
    bbox="-236 -2363 8822 5198"
    underline-thickness="204"
    underline-position="307"
    unicode-range="U+0020-FB06"
  />
<missing-glyph horiz-adv-x="2944" 
d="M2717 50l-1324 1742l-1324 -1742h2648zM50 69l1324 1742l-1324 1743v-3485v0zM2737 69v3485l-1325 -1743l1325 -1742v0zM1393 1830l1324 1743h-2648l1324 -1743v0zM0 0v3623h2787v-3623h-2787z" />
    <glyph glyph-name=".notdef" horiz-adv-x="2944" 
d="M2717 50l-1324 1742l-1324 -1742h2648zM50 69l1324 1742l-1324 1743v-3485v0zM2737 69v3485l-1325 -1743l1325 -1742v0zM1393 1830l1324 1743h-2648l1324 -1743v0zM0 0v3623h2787v-3623h-2787z" />
    <glyph glyph-name="glyph1" horiz-adv-x="472" 
 />
    <glyph glyph-name="glyph2" horiz-adv-x="472" 
 />
    <glyph glyph-name="space" unicode=" " horiz-adv-x="2205" 
 />
    <glyph glyph-name="exclam" unicode="!" horiz-adv-x="1417" 
d="M0 0v945h945v-945h-945zM0 1102v1103l945 -945v-158h-945zM945 1417l-945 946v630l945 -945v-631v0zM945 2520l-945 945v158l945 -945v-158v0z" />
    <glyph glyph-name="quotedbl" unicode="&#x22;" horiz-adv-x="2520" 
d="M0 1732v1418h945v-1418h-945zM1102 1732v1418h946v-1418h-946z" />
    <glyph glyph-name="numbersign" unicode="#" 
d="M2520 1260v630h-157l-946 945h-157l945 -945h-473v-630h788zM787 -1102v1417h-787v945h787v630h158l-945 945h157l945 -945h473l-945 945h157v1418h945v-1418h788v1418h945v-1418h631v-945h-631v-630h631v-945h-631v-1417h-945v1417h-788v-1417h-945z" />
    <glyph glyph-name="dollar" unicode="$" 
d="M945 0l-945 945h157l945 -945h-157zM1575 -1102v1102l-945 945h630l945 -945h158l-946 945h1733v157h-3150v2048h1575v1103h945v-1103h1576v-945h-3151v-157h3151v-2048h-1576v-1102h-945z" />
    <glyph glyph-name="percent" unicode="%" horiz-adv-x="3938" 
d="M2048 0v945h945v-945h-945zM315 2205v945h945v-945h-945zM-236 -1102l2677 5355h1024l-2678 -5355h-1023z" />
    <glyph glyph-name="ampersand" unicode="&#x26;" 
d="M1102 1102l946 946h2048v-946h-2994zM3938 2205l-945 945h157l946 -945h-158zM1575 -1102v1102h-1575v3150h1575v1103h945v-1103l945 -945h-630l-945 945h-158l946 -945h-1733v-1260h2205l946 -945h-1576v-1102h-945z" />
    <glyph glyph-name="quotesingle" unicode="'" horiz-adv-x="1417" 
d="M0 1732v1418h945v-1418h-945z" />
    <glyph glyph-name="parenleft" unicode="(" horiz-adv-x="2363" 
d="M945 -1102v157l-945 945v157l945 -944v472l-945 945v630l945 -945v-472h945v-945h-945zM945 472l-945 945v2836h1890v-945h-945v-2836v0z" />
    <glyph glyph-name="parenright" unicode=")" horiz-adv-x="2363" 
d="M0 -1102v945h945v2992l945 -945v-2992h-1890zM1890 2048l-945 945v315h-945v945h945l945 -945v-158l-945 946v-473l945 -945v-630v0z" />
    <glyph glyph-name="asterisk" unicode="*" horiz-adv-x="3938" 
d="M2363 2205l-946 945h-157l945 -945h158zM1260 1102v473l-394 -394l-630 630l394 394h315l-945 945h157l945 -945h473l-1339 1339l630 630l394 -394v473h945v-473l394 394l630 -630l-394 -394h630v-945h-630l394 -394l-630 -630l-394 394v-473h-945z" />
    <glyph glyph-name="plus" unicode="+" 
d="M945 1102l-945 946h157l945 -946h-157zM1575 -1102v2204l-945 946h630l945 -946h158l-946 946h158v2205h945v-2205h1576v-946h-1576v-2204h-945z" />
    <glyph glyph-name="comma" unicode="," horiz-adv-x="1417" 
d="M472 -472v472h-472v945h945v-945l-473 -472v0z" />
    <glyph glyph-name="hyphen" unicode="-" 
d="M945 1102l-945 946h157l945 -946h-157zM1575 1102l-945 946h630l945 -946h-630zM2363 1102l-946 946h2679v-946h-1733z" />
    <glyph glyph-name="period" unicode="." horiz-adv-x="1417" 
d="M0 0v945h945v-945h-945z" />
    <glyph glyph-name="slash" unicode="/" horiz-adv-x="4096" 
d="M-78 -1102l2677 5355h1024l-2678 -5355h-1023z" />
    <glyph glyph-name="zero" unicode="0" 
d="M0 0v3150h1732l946 -945h-1733v-1260h2205v1103h946v-2048h-4096zM2835 2205l-945 945h630l945 -945h-630zM3938 2205l-945 945h157l946 -945h-158z" />
    <glyph glyph-name="one" unicode="1" horiz-adv-x="2835" 
d="M787 2205l-944 945h157l945 -945h-158zM1417 0v2205l-945 945h630l946 -945h157l-945 945h1103v-3150h-946z" />
    <glyph glyph-name="two" unicode="2" 
d="M945 2205l-945 945h157l945 -945h-157zM1575 2205l-945 945h630l945 -945h-630zM0 0v2048h3150v157h-787l-946 945h2679v-2048h-3151v-157h3151v-945h-4096z" />
    <glyph glyph-name="three" unicode="3" 
d="M945 2205l-945 945h157l945 -945h-157zM1575 2205l-945 945h630l945 -945h-630zM0 0v945h3150v157h-3150v946h3150v157h-787l-946 945h2679v-3150h-4096z" />
    <glyph glyph-name="four" unicode="4" 
d="M4096 1417l-946 946v630l946 -945v-631v0zM3150 0v1102h-3150v2048h945v-1102h2205v157l946 -945v-1260h-946zM4096 2520l-946 945v158l946 -945v-158v0z" />
    <glyph glyph-name="five" unicode="5" 
d="M945 0l-945 945h157l945 -945h-157zM1575 0l-945 945h630l945 -945h-630zM2363 0l-946 945h1733v157h-3150v2048h4096v-945h-3151v-157h3151v-2048h-1733z" />
    <glyph glyph-name="six" unicode="6" 
d="M3150 945v157h-2205v-157h2205zM0 0v3150h1732l946 -945h-1733v-157h3151v-2048h-4096zM2835 2205l-945 945h630l945 -945h-630zM3938 2205l-945 945h157l946 -945h-158z" />
    <glyph glyph-name="seven" unicode="7" horiz-adv-x="4411" 
d="M787 2205l-944 945h157l945 -945h-158zM1417 2205l-945 945h630l946 -945h-631zM945 0v2048h2048v157h-788l-945 945h2678v-2048h-2048v-1102h-945z" />
    <glyph glyph-name="eight" unicode="8" 
d="M3150 945v157h-2205v-157h2205zM945 2205l-945 945h157l945 -945h-157zM1575 2205l-945 945h630l945 -945h-630zM0 0v1575h315l-315 315v158h3150v157h-787l-946 945h2679v-1575h-316l316 -315v-1260h-4096z" />
    <glyph glyph-name="nine" unicode="9" 
d="M945 0l-945 945h157l945 -945h-157zM1575 0l-945 945h630l945 -945h-630zM3150 2048v157h-2205v-157h2205zM2363 0l-946 945h1733v157h-3150v2048h4096v-3150h-1733z" />
    <glyph glyph-name="colon" unicode=":" horiz-adv-x="1417" 
d="M0 0v945h945v-945h-945zM0 1890v945h945v-945h-945z" />
    <glyph glyph-name="semicolon" unicode=";" horiz-adv-x="1417" 
d="M472 -472v472h-472v945h945v-945l-473 -472v0zM0 1890v945h945v-945h-945z" />
    <glyph glyph-name="less" unicode="&#x3c;" horiz-adv-x="3465" 
d="M1732 0l-1654 1654l79 78l1733 -1732h-158zM2363 0l-1970 1969l315 315l2285 -2284h-630zM1417 1732l-630 631l788 787h1260l-1418 -1418v0z" />
    <glyph glyph-name="equal" unicode="=" 
d="M945 315l-945 945h157l945 -945h-157zM1575 315l-945 945h630l945 -945h-630zM2363 315l-946 945h2679v-945h-1733zM0 1890v945h4096v-945h-4096z" />
    <glyph glyph-name="greater" unicode="&#x3e;" horiz-adv-x="3465" 
d="M157 0l1418 1417l630 -630l-788 -787h-1260zM2284 866l-2284 2284h630l1969 -1969l-315 -315v0zM2835 1417l-1733 1733h158l1654 -1654l-79 -79v0z" />
    <glyph glyph-name="question" unicode="?" 
d="M1260 0v945h945v-945h-945zM945 2205l-945 945h157l945 -945h-157zM1575 2205l-945 945h630l945 -945h-630zM1260 1102v946h1890v157h-787l-946 945h2679v-2048h-2836z" />
    <glyph glyph-name="at" unicode="@" 
d="M945 -472l-945 944v158l945 -945v-157v0zM945 157l-945 945v630l945 -945v-630v0zM1102 0v2048h1891v-946h-945v-157h1102v1260h-2205v-1260l-945 945v1260h4096v-3150h-2994z" />
    <glyph glyph-name="A" unicode="A" 
d="M4096 -472l-946 944v158l946 -945v-157v0zM4096 157l-946 945v630l946 -945v-630v0zM0 0v2048h2205l945 -946h-2205v-1102h-945zM4096 945l-946 945v315h-2205l-945 945h4096v-2205v0z" />
    <glyph glyph-name="B" unicode="B" 
d="M945 2205l-945 945h157l945 -945h-157zM1575 2205l-945 945h630l945 -945h-630zM0 0v2048h945v-1103h2205v157h-2205l945 946h1260v157h-787l-946 945h2679v-1575h-316l316 -315v-1260h-4096z" />
    <glyph glyph-name="C" unicode="C" 
d="M0 0v3150h1732l946 -945h-1733v-1260h3151v-945h-4096zM2835 2205l-945 945h630l945 -945h-630zM3938 2205l-945 945h157l946 -945h-158z" />
    <glyph glyph-name="D" unicode="D" 
d="M945 2205l-945 945h157l945 -945h-157zM1575 2205l-945 945h630l945 -945h-630zM0 0v2048h945v-1103h2205v1260h-787l-946 945h2679v-2520l-631 -630h-3465z" />
    <glyph glyph-name="E" unicode="E" 
d="M1102 1102l946 946h2048v-946h-2994zM0 0v3150h1732l946 -945h-1733v-1260h2205l946 -945h-4096zM2835 2205l-945 945h630l945 -945h-630zM3938 2205l-945 945h157l946 -945h-158z" />
    <glyph glyph-name="F" unicode="F" 
d="M945 -472l-945 944v158l945 -945v-157v0zM945 157l-945 945v630l945 -945v-630v0zM945 1102l945 946h2206v-946h-3151zM945 945l-945 945v1260h4096l-946 -945h-2205v-1260v0z" />
    <glyph glyph-name="G" unicode="G" 
d="M0 0v3150h1732l946 -945h-1733v-1260h2205v157h-1890l945 946h1891v-2048h-4096zM2835 2205l-945 945h630l945 -945h-630zM3938 2205l-945 945h157l946 -945h-158z" />
    <glyph glyph-name="H" unicode="H" horiz-adv-x="4411" 
d="M945 -472l-945 944v158l945 -945v-157v0zM945 157l-945 945v630l945 -945v-630v0zM945 945l-945 945v1260h945v-2205v0zM2993 0v1102h-2048l945 946h1103v1102h945v-3150h-945z" />
    <glyph glyph-name="I" unicode="I" horiz-adv-x="1417" 
d="M945 -472l-945 944v158l945 -945v-157v0zM945 157l-945 945v630l945 -945v-630v0zM945 945l-945 945v1260h945v-2205v0z" />
    <glyph glyph-name="J" unicode="J" 
d="M0 0v945h3150v1260l946 -945v-1260h-4096zM4096 1417l-946 946v630l946 -945v-631v0zM4096 2520l-946 945v158l946 -945v-158v0z" />
    <glyph glyph-name="K" unicode="K" horiz-adv-x="4411" 
d="M945 -472l-945 944v158l945 -945v-157v0zM945 157l-945 945v630l945 -945v-630v0zM945 945l-945 945v1260h945v-2205v0zM2678 0l-1654 1654l1496 1496h1260l-1417 -1418h-1l-78 -78l1654 -1654h-1260z" />
    <glyph glyph-name="L" unicode="L" 
d="M0 0v2205l945 -945v-315h3151v-945h-4096zM945 1417l-945 946v630l945 -945v-631v0zM945 2520l-945 945v158l945 -945v-158v0z" />
    <glyph glyph-name="M" unicode="M" horiz-adv-x="5041" 
d="M4568 -472l-945 944v158l945 -945v-157v0zM0 0v3623l2205 -2206v0l79 -78l2284 2284v-2678l-945 945v-158l945 -945v-630l-945 945v315l-1339 -1339l-1339 1339v-1417h-945z" />
    <glyph glyph-name="N" unicode="N" 
d="M945 -472l-945 944v158l945 -945v-157v0zM945 157l-945 945v630l945 -945v-630v0zM3150 0v866l-2205 1103v-1024l-945 945v1733l3150 -1575v1102h946v-3150h-946z" />
    <glyph glyph-name="O" unicode="O" 
d="M945 0l-945 945h157l945 -945h-157zM1575 0l-945 945h630l945 -945h-630zM2363 0l-946 945h1733v1260h-2205v-1103h-945v2048h4096v-3150h-1733z" />
    <glyph glyph-name="P" unicode="P" 
d="M945 -472l-945 944v158l945 -945v-157v0zM945 157l-945 945v630l945 -945v-630v0zM945 945l-945 945v1260h4096v-2048h-3151l945 946h1260v157h-2205v-1260v0z" />
    <glyph glyph-name="Q" unicode="Q" horiz-adv-x="4726" 
d="M2993 -157l-1418 1417h630l1418 -1417h-630zM4096 -157l-1418 1417h157l1418 -1417h-157zM0 0v3150h4096v-2048h-946v1103h-2205v-1260h787l946 -945h-2678z" />
    <glyph glyph-name="R" unicode="R" 
d="M945 -472l-945 944v158l945 -945v-157v0zM945 157l-945 945v630l945 -945v-630v0zM2835 0l-1103 1102h-787l945 946h1260v157h-2205v-1260l-945 945v1260h4096v-2048h-1103l1103 -1102h-1261z" />
    <glyph glyph-name="S" unicode="S" 
d="M0 0v945h3150v157h-3150v2048h1732l946 -945h-1733v-157h3151v-2048h-4096zM2835 2205l-945 945h630l945 -945h-630zM3938 2205l-945 945h157l946 -945h-158z" />
    <glyph glyph-name="T" unicode="T" horiz-adv-x="4253" 
d="M2205 -472l-945 944v158l945 -945v-157v0zM2205 157l-945 945v630l945 -945v-630v0zM2205 945l-945 945v315h-1260v945h4096l-946 -945h-945v-1260v0z" />
    <glyph glyph-name="U" unicode="U" 
d="M945 1417l-945 946v630l945 -945v-631v0zM0 0v2205l945 -945v-315h2205v2205h946v-3150h-4096zM945 2520l-945 945v158l945 -945v-158v0z" />
    <glyph glyph-name="V" unicode="V" 
d="M2048 -472l-2048 2047v630l945 -945v157l-945 946v630l2048 -2048l1102 1103v1102h946v-1575l-2048 -2047v0zM945 2520l-945 945v158l945 -945v-158v0z" />
    <glyph glyph-name="W" unicode="W" horiz-adv-x="5041" 
d="M0 -472v2677l945 -945v157l-945 946v630l945 -945v-316l1339 1340l1339 -1340v1418h945v-3622l-2205 2204v1l-79 78l-2284 -2283v0zM945 2520l-945 945v158l945 -945v-158v0z" />
    <glyph glyph-name="X" unicode="X" horiz-adv-x="5513" 
d="M3780 0l-945 945h630l946 -945h-631zM4883 0l-945 945h158l945 -945h-158zM945 2205l-945 945h157l945 -945h-157zM1575 2205l-945 945h630l945 -945h-630zM0 0l1024 2048h2441l552 1102h1024l-1024 -2048h-2442l-551 -1102h-1024z" />
    <glyph glyph-name="Y" unicode="Y" horiz-adv-x="4883" 
d="M945 0l-945 945h157l945 -945h-157zM1575 0l-945 945h630l945 -945h-630zM2363 0l-946 945h2048v157h-2441l-1024 2048h1024l551 -1102h1890v1102h946v-3150h-2048z" />
    <glyph glyph-name="Z" unicode="Z" 
d="M945 2205l-945 945h157l945 -945h-157zM1575 2205l-945 945h630l945 -945h-630zM0 0v2048h3150v157h-787l-946 945h2679v-2048h-3151v-157h3151v-945h-4096z" />
    <glyph glyph-name="bracketleft" unicode="[" horiz-adv-x="2363" 
d="M0 -1102v3780l945 -946v-1889h945v-945h-1890zM945 1890l-945 945v630l945 -945v-630v0zM945 2993l-945 945v158l945 -946v-157v0zM945 3308v945h945v-945h-945z" />
    <glyph glyph-name="backslash" unicode="\" horiz-adv-x="4253" 
d="M2678 -1102l-2678 5355h1024l2678 -5355h-1024z" />
    <glyph glyph-name="bracketright" unicode="]" horiz-adv-x="2363" 
d="M0 -1102v945h945v-945h-945zM1890 -945l-945 945v157l945 -944v-158v0zM1890 -315l-945 945v630l945 -945v-630v0zM1890 472l-945 945v1891h-945v945h1890v-3781v0z" />
    <glyph glyph-name="asciicircum" unicode="^" horiz-adv-x="3465" 
d="M0 157v1260l787 788l630 -630l-1417 -1418v0zM2993 157l-2127 2127l315 315l1812 -1812v-630v0zM2993 1260l-1576 1575l79 79l1497 -1497v-157v0z" />
    <glyph glyph-name="underscore" unicode="_" 
d="M945 0l-945 945h157l945 -945h-157zM1575 0l-945 945h630l945 -945h-630zM2363 0l-946 945h2679v-945h-1733z" />
    <glyph glyph-name="grave" unicode="`" horiz-adv-x="2363" 
d="M787 1732l-709 1418h1024l709 -1418h-1024z" />
    <glyph glyph-name="a" unicode="a" 
d="M4096 -472l-946 944v158l946 -945v-157v0zM4096 157l-946 945v630l946 -945v-630v0zM0 0v2048h2205l945 -946h-2205v-1102h-945zM4096 945l-946 945v315h-2205l-945 945h4096v-2205v0z" />
    <glyph glyph-name="b" unicode="b" 
d="M945 2205l-945 945h157l945 -945h-157zM1575 2205l-945 945h630l945 -945h-630zM0 0v2048h945v-1103h2205v157h-2205l945 946h1260v157h-787l-946 945h2679v-1575h-316l316 -315v-1260h-4096z" />
    <glyph glyph-name="c" unicode="c" 
d="M0 0v3150h1732l946 -945h-1733v-1260h3151v-945h-4096zM2835 2205l-945 945h630l945 -945h-630zM3938 2205l-945 945h157l946 -945h-158z" />
    <glyph glyph-name="d" unicode="d" 
d="M945 2205l-945 945h157l945 -945h-157zM1575 2205l-945 945h630l945 -945h-630zM0 0v2048h945v-1103h2205v1260h-787l-946 945h2679v-2520l-631 -630h-3465z" />
    <glyph glyph-name="e" unicode="e" 
d="M1102 1102l946 946h2048v-946h-2994zM0 0v3150h1732l946 -945h-1733v-1260h2205l946 -945h-4096zM2835 2205l-945 945h630l945 -945h-630zM3938 2205l-945 945h157l946 -945h-158z" />
    <glyph glyph-name="f" unicode="f" 
d="M945 -472l-945 944v158l945 -945v-157v0zM945 157l-945 945v630l945 -945v-630v0zM945 1102l945 946h2206v-946h-3151zM945 945l-945 945v1260h4096l-946 -945h-2205v-1260v0z" />
    <glyph glyph-name="g" unicode="g" 
d="M0 0v3150h1732l946 -945h-1733v-1260h2205v157h-1890l945 946h1891v-2048h-4096zM2835 2205l-945 945h630l945 -945h-630zM3938 2205l-945 945h157l946 -945h-158z" />
    <glyph glyph-name="h" unicode="h" horiz-adv-x="4411" 
d="M945 -472l-945 944v158l945 -945v-157v0zM945 157l-945 945v630l945 -945v-630v0zM945 945l-945 945v1260h945v-2205v0zM2993 0v1102h-2048l945 946h1103v1102h945v-3150h-945z" />
    <glyph glyph-name="i" unicode="i" horiz-adv-x="1417" 
d="M945 -472l-945 944v158l945 -945v-157v0zM945 157l-945 945v630l945 -945v-630v0zM945 945l-945 945v1260h945v-2205v0z" />
    <glyph glyph-name="j" unicode="j" 
d="M0 0v945h3150v1260l946 -945v-1260h-4096zM4096 1417l-946 946v630l946 -945v-631v0zM4096 2520l-946 945v158l946 -945v-158v0z" />
    <glyph glyph-name="k" unicode="k" horiz-adv-x="4411" 
d="M945 -472l-945 944v158l945 -945v-157v0zM945 157l-945 945v630l945 -945v-630v0zM945 945l-945 945v1260h945v-2205v0zM2678 0l-1654 1654l1496 1496h1260l-1417 -1418h-1l-78 -78l1654 -1654h-1260z" />
    <glyph glyph-name="l" unicode="l" 
d="M0 0v2205l945 -945v-315h3151v-945h-4096zM945 1417l-945 946v630l945 -945v-631v0zM945 2520l-945 945v158l945 -945v-158v0z" />
    <glyph glyph-name="m" unicode="m" horiz-adv-x="5041" 
d="M4568 -472l-945 944v158l945 -945v-157v0zM0 0v3623l2205 -2206v0l79 -78l2284 2284v-2678l-945 945v-158l945 -945v-630l-945 945v315l-1339 -1339l-1339 1339v-1417h-945z" />
    <glyph glyph-name="n" unicode="n" 
d="M945 -472l-945 944v158l945 -945v-157v0zM945 157l-945 945v630l945 -945v-630v0zM3150 0v866l-2205 1103v-1024l-945 945v1733l3150 -1575v1102h946v-3150h-946z" />
    <glyph glyph-name="o" unicode="o" 
d="M945 0l-945 945h157l945 -945h-157zM1575 0l-945 945h630l945 -945h-630zM2363 0l-946 945h1733v1260h-2205v-1103h-945v2048h4096v-3150h-1733z" />
    <glyph glyph-name="p" unicode="p" 
d="M945 -472l-945 944v158l945 -945v-157v0zM945 157l-945 945v630l945 -945v-630v0zM945 945l-945 945v1260h4096v-2048h-3151l945 946h1260v157h-2205v-1260v0z" />
    <glyph glyph-name="q" unicode="q" horiz-adv-x="4726" 
d="M2993 -157l-1418 1417h630l1418 -1417h-630zM4096 -157l-1418 1417h157l1418 -1417h-157zM0 0v3150h4096v-2048h-946v1103h-2205v-1260h787l946 -945h-2678z" />
    <glyph glyph-name="r" unicode="r" 
d="M945 -472l-945 944v158l945 -945v-157v0zM945 157l-945 945v630l945 -945v-630v0zM2835 0l-1103 1102h-787l945 946h1260v157h-2205v-1260l-945 945v1260h4096v-2048h-1103l1103 -1102h-1261z" />
    <glyph glyph-name="s" unicode="s" 
d="M0 0v945h3150v157h-3150v2048h1732l946 -945h-1733v-157h3151v-2048h-4096zM2835 2205l-945 945h630l945 -945h-630zM3938 2205l-945 945h157l946 -945h-158z" />
    <glyph glyph-name="t" unicode="t" horiz-adv-x="4253" 
d="M2205 -472l-945 944v158l945 -945v-157v0zM2205 157l-945 945v630l945 -945v-630v0zM2205 945l-945 945v315h-1260v945h4096l-946 -945h-945v-1260v0z" />
    <glyph glyph-name="u" unicode="u" 
d="M945 1417l-945 946v630l945 -945v-631v0zM0 0v2205l945 -945v-315h2205v2205h946v-3150h-4096zM945 2520l-945 945v158l945 -945v-158v0z" />
    <glyph glyph-name="v" unicode="v" 
d="M2048 -472l-2048 2047v630l945 -945v157l-945 946v630l2048 -2048l1102 1103v1102h946v-1575l-2048 -2047v0zM945 2520l-945 945v158l945 -945v-158v0z" />
    <glyph glyph-name="w" unicode="w" horiz-adv-x="5041" 
d="M0 -472v2677l945 -945v157l-945 946v630l945 -945v-316l1339 1340l1339 -1340v1418h945v-3622l-2205 2204v1l-79 78l-2284 -2283v0zM945 2520l-945 945v158l945 -945v-158v0z" />
    <glyph glyph-name="x" unicode="x" horiz-adv-x="5513" 
d="M3780 0l-945 945h630l946 -945h-631zM4883 0l-945 945h158l945 -945h-158zM945 2205l-945 945h157l945 -945h-157zM1575 2205l-945 945h630l945 -945h-630zM0 0l1024 2048h2441l552 1102h1024l-1024 -2048h-2442l-551 -1102h-1024z" />
    <glyph glyph-name="y" unicode="y" horiz-adv-x="4883" 
d="M945 0l-945 945h157l945 -945h-157zM1575 0l-945 945h630l945 -945h-630zM2363 0l-946 945h2048v157h-2441l-1024 2048h1024l551 -1102h1890v1102h946v-3150h-2048z" />
    <glyph glyph-name="z" unicode="z" 
d="M945 2205l-945 945h157l945 -945h-157zM1575 2205l-945 945h630l945 -945h-630zM0 0v2048h3150v157h-787l-946 945h2679v-2048h-3151v-157h3151v-945h-4096z" />
    <glyph glyph-name="braceleft" unicode="{" horiz-adv-x="2678" 
d="M315 -1102v2204h-315v946h315v630l945 -946v-1889h945v-945h-1890zM1260 1890l-945 945v630l945 -945v-630v0zM1260 2993l-945 945v158l945 -946v-157v0zM1260 3308v945h945v-945h-945z" />
    <glyph glyph-name="bar" unicode="|" horiz-adv-x="1417" 
d="M945 -1102l-945 945v157l945 -945v-157v0zM945 -472l-945 944v630l945 -945v-629v0zM945 315l-945 945v2993h945v-3938v0z" />
    <glyph glyph-name="braceright" unicode="}" horiz-adv-x="2678" 
d="M0 -1102v945h945v-945h-945zM1890 -945l-945 945v157l945 -944v-158v0zM1890 -315l-945 945v630l945 -945v-630v0zM1890 472l-945 945v1891h-945v945h1890v-2205h315v-946h-315v-630v0z" />
    <glyph glyph-name="asciitilde" unicode="~" horiz-adv-x="3780" 
d="M0 630v1260h945l945 -945h-945v-315h-945zM2048 945l-946 945h630l946 -945h-630zM3150 945l-945 945h158l945 -945h-158zM2363 1890v473h945v-473h-945z" />
    <glyph glyph-name="exclamdown" unicode="&#xa1;" horiz-adv-x="1417" 
d="M945 -472l-945 944v158l945 -945v-157v0zM945 157l-945 945v630l945 -945v-630v0zM945 945l-945 945v1260h945v-2205v0zM0 3308v945h945v-945h-945z" />
    <glyph glyph-name="cent" unicode="&#xa2;" 
d="M3938 2205l-945 945h157l946 -945h-158zM1575 -315v315h-1575v3150h1575v315h1103v-315h-158l945 -945h-630l-945 945h-158l946 -945h-1733v-1260h3151v-945h-1418v-315h-1103z" />
    <glyph glyph-name="sterling" unicode="&#xa3;" 
d="M2835 0l-945 945h630l945 -945h-630zM3938 0l-945 945h157l946 -945h-158zM0 0v945h393l158 315h-551v945h630v1103h3466v-945h-2521v-158h945v-945h-945l-158 -315h315l946 -945h-2678z" />
    <glyph glyph-name="currency" unicode="&#xa4;" horiz-adv-x="2520" 
d="M1417 2205v630h-787v-630h787zM315 1732l-237 237l237 236v630l-237 237l237 236l157 -158h1103l157 158l237 -236l-237 -237v-630l237 -236l-237 -237l-157 158h-1103l-157 -158v0z" />
    <glyph glyph-name="yen" unicode="&#xa5;" horiz-adv-x="5198" 
d="M945 0l-945 945h157l945 -945h-157zM1575 0l-945 945h630l945 -945h-630zM2363 0l-946 945h2048v157h-2441l-1024 2048h1024l551 -1102h1890v157h-315v788h315v157h946v-157h315v-788h-315v-157h315v-946h-315v-1102h-2048z" />
    <glyph glyph-name="brokenbar" unicode="&#xa6;" horiz-adv-x="1417" 
d="M945 -1575l-945 945v158l945 -945v-158v0zM945 -945l-945 945v630l945 -945v-630v0zM945 -157l-945 944v1103h945v-2047v0zM0 2205v1891h945v-1891h-945z" />
    <glyph glyph-name="section" unicode="&#xa7;" 
d="M0 -315v945h3150v157h-3150v552h4096v-1654h-4096zM0 1417v1733h1732l946 -945h-1733v-157h3151v-631h-4096zM2835 2205l-945 945h630l945 -945h-630zM3938 2205l-945 945h157l946 -945h-158z" />
    <glyph glyph-name="dieresis" unicode="&#xa8;" horiz-adv-x="4096" 
d="M472 3308v945h945v-945h-945zM2678 3308v945h945v-945h-945z" />
    <glyph glyph-name="copyright" unicode="&#xa9;" 
d="M945 0l-945 945h157l945 -945h-157zM1575 0l-945 945h630l945 -945h-630zM1102 1102v946h1891v-316h-1418v-315h1418v-315h-1891zM2363 0l-946 945h1733v1260h-2205v-1103h-945v2048h4096v-3150h-1733z" />
    <glyph glyph-name="ordfeminine" unicode="&#xaa;" horiz-adv-x="1417" 
d="M630 2678v236h-315v-236h315zM0 2205v945h945v-945h-315v236h-315v-236h-315z" />
    <glyph glyph-name="guillemotleft" unicode="&#xab;" horiz-adv-x="5041" 
d="M1732 0l-1654 1654l1654 1654h1261l-1654 -1654l78 -79v0l1576 -1575h-1261zM3308 0l-1654 1654l1654 1654h1260l-1654 -1654l78 -79h1l1575 -1575h-1260z" />
    <glyph glyph-name="logicalnot" unicode="&#xac;" 
d="M945 1102l-945 946h157l945 -946h-157zM1575 1102l-945 946h630l945 -946h-630zM3150 0v1102h-787l-946 946h2679v-2048h-946z" />
    <glyph glyph-name="uni00AD" unicode="&#xad;" 
d="M945 1102l-945 946h157l945 -946h-157zM1575 1102l-945 946h630l945 -946h-630zM2363 1102l-946 946h2679v-946h-1733z" />
    <glyph glyph-name="registered" unicode="&#xae;" horiz-adv-x="1890" 
d="M787 2520v158h-157v-158h157zM472 2205v630h315q66 0 112 -46t46 -111v-158q0 -32 -23 -56q-23 -23 -56 -23q33 0 56 -23t23 -55v-158h-158v158h-157v-158h-158zM1102 2126v788h-787v-788h787zM0 1890v1260h1417v-1260h-1417z" />
    <glyph glyph-name="macron" unicode="&#xaf;" 
d="M945 2205l-945 945h157l945 -945h-157zM1575 2205l-945 945h630l945 -945h-630zM2363 2205l-946 945h2679v-945h-1733z" />
    <glyph glyph-name="degree" unicode="&#xb0;" horiz-adv-x="1890" 
d="M1102 2126v788h-787v-788h787zM0 1890v1260h1417v-1260h-1417z" />
    <glyph glyph-name="plusminus" unicode="&#xb1;" 
d="M0 0v945h4096v-945h-4096zM945 1890l-945 945h157l945 -945h-157zM1575 1260v630l-945 945h630l945 -945h158l-946 945h158v630h945v-630h1576v-945h-1576v-630h-945z" />
    <glyph glyph-name="uni00B2" unicode="&#xb2;" horiz-adv-x="1417" 
d="M0 2205v630h630v79h-630v236h945v-630h-630v-79h630v-236h-945z" />
    <glyph glyph-name="uni00B3" unicode="&#xb3;" horiz-adv-x="1417" 
d="M0 2205v236h630v79h-630v315h630v79h-630v236h945v-945h-945z" />
    <glyph glyph-name="acute" unicode="&#xb4;" horiz-adv-x="2048" 
d="M0 3308l472 945h1024l-472 -945h-1024z" />
    <glyph glyph-name="mu" unicode="&#xb5;" horiz-adv-x="4411" 
d="M945 -472l-945 944v158l945 -945v-157v0zM945 157l-945 945v630l945 -945v-630v0zM2993 787v630l-315 -315h-1733v-157l-945 945v1260h945v-1102h1733l315 315v787h945v-2363h-945z" />
    <glyph glyph-name="paragraph" unicode="&#xb6;" horiz-adv-x="4096" 
d="M2520 -472l-945 944v158l945 -945v-157v0zM3623 -472l-945 944v158l945 -945v-157v0zM2520 157l-945 945v630l945 -945v-630v0zM3623 157l-945 945v630l945 -945v-630v0zM2520 945l-945 945v473h-1103l-472 472v788l472 473h3151v-3151l-945 945v1260h-158v-2205v0z" />
    <glyph glyph-name="periodcentered" unicode="&#xb7;" horiz-adv-x="1417" 
d="M0 1102v946h945v-946h-945z" />
    <glyph glyph-name="cedilla" unicode="&#xb8;" horiz-adv-x="2048" 
d="M0 -472l630 629h157l158 158v315l-158 157h-157l472 473l315 -315l158 -315v-315l-158 -315l-315 -315l-315 -157h-787z" />
    <glyph glyph-name="uni00B9" unicode="&#xb9;" horiz-adv-x="945" 
d="M157 2205v709h-157v236h472v-945h-315z" />
    <glyph glyph-name="ordmasculine" unicode="&#xba;" horiz-adv-x="1417" 
d="M630 2441v473h-315v-473h315zM0 2205v945h945v-945h-945z" />
    <glyph glyph-name="guillemotright" unicode="&#xbb;" horiz-adv-x="5041" 
d="M0 0l1575 1575h1l78 79l-1654 1654h1260l1654 -1654l-1654 -1654h-1260zM1575 0l1575 1575h1l78 79l-1654 1654h1260l1654 -1654l-1654 -1654h-1260z" />
    <glyph glyph-name="onequarter" unicode="&#xbc;" horiz-adv-x="1417" 
d="M630 945v315h-630v630h315v-315h315v315h315v-945h-315zM0 1969v157h945v-157h-945zM315 2205v709h-158v236h473v-945h-315z" />
    <glyph glyph-name="onehalf" unicode="&#xbd;" horiz-adv-x="1417" 
d="M0 945v630h630v79h-630v236h945v-630h-630v-79h630v-236h-945zM0 1969v157h945v-157h-945zM315 2205v709h-158v236h473v-945h-315z" />
    <glyph glyph-name="threequarters" unicode="&#xbe;" horiz-adv-x="1417" 
d="M630 945v315h-630v630h315v-315h315v315h315v-945h-315zM0 1969v157h945v-157h-945zM0 2205v236h630v79h-630v315h630v79h-630v236h945v-945h-945z" />
    <glyph glyph-name="questiondown" unicode="&#xbf;" 
d="M2835 0l-945 945h630l945 -945h-630zM3938 0l-945 945h157l946 -945h-158zM0 0v2048h2993v-946h-2048v-157h787l946 -945h-2678zM2048 2205v945h945v-945h-945z" />
    <glyph glyph-name="Agrave" unicode="&#xc0;" 
d="M4096 -472l-946 944v158l946 -945v-157v0zM4096 157l-946 945v630l946 -945v-630v0zM0 0v2048h2205l945 -946h-2205v-1102h-945zM4096 945l-946 945v315h-2205l-945 945h4096v-2205v0zM2441 3308l-472 945h1024l472 -945h-1024z" />
    <glyph glyph-name="Aacute" unicode="&#xc1;" 
d="M4096 -472l-946 944v158l946 -945v-157v0zM4096 157l-946 945v630l946 -945v-630v0zM0 0v2048h2205l945 -946h-2205v-1102h-945zM4096 945l-946 945v315h-2205l-945 945h4096v-2205v0zM1575 3308l473 945h1024l-473 -945h-1024z" />
    <glyph glyph-name="Acircumflex" unicode="&#xc2;" 
d="M4096 -472l-946 944v158l946 -945v-157v0zM4096 157l-946 945v630l946 -945v-630v0zM0 0v2048h2205l945 -946h-2205v-1102h-945zM4096 945l-946 945v315h-2205l-945 945h4096v-2205v0zM630 3308l472 945h1891l472 -945h-1024l-393 788l-394 -788h-1024z" />
    <glyph glyph-name="Atilde" unicode="&#xc3;" 
d="M4096 -472l-946 944v158l946 -945v-157v0zM4096 157l-946 945v630l946 -945v-630v0zM0 0v2048h2205l945 -946h-2205v-1102h-945zM4096 945l-946 945v315h-2205l-945 945h4096v-2205v0zM472 3308v945h3151v-945h-3151z" />
    <glyph glyph-name="Adieresis" unicode="&#xc4;" 
d="M4096 -472l-946 944v158l946 -945v-157v0zM4096 157l-946 945v630l946 -945v-630v0zM0 0v2048h2205l945 -946h-2205v-1102h-945zM4096 945l-946 945v315h-2205l-945 945h4096v-2205v0zM472 3308v945h945v-945h-945zM2678 3308v945h945v-945h-945z" />
    <glyph glyph-name="Aring" unicode="&#xc5;" 
d="M4096 -472l-946 944v158l946 -945v-157v0zM4096 157l-946 945v630l946 -945v-630v0zM0 0v2048h2205l945 -946h-2205v-1102h-945zM4096 945l-946 945v315h-2205l-945 945h4096v-2205v0zM2205 3938l158 158v315l-158 157h-315l-158 -157v-315l158 -158h315zM1890 3308
l-315 157l-315 315l-158 316v315l158 315l315 315l315 157h315l315 -157l315 -315l158 -315v-315l-158 -316l-315 -315l-315 -157h-315z" />
    <glyph glyph-name="AE" unicode="&#xc6;" horiz-adv-x="5671" 
d="M3308 -472l-945 944v158l945 -945v-157v0zM3308 0v157l-945 945v630l945 -945v158h945l945 -945h-1890zM0 0v2048h1417l946 -946h-1418v-1102h-945zM3308 1102l945 946h945v-946h-1890zM3308 945l-945 945v315h-1418l-945 945h2835l945 -945h-472v-1260v0zM3938 2205
l-945 945h630l945 -945h-630zM5041 2205l-945 945h157l945 -945h-157z" />
    <glyph glyph-name="Ccedilla" unicode="&#xc7;" 
d="M1102 -1732l630 630h158l158 157v315l-158 158h-158l473 472l315 -315l158 -315v-315l-158 -315l-315 -315l-315 -157h-788zM0 0v3150h1732l946 -945h-1733v-1260h2205l946 -945h-4096zM2835 2205l-945 945h630l945 -945h-630zM3938 2205l-945 945h157l946 -945h-158z
" />
    <glyph glyph-name="Egrave" unicode="&#xc8;" 
d="M1102 1102l946 946h2048v-946h-2994zM0 0v3150h1732l946 -945h-1733v-1260h2205l946 -945h-4096zM2835 2205l-945 945h630l945 -945h-630zM3938 2205l-945 945h157l946 -945h-158zM2441 3308l-472 945h1024l472 -945h-1024z" />
    <glyph glyph-name="Eacute" unicode="&#xc9;" 
d="M1102 1102l946 946h2048v-946h-2994zM0 0v3150h1732l946 -945h-1733v-1260h2205l946 -945h-4096zM2835 2205l-945 945h630l945 -945h-630zM3938 2205l-945 945h157l946 -945h-158zM787 3308l473 945h1024l-473 -945h-1024z" />
    <glyph glyph-name="Ecircumflex" unicode="&#xca;" 
d="M1102 1102l946 946h2048v-946h-2994zM0 0v3150h1732l946 -945h-1733v-1260h2205l946 -945h-4096zM2835 2205l-945 945h630l945 -945h-630zM3938 2205l-945 945h157l946 -945h-158zM630 3308l472 945h1891l472 -945h-1024l-393 788l-394 -788h-1024z" />
    <glyph glyph-name="Edieresis" unicode="&#xcb;" 
d="M1102 1102l946 946h2048v-946h-2994zM0 0v3150h1732l946 -945h-1733v-1260h2205l946 -945h-4096zM2835 2205l-945 945h630l945 -945h-630zM3938 2205l-945 945h157l946 -945h-158zM472 3308v945h945v-945h-945zM2678 3308v945h945v-945h-945z" />
    <glyph glyph-name="Igrave" unicode="&#xcc;" horiz-adv-x="2048" 
d="M1260 -472l-945 944v158l945 -945v-157v0zM1260 157l-945 945v630l945 -945v-630v0zM1260 945l-945 945v1260h945v-2205v0zM551 3308l-473 945h1024l473 -945h-1024z" />
    <glyph glyph-name="Iacute" unicode="&#xcd;" horiz-adv-x="2048" 
d="M1260 -472l-945 944v158l945 -945v-157v0zM1260 157l-945 945v630l945 -945v-630v0zM1260 945l-945 945v1260h945v-2205v0zM0 3308l472 945h1024l-472 -945h-1024z" />
    <glyph glyph-name="Icircumflex" unicode="&#xce;" horiz-adv-x="3308" 
d="M1890 -472l-945 944v158l945 -945v-157v0zM1890 157l-945 945v630l945 -945v-630v0zM1890 945l-945 945v1260h945v-2205v0zM0 3308l472 945h1891l472 -945h-1024l-394 788l-393 -788h-1024z" />
    <glyph glyph-name="Idieresis" unicode="&#xcf;" horiz-adv-x="2678" 
d="M1575 -472l-945 944v158l945 -945v-157v0zM1575 157l-945 945v630l945 -945v-630v0zM1575 945l-945 945v1260h945v-2205v0zM0 3308v945h945v-945h-945zM1260 3308v945h945v-945h-945z" />
    <glyph glyph-name="Eth" unicode="&#xd0;" 
d="M1260 2205l-945 945h157l945 -945h-157zM1890 2205l-945 945h630l945 -945h-630zM315 0v1102h-315v946h2205v-946h-945v-157h1890v1260h-472l-946 945h2364v-2520l-631 -630h-3150z" />
    <glyph glyph-name="Ntilde" unicode="&#xd1;" 
d="M945 -472l-945 944v158l945 -945v-157v0zM945 157l-945 945v630l945 -945v-630v0zM4096 1417l-946 946v630l946 -945v-631v0zM3150 0v866l-2205 1103v-1024l-945 945v1733l3150 -1575v157l946 -945v-1260h-946zM4096 2520l-946 945v158l946 -945v-158v0zM472 3623v945
h2521v-945h-2521z" />
    <glyph glyph-name="Ograve" unicode="&#xd2;" 
d="M945 0l-945 945h157l945 -945h-157zM1575 0l-945 945h630l945 -945h-630zM2363 0l-946 945h1733v1260h-2205v-1103h-945v2048h4096v-3150h-1733zM2441 3308l-472 945h1024l472 -945h-1024z" />
    <glyph glyph-name="Oacute" unicode="&#xd3;" 
d="M945 0l-945 945h157l945 -945h-157zM1575 0l-945 945h630l945 -945h-630zM2363 0l-946 945h1733v1260h-2205v-1103h-945v2048h4096v-3150h-1733zM630 3308l472 945h1024l-472 -945h-1024z" />
    <glyph glyph-name="Ocircumflex" unicode="&#xd4;" 
d="M945 0l-945 945h157l945 -945h-157zM1575 0l-945 945h630l945 -945h-630zM2363 0l-946 945h1733v1260h-2205v-1103h-945v2048h4096v-3150h-1733zM630 3308l472 945h1891l472 -945h-1024l-393 788l-394 -788h-1024z" />
    <glyph glyph-name="Otilde" unicode="&#xd5;" 
d="M945 0l-945 945h157l945 -945h-157zM1575 0l-945 945h630l945 -945h-630zM2363 0l-946 945h1733v1260h-2205v-1103h-945v2048h4096v-3150h-1733zM472 3308v945h3151v-945h-3151z" />
    <glyph glyph-name="Odieresis" unicode="&#xd6;" 
d="M945 0l-945 945h157l945 -945h-157zM1575 0l-945 945h630l945 -945h-630zM2363 0l-946 945h1733v1260h-2205v-1103h-945v2048h4096v-3150h-1733zM472 3308v945h945v-945h-945zM2678 3308v945h945v-945h-945z" />
    <glyph glyph-name="multiply" unicode="&#xd7;" horiz-adv-x="5513" 
d="M3780 0l-945 945h630l946 -945h-631zM4883 0l-945 945h158l945 -945h-158zM945 2205l-945 945h157l945 -945h-157zM1575 2205l-945 945h630l945 -945h-630zM0 0l1024 2048h2441l552 1102h1024l-1024 -2048h-2442l-551 -1102h-1024z" />
    <glyph glyph-name="Oslash" unicode="&#xd8;" 
d="M630 -315l157 315h158l-945 945h157l945 -945h473l-945 945h630l945 -945h-394l-157 -315h-1024zM3150 945v1260h-236l-630 -1260h866zM2363 0l-946 945h-157l630 1260h-945v-1103h-945v2048h2363l157 315h1024l-157 -315h709v-3150h-1733z" />
    <glyph glyph-name="Ugrave" unicode="&#xd9;" 
d="M945 1417l-945 946v630l945 -945v-631v0zM0 0v2205l945 -945v-315h2205v2205h946v-3150h-4096zM945 2520l-945 945v158l945 -945v-158v0zM2441 3308l-472 945h1024l472 -945h-1024z" />
    <glyph glyph-name="Uacute" unicode="&#xda;" 
d="M945 1417l-945 946v630l945 -945v-631v0zM0 0v2205l945 -945v-315h2205v2205h946v-3150h-4096zM945 2520l-945 945v158l945 -945v-158v0zM1575 3308l473 945h1024l-473 -945h-1024z" />
    <glyph glyph-name="Ucircumflex" unicode="&#xdb;" 
d="M945 1417l-945 946v630l945 -945v-631v0zM0 0v2205l945 -945v-315h2205v2205h946v-3150h-4096zM945 2520l-945 945v158l945 -945v-158v0zM630 3308l472 945h1891l472 -945h-1024l-393 788l-394 -788h-1024z" />
    <glyph glyph-name="Udieresis" unicode="&#xdc;" 
d="M945 1417l-945 946v630l945 -945v-631v0zM0 0v2205l945 -945v-315h2205v2205h946v-3150h-4096zM945 2520l-945 945v158l945 -945v-158v0zM472 3308v945h945v-945h-945zM2678 3308v945h945v-945h-945z" />
    <glyph glyph-name="Yacute" unicode="&#xdd;" horiz-adv-x="5041" 
d="M945 0l-945 945h157l945 -945h-157zM1575 0l-945 945h630l945 -945h-630zM2363 0l-946 945h2206v157h-2599l-1024 2048h1024l551 -1102h2048v1102h945v-3150h-2205zM787 3308l473 945h1024l-473 -945h-1024z" />
    <glyph glyph-name="Thorn" unicode="&#xde;" 
d="M945 -945l-945 945v157l945 -944v-158v0zM3150 945v1260h-2205v-1260h2205zM945 -315l-945 945v630l945 -945v157l-945 945v2521h945v-788h3151v-3150h-3151v-315v0z" />
    <glyph glyph-name="germandbls" unicode="&#xdf;" 
d="M945 -472l-945 944v158l945 -945v-157v0zM945 157l-945 945v630l945 -945v-630v0zM1102 0v945h2048v157h-472l472 946v157h-2205v-1260l-945 945v1260h4096v-1260l-158 -315l158 -315v-1260h-2994z" />
    <glyph glyph-name="agrave" unicode="&#xe0;" 
d="M4096 -472l-946 944v158l946 -945v-157v0zM4096 157l-946 945v630l946 -945v-630v0zM0 0v2048h2205l945 -946h-2205v-1102h-945zM4096 945l-946 945v315h-2205l-945 945h4096v-2205v0zM2441 3308l-472 945h1024l472 -945h-1024z" />
    <glyph glyph-name="aacute" unicode="&#xe1;" 
d="M4096 -472l-946 944v158l946 -945v-157v0zM4096 157l-946 945v630l946 -945v-630v0zM0 0v2048h2205l945 -946h-2205v-1102h-945zM4096 945l-946 945v315h-2205l-945 945h4096v-2205v0zM1575 3308l473 945h1024l-473 -945h-1024z" />
    <glyph glyph-name="acircumflex" unicode="&#xe2;" 
d="M4096 -472l-946 944v158l946 -945v-157v0zM4096 157l-946 945v630l946 -945v-630v0zM0 0v2048h2205l945 -946h-2205v-1102h-945zM4096 945l-946 945v315h-2205l-945 945h4096v-2205v0zM630 3308l472 945h1891l472 -945h-1024l-393 788l-394 -788h-1024z" />
    <glyph glyph-name="atilde" unicode="&#xe3;" 
d="M4096 -472l-946 944v158l946 -945v-157v0zM4096 157l-946 945v630l946 -945v-630v0zM0 0v2048h2205l945 -946h-2205v-1102h-945zM4096 945l-946 945v315h-2205l-945 945h4096v-2205v0zM472 3308v945h3151v-945h-3151z" />
    <glyph glyph-name="adieresis" unicode="&#xe4;" 
d="M4096 -472l-946 944v158l946 -945v-157v0zM4096 157l-946 945v630l946 -945v-630v0zM0 0v2048h2205l945 -946h-2205v-1102h-945zM4096 945l-946 945v315h-2205l-945 945h4096v-2205v0zM472 3308v945h945v-945h-945zM2678 3308v945h945v-945h-945z" />
    <glyph glyph-name="aring" unicode="&#xe5;" 
d="M4096 -472l-946 944v158l946 -945v-157v0zM4096 157l-946 945v630l946 -945v-630v0zM0 0v2048h2205l945 -946h-2205v-1102h-945zM4096 945l-946 945v315h-2205l-945 945h4096v-2205v0zM2205 3938l158 158v315l-158 157h-315l-158 -157v-315l158 -158h315zM1890 3308
l-315 157l-315 315l-158 316v315l158 315l315 315l315 157h315l315 -157l315 -315l158 -315v-315l-158 -316l-315 -315l-315 -157h-315z" />
    <glyph glyph-name="ae" unicode="&#xe6;" horiz-adv-x="5671" 
d="M3308 -472l-945 944v158l945 -945v-157v0zM3308 0v157l-945 945v630l945 -945v158h945l945 -945h-1890zM0 0v2048h1417l946 -946h-1418v-1102h-945zM3308 1102l945 946h945v-946h-1890zM3308 945l-945 945v315h-1418l-945 945h2835l945 -945h-472v-1260v0zM3938 2205
l-945 945h630l945 -945h-630zM5041 2205l-945 945h157l945 -945h-157z" />
    <glyph glyph-name="ccedilla" unicode="&#xe7;" horiz-adv-x="4883" 
d="M1102 -1732l630 630h158l158 157v315l-158 158h-158l473 472l315 -315l158 -315v-315l-158 -315l-315 -315l-315 -157h-788zM0 0v3150h2048l945 -945h-2048v-1260h2205l946 -945h-4096zM3150 2205l-945 945h630l945 -945h-630zM4253 2205l-945 945h157l946 -945h-158z
" />
    <glyph glyph-name="egrave" unicode="&#xe8;" horiz-adv-x="4883" 
d="M1102 1102l946 946h2048v-946h-2994zM0 0v3150h2048l945 -945h-2048v-1260h2205l946 -945h-4096zM3150 2205l-945 945h630l945 -945h-630zM4253 2205l-945 945h157l946 -945h-158zM2441 3308l-472 945h1024l472 -945h-1024z" />
    <glyph glyph-name="eacute" unicode="&#xe9;" horiz-adv-x="4883" 
d="M1102 1102l946 946h2048v-946h-2994zM0 0v3150h2048l945 -945h-2048v-1260h2205l946 -945h-4096zM3150 2205l-945 945h630l945 -945h-630zM4253 2205l-945 945h157l946 -945h-158zM787 3308l473 945h1024l-473 -945h-1024z" />
    <glyph glyph-name="ecircumflex" unicode="&#xea;" horiz-adv-x="4883" 
d="M1102 1102l946 946h2048v-946h-2994zM0 0v3150h2048l945 -945h-2048v-1260h2205l946 -945h-4096zM3150 2205l-945 945h630l945 -945h-630zM4253 2205l-945 945h157l946 -945h-158zM630 3308l472 945h1891l472 -945h-1024l-393 788l-394 -788h-1024z" />
    <glyph glyph-name="edieresis" unicode="&#xeb;" horiz-adv-x="4883" 
d="M1102 1102l946 946h2048v-946h-2994zM0 0v3150h2048l945 -945h-2048v-1260h2205l946 -945h-4096zM3150 2205l-945 945h630l945 -945h-630zM4253 2205l-945 945h157l946 -945h-158zM472 3308v945h945v-945h-945zM2678 3308v945h945v-945h-945z" />
    <glyph glyph-name="igrave" unicode="&#xec;" horiz-adv-x="2048" 
d="M1260 -472l-945 944v158l945 -945v-157v0zM1260 157l-945 945v630l945 -945v-630v0zM1260 945l-945 945v1260h945v-2205v0zM551 3308l-473 945h1024l473 -945h-1024z" />
    <glyph glyph-name="iacute" unicode="&#xed;" horiz-adv-x="2048" 
d="M1260 -472l-945 944v158l945 -945v-157v0zM1260 157l-945 945v630l945 -945v-630v0zM1260 945l-945 945v1260h945v-2205v0zM0 3308l472 945h1024l-472 -945h-1024z" />
    <glyph glyph-name="icircumflex" unicode="&#xee;" horiz-adv-x="3308" 
d="M1890 -472l-945 944v158l945 -945v-157v0zM1890 157l-945 945v630l945 -945v-630v0zM1890 945l-945 945v1260h945v-2205v0zM0 3308l472 945h1891l472 -945h-1024l-394 788l-393 -788h-1024z" />
    <glyph glyph-name="idieresis" unicode="&#xef;" horiz-adv-x="2678" 
d="M1575 -472l-945 944v158l945 -945v-157v0zM1575 157l-945 945v630l945 -945v-630v0zM1575 945l-945 945v1260h945v-2205v0zM0 3308v945h945v-945h-945zM1260 3308v945h945v-945h-945z" />
    <glyph glyph-name="eth" unicode="&#xf0;" 
d="M945 2205l-945 945h157l945 -945h-157zM1575 2205l-945 945h630l945 -945h-630zM315 0v1102h-315v946h2205v-946h-945v-157h1890v1260h-787l-946 945h2679v-2520l-631 -630h-3150z" />
    <glyph glyph-name="ntilde" unicode="&#xf1;" 
d="M945 -472l-945 944v158l945 -945v-157v0zM945 157l-945 945v630l945 -945v-630v0zM4096 1417l-946 946v630l946 -945v-631v0zM3150 0v866l-2205 1103v-1024l-945 945v1733l3150 -1575v157l946 -945v-1260h-946zM4096 2520l-946 945v158l946 -945v-158v0zM472 3623v945
h2521v-945h-2521z" />
    <glyph glyph-name="ograve" unicode="&#xf2;" 
d="M945 0l-945 945h157l945 -945h-157zM1575 0l-945 945h630l945 -945h-630zM2363 0l-946 945h1733v1260h-2205v-1103h-945v2048h4096v-3150h-1733zM2441 3308l-472 945h1024l472 -945h-1024z" />
    <glyph glyph-name="oacute" unicode="&#xf3;" 
d="M945 0l-945 945h157l945 -945h-157zM1575 0l-945 945h630l945 -945h-630zM2363 0l-946 945h1733v1260h-2205v-1103h-945v2048h4096v-3150h-1733zM630 3308l472 945h1024l-472 -945h-1024z" />
    <glyph glyph-name="ocircumflex" unicode="&#xf4;" 
d="M945 0l-945 945h157l945 -945h-157zM1575 0l-945 945h630l945 -945h-630zM2363 0l-946 945h1733v1260h-2205v-1103h-945v2048h4096v-3150h-1733zM630 3308l472 945h1891l472 -945h-1024l-393 788l-394 -788h-1024z" />
    <glyph glyph-name="otilde" unicode="&#xf5;" 
d="M945 0l-945 945h157l945 -945h-157zM1575 0l-945 945h630l945 -945h-630zM2363 0l-946 945h1733v1260h-2205v-1103h-945v2048h4096v-3150h-1733zM472 3308v945h3151v-945h-3151z" />
    <glyph glyph-name="odieresis" unicode="&#xf6;" 
d="M945 0l-945 945h157l945 -945h-157zM1575 0l-945 945h630l945 -945h-630zM2363 0l-946 945h1733v1260h-2205v-1103h-945v2048h4096v-3150h-1733zM472 3308v945h945v-945h-945zM2678 3308v945h945v-945h-945z" />
    <glyph glyph-name="divide" unicode="&#xf7;" horiz-adv-x="4411" 
d="M1575 0v945h945v-945h-945zM787 1260l-944 945h157l945 -945h-158zM1417 1260l-945 945h630l946 -945h-631zM2205 1260l-945 945h2678v-945h-1733zM1575 2520v945h945v-945h-945z" />
    <glyph glyph-name="oslash" unicode="&#xf8;" 
d="M630 -315l157 315h158l-945 945h157l945 -945h473l-945 945h630l945 -945h-394l-157 -315h-1024zM3150 945v1260h-236l-630 -1260h866zM2363 0l-946 945h-157l630 1260h-945v-1103h-945v2048h2363l157 315h1024l-157 -315h709v-3150h-1733z" />
    <glyph glyph-name="ugrave" unicode="&#xf9;" 
d="M945 1417l-945 946v630l945 -945v-631v0zM0 0v2205l945 -945v-315h2205v2205h946v-3150h-4096zM945 2520l-945 945v158l945 -945v-158v0zM2441 3308l-472 945h1024l472 -945h-1024z" />
    <glyph glyph-name="uacute" unicode="&#xfa;" 
d="M945 1417l-945 946v630l945 -945v-631v0zM0 0v2205l945 -945v-315h2205v2205h946v-3150h-4096zM945 2520l-945 945v158l945 -945v-158v0zM1575 3308l473 945h1024l-473 -945h-1024z" />
    <glyph glyph-name="ucircumflex" unicode="&#xfb;" 
d="M945 1417l-945 946v630l945 -945v-631v0zM0 0v2205l945 -945v-315h2205v2205h946v-3150h-4096zM945 2520l-945 945v158l945 -945v-158v0zM630 3308l472 945h1891l472 -945h-1024l-393 788l-394 -788h-1024z" />
    <glyph glyph-name="udieresis" unicode="&#xfc;" 
d="M945 1417l-945 946v630l945 -945v-631v0zM0 0v2205l945 -945v-315h2205v2205h946v-3150h-4096zM945 2520l-945 945v158l945 -945v-158v0zM472 3308v945h945v-945h-945zM2678 3308v945h945v-945h-945z" />
    <glyph glyph-name="yacute" unicode="&#xfd;" horiz-adv-x="5041" 
d="M945 0l-945 945h157l945 -945h-157zM1575 0l-945 945h630l945 -945h-630zM2363 0l-946 945h2206v157h-2599l-1024 2048h1024l551 -1102h2048v1102h945v-3150h-2205zM787 3308l473 945h1024l-473 -945h-1024z" />
    <glyph glyph-name="thorn" unicode="&#xfe;" 
d="M945 -472l-945 944v158l945 -945v-157v0zM945 0v157l-945 945v630l945 -945v158h2205v1260h-2205v-1260l-945 945v2048h945v-788h3151v-3150h-3151z" />
    <glyph glyph-name="ydieresis" unicode="&#xff;" horiz-adv-x="5041" 
d="M945 0l-945 945h157l945 -945h-157zM1575 0l-945 945h630l945 -945h-630zM2363 0l-946 945h2206v157h-2599l-1024 2048h1024l551 -1102h2048v1102h945v-3150h-2205zM945 3308v945h945v-945h-945zM2835 3308v945h945v-945h-945z" />
    <glyph glyph-name="Ydieresis" unicode="&#x178;" horiz-adv-x="5041" 
d="M945 0l-945 945h157l945 -945h-157zM1575 0l-945 945h630l945 -945h-630zM2363 0l-946 945h2206v157h-2599l-1024 2048h1024l551 -1102h2048v1102h945v-3150h-2205zM945 3308v945h945v-945h-945zM2835 3308v945h945v-945h-945z" />
    <glyph glyph-name="uni1E9E" unicode="&#x1e9e;" 
d="M945 -472l-945 944v158l945 -945v-157v0zM945 157l-945 945v630l945 -945v-630v0zM1102 0v945h2048v157h-472l472 946v157h-2205v-1260l-945 945v1260h4096v-1260l-158 -315l158 -315v-1260h-2994z" />
    <glyph glyph-name="emdash" unicode="&#x2014;" horiz-adv-x="5828" 
d="M945 1102l-945 946h157l945 -946h-157zM1575 1102l-945 946h630l945 -946h-630zM2363 1102l-946 946h3939v-946h-2993z" />
    <glyph glyph-name="quoteleft" unicode="&#x2018;" horiz-adv-x="1417" 
d="M0 2205v945l472 473v-473h473v-945h-945z" />
    <glyph glyph-name="quoteright" unicode="&#x2019;" horiz-adv-x="1417" 
d="M472 1732v473h-472v945h945v-945l-473 -473v0z" />
    <glyph glyph-name="quotesinglbase" unicode="&#x201a;" horiz-adv-x="1417" 
d="M472 -472v472h-472v945h945v-945l-473 -472v0z" />
    <glyph glyph-name="quotereversed" unicode="&#x201b;" horiz-adv-x="1417" 
d="M472 2520l-472 473v945h945v-945h-473v-473v0z" />
    <glyph glyph-name="quotedblleft" unicode="&#x201c;" horiz-adv-x="2520" 
d="M0 2205v945l472 473v-473h473v-945h-945zM1102 2205v945l473 473v-473h473v-945h-946z" />
    <glyph glyph-name="quotedblright" unicode="&#x201d;" horiz-adv-x="2520" 
d="M472 1732v473h-472v945h945v-945l-473 -473v0zM1575 1732v473h-473v945h946v-945l-473 -473v0z" />
    <glyph glyph-name="quotedblbase" unicode="&#x201e;" horiz-adv-x="2520" 
d="M472 -472v472h-472v945h945v-945l-473 -472v0zM1575 -472v472h-473v945h946v-945l-473 -472v0z" />
    <glyph glyph-name="dagger" unicode="&#x2020;" horiz-adv-x="3623" 
d="M2048 -2363l-946 946v157l946 -945v-158v0zM2048 -1732l-946 945v630l946 -945v-630v0zM2048 -945l-946 945v1102h-1102v946h1102v1102h946v-1102h1102v-946h-1102v-2047v0z" />
    <glyph glyph-name="bullet" unicode="&#x2022;" horiz-adv-x="1732" 
d="M0 945v1260h1260v-1260h-1260z" />
    <glyph glyph-name="ellipsis" unicode="&#x2026;" horiz-adv-x="3623" 
d="M0 0v945h945v-945h-945zM1102 0v945h946v-945h-946zM2205 0v945h945v-945h-945z" />
    <glyph glyph-name="guilsinglleft" unicode="&#x2039;" horiz-adv-x="3465" 
d="M1732 0l-1654 1654l1654 1654h1261l-1654 -1654l78 -79v0l1576 -1575h-1261z" />
    <glyph glyph-name="guilsinglright" unicode="&#x203a;" horiz-adv-x="3465" 
d="M0 0l1575 1575h1l78 79l-1654 1654h1260l1654 -1654l-1654 -1654h-1260z" />
    <glyph glyph-name="Euro" unicode="&#x20ac;" horiz-adv-x="4883" 
d="M315 0v1102h-315v315h315v315h-315v316h315v1102h1733l945 -945h-1733v-157h1890v-316h-1890v-315h1890v-315h-1890v-157h2205l946 -945h-4096zM3150 2205l-945 945h630l945 -945h-630zM4253 2205l-945 945h157l946 -945h-158z" />
    <glyph glyph-name="trademark" unicode="&#x2122;" horiz-adv-x="2835" 
d="M315 2205v630h-315v315h945v-315h-315v-630h-315zM1102 2205v945h1261v-945h-315v630h-158v-630h-315v630h-158v-630h-315z" />
    <glyph glyph-name="uniFB00" unicode="&#xfb00;" horiz-adv-x="6616" 
d="M945 -472l-945 944v158l945 -945v-157v0zM4096 -472l-946 944v158l946 -945v-157v0zM945 157l-945 945v630l945 -945v-630v0zM4096 157l-946 945v630l946 -945v-630v0zM945 1102l945 946h1103v-946h-2048zM4096 1102l945 946h1103v-946h-2048zM945 945l-945 945v1260
h2993l-945 -945h-1103v-1260v0zM4096 945l-946 945v1260h2994l-946 -945h-1102v-1260v0z" />
    <glyph glyph-name="uniFB01" unicode="&#xfb01;" 
d="M945 -472l-945 944v158l945 -945v-157v0zM4096 -472l-946 944v158l946 -945v-157v0zM945 157l-945 945v630l945 -945v-630v0zM4096 157l-946 945v630l946 -945v-630v0zM945 1102l945 946h1103v-946h-2048zM945 945l-945 945v1260h2993l-945 -945h-1103v-1260v0zM4096 945
l-946 945v1260h946v-2205v0z" />
    <glyph glyph-name="uniFB02" unicode="&#xfb02;" horiz-adv-x="6144" 
d="M945 -472l-945 944v158l945 -945v-157v0zM945 157l-945 945v630l945 -945v-630v0zM945 1102l945 946h1103v-946h-2048zM3150 0v2205l946 -945v-315h1575v-945h-2521zM4096 1417l-946 946v630l946 -945v-631v0zM945 945l-945 945v1260h2993l-945 -945h-1103v-1260v0z
M4096 2520l-946 945v158l946 -945v-158v0z" />
    <glyph glyph-name="uniFB03" unicode="&#xfb03;" horiz-adv-x="7719" 
d="M945 -472l-945 944v158l945 -945v-157v0zM4096 -472l-946 944v158l946 -945v-157v0zM7246 -472l-945 944v158l945 -945v-157v0zM945 157l-945 945v630l945 -945v-630v0zM4096 157l-946 945v630l946 -945v-630v0zM7246 157l-945 945v630l945 -945v-630v0zM945 1102
l945 946h1103v-946h-2048zM4096 1102l945 946h1103v-946h-2048zM945 945l-945 945v1260h2993l-945 -945h-1103v-1260v0zM4096 945l-946 945v1260h2994l-946 -945h-1102v-1260v0zM7246 945l-945 945v1260h945v-2205v0z" />
    <glyph glyph-name="uniFB04" unicode="&#xfb04;" horiz-adv-x="9294" 
d="M945 -472l-945 944v158l945 -945v-157v0zM4096 -472l-946 944v158l946 -945v-157v0zM945 157l-945 945v630l945 -945v-630v0zM4096 157l-946 945v630l946 -945v-630v0zM945 1102l945 946h1103v-946h-2048zM4096 1102l945 946h1103v-946h-2048zM6301 0v2205l945 -945v-315
h1576v-945h-2521zM7246 1417l-945 946v630l945 -945v-631v0zM945 945l-945 945v1260h2993l-945 -945h-1103v-1260v0zM4096 945l-946 945v1260h2994l-946 -945h-1102v-1260v0zM7246 2520l-945 945v158l945 -945v-158v0z" />
    <glyph glyph-name="uniFB06" unicode="&#xfb06;" horiz-adv-x="7719" 
d="M5513 -472l-945 944v158l945 -945v-157v0zM5513 157l-945 945v630l945 -945v-630v0zM0 0v945h2520v157h-2520v2048h1102l946 -945h-1103v-157h2520v-2048h-3465zM2205 2205l-945 945h630l945 -945h-630zM3308 2205l-945 945h157l945 -945h-157zM5513 945l-945 945v315
h-1103v945h3781l-945 -945h-788v-1260v0z" />
    </font>
</defs>
</svg>
