<?xml version="1.0" standalone="no"?>
<!DOCTYPE svg PUBLIC "-//W3C//DTD SVG 1.1//EN" "http://www.w3.org/Graphics/SVG/1.1/DTD/svg11.dtd" >
<svg xmlns="http://www.w3.org/2000/svg" xmlns:xlink="http://www.w3.org/1999/xlink" version="1.1">
<metadata>
Created by FontForge 20170924 at Mon Apr 16 12:58:52 2001
 By www-data
2 the left -typefaces
</metadata>
<defs>
<font id="Cube" horiz-adv-x="2190" >
  <font-face 
    font-family="Cube"
    font-weight="400"
    font-stretch="normal"
    units-per-em="1000"
    panose-1="0 0 0 0 0 0 0 0 0 0"
    ascent="800"
    descent="-200"
    x-height="2170"
    cap-height="2170"
    bbox="10 0 2190 2180"
    underline-thickness="50"
    underline-position="-125"
    unicode-range="U+0020-E001"
  />
<missing-glyph horiz-adv-x="500" 
 />
    <glyph glyph-name=".notdef" horiz-adv-x="500" 
 />
    <glyph glyph-name="space" unicode=" " horiz-adv-x="500" 
 />
    <glyph glyph-name="exclam" unicode="!" horiz-adv-x="1110" 
d="M10 0h360l730 730v365h-160l130 145q1 0 7.5 3t14.5 8t8 9v910h-380l-710 -710v-925h140l-140 -155v-380zM30 350h330v-330h-330v330zM390 370l690 690v-320l-690 -690v320zM190 535h180l540 535h140l-690 -690h-320zM30 1430h330v-870h-330v870zM390 1450l690 690v-860
l-690 -690v860zM730 2150h320l-690 -690h-320z" />
    <glyph glyph-name="one" unicode="1" horiz-adv-x="1470" 
d="M185 0h545l730 730v1440h-560l-890 -890v-385h175v-895v0zM205 900l-15 15h-160v355l160 160h530v-1410h-515v880v0zM750 1450l690 690v-1400l-690 -690v1400v0zM910 2150h500l-690 -690h-500l690 690v0z" />
    <glyph glyph-name="two" unicode="2" 
d="M10 0h1440l730 730v365h-340l340 355v720h-1280l-890 -890v-380h360l180 170h140l-680 -690v-380zM30 370l520 525h550v195h-735v-170h-335v350l160 160h1250v-690q-27 -1 -82 -1.5t-125 -1.5t-147.5 -2t-147.5 -2t-125.5 -2t-82.5 -1h-10l-350 -350l-0.5 -1.5t-0.5 -3.5
q0 -1 0.5 -3l0.5 -2q2 -4 5.5 -9.5t4.5 -5.5h1060v-335h-1410v350zM1470 370l690 690v-320l-690 -690v320zM730 715h720l360 355h320l-690 -690h-1040zM1470 1450l690 690v-680l-690 -690v680zM730 1070h350v-150h-500zM390 1070h120l-120 -120v120zM910 2150h1220
l-690 -690h-1220z" />
    <glyph glyph-name="three" unicode="3" 
d="M10 0h1450l720 720v1450h-1440l-730 -730v-355h150l-150 -165v-385h150l-150 -165v-370v0zM30 365h340v180h-340v370h340v180h-340v335h1410v-1410h-1410v345v0zM1470 1440l690 690v-1410l-690 -690v1410v0zM190 530h170v-150h-320l150 150v0zM190 1080h170v-150h-320
l150 150v0zM740 2150h1410l-690 -690h-1410l690 690v0z" />
    <glyph glyph-name="four" unicode="4" 
d="M545 0h545l735 730v180l355 360v365h-355v535h-385l-335 -320v320h-385l-710 -710v-925h535v-535v0zM565 540l-15 15h-520v875h335v-530h380v530h340v-520l15 -15h340v-340h-340l-15 -15v-520h-520v520v0zM1110 535h340l350 345v-140l-690 -690v485v0zM1470 910l690 690
v-320l-690 -690v320v0zM720 1240v-320h-320l320 320v0zM1810 1610h320l-690 -690h-320l690 690v0zM390 1450l690 690v-320l-355 -360v-180l-335 -330v500v0zM1110 1450l690 690v-500l-690 -690v500v0zM730 2150h320l-690 -690h-320l690 690v0zM1450 2150h320l-690 -690h-320
l690 690v0z" />
    <glyph glyph-name="five" unicode="5" 
d="M10 0h1440l730 730v905h-160l160 175v360h-1460l-710 -710v-560l250 -260l-250 -260v-380zM30 355h1070v200h-720l-350 355v520h1410v-335h-1070v-200h1070v-875h-1410v335zM1470 910l690 690v-860l-690 -690v860zM280 620q4 -4 15.5 -14t24.5 -21.5t24 -21t16 -13.5
q4 -4 11.5 -9.5t8.5 -5.5h700v-155h-1040zM550 1075h900l540 535h140l-690 -690h-1040zM390 1070h120l-120 -120v120zM1470 1450l690 690v-320l-690 -690v320zM730 2150h1400l-690 -690h-1400z" />
    <glyph glyph-name="six" unicode="6" 
d="M10 0h1440l730 730v1440h-1460l-710 -710v-1460zM30 1430h335v-520l15 -15h1060v-875h-1410v1410zM1470 910l535 540v540l155 150v-1400l-690 -690v860zM370 360h730v190h-730v-190zM550 530h530v-150h-680zM390 530h120l-120 -120v120zM910 1430h1040l-510 -510h-1040z
M390 1450l510 510v-500l-510 -510v500zM730 2150h1400l-150 -150l-1070 -10h-10l-540 -530h-320zM930 1970h1050v-510h-1050v510z" />
    <glyph glyph-name="seven" unicode="7" 
d="M1085 0h365l730 730v1440h-1460l-710 -710v-385h680l-140 -155v-385h535v-535v0zM1105 540l-15 15h-520v340h530v200h-1070v335h1410v-1410h-335v520v0zM1470 1450l690 690v-1400l-690 -690v1400v0zM730 1070h350v-150h-500l150 150v0zM730 2150h1400l-690 -690h-1400
l690 690v0z" />
    <glyph glyph-name="eight" unicode="8" 
d="M190 0h1080l910 910v359l-170 181l170 180v360l-180 180h-1100l-890 -890v-380l160 -170l-160 -170v-380l180 -180v0zM30 190v360l169 180l-169 180v360l160 160h1080l170 -170v-340l-179 -190l179 -190v-340l-180 -180h-1060l-170 170v0zM1470 550l690 690v-320
l-690 -690v320v0zM550 270h370v180h-370v-180v0zM720 430h180v-140h-320l140 140v0zM570 430h110l-110 -110v110v0zM1290 730l700 700l160 -160l-700 -700l-160 160v0zM1470 1270l690 690v-320l-690 -690v320v0zM540 960h370v180h-370v-180v0zM710 1120h180v-140h-320
l140 140v0zM560 1120h110l-110 -110v110v0zM1290 1450l700 700l160 -160l-700 -700l-160 160v0zM910 2150h1040l-690 -690h-1040l690 690v0z" />
    <glyph glyph-name="nine" unicode="9" 
d="M1085 0h365l275 270v540l455 460v900h-1460l-710 -710v-925h1075v-535v0zM1105 540l-15 15h-1060v875h1410v-1410h-335v520v0zM1470 1450l690 690v-860l-455 -460v-540l-235 -230v1400v0zM370 900h730v190h-730v-190v0zM550 1070h530v-150h-680l150 150v0zM390 1070h120
l-120 -120v120v0zM730 2150h1400l-690 -690h-1400l690 690v0z" />
    <glyph glyph-name="question" unicode="?" 
d="M730 0h360l730 730v185h-160l165 175v180l355 360v530l-20 10l-720 -710h-1400l690 695h1350v15h-1360l-710 -710v-740h360l360 350h350v-150l-350 -360v-205h140l-140 -155v-200v0zM750 170h330v-150h-330v150v0zM1110 190l690 690v-140l-690 -690v140v0zM910 355h180
l540 535h140l-690 -690h-320l150 155v0zM750 550l350 360v180h-735v-350h-335v690h1410v-510l-355 -360v-180h-335v170v0zM1110 550l690 690v-140l-690 -690v140v0zM390 1070h300l-300 -300v300v0zM1470 1450l690 690v-500l-690 -690v500v0z" />
    <glyph glyph-name="A" unicode="A" 
d="M10 0h540l355 340v-340h545l730 730v1440h-1460l-710 -710v-1460zM30 1430h515v-710h380v710h515v-1410h-515v530h-380v-530h-515v1410zM570 530h330v-150l-330 -330v480zM1470 1450l690 690v-1400l-690 -690v1400zM820 990v10q0 26 1 80t2 122t2 143t2 143t1.5 122
t1.5 80h300l-225 -230v-445h-65v-20h60v-255h-320zM570 1450l230 230v-680l-230 -230v680zM730 2150h1400l-690 -690h-500l239 250l-369 10l-270 -260h-500zM1090 2000l-120 -120h370l100 100v20h-350zM1090 1980v-80h-80zM1120 1980h300l-80 -80h-220v80z" />
    <glyph glyph-name="B" unicode="B" 
d="M10 0h1440l730 730v1440h-1460l-710 -710v-1460v0zM30 1430h1410v-1410h-1410v1410v0zM1470 1450l690 690v-1400l-690 -690v1400v0zM730 2150h1400l-690 -690h-1400l690 690v0zM550 1640v-10h530v15h-390v95h500l-90 -100v-10l100 100v30h-530l-120 -120v0zM660 1730v-80
h-80l80 80v0zM811 1910h579l120 120v20h-570l-129 -140v0zM930 2010v-80h-80l80 80v0zM960 2030h530l-100 -100h-430v100v0z" />
    <glyph glyph-name="C" unicode="C" 
d="M10 0h1440l730 730v1440h-1460l-710 -710v-1460zM30 1430h1410v-1410h-1410v1410zM1470 1450l155 150v-1230h15l365 360v1260l155 150v-1400l-690 -690v1400zM1650 710h300l-300 -300v300zM1645 1620l-15 15h-700v335h1050v-1230h-335v880zM730 2150h1400l-150 -150
l-1070 -10h-10l-350 -350l-0.5 -1.5t-0.5 -3.5q0 -1 0.5 -3l0.5 -2q2 -3 5.5 -9t4.5 -6h1030l-150 -155h-1400zM900 1960v-320h-320z" />
    <glyph glyph-name="D" unicode="D" 
d="M10 0h1080l1090 1090v720l-360 360h-1100l-710 -710v-1460v0zM30 1430h1060l350 -350v-700l-360 -360h-1050v1410v0zM370 360h540l190 190v360l-180 180h-550v-730v0zM910 890h170v-330l-180 -180h-500l510 510v0zM390 1070h510v-150l-510 -510v660v0zM1470 1090l690 690
v-680l-690 -690v680v0zM930 1050l130 -130h-130v130v0zM1110 1450l700 700l340 -340l-700 -700l-340 340v0zM730 2150h1040l-690 -690h-1040l690 690v0z" />
    <glyph glyph-name="E" unicode="E" 
d="M10 0h1440l195 190v85h85l170 175v1465h-970v65h1050v-1425h-60v-15h70l190 190v1440h-1460l-710 -710v-1460v0zM30 1430h1410v-1410h-1410v1410v0zM1470 1450l150 150v-1400l-150 -150v1400v0zM1645 1620l-25 25h-960v65h1050v-1410h-65v1320v0zM1740 1720l140 140
v-1410l-140 -140v1410v0zM2010 1990l150 150v-1400l-150 -150v1400v0zM730 2150h1400l-140 -145h-1080l-90 -95l10 -15h1040l-154 -160h-1076l-90 -95v-15h1050l-160 -165h-1400l690 690v0zM630 1700v-50h-50l50 50v0zM900 1960v-40h-40l40 40v0z" />
    <glyph glyph-name="F" unicode="F" 
d="M10 0h360l260 265h1080l185 195v85h105l180 185v1440h-1460l-710 -710v-1460v0zM30 1430h330v-1410h-330v1410v0zM390 1450l220 220l10 -1390l-230 -230v1400v0zM640 1680h1050v-1390h-1050v1390v0zM1720 1700l150 150v-1380l-150 -150v1380v0zM1895 1880l-15 15h-960v90
h1060v15h-1070l-110 -110v-15h1060l-160 -170h-1084l-256 -245h-320l690 690h1430v-1410l-155 -150v1390h-20v-1410h-90v1310v0zM890 1960v-60h-60l60 60v0z" />
    <glyph glyph-name="G" unicode="G" horiz-adv-x="2180" 
d="M10 1450v-1450h1440l360 360v1455h-250v55h315v-1440h15l280 290v1440h-1450zM30 1430h1400v-1410h-1400v1410zM1460 1440l330 330v-1410l-330 -330v1410zM1900 1880l250 250v-1410l-250 -250v1410zM730 2140h1400l-240 -240h-330l60 70v20h-710l-360 -360v-10h540
l180 170h510l-330 -330h-1400zM890 1950v-310h-310zM920 1970h680q-38 -25 -58.5 -67t-11.5 -88h-260l-180 -175h-170v330z" />
    <glyph glyph-name="H" unicode="H" 
d="M10 0h555v530h340v-530h555l720 720v1450h-540v-15h510l-690 -695h-510l210 220l-20 10h-360l-230 -230h-490l680 680h500l-230 -240q-2 -2 -5.5 -9.5t-4.5 -10.5q-1 -1 -1.5 -5t-0.5 -5h362l10 20l250 260v10l-280 -270h-55v270h-555l-720 -720v-1440zM30 1430h515v-530
h380v530h515v-1410h-515v530h-380v-530h-515v1410zM1470 1440l690 690v-1410l-690 -690v1410zM780 1120h120v-200h-320zM570 1450l200 200v-500l-200 -200v500zM800 1670h330l-225 -230v-290h-105v520zM1260 2120v-230h-230z" />
    <glyph glyph-name="I" unicode="I" horiz-adv-x="1470" 
d="M10 0h750l425 420v115h95l180 185v1450h-720l-195 -190v-85h-95l-440 -445v-1450v0zM30 1430h690v-1410h-690v1410v0zM750 1440l410 410v-1420l-410 -410v1420v0zM1185 1870l-15 25h-600v75h690v-1410h-75v1310v0zM1290 1980l150 150v-1410l-150 -150v1410v0zM460 1870
h690l-410 -410h-690l410 410v0zM740 2150h690l-150 -150h-690l150 150v0z" />
    <glyph glyph-name="J" unicode="J" 
d="M10 0h1460l710 720v1450h-540l-720 -715h-180l-730 -735v-720v0zM30 710h515v-350h380v1060h525v-1400h-1420v690v0zM1480 1440l680 680v-1400l-680 -680v1400v0zM900 690v-310h-310l310 310v0zM570 720l330 330v-330l-330 -330v330v0zM740 1430h160v-350l-340 -340h-510
l690 690v0zM1640 2150h510l-700 -700h-510l700 700v0z" />
    <glyph glyph-name="K" unicode="K" horiz-adv-x="2200" 
d="M10 0h370l355 345l170 -165v-180h565l720 720v360l-350 360l350 360v360h-560l-515 -500v500h-385l-720 -720v-1440v0zM30 1430h335v-530h195l365 365v165h515v-350l-350 -360l350 -360v-340h-515v170l-365 360h-195v-530h-335v1410v0zM390 530h160l170 -170l-330 -330
v500v0zM1470 350l700 700v-320l-700 -700v320v0zM1115 725l705 695l340 -340l-700 -700l-345 345v0zM900 1400v-140l-340 -340h-140l480 480v0zM390 1430l700 700v-500l-700 -700v500v0zM1470 1430l700 700v-320l-700 -700v320v0zM740 2140h320l-680 -680h-320l680 680v0z
M1640 2140h500l-680 -680h-500l680 680v0z" />
    <glyph glyph-name="L" unicode="L" horiz-adv-x="1740" 
d="M10 0h1440l270 270l10 1465h-455v435h-555l-710 -710v-1460v0zM30 1430h1410v-1410h-1410v1410v0zM1470 1450l230 230v-1400l-230 -230v1400v0zM730 2150h500l-430 -440h890l-250 -250h-1400l690 690v0zM1250 2140v-400h-400l400 400v0z" />
    <glyph glyph-name="M" unicode="M" 
d="M10 0h360l715 700v-700h365l730 730v1440h-380l-350 -340l-350 340h-380l-710 -710v-1460v0zM30 1430h340l360 -350l360 350h350v-1410h-335v880l-25 10l-350 -340l-350 340l-15 -10v-880h-335v1410v0zM390 870l340 -330l350 340v-140l-690 -690v820v0zM1470 1450
l690 690v-1400l-690 -690v1400v0zM390 1450l700 700l340 -340l-700 -700l-340 340v0zM730 2150h320l-690 -690h-320l690 690v0zM1810 2150h320l-690 -690h-320l690 690v0z" />
    <glyph glyph-name="N" unicode="N" horiz-adv-x="2200" 
d="M10 0h380l530 520l165 -160v-360h385l720 720v1440h-380l-350 -340l-350 340h-380l-720 -720v-1440v0zM30 1430h340l720 -710l15 10v700h335v-1410h-335v350l-715 710h-25v-1060h-335v1410v0zM390 1050l510 -510l-510 -510v1020v0zM1470 1430l700 700v-1400l-700 -700
v1400v0zM400 1440l700 700l340 -340l-355 -360v-680l-685 680v0zM740 2140h320l-680 -680h-320l680 680v0zM1820 2140h320l-680 -680h-320l680 680v0z" />
    <glyph glyph-name="O" unicode="O" 
d="M190 0h1080l910 910v1080l-180 180h-1100l-890 -890v-1100l180 -180v0zM30 190v1080l160 160h1080l170 -170v-1060l-180 -180h-1060l-170 170v0zM1470 1270l690 690v-1040l-690 -690v1040v0zM550 360h360l190 190v360l-180 180h-380l-170 -170v-380l180 -180v0zM1080 880
v-320l-180 -180h-320l500 500v0zM390 550l520 520l160 -160l-520 -520l-160 160v0zM390 910l160 160h320l-480 -480v320v0zM1290 1450l700 700l160 -160l-700 -700l-160 160v0zM910 2150h1040l-690 -690h-1040l690 690v0z" />
    <glyph glyph-name="P" unicode="P" 
d="M10 0h720l360 355h720l370 375v1440h-1460l-710 -710v-1460v0zM30 1430h1410v-875h-700l-15 -15v-520h-695v1410v0zM750 530h330v-150l-330 -330v480v0zM1110 535h340l350 345v-500h-690v155v0zM1825 900l-25 10l-330 -320v860l690 690v-1400l-335 -330v490v0zM550 900
h550v190h-550v-190v0zM730 1070h350v-150h-500l150 150v0zM570 1070h120l-120 -120v120v0zM1710 1360v-190h10l280 280v170l-20 10l-270 -270v0zM1730 1350l80 80h140l-220 -220v140v0zM730 2150h1400l-690 -690h-1400l690 690v0zM1980 1600v-140h-140l140 140v0z" />
    <glyph glyph-name="Q" unicode="Q" horiz-adv-x="2180" 
d="M10 0h1440l720 730v1450h-1440l-720 -720v-1460zM30 1430h1410v-1410h-1410v1410zM1460 1450l690 690v-1410l-680 -680zM370 360h375v350h160v-350h195v730h-730v-730zM720 700v-320h-320zM1080 510v-130h-130zM930 730l150 150v-330q0 -1 -8 -10.5t-19 -22t-23 -26
t-20 -21.5l-80 -80v340zM390 1070h690v-65h-90l-600 -605v670zM1000 980h80v-60l-180 -180h-140zM730 2160h1410l-700 -700h-1410z" />
    <glyph glyph-name="R" unicode="R" horiz-adv-x="2180" 
d="M10 1450v-1450h540l180 170h165v-170h555l185 185v170h175l360 365v1450h-1440zM30 1430h500v-1410h-500v1410zM920 1430h510v-1410h-510v1410zM560 1440l150 150v-1410l-150 -150v1410zM1460 1440l150 150v-1410l-150 -150v1410zM740 1610h320l-165 -170v-1240h-155
v1410zM1635 1630l-155 160h310v-1410h-155v1250zM1820 1800l330 330v-1410l-330 -330v1410zM730 2150h1410l-330 -335h-360v-25l160 -170l-160 -160h-510l140 150v20h-350l-180 -170h-510zM999 1925q0 -1 0.5 -3l0.5 -2q2 -2 5 -6t5 -4h370l60 60v20h-370q-2 0 -10 -4
t-10 -6l-10 -10l-15 -15l-15 -15l-10 -10q0 -1 -0.5 -2.5t-0.5 -2.5zM1060 1960v-30h-30zM1090 1970h330l-40 -40h-290v40z" />
    <glyph glyph-name="S" unicode="S" 
d="M10 0h1470l420 420q2 2 5.5 9.5t4.5 10.5q1 5 2.5 18.5t3 29t3 29t1.5 18.5h80l180 185v1450h-1440l-445 -440v-95h-95l-190 -195v-1440zM30 1430h1410v-1410h-1410v1410zM1470 1440l420 420v-1420l-420 -420v1420zM1915 1880l-15 35h-970v55h1050v-1410h-65v1320z
M2010 1980l150 150v-1410l-150 -150v1410zM200 1615h1080l90 95v25h-1020l410 415h1390l-150 -155h-1080l-90 -100h1060l-430 -435h-1410zM320 1710h1030l-70 -70h-960v70zM900 1950v-30h-30z" />
    <glyph glyph-name="T" unicode="T" horiz-adv-x="1730" 
d="M85 0h385l460 455h530l260 265v1440h-1450l-260 -250v-1455h75v-455zM110 1430h330v-1410h-330v1410zM470 1440l430 430v-1410l-430 -430v1410zM30 1900h510l-455 -460v-960h-55v1420zM930 1870h510v-1390h-510v1390zM1470 1890l230 230v-1400l-230 -220v1390zM558 1925
h-498l210 215h1410l-240 -245h-540l-440 -435h-330l420 430q6 6 8 10t2 7q0 4 -1 8t-1 10z" />
    <glyph glyph-name="U" unicode="U" 
d="M10 0h1450l720 720v1450h-360l-540 -530h-175v530h-365l-730 -730v-1440v0zM30 1430h1410v-1410h-1410v1410v0zM1470 1440l690 690v-1410l-690 -690v1410v0zM740 2150h330l-520 -530h730l540 530h330l-690 -690h-1410l690 690v0zM1080 2130v-490h-490l490 490v0z" />
    <glyph glyph-name="V" unicode="V" horiz-adv-x="2010" 
d="M10 180l180 -180h750l510 170l550 550v1450h-540l-355 -340v340h-545l-550 -550v-1440v0zM210 1430h690v-1410h-690v1410v0zM930 1433l510 170v-1413l-510 -170v1413v0zM30 190v1400l150 -150v-1400l-150 150v0zM1470 1620l510 510v-1410l-510 -510v1410v0zM35 1625
l525 525h510l-520 -530h370l540 530h510l-515 -515l-525 -175h-730l-165 165v0zM1080 2130v-330l-160 -160h-330l490 490v0z" />
    <glyph glyph-name="W" unicode="W" 
d="M10 0h1450l720 720v1450h-360l-355 -340v150l-15 15h-345v175h-365l-730 -730v-1440v0zM30 1430h1410v-1410h-1410v1410v0zM1470 1440l690 690v-1410l-690 -690v1410v0zM740 2150h330l-520 -530h190l360 350h330l-340 -350h190l540 530h330l-690 -690h-1410l690 690v0z
M1080 2130v-150l-340 -340h-150l490 490v0zM1440 1950v-150l-160 -160h-150l310 310v0z" />
    <glyph glyph-name="X" unicode="X" 
d="M10 0h360l360 350l360 -350h360l730 730v180l-530 540l530 540v180h-380l-350 -340l-350 340h-380l-710 -710v-200l520 -530l-520 -530v-200v0zM30 190l530 540l-530 540v160h340l360 -350l360 350h350v-150l-540 -550l540 -550v-160h-340l-370 360l-370 -360h-330v170v0
zM1470 190l690 690v-140l-690 -690v140v0zM930 730l700 700l520 -520l-700 -700l-520 520v0zM390 1450l700 700l340 -340l-700 -700l-340 340v0zM1470 1450l690 690v-140l-690 -690v140v0zM730 2150h320l-690 -690h-320l690 690v0zM1810 2150h320l-690 -690h-320l690 690v0z
" />
    <glyph glyph-name="Y" unicode="Y" horiz-adv-x="1820" 
d="M185 0h365l360 355h540l360 375v1450h-360l-180 -170h-525v160h-365v-15h310l-149 -165h729l180 170h330l-330 -330l-540 -20h-10l-360 -350h-320l339 350l-519 20l320 330v10l-350 -350v-1465h175v-355zM210 1430h330v-1410h-330v1410zM570 1450l330 330v-1400
l-330 -330v1400zM30 1800h80h80q12 0 37 -1t56.5 -2t66.5 -2t66.5 -2t56.5 -1.5t37 -1.5l-325 -330v-1080h-155v1420zM930 1790q52 2 115 4t129 3.5t132 2.5t124 1v-1421h-500v1410zM1460 1810l330 330v-1410l-330 -330v1410zM720 2150v-140h-140z" />
    <glyph glyph-name="Z" unicode="Z" 
d="M10 0h1470l245 240v115h95l360 365v1450h-1440l-135 -130v-85h-95l-500 -515v-1440zM30 1430h1410v-1410h-1410v1410zM1470 1440l230 230v-1420l-230 -230v1420zM1725 1715h-975v75h1050v-1410h-75v1335zM1830 1800l330 330v-1410l-330 -330v1410zM520 1935h1070l100 105
v15h-1040l90 95h1410l-330 -335h-1080q-2 0 -9.5 -6t-10.5 -9q-6 -6 -20 -20.5t-30 -31.5t-30 -32t-20 -21h1070l-230 -235h-1410zM720 1780v-60h-60zM630 2030h1030l-70 -70h-960v70z" />
    <glyph glyph-name="a" unicode="a" 
d="M10 0h550l345 340v-340h555l265 260v195h195l260 265v1450h-1440l-730 -730v-1440v0zM30 1430h1410v-1410h-525v520h-360v-520h-525v1410v0zM1470 1440l690 690v-1410l-255 -250v520l-190 -180v-540l-245 -240v1410v0zM570 530h330v-160l-330 -330v490v0zM1730 810
l160 160v-500h-160v340v0zM550 720h360v180h-360v-180v0zM730 890h170v-160h-330l160 160v0zM560 890h150l-150 -150v150v0zM1710 1160v-190l190 190v190l-190 -190v0zM1720 1160h160l-160 -160v160v0zM1890 1330v-150h-150l150 150v0zM740 2150h1410l-690 -690h-1410
l690 690v0z" />
    <glyph glyph-name="b" unicode="b" 
d="M10 0h1080l1090 1090v365h-160l160 175v540h-1460l-710 -710v-1460zM30 1430h1410v-510l-170 -180l-0.5 -1.5t-0.5 -3.5q0 -1 0.5 -3l0.5 -2q2 -3 5.5 -9t4.5 -6h160v-335l-360 -360h-1050v1410zM550 360h360l180 180v10h-540v-190zM730 530h320l-150 -150h-320zM570 530
h120l-120 -120v120zM1470 730l690 690v-320l-690 -690v320zM1990 1430h140l-690 -690h-140zM550 900h360l180 180v10h-540v-190zM730 1070h320l-150 -150h-320zM570 1070h120l-120 -120v120zM1470 1450l690 690v-500l-690 -690v500zM730 2150h1400l-690 -690h-1400z" />
    <glyph glyph-name="c" unicode="c" 
d="M10 0h1450l720 720v1450h-1440l-730 -730v-1440v0zM30 1430h1410v-325h-1060v-770h1060v-315h-1410v1410v0zM1470 350l530 540v760l-530 -520v310l690 690v-1410l-690 -690v320v0zM930 880h1040l-530 -530h-1040l530 530v0zM390 1090h520v-210l-520 -520v730v0zM930 1095
h530l530 525v-720h-1060v195v0zM740 2150h1410l-690 -690h-1410l690 690v0z" />
    <glyph glyph-name="d" unicode="d" 
d="M10 0h1090l1080 1080v730l-360 360h-1080l-730 -730v-350l900 5h-880v335h1070l710 720l345 -345l-715 -715v-730l-340 -340h-1070v335h880l190 185v370h-530l-15 160v-170l-545 -540v-360zM560 890h530v-340l-180 -180h-870zM1470 1100l690 690v-710l-690 -690v710z
M1080 930q-8 0 -8 -10t8 -10t8 10t-8 10zM1070 940q-8 0 -8 -10t8 -10t8 10t-8 10zM1060 950q-8 0 -8 -10t8 -10t8 10t-8 10zM1050 960q-8 0 -8 -10t8 -10t8 10t-8 10zM1040 970q-8 0 -8 -10t8 -10t8 10t-8 10zM1030 980q-8 0 -8 -10t8 -10t8 10t-8 10zM1020 990
q-8 0 -8 -10t8 -10t8 10t-8 10zM1010 1000q-8 0 -8 -10t8 -10t8 10t-8 10zM1000 1010q-8 0 -8 -10t8 -10t8 10t-8 10zM990 1020q-8 0 -8 -10t8 -10t8 10t-8 10zM980 1030q-8 0 -8 -10t8 -10t8 10t-8 10zM970 1040q-8 0 -8 -10t8 -10t8 10t-8 10zM960 1050q-8 0 -8 -10t8 -10
t8 10t-8 10zM950 1060q-8 0 -8 -10t8 -10t8 10t-8 10zM940 1070q-8 0 -8 -10t8 -10t8 10t-8 10zM930 1080q-8 0 -8 -10t8 -10t8 10t-8 10zM920 1090q-8 0 -8 -10t8 -10t8 10t-8 10zM1430 1110q-8 0 -8 -10t8 -10t8 10t-8 10zM1420 1120q-8 0 -8 -10t8 -10t8 10t-8 10z
M1410 1130q-8 0 -8 -10t8 -10t8 10t-8 10zM1400 1140q-8 0 -8 -10t8 -10t8 10t-8 10zM1390 1150q-8 0 -8 -10t8 -10t8 10t-8 10zM1380 1160q-8 0 -8 -10t8 -10t8 10t-8 10zM1370 1170q-8 0 -8 -10t8 -10t8 10t-8 10zM1360 1180q-8 0 -8 -10t8 -10t8 10t-8 10zM1350 1190
q-8 0 -8 -10t8 -10t8 10t-8 10zM1340 1200q-8 0 -8 -10t8 -10t8 10t-8 10zM1330 1210q-8 0 -8 -10t8 -10t8 10t-8 10zM1320 1220q-8 0 -8 -10t8 -10t8 10t-8 10zM1310 1230q-8 0 -8 -10t8 -10t8 10t-8 10zM1300 1240q-8 0 -8 -10t8 -10t8 10t-8 10zM1290 1250q-8 0 -8 -10
t8 -10t8 10t-8 10zM1280 1260q-8 0 -8 -10t8 -10t8 10t-8 10zM1270 1270q-8 0 -8 -10t8 -10t8 10t-8 10zM1260 1280q-8 0 -8 -10t8 -10t8 10t-8 10zM1250 1290q-8 0 -8 -10t8 -10t8 10t-8 10zM1240 1300q-8 0 -8 -10t8 -10t8 10t-8 10zM1230 1310q-8 0 -8 -10t8 -10t8 10
t-8 10zM1220 1320q-8 0 -8 -10t8 -10t8 10t-8 10zM1210 1330q-8 0 -8 -10t8 -10t8 10t-8 10zM1200 1340q-8 0 -8 -10t8 -10t8 10t-8 10zM1190 1350q-8 0 -8 -10t8 -10t8 10t-8 10zM1180 1360q-8 0 -8 -10t8 -10t8 10t-8 10zM1170 1370q-8 0 -8 -10t8 -10t8 10t-8 10z
M1160 1380q-8 0 -8 -10t8 -10t8 10t-8 10zM1150 1390q-8 0 -8 -10t8 -10t8 10t-8 10zM1140 1400q-8 0 -8 -10t8 -10t8 10t-8 10zM1130 1410q-8 0 -8 -10t8 -10t8 10t-8 10zM1120 1420q-8 0 -8 -10t8 -10t8 10t-8 10zM1110 1430q-8 0 -8 -10t8 -10t8 10t-8 10zM740 2150h1050
l-690 -690h-1050z" />
    <glyph glyph-name="e" unicode="e" 
d="M10 0h1450l720 720v365h-180l180 185v355h-170l170 185v360h-1440l-730 -730v-365h160l-160 -175v-365h160l-160 -175v-360v0zM30 350h1410v-330h-1410v330v0zM1470 370l690 690v-340l-690 -690v340v0zM200 535h1250l530 535h160l-690 -700h-1410l160 165v0zM30 890h1410
v-340h-1410v340v0zM1470 910l690 690v-330l-690 -690v330v0zM190 1075h1260l540 535h160l-700 -700h-1420l160 165v0zM30 1430h1410v-340h-1410v340v0zM1470 1440l690 690v-320l-690 -690v320v0zM740 2150h1410l-690 -690h-1410l690 690v0z" />
    <glyph glyph-name="f" unicode="f" 
d="M10 0h370l520 525h1090l190 195v1450h-1440l-730 -730v-1440v0zM30 1430h1410v-335h-1070v-190h1080v-340h-1060l-15 -15v-530h-345v1410v0zM390 550h520l-520 -520v520v0zM930 555h530l510 505v-520h-1050l10 15v0zM1985 1070h-15l-500 -490v330l510 510v200l-510 -500
v320l690 690v-1410l-175 -170v520v0zM550 1085h910l340 335h150l-500 -500h-1060l160 165v0zM380 1080h150l-150 -150v150v0zM1970 1590v-150h-150l150 150v0zM740 2150h1410l-690 -690h-1410l690 690v0z" />
    <glyph glyph-name="g" unicode="g" 
d="M10 1440v-1440h1090l1080 1080v355h-160l160 165v570h-1440l-730 -730v0zM30 1430h1410v-530h-335v190h-725v-750l540 10l170 175h-160v185h510v-340l-350 -350h-1060v1410v0zM1090 1050v-150l-170 -180v-205h150l-150 -155h-520l690 690v0zM390 1080h700v-10l-700 -700
v710v0zM1470 720l690 690v-330l-690 -690v330v0zM1100 885h355l545 535h150l-690 -690h-510l150 155v0zM1470 1440l690 690v-520l-690 -690v520v0zM740 2150h1410l-690 -690h-1410l690 690v0z" />
    <glyph glyph-name="h" unicode="h" 
d="M10 0h540l355 340v-340h555l255 250v195h195l270 275v1450h-540l-285 -290v-180h-70v470h-545l-285 -280v-195h-195l-250 -255v-1440v0zM30 1430h505v-540h380v540h525v-1410h-525v540l-15 -200l-340 -330v535h340l-355 5v-550h-515v1410v0zM1470 1440l225 220v-520
l200 190v540l265 260v-1410l-255 -250v500h-15l-185 -180v-530l-235 -230v1410v0zM1720 790l170 170v-500h-170v330v0zM790 1120h110v-220h-330l220 220v0zM550 1440l230 230v-530l-230 -230v530v0zM900 1230v-90h-90l90 90v0zM795 1695h-325v175h520v-340l-85 -90v-190
l-110 -100v545v0zM1705 1695h-335v165h510v-530l-175 -170v535v0zM270 1680h490l-220 -220h-490l220 220v0zM1160 1680h520l-220 -220h-520l220 220v0zM1010 1880l260 270v-455h-110l-150 -145v330v0zM1640 2150h510l-270 -270h-510l270 270v0zM740 2150h510l-260 -260h-510
l260 260v0z" />
    <glyph glyph-name="i" unicode="i" 
d="M10 0h1440l730 730v905h-160l160 175v360h-1460l-710 -710v-385h140l-140 -155v-920v0zM30 890h1410v-870h-1410v870v0zM1470 910l690 690v-860l-690 -690v860v0zM190 1075h1260l540 535h140l-690 -690h-1400l150 155v0zM30 1430h1410v-330h-1410v330v0zM1470 1450
l690 690v-320l-690 -690v320v0zM730 2150h1400l-690 -690h-1400l690 690v0z" />
    <glyph glyph-name="j" unicode="j" 
d="M370 0h720l1090 1090v1080h-1460l-355 -350v-720l-355 -360v-380l360 -360v0zM30 370v340h515v-170l185 -180l195 190v890h515v-1060l-360 -360h-700l-350 350v0zM570 550l330 330v-320l-170 -170l-160 160v0zM1470 1450l690 690v-1040l-690 -690v1040v0zM570 730
l330 330v-140l-330 -330v140v0zM370 1070h500l-330 -330h-500l330 330v0zM390 1790h840l-325 -330v-360h-515v690v0zM1270 1800v15h-870l330 335h1400l-680 -680h-500l320 330v0z" />
    <glyph glyph-name="k" unicode="k" 
d="M10 0h550l170 170h175v-170h545l730 730v1440h-1460l-710 -710v-1460v0zM30 1430h515v-170h380v170h515v-615h-530v-180h530v-615h-515v170h-380v-170h-515v1410v0zM570 170h120l-120 -120v120v0zM1470 640l530 540v160h-30l-500 -490v600l690 690v-1400l-690 -690v590v0
zM1080 795h370l530 525v-130l-530 -530h-500l130 135v0zM930 790h110l-110 -110v110v0zM1000 1700h140l-235 -240v-180h-325l420 420v0zM570 1450l420 420v-140l-420 -420v140v0zM730 2150h1400l-690 -690h-500l430 440h-380l-450 -440h-500l690 690v0zM1020 1880h300
l-150 -150h-150v150v0z" />
    <glyph glyph-name="l" unicode="l" 
d="M10 0h1440l730 730v1440h-1460l-710 -710v-1460zM30 1430h515v-880l15 -15h880v-515h-1410v1410zM1470 550l420 420l25 10v930l245 240v-1410l-690 -690v500zM1000 980l850 -10l-410 -410h-860zM570 1450l420 420v-860l-420 -420v860zM1020 1890h870v-890h-870v890z
M730 2150h1390l-230 -230l-880 -10h-10l-460 -450h-500z" />
    <glyph glyph-name="m" unicode="m" 
d="M10 0h360l175 160v-160h365l175 160v-160h365l185 180v75h75l195 205v75h85l190 195v1440h-1460l-710 -710v-1460zM30 1430h1410v-1410h-335v710h-200v-710h-340v710h-200v-710h-335v1410zM390 710h150v-510l-150 -150v660zM930 710h150v-510l-150 -150v660zM1470 1450
l690 690v-1400l-155 -150v680h-15l-10.5 -10.5t-25 -24.5t-29.5 -29.5t-25 -25.5q-3 -4 -9 -11.5t-6 -8.5v-690l-160 -150v680h-15l-9.5 -9t-22.5 -22t-26 -26.5t-22 -22.5q-3 -4 -9 -11.5t-6 -8.5v-710l-145 -140v1400zM1640 900l60 60v-680h-60v620zM1910 1160l70 70v-670
h-70v600zM730 2150h1400l-690 -690h-1400z" />
    <glyph glyph-name="n" unicode="n" 
d="M10 0h450l165 160v-160h825l730 730v1440h-1460l-710 -710v-1460v0zM30 1430h785v-1070h200v1070h425v-1410h-795v1070h-200v-1070h-415v1410v0zM470 1070h150v-890h-10l-140 -130v1020v0zM1470 1450l690 690v-1400l-690 -690v1400v0zM990 500v-120h-120l120 120v0z
M840 1440l500 500h130l-475 -480v-940h-15l-140 -130v1050v0zM730 2150h1400l-690 -690h-410l490 500h-190l-510 -500h-780l690 690v0z" />
    <glyph glyph-name="o" unicode="o" 
d="M10 0h1440l730 730v1440h-1460l-710 -710v-1460v0zM30 1430h1410v-1410h-1410v1410v0zM1470 1450l690 690v-1400l-690 -690v1400v0zM460 440h540v570h-540v-570v0zM980 930v-470h-470l470 470v0zM480 990h500v-20l-500 -500v520v0zM1720 1280v-550h10l270 270v520l-20 20
l-260 -260v0zM1740 980h210l-210 -210v210v0zM1740 1270l240 240v-500h-240v260v0zM730 2150h1400l-690 -690h-1400l690 690v0z" />
    <glyph glyph-name="p" unicode="p" 
d="M10 0h540l360 355h180l1090 1095v360l-360 360h-1100l-710 -710v-1460v0zM30 1430h1060l350 -350v-340l-360 -365h-520l-15 -15v-340h-515v1410v0zM570 350h300l-300 -300v300v0zM550 720h360l180 180v20l-170 170h-370v-370v0zM910 1070l160 -160l-170 -170h-320
l330 330v0zM570 1070h300l-300 -300v300v0zM1470 1090l690 690v-320l-690 -690v320v0zM1110 1450l700 700l340 -340l-700 -700l-340 340v0zM730 2150h1040l-690 -690h-1040l690 690v0z" />
    <glyph glyph-name="q" unicode="q" 
d="M10 0h1440l730 730v1440h-1460l-710 -710v-1460zM30 1430h1410v-1410h-1410v1410zM1470 1450l690 690v-1400l-690 -690v1400zM370 360h540v20l-140 155h330v555h-730v-730zM1080 1060v-140l-360 -370l160 -170h-480zM390 1070h660l-660 -660v660zM1080 880v-320h-320z
M1805 880v-150h15l180 180v710h-20l-260 -260l-10 -540v-10h20zM1830 890h120l-120 -120v120zM1740 890h30l-30 -30v30zM1740 1350l240 240v-670h-240v430zM730 2150h1400l-690 -690h-1400z" />
    <glyph glyph-name="r" unicode="r" 
d="M10 0h540l355 340v-340h545l375 370v165h165l190 195v360l-260 270l260 270v360l-180 180h-1280l-710 -710v-1460v0zM30 1430h1240l170 -170v-340l-179 -190l179 -190v-520h-515v345l-185 185h-195v-530h-515v1410v0zM570 530h160l160 -160l-320 -320v480v0zM1470 550
l330 330v-500l-330 -330v500v0zM1825 904l-175 186l70 70l260 -260v-340h-155v344v0zM1290 730l340 340l160 -160l-340 -340l-160 160v0zM2010 910l150 150v-320l-150 -150v320v0zM550 900h360l180 180v10h-540v-190v0zM730 1070h320l-150 -150h-320l150 150v0zM1740 1180
l160 160l250 -250l-160 -160l-250 250v0zM570 1070h120l-120 -120v120v0zM1470 1270l690 690v-320l-690 -690v320v0zM1290 1450l700 700l160 -160l-700 -700l-160 160v0zM730 2150h1220l-690 -690h-1220l690 690v0z" />
    <glyph glyph-name="s" unicode="s" 
d="M10 0h1440l730 730v365h-160l160 175v900h-1460l-710 -710v-925h140l-140 -155v-380v0zM30 355h1070v200h-1070v875h1410v-335h-1070v-200h1070v-875h-1410v335v0zM1470 910l530 540v170l-20 10l-510 -500v320l690 690v-860l-530 -540v-200l530 520v-320l-690 -690v860v0
zM190 530h890v-150h-1040l150 150v0zM1650 730l340 340h140l-480 -480v140v0zM550 1075h900l530 525v-140l-540 -540h-1040l150 155v0zM390 1070h120l-120 -120v120v0zM730 2150h1400l-690 -690h-1400l690 690v0z" />
    <glyph glyph-name="t" unicode="t" 
d="M545 0h365l360 355h360l285 275v730l265 270v540h-1460l-710 -710v-565h535v-895v0zM565 915h-535v515h1410v-515h-535v-895h-340v895v0zM930 890h330v-510l-330 -330v840v0zM1290 895h160l170 165v-680h-330v515v0zM1645 1040l-15 60l-160 -150v500l690 690v-500
l-270 -280v-710l-245 -240v630v0zM730 2150h1400l-690 -690h-1400l690 690v0z" />
    <glyph glyph-name="u" unicode="u" 
d="M10 0h1440l730 730v1440h-1460l-710 -710v-1460v0zM30 1430h515v-1070h380v1070h515v-1410h-1410v1410v0zM1470 1450l245 240v-1040h15l175 160v1080l255 250v-1400l-690 -690v1400v0zM900 700v-320h-320l320 320v0zM570 1450l420 420v-320l-85 -90v-720l-335 -330v1040
v0zM1735 1710h-575l-140 -130v300h860v-1050l-145 -140v1020v0zM730 2150h1400l-240 -240h-890l-460 -450h-500l690 690v0zM1180 1700l490 -10l-230 -230h-500l240 240v0z" />
    <glyph glyph-name="v" unicode="v" 
d="M550 0h360l1270 1270v900h-560l-335 -320v320h-565l-710 -710v-920l540 -540v0zM30 550v880h515v-1070h380v1070h515v-870l-540 -540h-340l-530 530v0zM900 700v-320h-320l320 320v0zM570 1450l690 690v-320l-355 -360v-720l-335 -330v1040v0zM1470 1450l690 690v-860
l-690 -690v860v0zM730 2150h500l-690 -690h-500l690 690v0zM1630 2150h500l-690 -690h-500l690 690v0z" />
    <glyph glyph-name="w" unicode="w" 
d="M370 0h720l1090 1090v1080h-1460l-710 -710v-1100zM30 370v1060h335v-890l175 -170h25v880h340v-880h15l185 180v880h335v-1050l-360 -360h-700zM390 550v900l510 510v-26q0 -18 0.5 -38.5t0.5 -39.5v-26v-33t-0.5 -42t-0.5 -37v-18q0 -27 -1.5 -67t-3 -77.5t-3 -64
t-2.5 -26.5h-160l-185 -185v-880zM930 1270l150 150v-860l-150 -150v860zM1470 1450l690 690v-1040l-690 -690v1040zM740 1440h320l-160 -160h-320zM730 2150h1400l-690 -690h-320l520 530h-740l-540 -530h-320zM930 1970h510v-160l-350 -340h-172q0 125 3 250t9 250z
M1470 1970h120l-120 -120v120z" />
    <glyph glyph-name="x" unicode="x" 
d="M10 0h360l540 530l175 -170v-360h365l730 730v539l-170 181l170 180v540h-380l-530 -520l-165 160v360h-385l-710 -710v-560l160 -170l-160 -170v-560v0zM30 550l169 180l-169 180v520h335v-350l185 -180h360l195 190v340h335v-510l-179 -190l179 -190v-520h-335v345
l-185 185h-380l-175 -170v-360h-335v530v0zM390 370l160 160h320l-480 -480v320v0zM1470 550l690 690v-500l-690 -690v500v0zM1290 730l700 700l160 -160l-700 -700l-160 160v0zM1080 1420v-320l-180 -180h-320l500 500v0zM390 1090l700 700l160 -160l-700 -700l-160 160v0z
M1470 1450l690 690v-500l-690 -690v500v0zM390 1450l690 690v-320l-690 -690v320v0zM730 2150h320l-690 -690h-320l690 690v0zM1810 2150h320l-690 -690h-320l690 690v0z" />
    <glyph glyph-name="y" unicode="y" 
d="M545 0h365l735 730v720l535 540v180h-380l-350 -340l-350 340h-380l-710 -710v-200l365 -365h170v-895v0zM565 900l-15 15h-170l-350 355v160h340l360 -350l360 350h350v-150l-360 -365h-160l-15 -15v-880h-340v880v0zM930 895h160l530 525v-680l-690 -690v845v0z
M390 1450l700 700l340 -340l-700 -700l-340 340v0zM1470 1450l690 690v-140l-690 -690v140v0zM730 2150h320l-690 -690h-320l690 690v0zM1810 2150h320l-690 -690h-320l690 690v0z" />
    <glyph glyph-name="z" unicode="z" 
d="M10 0h1440l730 730v365h-700l700 715v360h-1460l-710 -710v-385h680l-680 -695v-380zM30 370l700 710v15h-700v335h1410v-330l-710 -720l-0.5 -1.5t-0.5 -3.5q0 -1 0.5 -3l0.5 -2q2 -4 5.5 -9.5t4.5 -5.5h700v-335h-1410v350zM1470 370l690 690v-320l-690 -690v320z
M1450 1070h680l-690 -690h-680zM1470 1450l690 690v-320l-690 -690v320zM730 2150h1400l-690 -690h-1400z" />
    <glyph glyph-name=".null" unicode="&#xe000;" horiz-adv-x="0" 
 />
    <glyph glyph-name="nonmarkingreturn" unicode="&#xe001;" horiz-adv-x="500" 
 />
  </font>
</defs>
</svg>
