<?xml version="1.0" standalone="no"?>
<!DOCTYPE svg PUBLIC "-//W3C//DTD SVG 1.1//EN" "http://www.w3.org/Graphics/SVG/1.1/DTD/svg11.dtd" >
<svg xmlns="http://www.w3.org/2000/svg" xmlns:xlink="http://www.w3.org/1999/xlink" version="1.1">
<metadata>
Created by FontForge 20170924 at Sat Jun 15 01:20:39 2002
 By www-data
copyright (c) 2002 inge jrgensen &#60;inge@hipercom.no&#62;, free for non-commercial use.
</metadata>
<defs>
<font id="Elektr025" horiz-adv-x="700" >
  <font-face 
    font-family="elektr_02_5"
    font-weight="400"
    font-stretch="normal"
    units-per-em="1000"
    panose-1="0 0 4 0 0 0 0 0 0 0"
    ascent="800"
    descent="-200"
    x-height="500"
    cap-height="500"
    bbox="-100 -100 700 800"
    underline-thickness="20"
    underline-position="-210"
    unicode-range="U+0020-FB02"
  />
<missing-glyph horiz-adv-x="500" 
d="M63 0v800h375v-800h-375zM125 63h250v675h-250v-675z" />
    <glyph glyph-name=".notdef" horiz-adv-x="500" 
d="M63 0v800h375v-800h-375zM125 63h250v675h-250v-675z" />
    <glyph glyph-name=".null" horiz-adv-x="0" 
 />
    <glyph glyph-name="nonmarkingreturn" horiz-adv-x="300" 
 />
    <glyph glyph-name="space" unicode=" " horiz-adv-x="300" 
 />
    <glyph glyph-name="exclam" unicode="!" horiz-adv-x="200" 
d="M100 190h-100v310h100v-310zM100 0h-100v100h100v-100z" />
    <glyph glyph-name="quotedbl" unicode="&#x22;" horiz-adv-x="400" 
d="M300 300h-100v200h100v-200zM100 300h-100v200h100v-200z" />
    <glyph glyph-name="numbersign" unicode="#" horiz-adv-x="600" 
d="M500 100h-100v-100h-100v100h-100v-100h-100v100h-100v100h100v100h-100v100h100v100h100v-100h100v100h100v-100h100v-100h-100v-100h100v-100zM300 200v100h-100v-100h100z" />
    <glyph glyph-name="dollar" unicode="$" horiz-adv-x="600" 
d="M500 100h-100v-100h-100v-100h-100v100h-100v100h100v100h-100v100h-100v100h100v100h100v100h100v-100h100v-100h-100v-100h100v-100h100v-100zM200 300v100h-100v-100h100zM400 100v100h-100v-100h100z" />
    <glyph glyph-name="percent" unicode="%" horiz-adv-x="600" 
d="M100 400h-100v100h100v-100zM500 400h-100v-100h-100v-100h-100v-100h-100v-100h-100v100h100v100h100v100h100v100h100v100h100v-100zM500 0h-100v100h100v-100z" />
    <glyph glyph-name="ampersand" unicode="&#x26;" horiz-adv-x="500" 
d="M400 0h-100v-100h-100v100h-100v100h-100v100h100v100h-100v100h100v100h100v100h100v-100h100v-100h-300v-100h300v-100h-300v-100h300v-100z" />
    <glyph glyph-name="quotesingle" unicode="'" horiz-adv-x="200" 
d="M100 300h-100v200h100v-200z" />
    <glyph glyph-name="parenleft" unicode="(" horiz-adv-x="300" 
d="M200 500h-100v-500h100v-100h-100v100h-100v500h100v100h100v-100z" />
    <glyph glyph-name="parenright" unicode=")" horiz-adv-x="300" 
d="M0 500h100v-500h-100v-100h100v100h100v500h-100v100h-100v-100z" />
    <glyph glyph-name="asterisk" unicode="*" horiz-adv-x="600" 
d="M500 0h-100v100h-100v-100h-100v100h-100v-100h-100v100h100v100h-100v100h100v100h-100v100h100v-100h100v100h100v-100h100v100h100v-100h-100v-100h100v-100h-100v-100h100v-100zM300 200v100h-100v-100h100z" />
    <glyph glyph-name="plus" unicode="+" horiz-adv-x="400" 
d="M300 200h-100v-100h-100v100h-100v100h100v100h100v-100h100v-100z" />
    <glyph glyph-name="comma" unicode="," horiz-adv-x="200" 
d="M100 -100h-100v200h100v-200z" />
    <glyph glyph-name="hyphen" unicode="-" horiz-adv-x="400" 
d="M300 200h-300v100h300v-100z" />
    <glyph glyph-name="hyphen" unicode="&#x2010;" horiz-adv-x="400" 
d="M300 200h-300v100h300v-100z" />
    <glyph glyph-name="period" unicode="." horiz-adv-x="200" 
d="M100 0h-100v100h100v-100z" />
    <glyph glyph-name="slash" unicode="/" horiz-adv-x="600" 
d="M500 400h-100v-100h-100v-100h-100v-100h-100v-100h-100v100h100v100h100v100h100v100h100v100h100v-100z" />
    <glyph glyph-name="zero" unicode="0" horiz-adv-x="600" 
d="M500 100h-100v-100h-300v100h-100v300h100v100h300v-100h100v-300zM400 100v300h-300v-300h300z" />
    <glyph glyph-name="one" unicode="1" horiz-adv-x="400" 
d="M300 0h-310v100h110v300h-110v100h210v-400h100v-100z" />
    <glyph glyph-name="two" unicode="2" horiz-adv-x="600" 
d="M500 0h-500v200h100v100h300v100h-400v100h400v-100h100v-100h-100v-100h-300v-100h400v-100z" />
    <glyph glyph-name="three" unicode="3" horiz-adv-x="600" 
d="M500 100h-100v-100h-400v100h400v100h-400v100h400v100h-400v100h400v-100h100v-100h-100v-100h100v-100z" />
    <glyph glyph-name="four" unicode="4" horiz-adv-x="600" 
d="M500 0h-100v200h-400v300h100v-200h300v200h100v-500z" />
    <glyph glyph-name="five" unicode="5" horiz-adv-x="600" 
d="M0 0h400v100h100v100h-100v100h-300v100h400v100h-500v-200h100v-100h300v-100h-400v-100z" />
    <glyph glyph-name="six" unicode="6" horiz-adv-x="600" 
d="M500 100h-100v-100h-300v100h-100v300h100v100h400v-100h-400v-100h300v-100h100v-100zM400 100v100h-300v-100h300z" />
    <glyph glyph-name="seven" unicode="7" horiz-adv-x="600" 
d="M490 300h-100v-100h-100v-200h-100v200h100v100h100v100h-390v100h490v-200z" />
    <glyph glyph-name="eight" unicode="8" horiz-adv-x="600" 
d="M500 100h-100v-100h-300v100h-100v100h100v100h-100v100h100v100h300v-100h100v-100h-100v-100h100v-100zM400 300v100h-300v-100h300zM400 100v100h-300v-100h300z" />
    <glyph glyph-name="nine" unicode="9" horiz-adv-x="600" 
d="M0 0h400v100h100v300h-100v100h-300v-100h-100v-100h100v-100h300v-100h-400v-100zM100 400h300v-100h-300v100z" />
    <glyph glyph-name="colon" unicode=":" horiz-adv-x="200" 
d="M100 300h-100v100h100v-100zM100 100h-100v100h100v-100z" />
    <glyph glyph-name="semicolon" unicode=";" horiz-adv-x="200" 
d="M100 300h-100v100h100v-100zM0 200h100v-200h-100v200z" />
    <glyph glyph-name="less" unicode="&#x3c;" horiz-adv-x="400" 
d="M300 0h-100v100h-100v100h-100v100h100v100h100v100h100v-100h-100v-100h-100v-100h100v-100h100v-100z" />
    <glyph glyph-name="equal" unicode="=" horiz-adv-x="400" 
d="M300 300h-300v100h300v-100zM300 100h-300v100h300v-100z" />
    <glyph glyph-name="greater" unicode="&#x3e;" horiz-adv-x="400" 
d="M0 0h100v100h100v100h100v100h-100v100h-100v100h-100v-100h100v-100h100v-100h-100v-100h-100v-100z" />
    <glyph glyph-name="question" unicode="?" horiz-adv-x="500" 
d="M400 300h-100v-100h-200v100h200v100h-300v100h300v-100h100v-100zM200 0h-100v100h100v-100z" />
    <glyph glyph-name="at" unicode="@" horiz-adv-x="600" 
d="M500 200h-300v100h200v100h-300v-300h300v-100h-300v100h-100v300h100v100h300v-100h100v-200z" />
    <glyph glyph-name="A" unicode="A" horiz-adv-x="600" 
d="M500 0h-100v200h-300v-200h-100v400h100v100h300v-100h100v-400zM400 300v100h-300v-100h300z" />
    <glyph glyph-name="B" unicode="B" horiz-adv-x="600" 
d="M500 100h-100v-100h-400v500h400v-100h100v-100h-100v-100h100v-100zM400 300v100h-300v-100h300zM400 100v100h-300v-100h300z" />
    <glyph glyph-name="C" unicode="C" horiz-adv-x="600" 
d="M500 0h-400v100h-100v300h100v100h400v-100h-400v-300h400v-100z" />
    <glyph glyph-name="D" unicode="D" horiz-adv-x="600" 
d="M500 100h-100v-100h-400v500h400v-100h100v-300zM400 100v300h-300v-300h300z" />
    <glyph glyph-name="E" unicode="E" horiz-adv-x="500" 
d="M400 0h-400v500h400v-100h-300v-100h300v-100h-300v-100h300v-100z" />
    <glyph glyph-name="F" unicode="F" horiz-adv-x="500" 
d="M400 200h-300v-200h-100v500h400v-100h-300v-100h300v-100z" />
    <glyph glyph-name="G" unicode="G" horiz-adv-x="600" 
d="M500 0h-400v100h-100v300h100v100h400v-100h-400v-300h300v100h-100v100h200v-300z" />
    <glyph glyph-name="H" unicode="H" horiz-adv-x="600" 
d="M500 0h-100v200h-300v-200h-100v500h100v-200h300v200h100v-500z" />
    <glyph glyph-name="I" unicode="I" horiz-adv-x="200" 
d="M100 0h-100v500h100v-500z" />
    <glyph glyph-name="J" unicode="J" horiz-adv-x="600" 
d="M0 200h100v-100h300v400h100v-400h-100v-100h-300v100h-100v100z" />
    <glyph glyph-name="K" unicode="K" horiz-adv-x="600" 
d="M500 0h-100v100h-100v100h-200v-200h-100v500h100v-200h200v100h100v100h100v-100h-100v-100h-100v-100h100v-100h100v-100z" />
    <glyph glyph-name="L" unicode="L" horiz-adv-x="500" 
d="M400 0h-400v500h100v-400h300v-100z" />
    <glyph glyph-name="M" unicode="M" horiz-adv-x="600" 
d="M500 0h-100v300h-100v-100h-100v100h-100v-300h-100v500h100v-100h100v-100h100v100h100v100h100v-500z" />
    <glyph glyph-name="N" unicode="N" horiz-adv-x="600" 
d="M500 0h-100v100h-100v100h-100v100h-100v-300h-100v500h100v-100h100v-100h100v-100h100v300h100v-500z" />
    <glyph glyph-name="O" unicode="O" horiz-adv-x="600" 
d="M500 100h-100v-100h-300v100h-100v300h100v100h300v-100h100v-300zM400 100v300h-300v-300h300z" />
    <glyph glyph-name="P" unicode="P" horiz-adv-x="600" 
d="M500 300h-100v-100h-300v-200h-100v500h400v-100h100v-100zM400 300v100h-300v-100h300z" />
    <glyph glyph-name="Q" unicode="Q" horiz-adv-x="600" 
d="M500 100h-100v-100h-300v100h-100v300h100v100h300v-100h100v-300zM500 -100h-100v100h100v-100zM400 100v300h-300v-300h300z" />
    <glyph glyph-name="R" unicode="R" horiz-adv-x="600" 
d="M500 0h-100v200h100v-200zM500 300h-100v-100h-300v-200h-100v500h400v-100h100v-100zM400 300v100h-300v-100h300z" />
    <glyph glyph-name="S" unicode="S" horiz-adv-x="600" 
d="M500 100h-100v-100h-400v100h400v100h-300v100h-100v100h100v100h400v-100h-400v-100h300v-100h100v-100z" />
    <glyph glyph-name="T" unicode="T" horiz-adv-x="600" 
d="M490 400h-190v-400h-100v400h-190v100h480v-100z" />
    <glyph glyph-name="U" unicode="U" horiz-adv-x="600" 
d="M0 100h100v-100h300v100h100v400h-100v-400h-300v400h-100v-400z" />
    <glyph glyph-name="V" unicode="V" horiz-adv-x="600" 
d="M500 200h-100v-100h-100v-100h-100v100h-100v100h-100v300h100v-300h100v-100h100v100h100v300h100v-300z" />
    <glyph glyph-name="W" unicode="W" horiz-adv-x="600" 
d="M500 100h-100v-100h-100v100h-100v-100h-100v100h-100v400h100v-400h100v200h100v-200h100v400h100v-400z" />
    <glyph glyph-name="X" unicode="X" horiz-adv-x="600" 
d="M500 0h-100v100h-100v100h-100v-100h-100v-100h-100v100h100v100h100v100h-100v100h-100v100h100v-100h100v-100h100v100h100v100h100v-100h-100v-100h-100v-100h100v-100h100v-100z" />
    <glyph glyph-name="Y" unicode="Y" horiz-adv-x="600" 
d="M500 300h-100v-100h-100v-200h-100v200h-100v100h-100v200h100v-200h100v-100h100v100h100v200h100v-200z" />
    <glyph glyph-name="Z" unicode="Z" horiz-adv-x="600" 
d="M500 0h-500v200h100v100h300v100h-400v100h500v-200h-100v-100h-300v-100h400v-100z" />
    <glyph glyph-name="bracketleft" unicode="[" horiz-adv-x="300" 
d="M190 -100h-200v700h200v-100h-96v-500h96v-100z" />
    <glyph glyph-name="backslash" unicode="\" horiz-adv-x="600" 
d="M0 400h100v-100h100v-100h100v-100h100v-100h100v100h-100v100h-100v100h-100v100h-100v100h-100v-100z" />
    <glyph glyph-name="bracketright" unicode="]" horiz-adv-x="300" 
d="M195 -100h-195v100h95v500h-95v100h195v-700z" />
    <glyph glyph-name="asciicircum" unicode="^" horiz-adv-x="400" 
d="M200 500h-100v100h100v-100zM300 400h-100v100h100v-100zM100 400h-100v100h100v-100z" />
    <glyph glyph-name="underscore" unicode="_" horiz-adv-x="400" 
d="M300 0h-300v100h300v-100z" />
    <glyph glyph-name="grave" unicode="`" horiz-adv-x="300" 
d="M0 600v-100h100v100h-100zM100 400v100h100v-100h-100z" />
    <glyph glyph-name="a" unicode="a" horiz-adv-x="600" 
d="M500 0h-100v200h-300v-200h-100v400h100v100h300v-100h100v-400zM400 300v100h-300v-100h300z" />
    <glyph glyph-name="b" unicode="b" horiz-adv-x="600" 
d="M500 100h-100v-100h-400v500h400v-100h100v-100h-100v-100h100v-100zM400 300v100h-300v-100h300zM400 100v100h-300v-100h300z" />
    <glyph glyph-name="c" unicode="c" horiz-adv-x="600" 
d="M500 0h-400v100h-100v300h100v100h400v-100h-400v-300h400v-100z" />
    <glyph glyph-name="d" unicode="d" horiz-adv-x="600" 
d="M500 100h-100v-100h-400v500h400v-100h100v-300zM400 100v300h-300v-300h300z" />
    <glyph glyph-name="e" unicode="e" horiz-adv-x="500" 
d="M400 0h-400v500h400v-100h-300v-100h300v-100h-300v-100h300v-100z" />
    <glyph glyph-name="f" unicode="f" horiz-adv-x="500" 
d="M400 200h-300v-200h-100v500h400v-100h-300v-100h300v-100z" />
    <glyph glyph-name="g" unicode="g" horiz-adv-x="600" 
d="M500 0h-400v100h-100v300h100v100h400v-100h-400v-300h300v100h-100v100h200v-300z" />
    <glyph glyph-name="h" unicode="h" horiz-adv-x="600" 
d="M500 0h-100v200h-300v-200h-100v500h100v-200h300v200h100v-500z" />
    <glyph glyph-name="i" unicode="i" horiz-adv-x="200" 
d="M100 0h-100v500h100v-500z" />
    <glyph glyph-name="j" unicode="j" horiz-adv-x="600" 
d="M0 200h100v-100h300v400h100v-400h-100v-100h-300v100h-100v100z" />
    <glyph glyph-name="k" unicode="k" horiz-adv-x="600" 
d="M500 0h-100v100h-100v100h-200v-200h-100v500h100v-200h200v100h100v100h100v-100h-100v-100h-100v-100h100v-100h100v-100z" />
    <glyph glyph-name="l" unicode="l" horiz-adv-x="500" 
d="M400 0h-400v500h100v-400h300v-100z" />
    <glyph glyph-name="m" unicode="m" horiz-adv-x="600" 
d="M500 0h-100v300h-100v-100h-100v100h-100v-300h-100v500h100v-100h100v-100h100v100h100v100h100v-500z" />
    <glyph glyph-name="n" unicode="n" horiz-adv-x="600" 
d="M500 0h-100v100h-100v100h-100v100h-100v-300h-100v500h100v-100h100v-100h100v-100h100v300h100v-500z" />
    <glyph glyph-name="o" unicode="o" horiz-adv-x="600" 
d="M500 100h-100v-100h-300v100h-100v300h100v100h300v-100h100v-300zM400 100v300h-300v-300h300z" />
    <glyph glyph-name="p" unicode="p" horiz-adv-x="600" 
d="M500 300h-100v-100h-300v-200h-100v500h400v-100h100v-100zM400 300v100h-300v-100h300z" />
    <glyph glyph-name="q" unicode="q" horiz-adv-x="600" 
d="M500 100h-100v-100h-300v100h-100v300h100v100h300v-100h100v-300zM500 -100h-100v100h100v-100zM400 100v300h-300v-300h300z" />
    <glyph glyph-name="r" unicode="r" horiz-adv-x="600" 
d="M500 0h-100v200h100v-200zM500 300h-100v-100h-300v-200h-100v500h400v-100h100v-100zM400 300v100h-300v-100h300z" />
    <glyph glyph-name="s" unicode="s" horiz-adv-x="600" 
d="M500 100h-100v-100h-400v100h400v100h-300v100h-100v100h100v100h400v-100h-400v-100h300v-100h100v-100z" />
    <glyph glyph-name="t" unicode="t" horiz-adv-x="600" 
d="M490 400h-190v-400h-100v400h-190v100h480v-100z" />
    <glyph glyph-name="u" unicode="u" horiz-adv-x="600" 
d="M0 100h100v-100h300v100h100v400h-100v-400h-300v400h-100v-400z" />
    <glyph glyph-name="v" unicode="v" horiz-adv-x="600" 
d="M500 200h-100v-100h-100v-100h-100v100h-100v100h-100v300h100v-300h100v-100h100v100h100v300h100v-300z" />
    <glyph glyph-name="w" unicode="w" horiz-adv-x="600" 
d="M500 100h-100v-100h-100v100h-100v-100h-100v100h-100v400h100v-400h100v200h100v-200h100v400h100v-400z" />
    <glyph glyph-name="x" unicode="x" horiz-adv-x="600" 
d="M500 0h-100v100h-100v100h-100v-100h-100v-100h-100v100h100v100h100v100h-100v100h-100v100h100v-100h100v-100h100v100h100v100h100v-100h-100v-100h-100v-100h100v-100h100v-100z" />
    <glyph glyph-name="y" unicode="y" horiz-adv-x="600" 
d="M500 300h-100v-100h-100v-200h-100v200h-100v100h-100v200h100v-200h100v-100h100v100h100v200h100v-200z" />
    <glyph glyph-name="z" unicode="z" horiz-adv-x="600" 
d="M500 0h-500v200h100v100h300v100h-400v100h500v-200h-100v-100h-300v-100h400v-100z" />
    <glyph glyph-name="braceleft" unicode="{" horiz-adv-x="400" 
d="M300 600h-200v-300h-100v-100h100v-300h200v100h-100v200h-100v100h100v200h100v100z" />
    <glyph glyph-name="bar" unicode="|" horiz-adv-x="200" 
d="M100 -100h-100v700h100v-700zM0 -100z" />
    <glyph glyph-name="braceright" unicode="}" horiz-adv-x="400" 
d="M300 200h-100v-300h-200v100h100v200h100v100h-100v200h-100v100h200v-300h100v-100z" />
    <glyph glyph-name="asciitilde" unicode="~" horiz-adv-x="500" 
d="M400 400h-100v-100h-100v100h-100v-100h-100v100h100v100h100v-100h100v100h100v-100z" />
    <glyph glyph-name="exclamdown" unicode="&#xa1;" horiz-adv-x="200" 
d="M0 310h100v-310h-100v310zM0 500h100v-100h-100v100z" />
    <glyph glyph-name="cent" unicode="&#xa2;" 
 />
    <glyph glyph-name="sterling" unicode="&#xa3;" 
 />
    <glyph glyph-name="currency" unicode="&#xa4;" 
 />
    <glyph glyph-name="yen" unicode="&#xa5;" 
 />
    <glyph glyph-name="brokenbar" unicode="&#xa6;" 
 />
    <glyph glyph-name="section" unicode="&#xa7;" 
 />
    <glyph glyph-name="dieresis" unicode="&#xa8;" 
 />
    <glyph glyph-name="copyright" unicode="&#xa9;" 
 />
    <glyph glyph-name="ordfeminine" unicode="&#xaa;" 
 />
    <glyph glyph-name="guillemotleft" unicode="&#xab;" 
 />
    <glyph glyph-name="logicalnot" unicode="&#xac;" 
 />
    <glyph glyph-name="registered" unicode="&#xae;" 
 />
    <glyph glyph-name="overscore" unicode="&#xaf;" 
 />
    <glyph glyph-name="degree" unicode="&#xb0;" horiz-adv-x="400" 
d="M300 400h-100v-100h-100v100h-100v100h100v100h100v-100h100v-100zM200 400v100h-100v-100h100z" />
    <glyph glyph-name="plusminus" unicode="&#xb1;" 
 />
    <glyph glyph-name="twosuperior" unicode="&#xb2;" 
 />
    <glyph glyph-name="threesuperior" unicode="&#xb3;" 
 />
    <glyph glyph-name="acute" unicode="&#xb4;" horiz-adv-x="100" 
d="M0 300h-100v200h100v-200z" />
    <glyph glyph-name="mu1" unicode="&#xb5;" 
 />
    <glyph glyph-name="paragraph" unicode="&#xb6;" 
 />
    <glyph glyph-name="middot" unicode="&#xb7;" 
 />
    <glyph glyph-name="cedilla" unicode="&#xb8;" 
 />
    <glyph glyph-name="onesuperior" unicode="&#xb9;" 
 />
    <glyph glyph-name="ordmasculine" unicode="&#xba;" 
 />
    <glyph glyph-name="guillemotright" unicode="&#xbb;" 
 />
    <glyph glyph-name="onequarter" unicode="&#xbc;" 
 />
    <glyph glyph-name="onehalf" unicode="&#xbd;" 
 />
    <glyph glyph-name="threequarters" unicode="&#xbe;" 
 />
    <glyph glyph-name="questiondown" unicode="&#xbf;" horiz-adv-x="500" 
d="M0 200h100v100h200v-100h-200v-100h300v-100h-300v100h-100v100zM200 500h100v-100h-100v100z" />
    <glyph glyph-name="Agrave" unicode="&#xc0;" horiz-adv-x="600" 
d="M300 600h-100v100h100v-100zM500 0h-100v200h-300v-200h-100v400h100v100h300v-100h100v-400zM400 300v100h-300v-100h300z" />
    <glyph glyph-name="Aacute" unicode="&#xc1;" horiz-adv-x="600" 
d="M300 600h-100v100h100v-100zM500 0h-100v200h-300v-200h-100v400h100v100h300v-100h100v-400zM400 300v100h-300v-100h300z" />
    <glyph glyph-name="Acircumflex" unicode="&#xc2;" horiz-adv-x="600" 
d="M300 600h-100v100h100v-100zM500 0h-100v200h-300v-200h-100v400h100v100h300v-100h100v-400zM400 300v100h-300v-100h300z" />
    <glyph glyph-name="Atilde" unicode="&#xc3;" 
 />
    <glyph glyph-name="Adieresis" unicode="&#xc4;" horiz-adv-x="600" 
d="M400 600h-100v100h100v-100zM200 600h-100v100h100v-100zM500 0h-100v200h-300v-200h-100v400h100v100h300v-100h100v-400zM400 300v100h-300v-100h300z" />
    <glyph glyph-name="Aring" unicode="&#xc5;" horiz-adv-x="600" 
d="M300 600h-100v100h100v-100zM500 0h-100v200h-300v-200h-100v400h100v100h300v-100h100v-400zM400 300v100h-300v-100h300z" />
    <glyph glyph-name="AE" unicode="&#xc6;" horiz-adv-x="800" 
d="M700 0h-400v200h-200v-200h-100v400h100v100h600v-100h-300v-100h300v-100h-300v-100h300v-100zM300 300v100h-200v-100h200z" />
    <glyph glyph-name="Ccedilla" unicode="&#xc7;" 
 />
    <glyph glyph-name="Egrave" unicode="&#xc8;" 
 />
    <glyph glyph-name="Eacute" unicode="&#xc9;" 
 />
    <glyph glyph-name="Ecircumflex" unicode="&#xca;" 
 />
    <glyph glyph-name="Edieresis" unicode="&#xcb;" 
 />
    <glyph glyph-name="Igrave" unicode="&#xcc;" 
 />
    <glyph glyph-name="Iacute" unicode="&#xcd;" 
 />
    <glyph glyph-name="Icircumflex" unicode="&#xce;" 
 />
    <glyph glyph-name="Idieresis" unicode="&#xcf;" 
 />
    <glyph glyph-name="Eth" unicode="&#xd0;" 
 />
    <glyph glyph-name="Ntilde" unicode="&#xd1;" 
 />
    <glyph glyph-name="Ograve" unicode="&#xd2;" 
 />
    <glyph glyph-name="Oacute" unicode="&#xd3;" 
 />
    <glyph glyph-name="Ocircumflex" unicode="&#xd4;" 
 />
    <glyph glyph-name="Otilde" unicode="&#xd5;" 
 />
    <glyph glyph-name="Odieresis" unicode="&#xd6;" 
 />
    <glyph glyph-name="multiply" unicode="&#xd7;" horiz-adv-x="400" 
d="M300 100h-100v100h-100v-100h-100v100h100v100h-100v100h100v-100h100v100h100v-100h-100v-100h100v-100z" />
    <glyph glyph-name="Oslash" unicode="&#xd8;" horiz-adv-x="600" 
d="M500 100h-100v-100h-300v100h-100v300h100v100h300v-100h100v-300zM300 300v100h-200v-200h100v100h100zM400 100v200h-100v-100h-100v-100h200z" />
    <glyph glyph-name="Ugrave" unicode="&#xd9;" 
 />
    <glyph glyph-name="Uacute" unicode="&#xda;" 
 />
    <glyph glyph-name="Ucircumflex" unicode="&#xdb;" 
 />
    <glyph glyph-name="Udieresis" unicode="&#xdc;" 
 />
    <glyph glyph-name="Yacute" unicode="&#xdd;" 
 />
    <glyph glyph-name="Thorn" unicode="&#xde;" 
 />
    <glyph glyph-name="germandbls" unicode="&#xdf;" 
 />
    <glyph glyph-name="agrave" unicode="&#xe0;" horiz-adv-x="600" 
d="M300 600h-100v100h100v-100zM500 0h-100v200h-300v-200h-100v400h100v100h300v-100h100v-400zM400 300v100h-300v-100h300z" />
    <glyph glyph-name="aacute" unicode="&#xe1;" horiz-adv-x="600" 
d="M300 600h-100v100h100v-100zM500 0h-100v200h-300v-200h-100v400h100v100h300v-100h100v-400zM400 300v100h-300v-100h300z" />
    <glyph glyph-name="acircumflex" unicode="&#xe2;" horiz-adv-x="600" 
d="M300 600h-100v100h100v-100zM500 0h-100v200h-300v-200h-100v400h100v100h300v-100h100v-400zM400 300v100h-300v-100h300z" />
    <glyph glyph-name="atilde" unicode="&#xe3;" 
 />
    <glyph glyph-name="adieresis" unicode="&#xe4;" horiz-adv-x="600" 
d="M400 600h-100v100h100v-100zM200 600h-100v100h100v-100zM500 0h-100v200h-300v-200h-100v400h100v100h300v-100h100v-400zM400 300v100h-300v-100h300z" />
    <glyph glyph-name="aring" unicode="&#xe5;" horiz-adv-x="600" 
d="M300 600h-100v100h100v-100zM500 0h-100v200h-300v-200h-100v400h100v100h300v-100h100v-400zM400 300v100h-300v-100h300z" />
    <glyph glyph-name="ae" unicode="&#xe6;" horiz-adv-x="800" 
d="M700 0h-400v200h-200v-200h-100v400h100v100h600v-100h-300v-100h300v-100h-300v-100h300v-100zM300 300v100h-200v-100h200z" />
    <glyph glyph-name="ccedilla" unicode="&#xe7;" 
 />
    <glyph glyph-name="egrave" unicode="&#xe8;" 
 />
    <glyph glyph-name="eacute" unicode="&#xe9;" 
 />
    <glyph glyph-name="ecircumflex" unicode="&#xea;" 
 />
    <glyph glyph-name="edieresis" unicode="&#xeb;" 
 />
    <glyph glyph-name="igrave" unicode="&#xec;" 
 />
    <glyph glyph-name="iacute" unicode="&#xed;" 
 />
    <glyph glyph-name="icircumflex" unicode="&#xee;" 
 />
    <glyph glyph-name="idieresis" unicode="&#xef;" 
 />
    <glyph glyph-name="eth" unicode="&#xf0;" 
 />
    <glyph glyph-name="ntilde" unicode="&#xf1;" 
 />
    <glyph glyph-name="ograve" unicode="&#xf2;" 
 />
    <glyph glyph-name="oacute" unicode="&#xf3;" 
 />
    <glyph glyph-name="ocircumflex" unicode="&#xf4;" 
 />
    <glyph glyph-name="otilde" unicode="&#xf5;" 
 />
    <glyph glyph-name="odieresis" unicode="&#xf6;" 
 />
    <glyph glyph-name="divide" unicode="&#xf7;" horiz-adv-x="600" 
d="M300 400h-100v100h100v-100zM500 200h-500v100h500v-100zM300 0h-100v100h100v-100z" />
    <glyph glyph-name="oslash" unicode="&#xf8;" horiz-adv-x="600" 
d="M500 100h-100v-100h-300v100h-100v300h100v100h300v-100h100v-300zM300 300v100h-200v-200h100v100h100zM400 100v200h-100v-100h-100v-100h200z" />
    <glyph glyph-name="ugrave" unicode="&#xf9;" 
 />
    <glyph glyph-name="uacute" unicode="&#xfa;" 
 />
    <glyph glyph-name="ucircumflex" unicode="&#xfb;" 
 />
    <glyph glyph-name="udieresis" unicode="&#xfc;" 
 />
    <glyph glyph-name="yacute" unicode="&#xfd;" 
 />
    <glyph glyph-name="thorn" unicode="&#xfe;" 
 />
    <glyph glyph-name="ydieresis" unicode="&#xff;" 
 />
    <glyph glyph-name="Amacron" unicode="&#x100;" 
 />
    <glyph glyph-name="amacron" unicode="&#x101;" 
 />
    <glyph glyph-name="Abreve" unicode="&#x102;" 
 />
    <glyph glyph-name="abreve" unicode="&#x103;" 
 />
    <glyph glyph-name="Aogonek" unicode="&#x104;" 
 />
    <glyph glyph-name="aogonek" unicode="&#x105;" 
 />
    <glyph glyph-name="Cacute" unicode="&#x106;" 
 />
    <glyph glyph-name="cacute" unicode="&#x107;" 
 />
    <glyph glyph-name="Ccircumflex" unicode="&#x108;" 
 />
    <glyph glyph-name="ccircumflex" unicode="&#x109;" 
 />
    <glyph glyph-name="Cdot" unicode="&#x10a;" 
 />
    <glyph glyph-name="cdot" unicode="&#x10b;" 
 />
    <glyph glyph-name="Ccaron" unicode="&#x10c;" 
 />
    <glyph glyph-name="ccaron" unicode="&#x10d;" 
 />
    <glyph glyph-name="Dcaron" unicode="&#x10e;" 
 />
    <glyph glyph-name="dcaron" unicode="&#x10f;" 
 />
    <glyph glyph-name="Dslash" unicode="&#x110;" 
 />
    <glyph glyph-name="dcroat" unicode="&#x111;" 
 />
    <glyph glyph-name="Emacron" unicode="&#x112;" 
 />
    <glyph glyph-name="emacron" unicode="&#x113;" 
 />
    <glyph glyph-name="Ebreve" unicode="&#x114;" 
 />
    <glyph glyph-name="ebreve" unicode="&#x115;" 
 />
    <glyph glyph-name="Edot" unicode="&#x116;" 
 />
    <glyph glyph-name="edot" unicode="&#x117;" 
 />
    <glyph glyph-name="Eogonek" unicode="&#x118;" 
 />
    <glyph glyph-name="eogonek" unicode="&#x119;" 
 />
    <glyph glyph-name="Ecaron" unicode="&#x11a;" 
 />
    <glyph glyph-name="ecaron" unicode="&#x11b;" 
 />
    <glyph glyph-name="Gcircumflex" unicode="&#x11c;" 
 />
    <glyph glyph-name="gcircumflex" unicode="&#x11d;" 
 />
    <glyph glyph-name="Gbreve" unicode="&#x11e;" 
 />
    <glyph glyph-name="gbreve" unicode="&#x11f;" 
 />
    <glyph glyph-name="Gdot" unicode="&#x120;" 
 />
    <glyph glyph-name="gdot" unicode="&#x121;" 
 />
    <glyph glyph-name="Gcedilla" unicode="&#x122;" 
 />
    <glyph glyph-name="gcedilla" unicode="&#x123;" 
 />
    <glyph glyph-name="Hcircumflex" unicode="&#x124;" 
 />
    <glyph glyph-name="hcircumflex" unicode="&#x125;" 
 />
    <glyph glyph-name="Hbar" unicode="&#x126;" 
 />
    <glyph glyph-name="hbar" unicode="&#x127;" 
 />
    <glyph glyph-name="Itilde" unicode="&#x128;" 
 />
    <glyph glyph-name="itilde" unicode="&#x129;" 
 />
    <glyph glyph-name="Imacron" unicode="&#x12a;" 
 />
    <glyph glyph-name="imacron" unicode="&#x12b;" 
 />
    <glyph glyph-name="Ibreve" unicode="&#x12c;" 
 />
    <glyph glyph-name="ibreve" unicode="&#x12d;" 
 />
    <glyph glyph-name="Iogonek" unicode="&#x12e;" 
 />
    <glyph glyph-name="iogonek" unicode="&#x12f;" 
 />
    <glyph glyph-name="Idotaccent" unicode="&#x130;" 
 />
    <glyph glyph-name="dotlessi" unicode="&#x131;" 
 />
    <glyph glyph-name="IJ" unicode="&#x132;" 
 />
    <glyph glyph-name="ij" unicode="&#x133;" 
 />
    <glyph glyph-name="Jcircumflex" unicode="&#x134;" 
 />
    <glyph glyph-name="jcircumflex" unicode="&#x135;" 
 />
    <glyph glyph-name="Kcedilla" unicode="&#x136;" 
 />
    <glyph glyph-name="kcedilla" unicode="&#x137;" 
 />
    <glyph glyph-name="kgreenlandic" unicode="&#x138;" 
 />
    <glyph glyph-name="Lacute" unicode="&#x139;" 
 />
    <glyph glyph-name="lacute" unicode="&#x13a;" 
 />
    <glyph glyph-name="Lcedilla" unicode="&#x13b;" 
 />
    <glyph glyph-name="lcedilla" unicode="&#x13c;" 
 />
    <glyph glyph-name="Lcaron" unicode="&#x13d;" 
 />
    <glyph glyph-name="lcaron" unicode="&#x13e;" 
 />
    <glyph glyph-name="Ldot" unicode="&#x13f;" 
 />
    <glyph glyph-name="ldot" unicode="&#x140;" 
 />
    <glyph glyph-name="Lslash" unicode="&#x141;" 
 />
    <glyph glyph-name="lslash" unicode="&#x142;" 
 />
    <glyph glyph-name="Nacute" unicode="&#x143;" 
 />
    <glyph glyph-name="nacute" unicode="&#x144;" 
 />
    <glyph glyph-name="Ncedilla" unicode="&#x145;" 
 />
    <glyph glyph-name="ncedilla" unicode="&#x146;" 
 />
    <glyph glyph-name="Ncaron" unicode="&#x147;" 
 />
    <glyph glyph-name="ncaron" unicode="&#x148;" 
 />
    <glyph glyph-name="napostrophe" unicode="&#x149;" 
 />
    <glyph glyph-name="Eng" unicode="&#x14a;" 
 />
    <glyph glyph-name="eng" unicode="&#x14b;" 
 />
    <glyph glyph-name="Omacron" unicode="&#x14c;" 
 />
    <glyph glyph-name="omacron" unicode="&#x14d;" 
 />
    <glyph glyph-name="Obreve" unicode="&#x14e;" 
 />
    <glyph glyph-name="obreve" unicode="&#x14f;" 
 />
    <glyph glyph-name="Odblacute" unicode="&#x150;" 
 />
    <glyph glyph-name="odblacute" unicode="&#x151;" 
 />
    <glyph glyph-name="OE" unicode="&#x152;" 
 />
    <glyph glyph-name="oe" unicode="&#x153;" 
 />
    <glyph glyph-name="Racute" unicode="&#x154;" 
 />
    <glyph glyph-name="racute" unicode="&#x155;" 
 />
    <glyph glyph-name="Rcedilla" unicode="&#x156;" 
 />
    <glyph glyph-name="rcedilla" unicode="&#x157;" 
 />
    <glyph glyph-name="Rcaron" unicode="&#x158;" 
 />
    <glyph glyph-name="rcaron" unicode="&#x159;" 
 />
    <glyph glyph-name="Sacute" unicode="&#x15a;" 
 />
    <glyph glyph-name="sacute" unicode="&#x15b;" 
 />
    <glyph glyph-name="Scircumflex" unicode="&#x15c;" 
 />
    <glyph glyph-name="scircumflex" unicode="&#x15d;" 
 />
    <glyph glyph-name="Scedilla" unicode="&#x15e;" 
 />
    <glyph glyph-name="scedilla" unicode="&#x15f;" 
 />
    <glyph glyph-name="Scaron" unicode="&#x160;" 
 />
    <glyph glyph-name="scaron" unicode="&#x161;" 
 />
    <glyph glyph-name="Tcedilla" unicode="&#x162;" 
 />
    <glyph glyph-name="tcedilla" unicode="&#x163;" 
 />
    <glyph glyph-name="Tcaron" unicode="&#x164;" 
 />
    <glyph glyph-name="tcaron" unicode="&#x165;" 
 />
    <glyph glyph-name="Tbar" unicode="&#x166;" 
 />
    <glyph glyph-name="tbar" unicode="&#x167;" 
 />
    <glyph glyph-name="Utilde" unicode="&#x168;" 
 />
    <glyph glyph-name="utilde" unicode="&#x169;" 
 />
    <glyph glyph-name="Umacron" unicode="&#x16a;" 
 />
    <glyph glyph-name="umacron" unicode="&#x16b;" 
 />
    <glyph glyph-name="Ubreve" unicode="&#x16c;" 
 />
    <glyph glyph-name="ubreve" unicode="&#x16d;" 
 />
    <glyph glyph-name="Uring" unicode="&#x16e;" 
 />
    <glyph glyph-name="uring" unicode="&#x16f;" 
 />
    <glyph glyph-name="Udblacute" unicode="&#x170;" 
 />
    <glyph glyph-name="udblacute" unicode="&#x171;" 
 />
    <glyph glyph-name="Uogonek" unicode="&#x172;" 
 />
    <glyph glyph-name="uogonek" unicode="&#x173;" 
 />
    <glyph glyph-name="Wcircumflex" unicode="&#x174;" 
 />
    <glyph glyph-name="wcircumflex" unicode="&#x175;" 
 />
    <glyph glyph-name="Ycircumflex" unicode="&#x176;" 
 />
    <glyph glyph-name="ycircumflex" unicode="&#x177;" 
 />
    <glyph glyph-name="Ydieresis" unicode="&#x178;" 
 />
    <glyph glyph-name="Zacute" unicode="&#x179;" 
 />
    <glyph glyph-name="zacute" unicode="&#x17a;" 
 />
    <glyph glyph-name="Zdot" unicode="&#x17b;" 
 />
    <glyph glyph-name="zdot" unicode="&#x17c;" 
 />
    <glyph glyph-name="Zcaron" unicode="&#x17d;" 
 />
    <glyph glyph-name="zcaron" unicode="&#x17e;" 
 />
    <glyph glyph-name="longs" unicode="&#x17f;" 
 />
    <glyph glyph-name="florin" unicode="&#x192;" 
 />
    <glyph glyph-name="Aringacute" unicode="&#x1fa;" 
 />
    <glyph glyph-name="aringacute" unicode="&#x1fb;" 
 />
    <glyph glyph-name="AEacute" unicode="&#x1fc;" 
 />
    <glyph glyph-name="aeacute" unicode="&#x1fd;" 
 />
    <glyph glyph-name="Oslashacute" unicode="&#x1fe;" 
 />
    <glyph glyph-name="oslashacute" unicode="&#x1ff;" 
 />
    <glyph glyph-name="circumflex" unicode="&#x2c6;" horiz-adv-x="300" 
d="M100 500h-100v100h100v-100zM200 400h-100v100h100v-100zM0 400h-100v100h100v-100z" />
    <glyph glyph-name="caron" unicode="&#x2c7;" 
 />
    <glyph glyph-name="macron" unicode="&#x2c9;" 
 />
    <glyph glyph-name="breve" unicode="&#x2d8;" 
 />
    <glyph glyph-name="dotaccent" unicode="&#x2d9;" 
 />
    <glyph glyph-name="ring" unicode="&#x2da;" 
 />
    <glyph glyph-name="ogonek" unicode="&#x2db;" 
 />
    <glyph glyph-name="tilde" unicode="&#x2dc;" horiz-adv-x="400" 
d="M300 400h-100v-100h-100v100h-100v-100h-100v100h100v100h100v-100h100v100h100v-100z" />
    <glyph glyph-name="hungarumlaut" unicode="&#x2dd;" 
 />
    <glyph glyph-name="tonos" unicode="&#x384;" 
 />
    <glyph glyph-name="dieresistonos" unicode="&#x385;" 
 />
    <glyph glyph-name="Alphatonos" unicode="&#x386;" 
 />
    <glyph glyph-name="anoteleia" unicode="&#x387;" 
 />
    <glyph glyph-name="Epsilontonos" unicode="&#x388;" 
 />
    <glyph glyph-name="Etatonos" unicode="&#x389;" 
 />
    <glyph glyph-name="Iotatonos" unicode="&#x38a;" 
 />
    <glyph glyph-name="Omicrontonos" unicode="&#x38c;" 
 />
    <glyph glyph-name="Upsilontonos" unicode="&#x38e;" 
 />
    <glyph glyph-name="Omegatonos" unicode="&#x38f;" 
 />
    <glyph glyph-name="iotadieresistonos" unicode="&#x390;" 
 />
    <glyph glyph-name="Alpha" unicode="&#x391;" 
 />
    <glyph glyph-name="Beta" unicode="&#x392;" 
 />
    <glyph glyph-name="Gamma" unicode="&#x393;" 
 />
    <glyph glyph-name="Delta" unicode="&#x394;" 
 />
    <glyph glyph-name="Epsilon" unicode="&#x395;" 
 />
    <glyph glyph-name="Zeta" unicode="&#x396;" 
 />
    <glyph glyph-name="Eta" unicode="&#x397;" 
 />
    <glyph glyph-name="Theta" unicode="&#x398;" 
 />
    <glyph glyph-name="Theta" unicode="&#x472;" 
 />
    <glyph glyph-name="Iota" unicode="&#x399;" 
 />
    <glyph glyph-name="Kappa" unicode="&#x39a;" 
 />
    <glyph glyph-name="Lambda" unicode="&#x39b;" 
 />
    <glyph glyph-name="Mu" unicode="&#x39c;" 
 />
    <glyph glyph-name="Nu" unicode="&#x39d;" 
 />
    <glyph glyph-name="Xi" unicode="&#x39e;" 
 />
    <glyph glyph-name="Omicron" unicode="&#x39f;" 
 />
    <glyph glyph-name="Pi" unicode="&#x3a0;" 
 />
    <glyph glyph-name="Rho" unicode="&#x3a1;" 
 />
    <glyph glyph-name="Sigma" unicode="&#x3a3;" 
 />
    <glyph glyph-name="Tau" unicode="&#x3a4;" 
 />
    <glyph glyph-name="Upsilon" unicode="&#x3a5;" 
 />
    <glyph glyph-name="Phi" unicode="&#x3a6;" 
 />
    <glyph glyph-name="Chi" unicode="&#x3a7;" 
 />
    <glyph glyph-name="Psi" unicode="&#x3a8;" 
 />
    <glyph glyph-name="Psi" unicode="&#x470;" 
 />
    <glyph glyph-name="Omega" unicode="&#x3a9;" 
 />
    <glyph glyph-name="Iotadieresis" unicode="&#x3aa;" 
 />
    <glyph glyph-name="Upsilondieresis" unicode="&#x3ab;" 
 />
    <glyph glyph-name="alphatonos" unicode="&#x3ac;" 
 />
    <glyph glyph-name="epsilontonos" unicode="&#x3ad;" 
 />
    <glyph glyph-name="etatonos" unicode="&#x3ae;" 
 />
    <glyph glyph-name="iotatonos" unicode="&#x3af;" 
 />
    <glyph glyph-name="upsilondieresistonos" unicode="&#x3b0;" 
 />
    <glyph glyph-name="alpha" unicode="&#x3b1;" 
 />
    <glyph glyph-name="beta" unicode="&#x3b2;" 
 />
    <glyph glyph-name="gamma" unicode="&#x3b3;" 
 />
    <glyph glyph-name="delta" unicode="&#x3b4;" 
 />
    <glyph glyph-name="epsilon" unicode="&#x3b5;" 
 />
    <glyph glyph-name="zeta" unicode="&#x3b6;" 
 />
    <glyph glyph-name="eta" unicode="&#x3b7;" 
 />
    <glyph glyph-name="theta" unicode="&#x3b8;" 
 />
    <glyph glyph-name="theta" unicode="&#x473;" 
 />
    <glyph glyph-name="iota" unicode="&#x3b9;" 
 />
    <glyph glyph-name="kappa" unicode="&#x3ba;" 
 />
    <glyph glyph-name="lambda" unicode="&#x3bb;" 
 />
    <glyph glyph-name="mu" unicode="&#x3bc;" 
 />
    <glyph glyph-name="nu" unicode="&#x3bd;" 
 />
    <glyph glyph-name="xi" unicode="&#x3be;" 
 />
    <glyph glyph-name="omicron" unicode="&#x3bf;" 
 />
    <glyph glyph-name="pi" unicode="&#x3c0;" 
 />
    <glyph glyph-name="rho" unicode="&#x3c1;" 
 />
    <glyph glyph-name="sigma1" unicode="&#x3c2;" 
 />
    <glyph glyph-name="sigma" unicode="&#x3c3;" 
 />
    <glyph glyph-name="tau" unicode="&#x3c4;" 
 />
    <glyph glyph-name="upsilon" unicode="&#x3c5;" 
 />
    <glyph glyph-name="phi" unicode="&#x3c6;" 
 />
    <glyph glyph-name="chi" unicode="&#x3c7;" 
 />
    <glyph glyph-name="psi" unicode="&#x3c8;" 
 />
    <glyph glyph-name="psi" unicode="&#x471;" 
 />
    <glyph glyph-name="omega" unicode="&#x3c9;" 
 />
    <glyph glyph-name="iotadieresis" unicode="&#x3ca;" 
 />
    <glyph glyph-name="upsilondieresis" unicode="&#x3cb;" 
 />
    <glyph glyph-name="omicrontonos" unicode="&#x3cc;" 
 />
    <glyph glyph-name="upsilontonos" unicode="&#x3cd;" 
 />
    <glyph glyph-name="omegatonos" unicode="&#x3ce;" 
 />
    <glyph glyph-name="afii10023" unicode="&#x401;" 
 />
    <glyph glyph-name="afii10051" unicode="&#x402;" 
 />
    <glyph glyph-name="afii10052" unicode="&#x403;" 
 />
    <glyph glyph-name="afii10053" unicode="&#x404;" 
 />
    <glyph glyph-name="afii10054" unicode="&#x405;" 
 />
    <glyph glyph-name="afii10055" unicode="&#x406;" 
 />
    <glyph glyph-name="afii10056" unicode="&#x407;" 
 />
    <glyph glyph-name="afii10057" unicode="&#x408;" 
 />
    <glyph glyph-name="afii10058" unicode="&#x409;" 
 />
    <glyph glyph-name="afii10059" unicode="&#x40a;" 
 />
    <glyph glyph-name="afii10060" unicode="&#x40b;" 
 />
    <glyph glyph-name="afii10061" unicode="&#x40c;" 
 />
    <glyph glyph-name="afii10062" unicode="&#x40e;" 
 />
    <glyph glyph-name="afii10145" unicode="&#x40f;" 
 />
    <glyph glyph-name="afii10017" unicode="&#x410;" 
 />
    <glyph glyph-name="afii10018" unicode="&#x411;" 
 />
    <glyph glyph-name="afii10019" unicode="&#x412;" 
 />
    <glyph glyph-name="afii10020" unicode="&#x413;" 
 />
    <glyph glyph-name="afii10021" unicode="&#x414;" 
 />
    <glyph glyph-name="afii10022" unicode="&#x415;" 
 />
    <glyph glyph-name="afii10024" unicode="&#x416;" 
 />
    <glyph glyph-name="afii10025" unicode="&#x417;" 
 />
    <glyph glyph-name="afii10026" unicode="&#x418;" 
 />
    <glyph glyph-name="afii10027" unicode="&#x419;" 
 />
    <glyph glyph-name="afii10028" unicode="&#x41a;" 
 />
    <glyph glyph-name="afii10029" unicode="&#x41b;" 
 />
    <glyph glyph-name="afii10030" unicode="&#x41c;" 
 />
    <glyph glyph-name="afii10031" unicode="&#x41d;" 
 />
    <glyph glyph-name="afii10032" unicode="&#x41e;" 
 />
    <glyph glyph-name="afii10033" unicode="&#x41f;" 
 />
    <glyph glyph-name="afii10034" unicode="&#x420;" 
 />
    <glyph glyph-name="afii10035" unicode="&#x421;" 
 />
    <glyph glyph-name="afii10036" unicode="&#x422;" 
 />
    <glyph glyph-name="afii10037" unicode="&#x423;" 
 />
    <glyph glyph-name="afii10038" unicode="&#x424;" 
 />
    <glyph glyph-name="afii10039" unicode="&#x425;" 
 />
    <glyph glyph-name="afii10040" unicode="&#x426;" 
 />
    <glyph glyph-name="afii10041" unicode="&#x427;" 
 />
    <glyph glyph-name="afii10042" unicode="&#x428;" 
 />
    <glyph glyph-name="afii10043" unicode="&#x429;" 
 />
    <glyph glyph-name="afii10044" unicode="&#x42a;" 
 />
    <glyph glyph-name="afii10045" unicode="&#x42b;" 
 />
    <glyph glyph-name="afii10046" unicode="&#x42c;" 
 />
    <glyph glyph-name="afii10047" unicode="&#x42d;" 
 />
    <glyph glyph-name="afii10048" unicode="&#x42e;" 
 />
    <glyph glyph-name="afii10049" unicode="&#x42f;" 
 />
    <glyph glyph-name="afii10065" unicode="&#x430;" 
 />
    <glyph glyph-name="afii10066" unicode="&#x431;" 
 />
    <glyph glyph-name="afii10067" unicode="&#x432;" 
 />
    <glyph glyph-name="afii10068" unicode="&#x433;" 
 />
    <glyph glyph-name="afii10069" unicode="&#x434;" 
 />
    <glyph glyph-name="afii10070" unicode="&#x435;" 
 />
    <glyph glyph-name="afii10072" unicode="&#x436;" 
 />
    <glyph glyph-name="afii10073" unicode="&#x437;" 
 />
    <glyph glyph-name="afii10074" unicode="&#x438;" 
 />
    <glyph glyph-name="afii10075" unicode="&#x439;" 
 />
    <glyph glyph-name="afii10076" unicode="&#x43a;" 
 />
    <glyph glyph-name="afii10077" unicode="&#x43b;" 
 />
    <glyph glyph-name="afii10078" unicode="&#x43c;" 
 />
    <glyph glyph-name="afii10079" unicode="&#x43d;" 
 />
    <glyph glyph-name="afii10080" unicode="&#x43e;" 
 />
    <glyph glyph-name="afii10081" unicode="&#x43f;" 
 />
    <glyph glyph-name="afii10082" unicode="&#x440;" 
 />
    <glyph glyph-name="afii10083" unicode="&#x441;" 
 />
    <glyph glyph-name="afii10084" unicode="&#x442;" 
 />
    <glyph glyph-name="afii10085" unicode="&#x443;" 
 />
    <glyph glyph-name="afii10086" unicode="&#x444;" 
 />
    <glyph glyph-name="afii10087" unicode="&#x445;" 
 />
    <glyph glyph-name="afii10088" unicode="&#x446;" 
 />
    <glyph glyph-name="afii10089" unicode="&#x447;" 
 />
    <glyph glyph-name="afii10090" unicode="&#x448;" 
 />
    <glyph glyph-name="afii10091" unicode="&#x449;" 
 />
    <glyph glyph-name="afii10092" unicode="&#x44a;" 
 />
    <glyph glyph-name="afii10093" unicode="&#x44b;" 
 />
    <glyph glyph-name="afii10094" unicode="&#x44c;" 
 />
    <glyph glyph-name="afii10095" unicode="&#x44d;" 
 />
    <glyph glyph-name="afii10096" unicode="&#x44e;" 
 />
    <glyph glyph-name="afii10097" unicode="&#x44f;" 
 />
    <glyph glyph-name="afii10071" unicode="&#x451;" 
 />
    <glyph glyph-name="afii10099" unicode="&#x452;" 
 />
    <glyph glyph-name="afii10100" unicode="&#x453;" 
 />
    <glyph glyph-name="afii10101" unicode="&#x454;" 
 />
    <glyph glyph-name="afii10102" unicode="&#x455;" 
 />
    <glyph glyph-name="afii10103" unicode="&#x456;" 
 />
    <glyph glyph-name="afii10104" unicode="&#x457;" 
 />
    <glyph glyph-name="afii10105" unicode="&#x458;" 
 />
    <glyph glyph-name="afii10106" unicode="&#x459;" 
 />
    <glyph glyph-name="afii10107" unicode="&#x45a;" 
 />
    <glyph glyph-name="afii10108" unicode="&#x45b;" 
 />
    <glyph glyph-name="afii10109" unicode="&#x45c;" 
 />
    <glyph glyph-name="afii10110" unicode="&#x45e;" 
 />
    <glyph glyph-name="afii10193" unicode="&#x45f;" 
 />
    <glyph glyph-name="afii10050" unicode="&#x490;" 
 />
    <glyph glyph-name="afii10098" unicode="&#x491;" 
 />
    <glyph glyph-name="Wgrave" unicode="&#x1e80;" 
 />
    <glyph glyph-name="wgrave" unicode="&#x1e81;" 
 />
    <glyph glyph-name="Wacute" unicode="&#x1e82;" 
 />
    <glyph glyph-name="wacute" unicode="&#x1e83;" 
 />
    <glyph glyph-name="Wdieresis" unicode="&#x1e84;" 
 />
    <glyph glyph-name="wdieresis" unicode="&#x1e85;" 
 />
    <glyph glyph-name="Ygrave" unicode="&#x1ef2;" 
 />
    <glyph glyph-name="ygrave" unicode="&#x1ef3;" 
 />
    <glyph glyph-name="endash" unicode="&#x2013;" horiz-adv-x="400" 
d="M300 0h-300v100h300v-100z" />
    <glyph glyph-name="emdash" unicode="&#x2014;" horiz-adv-x="500" 
d="M200 0h-300v100h300v-100z" />
    <glyph glyph-name="afii00208" unicode="&#x2015;" 
 />
    <glyph glyph-name="underscoredbl" unicode="&#x2017;" 
 />
    <glyph glyph-name="quoteleft" unicode="&#x2018;" horiz-adv-x="200" 
d="M100 300h-100v200h100v-200z" />
    <glyph glyph-name="quoteright" unicode="&#x2019;" horiz-adv-x="200" 
d="M100 300h-100v200h100v-200z" />
    <glyph glyph-name="quotesinglbase" unicode="&#x201a;" 
 />
    <glyph glyph-name="quotereversed" unicode="&#x201b;" 
 />
    <glyph glyph-name="quotedblleft" unicode="&#x201c;" horiz-adv-x="400" 
d="M300 300h-100v200h100v-200zM100 300h-100v200h100v-200z" />
    <glyph glyph-name="quotedblright" unicode="&#x201d;" horiz-adv-x="400" 
d="M300 300h-100v200h100v-200zM100 300h-100v200h100v-200z" />
    <glyph glyph-name="quotedblbase" unicode="&#x201e;" 
 />
    <glyph glyph-name="dagger" unicode="&#x2020;" 
 />
    <glyph glyph-name="daggerdbl" unicode="&#x2021;" 
 />
    <glyph glyph-name="bullet" unicode="&#x2022;" horiz-adv-x="100" 
d="M0 200h-100v100h100v-100z" />
    <glyph glyph-name="ellipsis" unicode="&#x2026;" 
 />
    <glyph glyph-name="perthousand" unicode="&#x2030;" 
 />
    <glyph glyph-name="minute" unicode="&#x2032;" 
 />
    <glyph glyph-name="second" unicode="&#x2033;" 
 />
    <glyph glyph-name="guilsinglleft" unicode="&#x2039;" 
 />
    <glyph glyph-name="guilsinglright" unicode="&#x203a;" 
 />
    <glyph glyph-name="exclamdbl" unicode="&#x203c;" 
 />
    <glyph glyph-name="radicalex" unicode="&#x203e;" 
 />
    <glyph glyph-name="fraction" unicode="&#x2044;" 
 />
    <glyph glyph-name="nsuperior" unicode="&#x207f;" 
 />
    <glyph glyph-name="franc" unicode="&#x20a3;" 
 />
    <glyph glyph-name="afii08941" unicode="&#x20a4;" 
 />
    <glyph glyph-name="peseta" unicode="&#x20a7;" 
 />
    <glyph glyph-name="afii61248" unicode="&#x2105;" 
 />
    <glyph glyph-name="afii61289" unicode="&#x2113;" 
 />
    <glyph glyph-name="afii61352" unicode="&#x2116;" 
 />
    <glyph glyph-name="trademark" unicode="&#x2122;" 
 />
    <glyph glyph-name="Ohm" unicode="&#x2126;" 
 />
    <glyph glyph-name="estimated" unicode="&#x212e;" 
 />
    <glyph glyph-name="oneeighth" unicode="&#x215b;" 
 />
    <glyph glyph-name="threeeighths" unicode="&#x215c;" 
 />
    <glyph glyph-name="fiveeighths" unicode="&#x215d;" 
 />
    <glyph glyph-name="seveneighths" unicode="&#x215e;" 
 />
    <glyph glyph-name="arrowleft" unicode="&#x2190;" 
 />
    <glyph glyph-name="arrowup" unicode="&#x2191;" 
 />
    <glyph glyph-name="arrowright" unicode="&#x2192;" 
 />
    <glyph glyph-name="arrowdown" unicode="&#x2193;" 
 />
    <glyph glyph-name="arrowboth" unicode="&#x2194;" 
 />
    <glyph glyph-name="arrowupdn" unicode="&#x2195;" 
 />
    <glyph glyph-name="arrowupdnbse" unicode="&#x21a8;" 
 />
    <glyph glyph-name="partialdiff" unicode="&#x2202;" 
 />
    <glyph glyph-name="increment" unicode="&#x2206;" 
 />
    <glyph glyph-name="product" unicode="&#x220f;" 
 />
    <glyph glyph-name="summation" unicode="&#x2211;" 
 />
    <glyph glyph-name="minus" unicode="&#xad;" horiz-adv-x="300" 
d="M200 200h-300v100h300v-100z" />
    <glyph glyph-name="minus" unicode="&#x2212;" horiz-adv-x="300" 
d="M200 200h-300v100h300v-100z" />
    <glyph glyph-name="periodcentered" unicode="&#x2219;" horiz-adv-x="200" 
d="M100 200h-100v100h100v-100z" />
    <glyph glyph-name="radical" unicode="&#x221a;" 
 />
    <glyph glyph-name="infinity" unicode="&#x221e;" 
 />
    <glyph glyph-name="orthogonal" unicode="&#x221f;" 
 />
    <glyph glyph-name="intersection" unicode="&#x2229;" 
 />
    <glyph glyph-name="integral" unicode="&#x222b;" 
 />
    <glyph glyph-name="approxequal" unicode="&#x2248;" 
 />
    <glyph glyph-name="approxequal" unicode="&#x22f2;" 
 />
    <glyph glyph-name="notequal" unicode="&#x2260;" 
 />
    <glyph glyph-name="equivalence" unicode="&#x2261;" 
 />
    <glyph glyph-name="lessequal" unicode="&#x2264;" 
 />
    <glyph glyph-name="greaterequal" unicode="&#x2265;" 
 />
    <glyph glyph-name="house" unicode="&#x2302;" 
 />
    <glyph glyph-name="revlogicalnot" unicode="&#x2310;" 
 />
    <glyph glyph-name="integraltp" unicode="&#x2320;" 
 />
    <glyph glyph-name="integralbt" unicode="&#x2321;" 
 />
    <glyph glyph-name="SF100000" unicode="&#x2500;" 
 />
    <glyph glyph-name="SF110000" unicode="&#x2502;" 
 />
    <glyph glyph-name="SF010000" unicode="&#x250c;" 
 />
    <glyph glyph-name="SF030000" unicode="&#x2510;" 
 />
    <glyph glyph-name="SF020000" unicode="&#x2514;" 
 />
    <glyph glyph-name="SF040000" unicode="&#x2518;" 
 />
    <glyph glyph-name="SF080000" unicode="&#x251c;" 
 />
    <glyph glyph-name="SF090000" unicode="&#x2524;" 
 />
    <glyph glyph-name="SF060000" unicode="&#x252c;" 
 />
    <glyph glyph-name="SF070000" unicode="&#x2534;" 
 />
    <glyph glyph-name="SF050000" unicode="&#x253c;" 
 />
    <glyph glyph-name="SF430000" unicode="&#x2550;" 
 />
    <glyph glyph-name="SF240000" unicode="&#x2551;" 
 />
    <glyph glyph-name="SF510000" unicode="&#x2552;" 
 />
    <glyph glyph-name="SF520000" unicode="&#x2553;" 
 />
    <glyph glyph-name="SF390000" unicode="&#x2554;" 
 />
    <glyph glyph-name="SF220000" unicode="&#x2555;" 
 />
    <glyph glyph-name="SF210000" unicode="&#x2556;" 
 />
    <glyph glyph-name="SF250000" unicode="&#x2557;" 
 />
    <glyph glyph-name="SF500000" unicode="&#x2558;" 
 />
    <glyph glyph-name="SF490000" unicode="&#x2559;" 
 />
    <glyph glyph-name="SF380000" unicode="&#x255a;" 
 />
    <glyph glyph-name="SF280000" unicode="&#x255b;" 
 />
    <glyph glyph-name="SF270000" unicode="&#x255c;" 
 />
    <glyph glyph-name="SF260000" unicode="&#x255d;" 
 />
    <glyph glyph-name="SF360000" unicode="&#x255e;" 
 />
    <glyph glyph-name="SF370000" unicode="&#x255f;" 
 />
    <glyph glyph-name="SF420000" unicode="&#x2560;" 
 />
    <glyph glyph-name="SF190000" unicode="&#x2561;" 
 />
    <glyph glyph-name="SF200000" unicode="&#x2562;" 
 />
    <glyph glyph-name="SF230000" unicode="&#x2563;" 
 />
    <glyph glyph-name="SF470000" unicode="&#x2564;" 
 />
    <glyph glyph-name="SF480000" unicode="&#x2565;" 
 />
    <glyph glyph-name="SF410000" unicode="&#x2566;" 
 />
    <glyph glyph-name="SF450000" unicode="&#x2567;" 
 />
    <glyph glyph-name="SF460000" unicode="&#x2568;" 
 />
    <glyph glyph-name="SF400000" unicode="&#x2569;" 
 />
    <glyph glyph-name="SF540000" unicode="&#x256a;" 
 />
    <glyph glyph-name="SF530000" unicode="&#x256b;" 
 />
    <glyph glyph-name="SF440000" unicode="&#x256c;" 
 />
    <glyph glyph-name="upblock" unicode="&#x2580;" 
 />
    <glyph glyph-name="dnblock" unicode="&#x2584;" 
 />
    <glyph glyph-name="block" unicode="&#x2588;" 
 />
    <glyph glyph-name="lfblock" unicode="&#x258c;" 
 />
    <glyph glyph-name="rtblock" unicode="&#x2590;" 
 />
    <glyph glyph-name="ltshade" unicode="&#x2591;" 
 />
    <glyph glyph-name="shade" unicode="&#x2592;" 
 />
    <glyph glyph-name="dkshade" unicode="&#x2593;" 
 />
    <glyph glyph-name="filledbox" unicode="&#x25a0;" 
 />
    <glyph glyph-name="H22073" unicode="&#x25a1;" 
 />
    <glyph glyph-name="H18543" unicode="&#x25aa;" 
 />
    <glyph glyph-name="H18551" unicode="&#x25ab;" 
 />
    <glyph glyph-name="filledrect" unicode="&#x25ac;" 
 />
    <glyph glyph-name="triagup" unicode="&#x25b2;" 
 />
    <glyph glyph-name="triagrt" unicode="&#x25ba;" 
 />
    <glyph glyph-name="triagdn" unicode="&#x25bc;" 
 />
    <glyph glyph-name="triaglf" unicode="&#x25c4;" 
 />
    <glyph glyph-name="lozenge" unicode="&#x25ca;" 
 />
    <glyph glyph-name="circle" unicode="&#x25cb;" 
 />
    <glyph glyph-name="H18533" unicode="&#x25cf;" 
 />
    <glyph glyph-name="invbullet" unicode="&#x25d8;" 
 />
    <glyph glyph-name="invcircle" unicode="&#x25d9;" 
 />
    <glyph glyph-name="openbullet" unicode="&#x25e6;" 
 />
    <glyph glyph-name="smileface" unicode="&#x263a;" 
 />
    <glyph glyph-name="invsmileface" unicode="&#x263b;" 
 />
    <glyph glyph-name="sun" unicode="&#x263c;" 
 />
    <glyph glyph-name="female" unicode="&#x2640;" 
 />
    <glyph glyph-name="male" unicode="&#x2642;" 
 />
    <glyph glyph-name="spade" unicode="&#x2660;" 
 />
    <glyph glyph-name="club" unicode="&#x2663;" 
 />
    <glyph glyph-name="heart" unicode="&#x2665;" 
 />
    <glyph glyph-name="diamond" unicode="&#x2666;" 
 />
    <glyph glyph-name="musicalnote" unicode="&#x266a;" 
 />
    <glyph glyph-name="musicalnotedbl" unicode="&#x266b;" 
 />
    <glyph glyph-name="fi" unicode="&#xf001;" 
 />
    <glyph glyph-name="fl" unicode="&#xf002;" 
 />
    <glyph glyph-name="fi2" unicode="&#xfb01;" 
 />
    <glyph glyph-name="fl2" unicode="&#xfb02;" 
 />
    <glyph glyph-name="nonbreakingspace" unicode="&#xa0;" 
 />
    <glyph glyph-name="glyph653" horiz-adv-x="500" 
 />
    <glyph glyph-name="glyph654" 
 />
  </font>
</defs>
</svg>
