<?xml version="1.0" standalone="no"?>
<!DOCTYPE svg PUBLIC "-//W3C//DTD SVG 1.1//EN" "http://www.w3.org/Graphics/SVG/1.1/DTD/svg11.dtd" >
<svg xmlns="http://www.w3.org/2000/svg" xmlns:xlink="http://www.w3.org/1999/xlink" version="1.1">
<metadata>
Created by FontForge 20170924 at Sun Sep  9 07:42:59 2001
 By www-data
\251Danielle Huthart 2001
</metadata>
<defs>
<font id="IconBitTwo" horiz-adv-x="1000" >
  <font-face 
    font-family="IconBitTwo"
    font-weight="400"
    font-stretch="normal"
    units-per-em="1000"
    panose-1="2 0 0 3 2 0 0 2 0 4"
    ascent="800"
    descent="-200"
    x-height="700"
    cap-height="700"
    bbox="0 -200 1200 1200"
    underline-thickness="50"
    underline-position="-125"
    unicode-range="U+0020-E000"
  />
<missing-glyph 
 />
    <glyph glyph-name=".notdef" 
 />
    <glyph glyph-name="space" unicode=" " horiz-adv-x="400" 
 />
    <glyph glyph-name="exclam" unicode="!" horiz-adv-x="200" 
 />
    <glyph glyph-name="quotedbl" unicode="&#x22;" horiz-adv-x="400" 
 />
    <glyph glyph-name="numbersign" unicode="#" horiz-adv-x="600" 
 />
    <glyph glyph-name="percent" unicode="%" horiz-adv-x="600" 
 />
    <glyph glyph-name="ampersand" unicode="&#x26;" horiz-adv-x="600" 
 />
    <glyph glyph-name="quotesingle" unicode="'" horiz-adv-x="200" 
 />
    <glyph glyph-name="parenleft" unicode="(" horiz-adv-x="300" 
 />
    <glyph glyph-name="parenright" unicode=")" horiz-adv-x="300" 
 />
    <glyph glyph-name="asterisk" unicode="*" horiz-adv-x="600" 
 />
    <glyph glyph-name="plus" unicode="+" horiz-adv-x="600" 
 />
    <glyph glyph-name="comma" unicode="," horiz-adv-x="300" 
 />
    <glyph glyph-name="hyphen" unicode="-" horiz-adv-x="400" 
 />
    <glyph glyph-name="period" unicode="." horiz-adv-x="200" 
 />
    <glyph glyph-name="zero" unicode="0" horiz-adv-x="800" 
d="M600 800v-100h-100v-200h-100v-200h-100v-100h-100v100h-100v100h-100v-100h100v-100h100v-100v-100h100v100v100h100v100h100v200h100v200h100v100h-100z" />
    <glyph glyph-name="one" unicode="1" horiz-adv-x="1100" 
d="M500 300v200h100v200h100v100h-100v-100h-100v-200h-100v-200h-100v-100h-100v100h-100v100h-100v-100h100v-100h100v-100v-100h100v100v100h100v100h100v-100h200v-200h100v200h200v100h-200v200h-100v-200h-200z" />
    <glyph glyph-name="two" unicode="2" horiz-adv-x="800" 
d="M600 0h100v600v100h-600h-100v-700h100h500zM100 100v500h500v-500h-500z" />
    <glyph glyph-name="three" unicode="3" 
d="M500 500v-100h100v-300h-500v300h100v100h-100v100h500v-100h-100zM800 800v-100h-100h-600h-100v-700h100h500h100v600h100v100h100v100h-100zM200 400v-100h100v100h-100zM300 300v-100h100v100h-100zM400 400v-100h100v100h-100z" />
    <glyph glyph-name="four" unicode="4" horiz-adv-x="800" 
d="M600 0h100v600v100h-600h-100v-700h100h500zM600 500v-300h-100v-100h-300v100h-100v300h100v100h300v-100h100zM200 500v-100h100v100h-100zM300 400v-100h100v100h-100zM400 300v-100h100v100h-100zM200 300v-100h100v100h-100zM400 500v-100h100v100h-100z" />
    <glyph glyph-name="five" unicode="5" horiz-adv-x="800" 
d="M600 0h100v600v100h-700v-100v-600h600z" />
    <glyph glyph-name="six" unicode="6" horiz-adv-x="600" 
d="M300 300h200v100h-100v400h100v100h-500v-100h100v-400h-100v-100h200v-300h100v300z" />
    <glyph glyph-name="seven" unicode="7" horiz-adv-x="800" 
d="M600 200h-100v100h100v-100zM600 700v-300h-200v-100v-100v-100h-200v600h400zM700 200v100v100v400h-100h-400h-100v-100h-100v-800h100h300h100v100h100v100h100v100z" />
    <glyph glyph-name="eight" unicode="8" horiz-adv-x="700" 
d="M500 200h-100v100h100v-100zM500 700v-300h-200v-100v-100v-100h-200v600h400zM100 800h-100v-800h100h300v100h100v100h100v100v100v400h-100h-400z" />
    <glyph glyph-name="nine" unicode="9" horiz-adv-x="900" 
d="M500 200h-100v100h100v-100zM200 700h300v-300h-200v-100v-100v-100h-200v600h100zM700 400h100v500v100h-600h-100v-200h-100v-800h100h300v100h100v100h100v100h100v100zM600 400v400h-100h-300v100h500v-500h-100z" />
    <glyph glyph-name="colon" unicode=":" horiz-adv-x="600" 
d="M0 100v-100h100v100h100v100h-100v100h100v100h-100v100h100v100h-100v100h-100v-100h100v-100h-100v-100h100v-100h-100v-100h100v-100h-100zM300 100v-100h100v100h100v100h-100v100h100v100h-100v100h100v100h-100v100h-100v-100h100v-100h-100v-100h100v-100h-100
v-100h100v-100h-100z" />
    <glyph glyph-name="semicolon" unicode=";" horiz-adv-x="800" 
d="M600 500v100h-100v-100h-100v100h-100v-100h-100v100h-100v-100h-100v-100h100v100h100v-100h100v100h100v-100h100v100h100v-100h100v100h-100zM600 200v100h-100v-100h-100v100h-100v-100h-100v100h-100v-100h-100v-100h100v100h100v-100h100v100h100v-100h100v100h100
v-100h100v100h-100z" />
    <glyph glyph-name="less" unicode="&#x3c;" horiz-adv-x="400" 
 />
    <glyph glyph-name="equal" unicode="=" horiz-adv-x="400" 
 />
    <glyph glyph-name="greater" unicode="&#x3e;" horiz-adv-x="400" 
 />
    <glyph glyph-name="question" unicode="?" 
d="M800 700v-500h-100v-100h-500v100h-100v500v100h100v100h500v-100h100v-100zM800 800v100h-100v100h-500v-100h-100v-100h-100v-100v-500h100v-100h100v-100h500v100h100v100h100v500v100h-100zM400 500v-100h100v100h100v100h100v100h-100v100h-300v-100h-100v-100h100
v100h300v-100h-100v-100h-100zM400 300v-100h100v100h-100z" />
    <glyph glyph-name="A" unicode="A" horiz-adv-x="800" 
d="M700 400v100h-100v100h-100v100h-100v100h-100v-100h-100v-100h-100v-100h-100v-100v-400h100h600v100v300zM400 100h-100v200h100v-200zM500 300v100h-200h-100v-300h-100v300v100h100v100h100v100h100v-100h100v-100h100v-100v-300h-100v200z" />
    <glyph glyph-name="B" unicode="B" horiz-adv-x="800" 
d="M600 300h100v300h-100v100h-100v100h-100v100h-100v-100h-100v-100h-100v-100h-100v-300h100v-100h100v-100h100v-100h100v100h100v100h100v100zM500 300v-100h-100v300h-100v-300h-100v100h-100v300h100v100h100v100h100v-100h100v-100h100v-300h-100z" />
    <glyph glyph-name="C" unicode="C" 
d="M800 100h100v200h-100v200h-100v100h-100v200h-100v100h-100v-100h-100v-100v-100h-100v-100h-100v-200h-100v-100v-100h400v-100h100v100h300zM400 400v-100v-100h-300v100h100v200h100v100h100v100v100h100v-200h100v-100h100v-200h100v-100h-300v100v100h-100z" />
    <glyph glyph-name="D" unicode="D" 
d="M400 200v200h-100v-200h-200v100h100v200h100v200h100v-200h100v-200h100v-100h-200zM600 100h100h100h100v200h-100v200h-100v200h-100v100h-100v-100h-100v100h-100v-100h-100v-200h-100v-200h-100v-200h100h200v-100h100v100h100v-100h100v100z" />
    <glyph glyph-name="E" unicode="E" 
d="M200 700h100v-100h100h100h100v100h100h100v-100h-100v-100h-100v-400h-300v400h-100v100h-100v100h100zM100 800h-100v-200v-100h100h100v-400v-100h400h100v500h100h100v200v100h-200h-100v-100h-100h-100h-100v100h-100h-100z" />
    <glyph glyph-name="F" unicode="F" 
d="M700 500h100h100v200v100h-300h-100v-100h-100v100h-100h-300v-100v-100v-100h200v-500h100h400v100v400zM600 500v-400h-300v400h-100v100h-100v100h200h100v-100h100v100h100h200v-100h-100v-100h-100z" />
    <glyph glyph-name="G" unicode="G" 
d="M700 100h-500v100h500v-100zM500 600v100h-100v-100h-100v-200h100v-100h-200v-100h-100v-100h-100v-100h900v100h-100v100h-100v100h-200v100h-100v200h100v-100h100v100h-100z" />
    <glyph glyph-name="H" unicode="H" 
d="M300 200v-100h-200v400h200v-100h200v100h300v-400h-300v100h-200zM600 700v-100h-600v-100v-400v-100h900v100v400v100v100h-300zM200 400v-200h100v200h-100zM500 400v-200h100v200h-100z" />
    <glyph glyph-name="I" unicode="I" horiz-adv-x="1100" 
d="M300 500h-100v100h100v-100zM300 100h-100v100h100v-100zM500 500h-100v100h100v-100zM500 100h-100v100h100v-100zM700 500h-100v100h100v-100zM700 100h-100v100h100v-100zM900 500h-100v100h100v-100zM900 100h-100v100h100v-100zM1000 500v100h100v100h-100h-1000
v-100h100v-100h-100v-300h100v-100h-100v-100h1000h100v100h-100v100h100v300h-100z" />
    <glyph glyph-name="J" unicode="J" horiz-adv-x="800" 
d="M100 600v100h100v-100h-100zM100 400v100h100v-100h-100zM100 200v100h100v-100h-100zM600 600h-100v100h100v-100zM600 400h-100v100h100v-100zM600 200h-100v100h100v-100zM600 900v-100h-100v100h-200h-100v-100h-100v100h-100v-900h100v100h100v-100h100h200v100h100
v-100h100v900h-100z" />
    <glyph glyph-name="K" unicode="K" 
d="M300 100v100h300v-100h-300zM800 200h-100v100h100v100h100v200h-100v100h-200v-100h-100v-200h100v-100h-300v100h100v200h-100v100h-200v-100h-100v-200h100v-100h100v-300h100h300h100v100h100h100v100h-100z" />
    <glyph glyph-name="L" unicode="L" horiz-adv-x="1100" 
d="M100 300v300h600v-100v-200h-100h-500zM400 100v100h100v-100h-100zM1000 300v200v100h-100v-100h-100v100h-100v100h-600h-100v-500h100h200v-300h100h100v100v100h100v100h100v100h100h100v-100h100v100zM200 500v-100h300v100h-300z" />
    <glyph glyph-name="M" unicode="M" horiz-adv-x="900" 
d="M300 300h-100v-100h-100v100v100v100v100h100v-100h100v-100v-100zM600 200h-100v100h100v-100zM700 500h-300h-100v100h-100v100h-100h-100v-100v-100v-100v-100v-100v-100h100h100v100h100v100h100v-100h100v-100h100v-100h100v300h100v200h-100z" />
    <glyph glyph-name="N" unicode="N" horiz-adv-x="1200" 
d="M600 300h-100v-100h-100v100v100v100v100h100v-100h100v-100v-100zM900 200h-100v100h100v-100zM1000 500h-300h-100v100h-100v100h-100h-100v-100v-100v-100v-100v-100v-100h100h100v100h100v100h100v-100h100v-100h100v-100h100v300h100v200h-100zM100 700v100h-100
v-100h100v-100h100v100h-100zM0 500v-100h100h100v100h-100h-100zM0 200v-100h100v100h100v100h-100v-100h-100z" />
    <glyph glyph-name="O" unicode="O" horiz-adv-x="800" 
d="M600 600v-500h-500v500v100h100v-100h100v100h100v-100h100v100h100v-100zM600 700v100h-100v-100h-100v100h-100v-100h-100v100h-100v-100h-100v-100v-600h100h500h100v600v100h-100z" />
    <glyph glyph-name="P" unicode="P" 
d="M600 600v-500h-500v500v100h100v-100h100v100h100v-100h100v100h100v-100zM300 800v-100h-100v100h100zM200 900v-100h-100v-100h-100v-100v-600h100h500h100v100h100v100h100v100v500h-100v100h-100v100h-100v-100h-100h-100v100h-100v-100h-100z" />
    <glyph glyph-name="Q" unicode="Q" horiz-adv-x="1100" 
d="M800 300v-100h100v-100h-800v100h100v100h600zM900 400h100v500v100h-900h-100v-600h100h100v-100h-100v-100h-100v-200h100h800h100v200h-100v100h-100v100h100zM800 500v-100h-600v100h600zM200 800v-300h-100v400h800v-400h-100v300h-600z" />
    <glyph glyph-name="R" unicode="R" horiz-adv-x="800" 
d="M600 700v-600h-500v700h500v-100zM700 800v100h-600h-100v-900h100h500h100v700v100zM200 700v-300h300v300h-300zM200 300v-100h300v100h-300z" />
    <glyph glyph-name="S" unicode="S" horiz-adv-x="600" 
d="M200 600v-300v-100h200h100v500h-100v100h-300v-100h-100v-100v-500h100v-100h300v100h-300v500v100h300v-400h-100v300h-100z" />
    <glyph glyph-name="T" unicode="T" horiz-adv-x="1100" 
d="M400 100h-200v100h-100v100v100h100v-100h100v-100h100v-100zM700 700h-100v-100h-100v-100h-100v-100h-100h-100v100h100v100h100v100h100v100h100v100h100v-100v-100zM900 600h100v100h-100v100h-100v100h-100v100h-100v-100h-100v-100h-100v-100h-100v-100h-100v-100
h-100v-100h-100v-100v-300h100h300v100h100v100h100v100h100v100h100v100h100v100zM800 600v-100h-100v-100h-100v-100h-100v-100h-100v100v100h100v100h100v100h100v100h100h100v-100h-100z" />
    <glyph glyph-name="U" unicode="U" 
d="M0 600v-100h100v100h-100zM100 700v-100h100v100h-100zM200 800v-100h100v100h-100zM300 900v-100h100v100h-100zM100 500v-100h100v100h-100zM200 400v-100h100v100h-100zM300 300v-100h100v100h-100zM400 200v-100h100v100h-100zM400 800v-100h100v100h-100zM500 700
v-100h100v100h-100zM600 600v-100h100v100h-100zM700 500v-100h100v100h-100zM500 100v-100h100v100h-100zM600 100v-100h100v100h-100zM700 100v-100h100v100h-100zM800 100v-100h100v100h-100zM800 400v-100h100v100h-100zM800 300v-200h100v200h-100zM600 200v-100h100
v100h-100zM700 300v-200h100v200h-100z" />
    <glyph glyph-name="V" unicode="V" horiz-adv-x="1200" 
d="M700 100h-600v100h600v-100zM800 200h-100v100h100v-100zM900 300h-100v100h100v-100zM1000 400h-100v100h100v-100zM700 700h300v-100h-100v-100h-100v-100h-100v-100h-500v100h100v100h100v100h100v100h100h100zM1100 600v100h-100v100h-300h-100h-100v-100h-100v-100
h-100v-100h-100v-100h-100v-100v-100h-100v-100h100v-100h600v100h100v100h100v100h100v100h100v100v100z" />
    <glyph glyph-name="W" unicode="W" horiz-adv-x="600" 
d="M0 300v-100h100v100h-100zM200 300v-100h100v100h-100zM300 200v-200h100v200h-100zM0 900v-600h100v600h-100zM100 800v-100h100v100h-100zM200 700v-100h100v100h-100zM300 600v-100h100v100h-100zM400 500v-100h100v100h-100zM100 400v-100h100v100h-100zM200 400
v-100h100v100h-100zM300 500v-100h100v100h-100zM300 400v-100h100v100h-100z" />
    <glyph glyph-name="X" unicode="X" horiz-adv-x="600" 
d="M0 900v-700h100v700h-100zM100 800v-100h100v100h-100zM200 700v-100h100v100h-100zM300 600v-100h100v100h-100zM100 700v-400h100v400h-100zM200 600v-200h100v200h-100zM200 400v-200h100v200h-100zM300 200v-100h100v100h-100zM300 100v-100h100v100h-100zM300 500
v-100h100v100h-100zM400 500v-100h100v100h-100z" />
    <glyph glyph-name="Y" unicode="Y" 
d="M700 700v100h-100v100h-100v-100h-100v-100h-100v-100h-100v-100h-100v-100h-100v-100h100v-100h100v-100h100v-100h100v100h100v100h100v100h100v100h100v100h100v100h-100v100h-100zM500 600v-100h100v100h100h100v-100h-100v-100h-100v-100h-100v-100h-100v-100h-100
v100v100h100v100h-100v-100h-100h-100v100h100v100h100v100h100v100h100v100h100v-100v-100h-100z" />
    <glyph glyph-name="Z" unicode="Z" 
d="M800 500v100h-100v100h-100v100h-100v-100h-100v100h-100v-100h-100v100h-100v-100h-100v-500v-100h100v-100h100v-100h500v100h100v100h100v300v100h-100zM700 400v100h100v-100v-300h-100v-100h-500v100h-100v100v500h100v-300h100v300h100v-300h100v300h100v-300v-100
h100v100z" />
    <glyph glyph-name="bracketright" unicode="]" horiz-adv-x="300" 
 />
    <glyph glyph-name="asciicircum" unicode="^" horiz-adv-x="300" 
 />
    <glyph glyph-name="a" unicode="a" horiz-adv-x="900" 
d="M500 600v-200h-300v200h200h100zM600 400v200h100v-200h-100zM700 100h-100v200h100v-200zM700 300v100h100v200h-100v100h-100v100h-500v-100v-600h-100v-100h100h100h300h100h100v100h100v200h-100z" />
    <glyph glyph-name="b" unicode="b" horiz-adv-x="600" 
d="M400 100h-300v500h100h100h100v-500zM500 100v500h-100v100h-100v100v100v100h-100v-100h-200v-100h200v-100h-100v-100h-100v-500v-100h100h300h100v100z" />
    <glyph glyph-name="c" unicode="c" horiz-adv-x="1300" 
d="M400 500h400v-100h-400v100zM1100 200v100v100h-100v100h-100v100h-600v-100v-100h-100v-100h-100v-100h100h100v100h100v-100h100h300h100v100h100v-100h100zM1200 300v100h-100v100h-100v100h-100v100h-600v-100h-100v-100v-100h-100h-100v-100v-100h100v-100h100v-100
h100h100v100h100h300v-100h100h100v100h100h100v100v100z" />
    <glyph glyph-name="d" unicode="d" horiz-adv-x="1200" 
d="M300 200h-200v200h200v-200zM400 200v300h100v100h500v-400h-600zM1000 100h100v100v400v100h-600h-100v-200h-100h-200v-100h-100v-200h100v-100h100v-100h200v100h300v-100h300v100z" />
    <glyph glyph-name="e" unicode="e" 
d="M100 600v200h200v-100h100v-100h-100v-100h-100v100h-100zM400 300v-100h-100v-100h-100h-100v100v100h100v100h100v-100h100zM800 300v-200h-100h-100v100h-100v100h100v100h100v-100h100zM800 600h100v200h-100v100h-200v-100h-100v-100h-100v100h-100v100h-200v-100
h-100v-200h100v-100h100v-100h-100v-100h-100v-100v-100h100v-100h100h100v100h100v100h100v-100h100v-100h100h100v100h100v200h-100v100h-100v100h100v100zM600 500v-100h-100v-100h-100v100h-100v100h100v100h100v-100h100zM500 600v100h100v100h200v-200h-100v-100h-100
v100h-100z" />
    <glyph glyph-name="f" unicode="f" horiz-adv-x="800" 
d="M200 500v100h100v-100h-100zM400 500v100h100v-100h-100zM300 200v100h100v-100h-100zM100 200v100h100v-100h-100zM600 200h-100v100h100v-100zM600 100v100h100v100h-100v400v100h-100v100h-300v-100h-100v-100v-300v-100h-100v-100h100v-100h-100v-100h100v100h500
v-100h100v100h-100z" />
    <glyph glyph-name="g" unicode="g" horiz-adv-x="600" 
d="M300 200v400h200v100h-300v-100v-400h-200v-200h200v100h100v100z" />
    <glyph glyph-name="h" unicode="h" horiz-adv-x="800" 
d="M700 200v400v100h-500v-100v-400h-200v-200h200v100h100v100v400h300v-400h-200v-200h200v100h100v100z" />
    <glyph glyph-name="i" unicode="i" horiz-adv-x="900" 
d="M200 -100v-100h400v100h-100v100h100v100h100v100h100v600h-100v-600h-100v-100h-400v100h-100v500h-100v-500h100v-100h100v-100h100v-100h-100zM500 900v100h-200v-100h-100v-600h100v-100h200v100h100v600h-100z" />
    <glyph glyph-name="j" unicode="j" 
d="M500 300v-100h-300v100h-100v300h100v100h300v-100h100v-300h-100zM800 100v100h-100v100v300h-100v100h-100v100h-300v-100h-100v-100h-100v-300h100v-100h100v-100h300v100h100v-100h100v-100h100v-100h100v200h-100zM200 500v-100h100v-100h100v100h100v100h-100v100
h-100v-100h-100z" />
    <glyph glyph-name="k" unicode="k" 
d="M500 300v-100h-300v100h-100v300h100v100h300v-100h100v-300h-100zM800 100v100h-100v100v300h-100v100h-100v100h-300v-100h-100v-100h-100v-300h100v-100h100v-100h300v100h100v-100h100v-100h100v-100h100v200h-100zM200 500v-100h300v100h-300z" />
    <glyph glyph-name="l" unicode="l" horiz-adv-x="800" 
d="M600 100h-500v700h500v-700zM700 800v100h-600v-100h-100v-800h100h600v100v700zM200 700v-100h300v100h-300zM200 500v-100h300v100h-300zM200 300v-100h300v100h-300z" />
    <glyph glyph-name="m" unicode="m" horiz-adv-x="900" 
d="M600 100h-500v700h500v-700zM800 900v100h-600v-100h-100v-100h-100v-800h100h600v100h100v800zM200 700v-100h300v100h-300zM200 500v-100h300v100h-300zM200 300v-100h300v100h-300z" />
    <glyph glyph-name="n" unicode="n" 
d="M600 100h-500v600h500v-600zM800 300h100v300h-100v100h-100v100h-100h-600v-100v-600h100v-100h500v100h100v100h100v100zM700 300v300h100v-300h-100zM300 700h-100h100zM500 700h-100h100zM100 800h100h-100zM300 800h100h-100zM500 800h100h-100z" />
    <glyph glyph-name="o" unicode="o" horiz-adv-x="800" 
d="M600 1000v-100h-100v-100h-100v-100h-300h-100v-100h100v-100h100v-100h100v-100v-200h-100v-100h300v100h-100v200v100h100v100h100v100h100v100h-100h-100v100h100v100h100v100h-100z" />
    <glyph glyph-name="p" unicode="p" horiz-adv-x="800" 
d="M500 600v-100h-100v-100h-100v100h-100v100h300zM200 100v-100h300v100h-100v200v100h100v100h100v100h100v100h-100h-500h-100v-100h100v-100h100v-100h100v-100v-200h-100z" />
    <glyph glyph-name="q" unicode="q" horiz-adv-x="700" 
d="M400 100h-300v300v100h100v200h100v-200h100v-400zM500 100v400h-100v300h-100h-100h-100v-300h-100v-100v-300v-100h100h300h100v100z" />
    <glyph glyph-name="r" unicode="r" horiz-adv-x="700" 
d="M200 400v100h100v200h100v-200h100v-100h-300zM600 100v400h-100v300h-100h-100h-100v-300h-100v-100v-300v-100h100h300h100v100z" />
    <glyph glyph-name="s" unicode="s" horiz-adv-x="900" 
d="M200 100h-100v300v100h400v-400h-300zM600 200v200h100v-200h-100zM300 600h-100v100h100v-100zM400 700h100v100h-100v100h-100v-100h-100v100h-100v-100h100v-100h-100v-100h-100v-200v-300h100v-100h100h300v100h100h100v100h100v200h-100v100h-100v100h-200v100z
M300 700v100h100v-100h-100z" />
    <glyph glyph-name="t" unicode="t" horiz-adv-x="1100" 
d="M700 200h-100v-100h-400v100h-100v200v100h600v-300zM900 300h100v100h-100v100h-100v100h-100h-700v-100v-100v-200h100v-100h100v-100h400v100h100v100h100h100v100zM800 300v100h100v-100h-100z" />
    <glyph glyph-name="u" unicode="u" horiz-adv-x="500" 
d="M0 100v-100h100v100h100v100h100v100h100v100h-100h-100v100h100v100h100v100h-100v-100h-100v-100h-100v-100h-100v-100h100h100v-100h-100v-100h-100z" />
    <glyph glyph-name="v" unicode="v" horiz-adv-x="600" 
d="M0 700v-400h100v400h-100zM100 300v-100h300v100h-300zM400 700v-400h100v400h-100zM100 700v-100h300v100h-300zM200 200v-200h100v200h-100zM100 700h100h-100zM300 700h100h-100zM100 900v-200h100v200h-100zM300 900v-200h100v200h-100z" />
    <glyph glyph-name="w" unicode="w" horiz-adv-x="1300" 
d="M300 100h-200v200h200v-200zM600 100v200h200v-200h-200zM1100 600v100h-100v-100h-100v-100h-100v-100h-200v-100h-100h-100h-100v100h100v100h100v100h100v-100h100v100h-100v100h-100v-100h-100v-100h-100v-100h-200v-100h-100v-200h100v-100h200v100h100v100h100
v-100h100v-100h200v100h100v200h-100v100h100v100h100v100h100v-100h100v100h-100z" />
    <glyph glyph-name="x" unicode="x" horiz-adv-x="1300" 
d="M300 100h-200v200h200v-200zM600 100v200h200v-200h-200zM1100 600v100h-100v-100h-100v-100h-100v-100h-200v-100h-100h-100h-100v100h100v100h100v100h100v-100h100v100h-100v100h-100v-100h-100v-100h-100v-100h-200v-100h-100v-200h100v-100h200v100h100v100h100
v-100h100v-100h200v100h100v200h-100v100h100v100h100v100h100v-100h100v100h-100zM100 300v-200h100v200h-100zM200 300v-200h100v200h-100zM600 300v-200h200v200h-200z" />
    <glyph glyph-name="y" unicode="y" horiz-adv-x="900" 
d="M600 400v-100h-100v-200h-100v200h-100v100h-100v100v100v100h100v100h300v-100h100v-300h-100zM600 0v100v200h100v100h100v300h-100v100h-100v100h-300v-100h-100v-100h-100v-100v-100v-100h100v-100h100v-200v-100v-100h300v100zM500 600v-100h-100v100h-100v-100h100
v-100h100v100h100v100h-100z" />
    <glyph glyph-name="z" unicode="z" 
d="M600 400v-100h-100v-200h-100v200h-100v100h-100v100v100v100h100v100h300v-100h100v-300h-100zM600 0v100v200h100v100h100v300h-100v100h-100v100h-300v-100h-100v-100h-100v-100v-100v-100h100v-100h100v-200v-100v-100h300v100zM500 600v-100h-100v100h-100v-100h100
v-100h100v100h100v100h-100zM200 1200v-100h100v-100h100v100h-100v100h-100zM600 1200v-100h-100v-100h100v100h100v100h-100zM800 1100v-100h-100v-100h100v100h100v100h-100zM0 1100v-100h100v-100h100v100h-100v100h-100z" />
    <glyph glyph-name="braceleft" unicode="{" horiz-adv-x="200" 
 />
    <glyph glyph-name="bar" unicode="|" horiz-adv-x="200" 
 />
    <glyph glyph-name="braceright" unicode="}" horiz-adv-x="400" 
 />
    <glyph glyph-name="Odieresis" unicode="&#xd6;" horiz-adv-x="500" 
 />
    <glyph glyph-name="nonbreakingspace" unicode="&#xe000;" horiz-adv-x="400" 
 />
  </font>
</defs>
</svg>
