<?xml version="1.0" standalone="no"?>
<!DOCTYPE svg PUBLIC "-//W3C//DTD SVG 1.1//EN" "http://www.w3.org/Graphics/SVG/1.1/DTD/svg11.dtd" >
<svg xmlns="http://www.w3.org/2000/svg" xmlns:xlink="http://www.w3.org/1999/xlink" version="1.1">
<metadata>
Created by FontForge 20170924 at Mon Oct 20 08:52:32 2014
 By www-data
somepx
</metadata>
<defs>
<font id="proxy" horiz-adv-x="640" >
  <font-face 
    font-family="proxy"
    font-weight="500"
    font-stretch="normal"
    units-per-em="1024"
    panose-1="2 0 6 9 0 0 0 0 0 0"
    ascent="768"
    descent="-256"
    x-height="256"
    cap-height="256"
    bbox="34 -128 512 682"
    underline-thickness="51"
    underline-position="-153"
    unicode-range="U+0020-3000"
  />
<missing-glyph 
d="M34 0v682h272v-682h-272zM68 34h204v614h-204v-614z" />
    <glyph glyph-name=".notdef" 
d="M34 0v682h272v-682h-272zM68 34h204v614h-204v-614z" />
    <glyph glyph-name=".null" horiz-adv-x="0" 
 />
    <glyph glyph-name="nonmarkingreturn" 
 />
    <glyph glyph-name="space" unicode=" " 
 />
    <glyph glyph-name="exclam" unicode="!" 
d="M128 64h64v-64h-64h-64v64h64zM128 128h-64v64v64v64v64h64h64v-64v-64v-64v-64h-64z" />
    <glyph glyph-name="quotedbl" unicode="&#x22;" 
d="M192 256v64v64h64v-64v-64h-64zM64 256v64v64h64v-64v-64h-64z" />
    <glyph glyph-name="numbersign" unicode="#" 
d="M320 64v64h-64v-64h-64v64h-64h-64v64h64h64v64h-64h-64v64h64h64v64h64v-64h64v64h64v-64h64h64v-64h-64h-64v-64h64h64v-64h-64h-64v-64h-64zM320 192v64h-64v-64h64z" />
    <glyph glyph-name="dollar" unicode="$" 
d="M448 0h-64h-64h-64h-64h-64h-64v64h64h64h64v64h-64h-64h-64v64v64v64h64h64h64h64h64h64h64v-64h-64h-64h-64v-64h64h64h64v-64v-64v-64h-64zM384 64v64h-64v-64h64zM256 192v64h-64v-64h64z" />
    <glyph glyph-name="percent" unicode="%" 
d="M448 0v64h64v-64h-64zM64 192v64h64v-64h-64zM192 0h-64v64h64v64h64v64h64v64h64h64v-64h-64v-64h-64v-64h-64v-64h-64z" />
    <glyph glyph-name="ampersand" unicode="&#x26;" 
d="M448 0v64h64v-64h-64zM320 0h-64h-64h-64h-64v64v64v64h64v64v64h64h64h64h64v-64v-64v-64h64v-64h-64v-64h-64zM256 64h64v64h-64h-64v-64h64zM448 128v64h64v-64h-64zM320 192v64h-64v-64h64z" />
    <glyph glyph-name="quotesingle" unicode="'" 
d="M64 256v64v64h64v-64v-64h-64z" />
    <glyph glyph-name="parenleft" unicode="(" 
d="M192 0v64h64v-64h-64zM192 64h-64v64h-64v64v64h64v64h64v-64v-64v-64v-64zM192 320v64h64v-64h-64z" />
    <glyph glyph-name="parenright" unicode=")" 
d="M64 0v64h64v-64h-64zM128 64v64v64v64v64h64v-64h64v-64v-64h-64v-64h-64zM128 320h-64v64h64v-64z" />
    <glyph glyph-name="asterisk" unicode="*" 
d="M448 0v64h64v-64h-64zM64 0v64h64v-64h-64zM448 64h-64v64h64v-64zM128 64v64h64v-64h-64zM384 128h-64h-64h-64v64v64h64v64v64h64v-64v-64h64v-64v-64zM384 256v64h64v-64h-64zM192 256h-64v64h64v-64zM448 320v64h64v-64h-64zM128 320h-64v64h64v-64z" />
    <glyph glyph-name="plus" unicode="+" 
d="M256 0v64v64h-64h-64h-64v64h64h64h64v64v64h64v-64v-64h64h64h64v-64h-64h-64h-64v-64v-64h-64z" />
    <glyph glyph-name="comma" unicode="," 
d="M64 -128v64h64v-64h-64zM128 -64v64h-64v64v64h64h64v-64v-64v-64h-64z" />
    <glyph glyph-name="hyphen" unicode="-" 
d="M448 192h64v-64h-64h-64h-64h-64h-64h-64h-64v64h64h64h64h64h64h64z" />
    <glyph glyph-name="period" unicode="." 
d="M128 0h-64v64v64h64h64v-64v-64h-64z" />
    <glyph glyph-name="slash" unicode="/" 
d="M128 0h-64v64h64v64h64v64h64v64h64h64v-64h-64v-64h-64v-64h-64v-64h-64z" />
    <glyph glyph-name="zero" unicode="0" 
d="M448 0h-64h-64h-64h-64h-64h-64v64v64v64v64v64h64h64h64h64h64h64h64v-64v-64v-64v-64v-64h-64zM320 64h64v64v64h-64v-64h-64v64h64v64h-64h-64v-64v-64h64v-64h64z" />
    <glyph glyph-name="one" unicode="1" 
d="M448 64h64v-64h-64h-64h-64h-64h-64h-64h-64v64h64h64h64v64v64v64h-64h-64h-64v64h64h64h64h64h64v-64v-64v-64v-64h64z" />
    <glyph glyph-name="two" unicode="2" 
d="M448 64h64v-64h-64h-64h-64h-64h-64h-64h-64v64v64v64h64h64h64h64h64v64h-64h-64h-64h-64h-64v64h64h64h64h64h64h64h64v-64v-64v-64h-64h-64h-64h-64h-64v-64h64h64h64h64z" />
    <glyph glyph-name="three" unicode="3" 
d="M448 0h-64h-64h-64h-64h-64h-64v64h64h64h64h64h64v64h-64h-64h-64h-64h-64v64h64h64h64h64h64v64h-64h-64h-64h-64h-64v64h64h64h64h64h64h64h64v-64v-64v-64v-64v-64h-64z" />
    <glyph glyph-name="four" unicode="4" 
d="M448 0h-64v64h-64h-64h-64h-64h-64v64v64v64v64h64h64v-64v-64v-64h64h64h64v64v64v64h64h64v-64v-64v-64v-64v-64h-64z" />
    <glyph glyph-name="five" unicode="5" 
d="M448 0h-64h-64h-64h-64h-64h-64v64h64h64h64h64h64v64h-64h-64h-64h-64h-64v64v64v64h64h64h64h64h64h64h64v-64h-64h-64h-64h-64h-64v-64h64h64h64h64h64v-64v-64v-64h-64z" />
    <glyph glyph-name="six" unicode="6" 
d="M448 0h-64h-64h-64h-64h-64h-64v64v64v64v64v64h64h64h64h64h64h64h64v-64h-64h-64h-64h-64h-64v-64h64h64h64h64h64v-64v-64v-64h-64zM320 64h64v64h-64h-64h-64v-64h64h64z" />
    <glyph glyph-name="seven" unicode="7" 
d="M448 0h-64v64v64h-64h-64h-64h-64h-64v64h64h64h64h64h64v64h-64h-64h-64h-64h-64v64h64h64h64h64h64h64h64v-64v-64v-64v-64v-64h-64z" />
    <glyph glyph-name="eight" unicode="8" 
d="M448 0h-64h-64h-64h-64h-64h-64v64v64v64v64v64h64h64h64h64h64h64h64v-64v-64v-64v-64v-64h-64zM320 64h64v64h-64h-64h-64v-64h64h64zM320 192h64v64h-64h-64h-64v-64h64h64z" />
    <glyph glyph-name="nine" unicode="9" 
d="M448 0h-64h-64h-64h-64h-64h-64v64h64h64h64h64h64v64h-64h-64h-64h-64h-64v64v64v64h64h64h64h64h64h64h64v-64v-64v-64v-64v-64h-64zM320 192h64v64h-64h-64h-64v-64h64h64z" />
    <glyph glyph-name="colon" unicode=":" 
d="M128 0h-64v64v64h64h64v-64v-64h-64zM128 192h-64v64v64h64h64v-64v-64h-64z" />
    <glyph glyph-name="semicolon" unicode=";" 
d="M64 -128v64h64v-64h-64zM128 -64v64h-64v64v64h64h64v-64v-64v-64h-64zM128 192h-64v64v64h64h64v-64v-64h-64z" />
    <glyph glyph-name="less" unicode="&#x3c;" 
d="M448 64h64v-64h-64h-64v64h64zM384 64h-64h-64h-64v64h-64h-64v64h64h64v64h64h64h64v-64h-64h-64v-64h64h64v-64zM448 320h64v-64h-64h-64v64h64z" />
    <glyph glyph-name="equal" unicode="=" 
d="M448 64h64v-64h-64h-64h-64h-64h-64h-64h-64v64h64h64h64h64h64h64zM448 256h64v-64h-64h-64h-64h-64h-64h-64h-64v64h64h64h64h64h64h64z" />
    <glyph glyph-name="greater" unicode="&#x3e;" 
d="M128 64h64v-64h-64h-64v64h64zM320 64h-64h-64v64h64h64v64h-64h-64v64h64h64h64v-64h64h64v-64h-64h-64v-64h-64zM192 256h-64h-64v64h64h64v-64z" />
    <glyph glyph-name="question" unicode="?" 
d="M256 64h64v-64h-64h-64v64h64zM256 128h-64v64v64h-64h-64v64v64h64h64h64h64v-64v-64v-64v-64h-64z" />
    <glyph glyph-name="at" unicode="@" 
d="M384 -64h-64h-64h-64h-64v64h64v64v64h64h64v64h-64h-64v64h64h64h64v-64v-64v-64v-64h64v-64h-64zM448 0v64v64v64v64v64h64v-64v-64v-64v-64v-64h-64zM320 0v64h-64v-64h64zM128 0h-64v64v64v64v64v64h64v-64v-64v-64v-64v-64zM448 320h-64h-64h-64h-64h-64v64h64h64
h64h64h64v-64z" />
    <glyph glyph-name="A" unicode="A" 
d="M448 0h-64v64h-64h-64h-64v-64h-64h-64v64v64v64v64h64h64h64h64h64h64h64v-64v-64v-64v-64h-64zM320 128h64v64h-64h-64h-64v-64h64h64z" />
    <glyph glyph-name="B" unicode="B" 
d="M448 0h-64h-64h-64h-64h-64h-64v64v64v64v64v64h64h64v-64h64h64h64h64h64v-64v-64v-64v-64h-64zM320 64h64v64v64h-64h-64h-64v-64v-64h64h64z" />
    <glyph glyph-name="C" unicode="C" 
d="M448 64h64v-64h-64h-64h-64h-64h-64h-64h-64v64v64v64v64h64h64h64h64h64h64h64v-64h-64h-64h-64h-64h-64v-64v-64h64h64h64h64z" />
    <glyph glyph-name="D" unicode="D" 
d="M448 0h-64h-64h-64h-64h-64h-64v64v64v64v64h64h64h64h64h64v64h64h64v-64v-64v-64v-64v-64h-64zM320 64h64v64v64h-64h-64h-64v-64v-64h64h64z" />
    <glyph glyph-name="E" unicode="E" 
d="M448 64h64v-64h-64h-64h-64h-64h-64h-64h-64v64v64v64v64v64h64h64h64h64h64h64h64v-64h-64h-64h-64h-64h-64v-64h64h64h64h64h64v-64h-64h-64h-64h-64h-64v-64h64h64h64h64z" />
    <glyph glyph-name="F" unicode="F" 
d="M128 0h-64v64v64v64v64v64h64h64h64h64h64h64h64v-64h-64h-64h-64h-64h-64v-64h64h64h64h64h64v-64h-64h-64h-64h-64h-64v-64v-64h-64z" />
    <glyph glyph-name="G" unicode="G" 
d="M448 -64h-64h-64h-64h-64h-64h-64v64h64h64h64h64h64v64h-64h-64h-64h-64h-64v64v64v64h64h64h64h64h64h64h64v-64v-64v-64v-64v-64h-64zM320 128h64v64h-64h-64h-64v-64h64h64z" />
    <glyph glyph-name="H" unicode="H" 
d="M448 0h-64v64v64v64h-64h-64h-64v-64v-64v-64h-64h-64v64v64v64v64v64h64h64v-64h64h64h64h64h64v-64v-64v-64v-64h-64z" />
    <glyph glyph-name="I" unicode="I" 
d="M448 64h64v-64h-64h-64h-64h-64h-64h-64h-64v64h64h64h64v64v64h-64h-64h-64v64h64h64h64h64h64h64h64v-64h-64h-64v-64v-64h64z" />
    <glyph glyph-name="J" unicode="J" 
d="M320 0h-64h-64h-64h-64v64h64h64h64v64v64h-64h-64h-64v64h64h64h64h64h64h64h64v-64h-64h-64v-64v-64v-64h-64z" />
    <glyph glyph-name="K" unicode="K" 
d="M448 0h-64v64v64h-64h-64h-64v-64v-64h-64h-64v64v64v64v64h64h64v-64h64h64h64v64h64h64v-64h-64v-64h64v-64v-64h-64z" />
    <glyph glyph-name="L" unicode="L" 
d="M448 64h64v-64h-64h-64h-64h-64h-64h-64h-64v64v64v64v64h64h64v-64v-64v-64h64h64h64h64z" />
    <glyph glyph-name="M" unicode="M" 
d="M256 0v64v64v64h-64v-64v-64v-64h-64h-64v64v64v64v64h64h64h64h64h64h64h64v-64v-64v-64v-64h-64h-64v64v64v64h-64v-64v-64v-64h-64z" />
    <glyph glyph-name="N" unicode="N" 
d="M448 0h-64v64v64v64h-64h-64h-64v-64v-64v-64h-64h-64v64v64v64v64h64h64h64h64h64h64h64v-64v-64v-64v-64h-64z" />
    <glyph glyph-name="O" unicode="O" 
d="M448 0h-64h-64h-64h-64h-64h-64v64v64v64v64h64h64h64h64h64h64h64v-64v-64v-64v-64h-64zM320 64h64v64v64h-64h-64h-64v-64v-64h64h64z" />
    <glyph glyph-name="P" unicode="P" 
d="M128 -128h-64v64v64v64v64v64v64h64h64h64h64h64h64h64v-64v-64v-64v-64h-64h-64h-64h-64h-64v-64v-64h-64zM320 64h64v64v64h-64h-64h-64v-64v-64h64h64z" />
    <glyph glyph-name="Q" unicode="Q" 
d="M448 -128h-64v64v64h-64h-64h-64h-64h-64v64v64v64v64h64h64h64h64h64h64h64v-64v-64v-64v-64v-64v-64h-64zM320 64h64v64v64h-64h-64h-64v-64v-64h64h64z" />
    <glyph glyph-name="R" unicode="R" 
d="M128 0h-64v64v64v64v64h64h64h64h64h64h64h64v-64h-64h-64h-64h-64h-64v-64v-64v-64h-64z" />
    <glyph glyph-name="S" unicode="S" 
d="M448 -64h-64h-64h-64h-64h-64h-64v64h64h64h64h64h64v64h-64h-64h-64h-64h-64v64v64v64h64h64h64h64h64h64h64v-64h-64h-64h-64h-64h-64v-64h64h64h64h64h64v-64v-64v-64h-64z" />
    <glyph glyph-name="T" unicode="T" 
d="M448 64h64v-64h-64h-64h-64h-64h-64h-64h-64v64v64v64v64v64h64h64v-64h64h64h64h64h64v-64h-64h-64h-64h-64h-64v-64v-64h64h64h64h64z" />
    <glyph glyph-name="U" unicode="U" 
d="M448 0h-64h-64h-64h-64h-64h-64v64v64v64v64h64h64v-64v-64v-64h64h64h64v64v64v64h64h64v-64v-64v-64v-64h-64z" />
    <glyph glyph-name="V" unicode="V" 
d="M320 64h64v-64h-64h-64h-64v64h64h64zM384 64v64v64v64h64h64v-64v-64v-64h-64h-64zM192 64h-64h-64v64v64v64h64h64v-64v-64v-64z" />
    <glyph glyph-name="W" unicode="W" 
d="M448 0h-64h-64h-64h-64h-64h-64v64v64v64v64h64h64v-64v-64v-64h64v64v64v64h64v-64v-64v-64h64v64v64v64h64h64v-64v-64v-64v-64h-64z" />
    <glyph glyph-name="X" unicode="X" 
d="M448 64h64v-64h-64h-64h-64v64h-64v-64h-64h-64h-64v64h64h64v64v64h-64h-64v64h64h64h64v-64h64v64h64h64h64v-64h-64h-64v-64v-64h64z" />
    <glyph glyph-name="Y" unicode="Y" 
d="M448 -64h-64h-64h-64h-64h-64h-64v64h64h64h64h64h64v64h-64h-64h-64h-64h-64v64v64v64h64h64v-64v-64h64h64h64v64v64h64h64v-64v-64v-64v-64v-64h-64z" />
    <glyph glyph-name="Z" unicode="Z" 
d="M448 0h64v-64h-64h-64h-64h-64h-64h-64h-64v64v64v64h64h64h64h64h64v64h-64h-64h-64h-64h-64v64h64h64h64h64h64h64h64v-64v-64v-64h-64h-64h-64h-64h-64v-64h64h64h64h64z" />
    <glyph glyph-name="bracketleft" unicode="[" 
d="M192 0h-64h-64v64v64v64v64v64v64h64h64h64v-64h-64v-64v-64v-64v-64h64v-64h-64z" />
    <glyph glyph-name="backslash" unicode="\" 
d="M320 0h-64v64h-64v64h-64v64h-64v64h64h64v-64h64v-64h64v-64h64v-64h-64z" />
    <glyph glyph-name="bracketright" unicode="]" 
d="M192 0h-64h-64v64h64v64v64v64v64h-64v64h64h64h64v-64v-64v-64v-64v-64v-64h-64z" />
    <glyph glyph-name="asciicircum" unicode="^" 
d="M384 128h-64v64v64h64h64v-64v-64h-64zM128 128h-64v64v64h64h64v-64v-64h-64zM320 256h-64h-64v64v64h64h64v-64v-64z" />
    <glyph glyph-name="underscore" unicode="_" 
d="M448 0h64v-64h-64h-64h-64h-64h-64h-64h-64v64h64h64h64h64h64h64z" />
    <glyph glyph-name="grave" unicode="`" 
d="M192 320h-64v64h-64v64h64h64v-64h64v-64h-64z" />
    <glyph glyph-name="a" unicode="a" 
d="M448 0v64h-64h-64h-64h-64h-64v-64h-64v64v64v64v64h64h64h64h64h64h64h64v-64v-64v-64v-64h-64zM384 128h64v64h-64h-64h-64h-64h-64v-64h64h64h64h64z" />
    <glyph glyph-name="b" unicode="b" 
d="M448 0h-64h-64h-64h-64h-64h-64v64v64v64v64v64h64v-64h64h64h64h64h64h64v-64v-64v-64v-64h-64zM384 64h64v64v64h-64h-64h-64h-64h-64v-64v-64h64h64h64h64z" />
    <glyph glyph-name="c" unicode="c" 
d="M448 64h64v-64h-64h-64h-64h-64h-64h-64h-64v64v64v64v64h64h64h64h64h64h64h64v-64h-64h-64h-64h-64h-64h-64v-64v-64h64h64h64h64h64z" />
    <glyph glyph-name="d" unicode="d" 
d="M448 0h-64h-64h-64h-64h-64h-64v64v64v64v64h64h64h64h64h64h64v64h64v-64v-64v-64v-64v-64h-64zM384 64h64v64v64h-64h-64h-64h-64h-64v-64v-64h64h64h64h64z" />
    <glyph glyph-name="e" unicode="e" 
d="M448 64h64v-64h-64h-64h-64h-64h-64h-64h-64v64v64v64v64v64h64h64h64h64h64h64h64v-64h-64h-64h-64h-64h-64h-64v-64h64h64h64h64h64h64v-64h-64h-64h-64h-64h-64h-64v-64h64h64h64h64h64z" />
    <glyph glyph-name="f" unicode="f" 
d="M64 0v64v64v64v64v64h64h64h64h64h64h64h64v-64h-64h-64h-64h-64h-64h-64v-64h64h64h64h64h64h64v-64h-64h-64h-64h-64h-64h-64v-64v-64h-64z" />
    <glyph glyph-name="g" unicode="g" 
d="M448 -64h-64h-64h-64h-64h-64h-64v64h64h64h64h64h64h64v64h-64h-64h-64h-64h-64h-64v64v64v64h64h64h64h64h64h64h64v-64v-64v-64v-64v-64h-64zM384 128h64v64h-64h-64h-64h-64h-64v-64h64h64h64h64z" />
    <glyph glyph-name="h" unicode="h" 
d="M448 0v64v64v64h-64h-64h-64h-64h-64v-64v-64v-64h-64v64v64v64v64v64h64v-64h64h64h64h64h64h64v-64v-64v-64v-64h-64z" />
    <glyph glyph-name="i" unicode="i" 
d="M448 64h64v-64h-64h-64h-64h-64h-64h-64h-64v64h64h64h64v64v64h-64h-64h-64v64h64h64h64h64h64h64h64v-64h-64h-64h-64v-64v-64h64h64z" />
    <glyph glyph-name="j" unicode="j" 
d="M256 0h-64h-64h-64v64h64h64h64v64v64h-64h-64h-64v64h64h64h64h64h64h64h64v-64h-64h-64h-64v-64v-64v-64h-64z" />
    <glyph glyph-name="k" unicode="k" 
d="M448 0v64v64h64v-64v-64h-64zM64 0v64v64v64v64h64v-64h64h64h64h64h64v-64h-64h-64h-64h-64h-64v-64v-64h-64zM448 192v64h64v-64h-64z" />
    <glyph glyph-name="l" unicode="l" 
d="M448 64h64v-64h-64h-64h-64h-64h-64h-64h-64v64v64v64v64h64v-64v-64v-64h64h64h64h64h64z" />
    <glyph glyph-name="m" unicode="m" 
d="M448 0v64v64v64h-64h-64v-64v-64v-64h-64v64v64v64h-64h-64v-64v-64v-64h-64v64v64v64v64h64h64h64h64h64h64h64v-64v-64v-64v-64h-64z" />
    <glyph glyph-name="n" unicode="n" 
d="M448 0v64v64v64h-64h-64h-64h-64h-64v-64v-64v-64h-64v64v64v64v64h64h64h64h64h64h64h64v-64v-64v-64v-64h-64z" />
    <glyph glyph-name="o" unicode="o" 
d="M448 0h-64h-64h-64h-64h-64h-64v64v64v64v64h64h64h64h64h64h64h64v-64v-64v-64v-64h-64zM384 64h64v64v64h-64h-64h-64h-64h-64v-64v-64h64h64h64h64z" />
    <glyph glyph-name="p" unicode="p" 
d="M64 -128v64v64v64v64v64v64h64h64h64h64h64h64h64v-64v-64v-64v-64h-64h-64h-64h-64h-64h-64v-64v-64h-64zM384 64h64v64v64h-64h-64h-64h-64h-64v-64v-64h64h64h64h64z" />
    <glyph glyph-name="q" unicode="q" 
d="M448 -128v64v64h-64h-64h-64h-64h-64h-64v64v64v64v64h64h64h64h64h64h64h64v-64v-64v-64v-64v-64v-64h-64zM384 64h64v64v64h-64h-64h-64h-64h-64v-64v-64h64h64h64h64z" />
    <glyph glyph-name="r" unicode="r" 
d="M64 0v64v64v64v64h64h64h64h64h64h64h64v-64h-64h-64h-64h-64h-64h-64v-64v-64v-64h-64z" />
    <glyph glyph-name="s" unicode="s" 
d="M448 -64h-64h-64h-64h-64h-64h-64v64h64h64h64h64h64h64v64h-64h-64h-64h-64h-64h-64v64v64v64h64h64h64h64h64h64h64v-64h-64h-64h-64h-64h-64h-64v-64h64h64h64h64h64h64v-64v-64v-64h-64z" />
    <glyph glyph-name="t" unicode="t" 
d="M448 64h64v-64h-64h-64h-64h-64h-64h-64h-64v64v64v64v64v64h64v-64h64h64h64h64h64h64v-64h-64h-64h-64h-64h-64h-64v-64v-64h64h64h64h64h64z" />
    <glyph glyph-name="u" unicode="u" 
d="M448 0h-64h-64h-64h-64h-64h-64v64v64v64v64h64v-64v-64v-64h64h64h64h64h64v64v64v64h64v-64v-64v-64v-64h-64z" />
    <glyph glyph-name="v" unicode="v" 
d="M384 64h64v-64h-64h-64h-64h-64h-64v64h64h64h64h64zM448 64v64v64v64h64v-64v-64v-64h-64zM128 64h-64v64v64v64h64v-64v-64v-64z" />
    <glyph glyph-name="w" unicode="w" 
d="M448 0h-64h-64h-64h-64h-64h-64v64v64v64v64h64v-64v-64v-64h64h64v64v64v64h64v-64v-64v-64h64h64v64v64v64h64v-64v-64v-64v-64h-64z" />
    <glyph glyph-name="x" unicode="x" 
d="M448 64h64v-64h-64h-64h-64v64h64h64zM192 64h64v-64h-64h-64h-64v64h64h64zM320 64h-64v64v64h64v-64v-64zM448 256h64v-64h-64h-64h-64v64h64h64zM256 192h-64h-64h-64v64h64h64h64v-64z" />
    <glyph glyph-name="y" unicode="y" 
d="M448 -64h-64h-64h-64h-64h-64h-64v64h64h64h64h64h64h64v64h-64h-64h-64h-64h-64h-64v64v64v64h64v-64v-64h64h64h64h64h64v64v64h64v-64v-64v-64v-64v-64h-64z" />
    <glyph glyph-name="z" unicode="z" 
d="M448 0h64v-64h-64h-64h-64h-64h-64h-64h-64v64v64v64h64h64h64h64h64h64v64h-64h-64h-64h-64h-64h-64v64h64h64h64h64h64h64h64v-64v-64v-64h-64h-64h-64h-64h-64h-64v-64h64h64h64h64h64z" />
    <glyph glyph-name="braceleft" unicode="{" 
d="M256 0h-64h-64v64v64h-64v64v64h64v64v64h64h64h64v-64h-64v-64h-64v-64v-64h64v-64h64v-64h-64z" />
    <glyph glyph-name="bar" unicode="|" 
d="M128 0h-64v64v64v64v64v64v64h64h64v-64v-64v-64v-64v-64v-64h-64z" />
    <glyph glyph-name="braceright" unicode="}" 
d="M192 0h-64h-64v64h64v64h64v64v64h-64v64h-64v64h64h64h64v-64v-64h64v-64v-64h-64v-64v-64h-64z" />
    <glyph glyph-name="asciitilde" unicode="~" 
d="M384 128h-64v64h-64h-64v-64h-64h-64v64v64h64h64v64h64h64v-64h64h64v-64v-64h-64z" />
    <glyph glyph-name="uni00A0" unicode="&#xa0;" 
 />
    <glyph glyph-name="exclamdown" unicode="&#xa1;" 
d="M128 0h-64v64v64v64v64h64h64v-64v-64v-64v-64h-64zM128 384h64v-64h-64h-64v64h64z" />
    <glyph glyph-name="cent" unicode="&#xa2;" 
d="M448 64h64v-64h-64h-64h-64h-64h-64h-64h-64v64v64v64v64h64h64h64h64h64h64h64v-64h-64h-64h-64v-64v-64h64h64zM256 64v64v64h-64v-64v-64h64z" />
    <glyph glyph-name="sterling" unicode="&#xa3;" 
d="M320 256v64h-64v-64v-64h64h64h64h64v-64h-64h-64h-64h-64v-64h64h64h64h64v-64h-64h-64h-64h-64h-64h-64v64v64h-64v64h64v64v64v64h64h64h64h64v-64v-64h-64z" />
    <glyph glyph-name="currency" unicode="&#xa4;" 
d="M256 64v64h64v-64h-64zM448 128h64v-64h-64h-64v64h64zM128 128h64v-64h-64h-64v64h64zM384 128h-64v64v64h64v-64v-64zM256 128h-64v64v64h64v-64v-64zM448 320h64v-64h-64h-64v64h64zM320 256h-64v64h64v-64zM192 256h-64h-64v64h64h64v-64z" />
    <glyph glyph-name="yen" unicode="&#xa5;" 
d="M448 0h64v-64h-64h-64h-64h-64h-64h-64h-64v64h64h64h64v64h-64h-64h-64v64h64h64h64v64h-64h-64h-64v64v64h64h64v-64h64h64h64v64h64h64v-64v-64h-64h-64h-64v-64h64h64h64v-64h-64h-64h-64v-64h64h64z" />
    <glyph glyph-name="brokenbar" unicode="&#xa6;" 
d="M128 0h-64v64v64v64h64h64v-64v-64v-64h-64zM128 256h-64v64v64v64h64h64v-64v-64v-64h-64z" />
    <glyph glyph-name="section" unicode="&#xa7;" 
d="M448 -64h-64h-64h-64h-64h-64h-64v64h64h64h64h64h64v64h-64h-64h-64h-64h-64v64v64v64h64h64h64h64h64v64h-64h-64h-64h-64h-64v64v64v64h64h64h64h64h64h64h64v-64h-64h-64h-64h-64h-64v-64h64h64h64h64h64v-64v-64v-64h-64h-64h-64h-64h-64v-64h64h64h64h64h64v-64
v-64v-64h-64z" />
    <glyph glyph-name="dieresis" unicode="&#xa8;" 
d="M448 384h64v-64h-64h-64h-64h-64h-64h-64h-64v64h64h64h64h64h64h64z" />
    <glyph glyph-name="copyright" unicode="&#xa9;" 
d="M384 -64h-64h-64h-64h-64v64h64v64v64v64v64h64h64h64v-64h-64h-64v-64v-64h64h64v-64h64v-64h-64zM448 0v64v64v64v64v64h64v-64v-64v-64v-64v-64h-64zM128 0h-64v64v64v64v64v64h64v-64v-64v-64v-64v-64zM448 320h-64h-64h-64h-64h-64v64h64h64h64h64h64v-64z" />
    <glyph glyph-name="Euro" unicode="&#x20ac;" 
d="M448 320v64h64v-64h-64zM384 64h64v-64h-64h-64h-64h-64v64h-64v64h-64v64h64v64h-64v64h64v64h64v64h64h64h64h64v-64h-64h-64h-64v-64h64h64v-64h-64h-64v-64h64h64v-64h-64h-64v-64h64h64zM448 64v64h64v-64h-64z" />
    <glyph glyph-name="uni3000" unicode="&#x3000;" 
 />
  </font>
</defs>
</svg>
