<?xml version="1.0" standalone="no"?>
<!DOCTYPE svg PUBLIC "-//W3C//DTD SVG 1.1//EN" "http://www.w3.org/Graphics/SVG/1.1/DTD/svg11.dtd" >
<svg xmlns="http://www.w3.org/2000/svg" xmlns:xlink="http://www.w3.org/1999/xlink" version="1.1">
<metadata>
Created by FontForge 20170924 at Wed Mar 20 17:39:50 2013
 By www-data
</metadata>
<defs>
<font id="pxl" horiz-adv-x="400" >
  <font-face 
    font-family="pxl"
    font-weight="400"
    font-stretch="normal"
    units-per-em="1000"
    panose-1="2 0 0 0 0 0 0 0 0 0"
    ascent="800"
    descent="-200"
    x-height="500"
    cap-height="700"
    bbox="-101 -201 999 1000"
    underline-thickness="125"
    underline-position="-125"
    unicode-range="U+0020-25CA"
  />
<missing-glyph horiz-adv-x="375" 
 />
    <glyph glyph-name=".notdef" horiz-adv-x="375" 
 />
    <glyph glyph-name=".null" horiz-adv-x="0" 
 />
    <glyph glyph-name="nonmarkingreturn" horiz-adv-x="375" 
 />
    <glyph glyph-name="space" unicode=" " horiz-adv-x="200" 
 />
    <glyph glyph-name="parenleft" unicode="(" horiz-adv-x="300" 
d="M201 800h-200v-900h200v100h-100v700h100v100z" />
    <glyph glyph-name="parenright" unicode=")" horiz-adv-x="300" 
d="M1 700h100v-700h-100v-100h200v900h-200v-100z" />
    <glyph glyph-name="asterisk" unicode="*" 
d="M100 700v-100h-100v100h100zM300 700v-100h-100v100h100zM200 600v-100h-100v100h100zM100 500v-100h-100v100h100zM300 500v-100h-100v100h100z" />
    <glyph glyph-name="plus" unicode="+" 
d="M300 400v-100h-300v100h300zM200 500v-300h-100v300h100z" />
    <glyph glyph-name="comma" unicode="," horiz-adv-x="200" 
d="M100 100v-200h-100v200h100z" />
    <glyph glyph-name="hyphen" unicode="-" 
d="M300 400v-100h-300v100h300z" />
    <glyph glyph-name="period" unicode="." horiz-adv-x="200" 
d="M0 0v100h100v-100h-100z" />
    <glyph glyph-name="slash" unicode="/" horiz-adv-x="300" 
d="M100 700v-300h-100l-1 -400h100l1 300h100v400h-100z" />
    <glyph glyph-name="zero" unicode="0" 
d="M0 700v-700h300v700h-300zM200 600v-500h-100v500h100z" />
    <glyph glyph-name="one" unicode="1" 
d="M0 700h200v-600h100v-100h-300v100h100v500h-100v100z" />
    <glyph glyph-name="two" unicode="2" 
d="M0 700v-200h100v100h100v-200h-200v-400h300v100h-200v200h200v400h-300z" />
    <glyph glyph-name="three" unicode="3" 
d="M0 700h300v-700h-300v100h200v200h-100v100h100v200h-200v100zM0 500v100h100v-100h-100zM100 200v-100h-100v100h100z" />
    <glyph glyph-name="four" unicode="4" 
d="M0 700l1 -400h200v-300h99v700h-100v-300h-99l-1 300h-100z" />
    <glyph glyph-name="five" unicode="5" 
d="M300 700h-300v-400h200v-200h-100v100h-100v-200h300v400h-200v200h200v100z" />
    <glyph glyph-name="six" unicode="6" 
d="M0 700v-700h300v400h-200v200h200v100h-300zM200 300v-200h-100v200h100zM300 600v-100h-100v100h100z" />
    <glyph glyph-name="seven" unicode="7" 
d="M300 700v-100h-300v100h300zM200 400v200h100v-200h-100zM100 0v400h100v-400h-100z" />
    <glyph glyph-name="eight" unicode="8" 
d="M0 700v-700h300v700h-300zM200 300v-200h-100v200h100zM200 600v-200h-100v200h100z" />
    <glyph glyph-name="nine" unicode="9" 
d="M300 0v700h-300v-400h200v-200h-200v-100h300zM100 400v200h100v-200h-100zM100 200v-100h-100v100h100z" />
    <glyph glyph-name="colon" unicode=":" horiz-adv-x="200" 
d="M100 500v-100h-100v100h100zM100 100v-100h-100v100h100z" />
    <glyph glyph-name="semicolon" unicode=";" horiz-adv-x="200" 
d="M100 500v-100h-100v100h100zM100 100v-200h-100v200h100z" />
    <glyph glyph-name="less" unicode="&#x3c;" horiz-adv-x="300" 
d="M100 300v-100h-100v100h100zM200 500v-200h-100v200h100zM200 200v-200h-100v200h100z" />
    <glyph glyph-name="equal" unicode="=" 
d="M300 500v-100h-300v100h300zM300 300v-100h-300v100h300z" />
    <glyph glyph-name="greater" unicode="&#x3e;" horiz-adv-x="300" 
d="M200 300v-100h-100v100h100zM100 500v-200h-100v200h100zM100 200v-200h-100v200h100z" />
    <glyph glyph-name="question" unicode="?" 
d="M0 700h300v-400h-100v-100h-100v200h100v200h-200v100zM200 100v-100h-100v100h100zM0 500v100h100v-100h-100z" />
    <glyph glyph-name="at" unicode="@" horiz-adv-x="600" 
d="M500 600h-500v-600h100v500h300v-100h-200v-300h300v500zM400 200h-100v100h100v-100zM500 0v-100h-500v100h500z" />
    <glyph glyph-name="A" unicode="A" 
d="M100 0v300h100v-300h100v700h-300v-700h100zM100 400v200h100v-200h-100z" />
    <glyph glyph-name="B" unicode="B" 
d="M100 700v-700h-100v700h100zM300 700v-700h-100v700h100zM300 700v-100h-300v100h300zM300 400v-100h-300v100h300zM300 100v-100h-300v100h300z" />
    <glyph glyph-name="C" unicode="C" 
d="M0 700v-700h300v200h-100v-100h-100v500h100v-100h100v200h-300z" />
    <glyph glyph-name="D" unicode="D" 
d="M300 0v600h-100v100h-200v-700h300zM200 600v-500h-100v500h100z" />
    <glyph glyph-name="E" unicode="E" horiz-adv-x="300" 
d="M0 700v-700h200v100h-100v200h100v100h-100v200h100v100h-200z" />
    <glyph glyph-name="F" unicode="F" horiz-adv-x="300" 
d="M0 700v-700h100v300h100v100h-100v200h100v100h-200z" />
    <glyph glyph-name="G" unicode="G" 
d="M0 700v-700h300v400h-100v-300h-100v500h100v-100h100v200h-300z" />
    <glyph glyph-name="H" unicode="H" 
d="M0 700v-700h100v300h100v-300h100v700h-100v-300h-100v300h-100z" />
    <glyph glyph-name="I" unicode="I" horiz-adv-x="200" 
d="M100 700v-700h-100v700h100z" />
    <glyph glyph-name="J" unicode="J" 
d="M0 200v-200h300v700h-200v-100h100v-500h-100v100h-100z" />
    <glyph glyph-name="K" unicode="K" 
d="M0 700h100v-300h100v-100h-100v-300h-100v700zM300 700v-300h-100v300h100zM300 300v-300h-100v300h100z" />
    <glyph glyph-name="L" unicode="L" horiz-adv-x="300" 
d="M0 700v-700h200v100h-100v600h-100z" />
    <glyph glyph-name="M" unicode="M" horiz-adv-x="600" 
d="M100 700v-700h-100v700h100zM300 700v-700h-100v700h100zM500 700v-700h-100v700h100zM500 700v-100h-500v100h500z" />
    <glyph glyph-name="N" unicode="N" 
d="M0 700v-700h100v600h100v-600h100v700h-300z" />
    <glyph glyph-name="O" unicode="O" 
d="M0 700v-700h300v700h-300zM200 600v-500h-100v500h100z" />
    <glyph glyph-name="P" unicode="P" 
d="M100 0v300h200v400h-300v-700h100zM100 400v200h100v-200h-100z" />
    <glyph glyph-name="Q" unicode="Q" 
d="M0 700v-700h200v-100h100v800h-300zM200 600v-500h-100v500h100z" />
    <glyph glyph-name="R" unicode="R" 
d="M100 0v300h100v100h100v300h-300v-700h100zM100 400v200h100v-200h-100zM300 300v-300h-100v300h100z" />
    <glyph glyph-name="S" unicode="S" 
d="M302 0v400h-201v200h100v-100h100v200h-300v-400h200v-200h-100l-1 101h-100l1 -201h301z" />
    <glyph glyph-name="T" unicode="T" 
d="M0 700v-100h100v-600h100v600h100v100h-300z" />
    <glyph glyph-name="U" unicode="U" 
d="M300 0v700h-100v-600h-100v600h-100v-700h300z" />
    <glyph glyph-name="V" unicode="V" 
d="M100 700v-600h-100v600h100zM300 700v-600h-100v600h100zM0 0v100h200v-100h-200z" />
    <glyph glyph-name="W" unicode="W" horiz-adv-x="600" 
d="M0 0v700h100v-700h-100zM200 0v700h100v-700h-100zM400 0v700h100v-700h-100zM0 0v100h500v-100h-500z" />
    <glyph glyph-name="X" unicode="X" 
d="M0 700v-300h100v-100h-100v-300h100v300h100v-300h100v300h-100v100h100v300h-100v-300h-100v300h-100z" />
    <glyph glyph-name="Y" unicode="Y" 
d="M0 700v-500h200v-100h-200v-100h300v700h-100v-400h-100v400h-100z" />
    <glyph glyph-name="Z" unicode="Z" 
d="M300 700v-100h-300v100h300zM300 100v-100h-300v100h300zM300 600v-200h-100v200h100zM100 300v-200h-100v200h100zM200 400v-100h-100v100h100z" />
    <glyph glyph-name="bracketleft" unicode="[" horiz-adv-x="300" 
d="M200 800v-100h-100v-700h100v-100h-200v900h200z" />
    <glyph glyph-name="backslash" unicode="\" horiz-adv-x="300" 
d="M0 700v-400h100v-300h99l1 400h-100v300h-100z" />
    <glyph glyph-name="bracketright" unicode="]" horiz-adv-x="300" 
d="M0 800v-100h99v-700h-100v-100h200v900h-199z" />
    <glyph glyph-name="asciicircum" unicode="^" 
d="M0 400v100h300v-100h-300z" />
    <glyph glyph-name="underscore" unicode="_" horiz-adv-x="500" 
d="M0 -100v100h400v-100h-400z" />
    <glyph glyph-name="grave" unicode="`" horiz-adv-x="200" 
d="M100 700v-200h-100v200h100z" />
    <glyph glyph-name="a" unicode="a" 
d="M0 500v-100h200v-100h-200v-300h300v500h-300zM200 200v-100h-100v100h100z" />
    <glyph glyph-name="b" unicode="b" 
d="M0 700v-700h300v500h-200v200h-100zM200 400v-300h-100v300h100z" />
    <glyph glyph-name="c" unicode="c" 
d="M300 0v200h-100v-100h-100v300h100v-100h100v200h-300v-500h300z" />
    <glyph glyph-name="d" unicode="d" 
d="M200 700v-200h-200v-500h300v700h-100zM200 400v-300h-100v300h100z" />
    <glyph glyph-name="e" unicode="e" 
d="M300 0v100h-200v100h200v300h-300v-500h300zM100 300v100h100v-100h-100z" />
    <glyph glyph-name="f" unicode="f" 
d="M100 700v-200h-100v-100h100v-300h-100v-100h200v400h100v100h-100v100h100v100h-200z" />
    <glyph glyph-name="g" unicode="g" 
d="M300 -100v600h-300v-400h200v-100h-200v-100h300zM100 200v200h100v-200h-100z" />
    <glyph glyph-name="h" unicode="h" 
d="M0 700v-700h100v400h100v-400h100v500h-200v200h-100z" />
    <glyph glyph-name="i" unicode="i" horiz-adv-x="200" 
d="M100 700v-100h-100v100h100zM100 500v-500h-100v500h100z" />
    <glyph glyph-name="j" unicode="j" horiz-adv-x="200" 
d="M101 700v-100h-100v100h100zM0 500l-1 -500h-100v-100h200l1 600h-100z" />
    <glyph glyph-name="k" unicode="k" 
d="M0 700v-700h100v200h100v100h100v200h-100v-200h-100v400h-100zM200 0v200h100v-200h-100z" />
    <glyph glyph-name="l" unicode="l" horiz-adv-x="200" 
d="M100 700v-700h-100v700h100z" />
    <glyph glyph-name="m" unicode="m" horiz-adv-x="600" 
d="M-1 0v500h500v-500h-100v400h-100v-400h-100v400h-100v-400h-100z" />
    <glyph glyph-name="n" unicode="n" 
d="M0 500v-500h100v400h100v-400h100v500h-300z" />
    <glyph glyph-name="o" unicode="o" 
d="M0 500v-500h300v500h-300zM200 400v-300h-100v300h100z" />
    <glyph glyph-name="p" unicode="p" 
d="M100 -100v101h200v500h-300v-601h100zM100 101v300h100v-300h-100z" />
    <glyph glyph-name="q" unicode="q" 
d="M300 -100v601h-300v-500h200v-101h100zM100 101v300h100v-300h-100z" />
    <glyph glyph-name="r" unicode="r" horiz-adv-x="300" 
d="M200 500v-100h-100v-400h-100v500h200z" />
    <glyph glyph-name="s" unicode="s" 
d="M0 500v-300h200v-100h-200v-100h300v300h-200v100h200v100h-300z" />
    <glyph glyph-name="t" unicode="t" horiz-adv-x="300" 
d="M200 100h-100v300h100v100h-100v100h-100v-600h200v100z" />
    <glyph glyph-name="u" unicode="u" 
d="M300 0v500h-100v-400h-100v400h-100v-500h300z" />
    <glyph glyph-name="v" unicode="v" 
d="M300 100v400h-100v-400h-100v400h-100v-400h300zM200 100v-100h-200v100h200z" />
    <glyph glyph-name="w" unicode="w" horiz-adv-x="600" 
d="M99 500v-400h100v400h100v-400h100v400h100v-500h-500v500h100z" />
    <glyph glyph-name="x" unicode="x" 
d="M0 500v-200h300v200h-100v-200h-100v200h-100zM100 200v100h100v-100h-100zM0 0v200h100v-200h-100zM200 0v200h100v-200h-100z" />
    <glyph glyph-name="y" unicode="y" 
d="M0 500v-400h200v-100h-200v-100h300v600h-100v-300h-100v300h-100z" />
    <glyph glyph-name="z" unicode="z" 
d="M0 500v-100h200v-100h-200v-300h300v100h-200v100h200v300h-300z" />
    <glyph glyph-name="braceleft" unicode="{" 
d="M100 800v-400h-100v-100h100v-400h200v100h-100v700h100v100h-200z" />
    <glyph glyph-name="bar" unicode="|" horiz-adv-x="200" 
d="M100 800v-900h-100v900h100z" />
    <glyph glyph-name="braceright" unicode="}" 
d="M0 800v-100h100v-700h-100v-100h200v400h100v100h-100v400h-200z" />
    <glyph glyph-name="asciitilde" unicode="~" 
d="M200 601v-100h-200v100h200zM400 501v-100h-200v100h200z" />
    <glyph glyph-name="uni00A0" unicode="&#xa0;" horiz-adv-x="200" 
 />
    <glyph glyph-name="exclamdown" unicode="&#xa1;" horiz-adv-x="200" 
d="M0 600v100h100v-100h-100zM100 500v-500h-100v500h100z" />
    <glyph glyph-name="cent" unicode="&#xa2;" 
d="M200 0h100v200h-100v-100h-100v300h100v-100h100v200h-100v100h-100v-100h-100v-500h100v-100h100v100z" />
    <glyph glyph-name="sterling" unicode="&#xa3;" horiz-adv-x="500" 
d="M0 400v-100h100v-200h-100v-100h400v100h-200v200h100v100h-100v200h100v-100h100v200h-300v-300h-100z" />
    <glyph glyph-name="currency" unicode="&#xa4;" horiz-adv-x="600" 
d="M100 500v-100h-100v100h100zM400 400v-100h-300v100h300zM500 500v-100h-100v100h100zM500 100v-100h-100v100h100zM100 100v-100h-100v100h100zM401 400v-300h-100v300h100zM200 400v-300h-100v300h100zM399 200v-100h-300v100h300z" />
    <glyph glyph-name="yen" unicode="&#xa5;" 
d="M200 200v100h100v400h-100v-300h-100v300h-100v-400h100v-100h-100v-100h100v-100h100v100h100v100h-100z" />
    <glyph glyph-name="brokenbar" unicode="&#xa6;" horiz-adv-x="200" 
d="M100 700v-300h-100v300h100zM100 300v-300h-100v300h100z" />
    <glyph glyph-name="section" unicode="&#xa7;" 
d="M100 700v-300h-100v300h100zM300 700v-200h-100v200h100zM100 200v-200h-100v200h100zM300 100v-100h-300v100h300zM300 700v-100h-300v100h300zM300 300v-300h-100v300h100zM200 400v-100h-100v100h100z" />
    <glyph glyph-name="dieresis" unicode="&#xa8;" 
d="M100 700v-100h-100v100h100zM300 700v-100h-100v100h100z" />
    <glyph glyph-name="copyright" unicode="&#xa9;" horiz-adv-x="700" 
d="M400 300v-100h-200v300h200v-100h-100v-100h100zM0 700v-700h600v700h-600zM500 600v-500h-400v500h400z" />
    <glyph glyph-name="ordfeminine" unicode="&#xaa;" horiz-adv-x="300" 
d="M0 500v-200h200v400h-200v-100h100v-100h-100z" />
    <glyph glyph-name="guillemotleft" unicode="&#xab;" horiz-adv-x="600" 
d="M200 500v-100h-100v100h100zM500 400v-100h-500v100h500zM200 300v-100h-100v100h100zM300 600v-100h-100v100h100zM300 200v-100h-100v100h100z" />
    <glyph glyph-name="logicalnot" unicode="&#xac;" horiz-adv-x="600" 
d="M300 100v-100h-300v100h300zM500 300h-100v100h100v-100zM400 400h-100v100h100v-100zM200 400h-100v100h100v-100zM100 300h-100v100h100v-100zM300 100h-100v500h100v-500z" />
    <glyph glyph-name="registered" unicode="&#xae;" horiz-adv-x="700" 
d="M300 400h-100v200h200v-100h-100v-100zM0 800v-600h600v600h-600zM500 700v-400h-400v400h400z" />
    <glyph glyph-name="macron" unicode="&#xaf;" horiz-adv-x="600" 
d="M0 400v100h300v-100h-300zM500 100h-100v100h100v-100zM400 0h-100v100h100v-100zM200 0h-100v100h100v-100zM100 100h-100v100h100v-100zM300 -100h-100v500h100v-500z" />
    <glyph glyph-name="degree" unicode="&#xb0;" 
d="M0 701v-301h300v301h-300zM200 601v-101h-100v101h100z" />
    <glyph glyph-name="plusminus" unicode="&#xb1;" 
d="M300 500v-100h-300v100h300zM200 600v-300h-100v300h100zM300 200v-100h-300v100h300z" />
    <glyph glyph-name="acute" unicode="&#xb4;" horiz-adv-x="200" 
d="M100 700v-200h-100v200h100z" />
    <glyph glyph-name="mu" unicode="&#xb5;" horiz-adv-x="600" 
d="M500 500v-100h-400v100h400zM500 500v-400h-100v400h100zM300 300v200h200v-200h-200zM300 300v-100h-100v100h100zM200 200v-100h-100v100h100zM100 100v-100h-100v100h100z" />
    <glyph glyph-name="paragraph" unicode="&#xb6;" horiz-adv-x="500" 
d="M0 700h400v-700h-100v600h-100v-600h-100v300h-100v400z" />
    <glyph glyph-name="periodcentered" unicode="&#xb7;" horiz-adv-x="200" 
d="M100 500v-100h-100v100h100z" />
    <glyph glyph-name="cedilla" unicode="&#xb8;" horiz-adv-x="200" 
d="M100 100v-200h-100v200h100z" />
    <glyph glyph-name="ordmasculine" unicode="&#xba;" 
d="M0 500v-300h200v-100h-200v-100h100v-100h100v100h100v300h-200v100h200v100h-300z" />
    <glyph glyph-name="guillemotright" unicode="&#xbb;" horiz-adv-x="600" 
d="M300.012 500v-100h99.9941v100h-99.9941zM0.0302734 400v-100h499.97v100h-499.97zM300.012 300v-100h99.9941v100h-99.9941zM200.019 600v-100h99.9932v100h-99.9932zM200.019 200v-100h99.9932v100h-99.9932z" />
    <glyph glyph-name="onequarter" unicode="&#xbc;" horiz-adv-x="900" 
d="M0 700h200v-500h-100v400h-100v100zM399 700v-300h-100v-400h100v300h100v400h-100zM700 499v-300h-100v300h100zM800 300v-300h-100v300h100z" />
    <glyph glyph-name="onehalf" unicode="&#xbd;" horiz-adv-x="900" 
d="M600 500h200v-300h-100v-100h100v-100h-200v300h100v100h-100v100zM0 700h200v-500h-100v400h-100v100zM399 700v-300h-100v-400h100v300h100v400h-100z" />
    <glyph glyph-name="threequarters" unicode="&#xbe;" horiz-adv-x="900" 
d="M399 700v-300h-100v-400h100v300h100v400h-100zM200 700v-100h-200v100h200zM201 700v-400h-100v400h100zM200 500v-100h-200v100h200zM200 300v-100h-200v100h200zM700 499v-300h-100v300h100zM800 300v-300h-100v300h100z" />
    <glyph glyph-name="questiondown" unicode="&#xbf;" 
d="M300 0.0429688h-299.981v399.976h99.9932v99.9932h99.9941v-199.987h-99.9941v-199.987h199.988v-99.9941zM100.012 600.006v99.9941h99.9941v-99.9941h-99.9941zM300 200.03v-99.9932h-99.9941v99.9932h99.9941z" />
    <glyph glyph-name="Agrave" unicode="&#xc0;" horiz-adv-x="500" 
d="M100 0v300h100v-300h100v700h-300v-700h100zM100 400v200h100v-200h-100zM200 1000v-200h-100v200h100z" />
    <glyph glyph-name="Aacute" unicode="&#xc1;" 
d="M100 0v300h100v-300h100v700h-300v-700h100zM100 400v200h100v-200h-100zM200 1000v-200h-100v200h100z" />
    <glyph glyph-name="Acircumflex" unicode="&#xc2;" horiz-adv-x="500" 
d="M100 0v300h100v-300h100v700h-300v-700h100zM100 400v200h100v-200h-100zM0 800v100h300v-100h-300z" />
    <glyph glyph-name="Atilde" unicode="&#xc3;" horiz-adv-x="500" 
d="M100 0v300h100v-300h100v700h-300v-700h100zM100 400v200h100v-200h-100zM0 800v100h300v-100h-300z" />
    <glyph glyph-name="Adieresis" unicode="&#xc4;" 
d="M100 0v300h100v-300h100v700h-300v-700h100zM100 400v200h100v-200h-100zM100 900v-100h-100v100h100zM300 900v-100h-100v100h100z" />
    <glyph glyph-name="Aring" unicode="&#xc5;" horiz-adv-x="500" 
d="M100 0v300h100v-300h100v700h-300v-700h100zM100 400v200h100v-200h-100zM100 800v100h100v-100h-100z" />
    <glyph glyph-name="AE" unicode="&#xc6;" horiz-adv-x="500" 
d="M100 0v300h100v-300h100v700h-300v-700h100zM100 400v200h100v-200h-100zM300 300v100h100v-100h-100zM300 0v100h100v-100h-100zM300 600v100h100v-100h-100z" />
    <glyph glyph-name="Ccedilla" unicode="&#xc7;" 
d="M0 700v-700h300v200h-100v-100h-100v500h100v-100h100v200h-300zM100 -100v100h100v-100h-100z" />
    <glyph glyph-name="Egrave" unicode="&#xc8;" horiz-adv-x="300" 
d="M0 700v-700h200v100h-100v200h100v100h-100v200h100v100h-200zM200 900v-200h-100v200h100z" />
    <glyph glyph-name="Eacute" unicode="&#xc9;" horiz-adv-x="300" 
d="M0 700v-700h200v100h-100v200h100v100h-100v200h100v100h-200zM200 900v-200h-100v200h100z" />
    <glyph glyph-name="Ecircumflex" unicode="&#xca;" horiz-adv-x="300" 
d="M0 700v-700h200v100h-100v200h100v100h-100v200h100v100h-200zM200 900v-100h-200v100h200z" />
    <glyph glyph-name="Edieresis" unicode="&#xcb;" horiz-adv-x="300" 
d="M0 700v-700h200v100h-100v200h100v100h-100v200h100v100h-200zM200 900v-100h-200v100h200z" />
    <glyph glyph-name="Igrave" unicode="&#xcc;" horiz-adv-x="200" 
d="M100 700v-700h-100v700h100zM100 1000v-200h-100v200h100z" />
    <glyph glyph-name="Iacute" unicode="&#xcd;" horiz-adv-x="200" 
d="M100 700v-700h-100v700h100zM100 1000v-200h-100v200h100z" />
    <glyph glyph-name="Icircumflex" unicode="&#xce;" 
d="M200 700v-700h-100v700h100zM0 800v100h300v-100h-300z" />
    <glyph glyph-name="Idieresis" unicode="&#xcf;" 
d="M200 700v-700h-100v700h100zM101 900v-100h-100v100h100zM301 900v-100h-100v100h100z" />
    <glyph glyph-name="Eth" unicode="&#xd0;" horiz-adv-x="600" 
d="M0 400h100v300h200v-100h-100v-500h100v-100h-200v300h-100v100zM400 700v-600h-100v600h100z" />
    <glyph glyph-name="Ntilde" unicode="&#xd1;" 
d="M0 700v-700h100v600h100v-600h100v700h-300zM100 1000v-200h-100v200h100zM300 1000v-200h-100v200h100z" />
    <glyph glyph-name="Ograve" unicode="&#xd2;" horiz-adv-x="500" 
d="M0 700v-700h300v700h-300zM200 600v-500h-100v500h100zM200 1000v-200h-100v200h100z" />
    <glyph glyph-name="Oacute" unicode="&#xd3;" 
d="M0 700v-700h300v700h-300zM200 600v-500h-100v500h100zM200 1000v-200h-100v200h100z" />
    <glyph glyph-name="Ocircumflex" unicode="&#xd4;" 
d="M0 700v-700h300v700h-300zM200 600v-500h-100v500h100zM300 900v-100h-300v100h300z" />
    <glyph glyph-name="Otilde" unicode="&#xd5;" 
d="M0 700v-700h300v700h-300zM200 600v-500h-100v500h100zM100 1000v-200h-100v200h100zM300 1000v-200h-100v200h100z" />
    <glyph glyph-name="Odieresis" unicode="&#xd6;" 
d="M1 700v-700h300v700h-300zM201 600v-500h-100v500h100zM100 900v-100h-100v100h100zM300 900v-100h-100v100h100z" />
    <glyph glyph-name="multiply" unicode="&#xd7;" 
d="M100 500v-100h-100v100h100zM200 400v-100h-100v100h100zM300 500v-100h-100v100h100zM100 300v-100h-100v100h100zM300 300v-100h-100v100h100z" />
    <glyph glyph-name="Oslash" unicode="&#xd8;" horiz-adv-x="500" 
d="M100 700v-700h-100v700h100zM400 700v-700h-100v700h100zM400 700v-100h-400v100h400zM400 100v-100h-400v100h400zM200 300v-100h-100v100h100zM300 400v-100h-100v100h100z" />
    <glyph glyph-name="Ugrave" unicode="&#xd9;" horiz-adv-x="500" 
d="M300 0v700h-100v-600h-100v600h-100v-700h300zM200 1000v-200h-100v200h100z" />
    <glyph glyph-name="Uacute" unicode="&#xda;" horiz-adv-x="500" 
d="M300 0v700h-100v-600h-100v600h-100v-700h300zM200 1000v-200h-100v200h100z" />
    <glyph glyph-name="Ucircumflex" unicode="&#xdb;" 
d="M300 0v700h-100v-600h-100v600h-100v-700h300zM300 900v-100h-300v100h300z" />
    <glyph glyph-name="Udieresis" unicode="&#xdc;" 
d="M300 0v700h-100v-600h-100v600h-100v-700h300zM100 900v-100h-100v100h100zM300 900v-100h-100v100h100z" />
    <glyph glyph-name="Yacute" unicode="&#xdd;" 
d="M0 700v-500h200v-100h-200v-100h300v700h-100v-400h-100v400h-100zM200 1000v-200h-100v200h100z" />
    <glyph glyph-name="Thorn" unicode="&#xde;" 
d="M200 -1v-200h-100v200h100zM0 700v-100h100v-600h100v600h100v100h-300z" />
    <glyph glyph-name="germandbls" unicode="&#xdf;" horiz-adv-x="500" 
d="M0 0v700h300v-200h100v-500h-200v100h100v300h-100v200h-100v-600h-100z" />
    <glyph glyph-name="agrave" unicode="&#xe0;" 
d="M-1 500v-100h200v-100h-200v-300h300v500h-300zM199 200v-100h-100v100h100zM200 800v-200h-100v200h100z" />
    <glyph glyph-name="aacute" unicode="&#xe1;" 
d="M0 500v-100h200v-100h-200v-300h300v500h-300zM200 200v-100h-100v100h100zM200 800v-200h-100v200h100z" />
    <glyph glyph-name="acircumflex" unicode="&#xe2;" 
d="M0 500v-100h200v-100h-200v-300h300v500h-300zM200 200v-100h-100v100h100zM0 600v100h300v-100h-300z" />
    <glyph glyph-name="atilde" unicode="&#xe3;" 
d="M0 500v-100h200v-100h-200v-300h300v500h-300zM200 200v-100h-100v100h100zM0 600v100h300v-100h-300z" />
    <glyph glyph-name="adieresis" unicode="&#xe4;" 
d="M-1 500v-100h200v-100h-200v-300h300v500h-300zM199 200v-100h-100v100h100zM100 700v-100h-100v100h100zM300 700v-100h-100v100h100z" />
    <glyph glyph-name="aring" unicode="&#xe5;" horiz-adv-x="500" 
d="M-3 500v-100h200v-100h-200v-300h300v500h-300zM197 200v-100h-100v100h100zM200 700v-100h-100v100h100z" />
    <glyph glyph-name="ae" unicode="&#xe6;" horiz-adv-x="600" 
d="M0 500v-99l200 -1v-100h-200v-300h300v500h-300zM200 200v-100h-100v100h100zM500 0v100h-200v100h200v300h-300v-500h300zM300 300v100h100v-100h-100z" />
    <glyph glyph-name="ccedilla" unicode="&#xe7;" 
d="M300 0v200h-100v-100h-100v300h100v-100h100v200h-300v-500h300zM100 -100v100h100v-100h-100z" />
    <glyph glyph-name="egrave" unicode="&#xe8;" 
d="M300 0v100h-200v100h200v300h-300v-500h300zM100 300v100h100v-100h-100zM200 700v-200h-100v200h100z" />
    <glyph glyph-name="eacute" unicode="&#xe9;" 
d="M300 0v100h-200v100h200v300h-300v-500h300zM100 300v100h100v-100h-100zM200 700v-200h-100v200h100z" />
    <glyph glyph-name="ecircumflex" unicode="&#xea;" 
d="M300 0v100h-200v100h200v300h-300v-500h300zM100 300v100h100v-100h-100zM300 700v-100h-300v100h300z" />
    <glyph glyph-name="edieresis" unicode="&#xeb;" 
d="M300 0v100h-200v100h200v300h-300v-500h300zM100 300v100h100v-100h-100zM100 700v-100h-100v100h100zM300 700v-100h-100v100h100z" />
    <glyph glyph-name="igrave" unicode="&#xec;" horiz-adv-x="200" 
d="M100 500v-500h-100v500h100zM100 800v-200h-100v200h100z" />
    <glyph glyph-name="iacute" unicode="&#xed;" horiz-adv-x="200" 
d="M100 500v-500h-100v500h100zM100 800v-200h-100v200h100z" />
    <glyph glyph-name="icircumflex" unicode="&#xee;" horiz-adv-x="200" 
d="M100 500v-500h-100v500h100zM0 600v100h100v-100h-100z" />
    <glyph glyph-name="idieresis" unicode="&#xef;" horiz-adv-x="200" 
d="M100 500v-500h-100v500h100zM0 700v-100h-100v100h100zM200 700v-100h-100v100h100z" />
    <glyph glyph-name="ograve" unicode="&#xf2;" 
d="M0 500v-500h300v500h-300zM200 400v-300h-100v300h100zM200 800v-200h-100v200h100z" />
    <glyph glyph-name="oacute" unicode="&#xf3;" 
d="M0 500v-500h300v500h-300zM200 400v-300h-100v300h100zM200 800v-200h-100v200h100z" />
    <glyph glyph-name="ocircumflex" unicode="&#xf4;" 
d="M0 500v-500h300v500h-300zM200 400v-300h-100v300h100zM300 700v-100h-300v100h300z" />
    <glyph glyph-name="otilde" unicode="&#xf5;" 
d="M0 500v-500h300v500h-300zM200 400v-300h-100v300h100zM100 800v-200h-100v200h100zM300 800v-200h-100v200h100z" />
    <glyph glyph-name="odieresis" unicode="&#xf6;" 
d="M0 500v-500h300v500h-300zM200 400v-300h-100v300h100zM100 700v-100h-100v100h100zM300 700v-100h-100v100h100z" />
    <glyph glyph-name="divide" unicode="&#xf7;" 
d="M200 500v-100h-100v100h100zM200 100v-100h-100v100h100zM300 300v-100h-300v100h300z" />
    <glyph glyph-name="oslash" unicode="&#xf8;" horiz-adv-x="500" 
d="M100 700v-700h-100v700h100zM400 700v-700h-100v700h100zM400 700v-100h-400v100h400zM400 100v-100h-400v100h400zM200 300v-100h-100v100h100zM300 400v-100h-100v100h100z" />
    <glyph glyph-name="ugrave" unicode="&#xf9;" 
d="M300 0v500h-100v-400h-100v400h-100v-500h300zM200 799v-200h-100v200h100z" />
    <glyph glyph-name="uacute" unicode="&#xfa;" 
d="M300 0v500h-100v-400h-100v400h-100v-500h300zM200 800v-200h-100v200h100z" />
    <glyph glyph-name="ucircumflex" unicode="&#xfb;" 
d="M300 0v500h-100v-400h-100v400h-100v-500h300zM300 700v-100h-300v100h300z" />
    <glyph glyph-name="udieresis" unicode="&#xfc;" 
d="M300 0v500h-100v-400h-100v400h-100v-500h300zM100 700v-100h-100v100h100zM300 700v-100h-100v100h100z" />
    <glyph glyph-name="yacute" unicode="&#xfd;" 
d="M0 500v-400h200v-100h-200v-100h300v600h-100v-300h-100v300h-100zM200 800v-200h-100v200h100z" />
    <glyph glyph-name="thorn" unicode="&#xfe;" horiz-adv-x="300" 
d="M200 100h-100v300h100v100h-100v200h-100v-700h200v100zM100 0v-200h-100v200h100z" />
    <glyph glyph-name="ydieresis" unicode="&#xff;" 
d="M0 500v-400h200v-100h-200v-100h300v600h-100v-300h-100v300h-100zM100 700v-100h-100v100h100zM300 700v-100h-100v100h100z" />
    <glyph glyph-name="Cacute" unicode="&#x106;" 
d="M0 700v-700h300v200h-100v-100h-100v500h100v-100h100v200h-300zM200 900v-200h-100v200h100z" />
    <glyph glyph-name="cacute" unicode="&#x107;" 
d="M300 0v200h-100v-100h-100v300h100v-100h100v200h-300v-500h300zM200 800v-200h-100v200h100z" />
    <glyph glyph-name="Ccaron" unicode="&#x10c;" 
d="M0 700v-700h300v200h-100v-100h-100v500h100v-100h100v200h-300zM0 800v100h300v-100h-300z" />
    <glyph glyph-name="ccaron" unicode="&#x10d;" 
d="M300 0v200h-100v-100h-100v300h100v-100h100v200h-300v-500h300zM0 600v100h300v-100h-300z" />
    <glyph glyph-name="Dcroat" unicode="&#x110;" horiz-adv-x="500" 
d="M100 700v-301l-100 1v-100h100v-300h300v700h-300zM300 600v-500h-100v500h100z" />
    <glyph glyph-name="dcroat" unicode="&#x111;" horiz-adv-x="500" 
d="M200 700v-200h-200v-500h300v600h100v100h-200zM200 400v-300h-100v300h100z" />
    <glyph glyph-name="dotlessi" unicode="&#x131;" horiz-adv-x="200" 
d="M100 500v-500h-100v500h100z" />
    <glyph glyph-name="OE" unicode="&#x152;" horiz-adv-x="600" 
d="M0 700v-700h300v700h-300zM200 600v-500h-100v500h100zM200 700v-700h200v100h-100v200h100v100h-100v200h100v100h-200z" />
    <glyph glyph-name="oe" unicode="&#x153;" horiz-adv-x="600" 
d="M0 500v-500h300v500h-300zM200 400v-300h-100v300h100zM500 0v100h-200v100h200v300h-300v-500h300zM300 300v100h100v-100h-100z" />
    <glyph glyph-name="florin" unicode="&#x192;" 
d="M100 700v-200h-100v-100h100v-300h-100v-100h200v400h100v100h-100v100h100v100h-200z" />
    <glyph glyph-name="circumflex_wide" 
d="M0 400v100h300v-100h-300z" />
    <glyph glyph-name="caron" unicode="&#x2c7;" 
d="M0 400v100h300v-100h-300z" />
    <glyph glyph-name="breve" unicode="&#x2d8;" 
d="M0 400v100h300v-100h-300z" />
    <glyph glyph-name="dotaccent" unicode="&#x2d9;" horiz-adv-x="200" 
d="M100 700v-100h-100v100h100z" />
    <glyph glyph-name="ring" unicode="&#x2da;" 
d="M0 400h300v300h-300v-300zM100 600h100v-100h-100v100z" />
    <glyph glyph-name="ogonek" unicode="&#x2db;" horiz-adv-x="200" 
d="M100 100v-200h-100v200h100z" />
    <glyph glyph-name="tilde" unicode="&#x2dc;" 
d="M100 700v-200h-100v200h100zM300 700v-200h-100v200h100z" />
    <glyph glyph-name="hungarumlaut" unicode="&#x2dd;" 
d="M100 700v-200h-100v200h100zM300 700v-200h-100v200h100z" />
    <glyph glyph-name="endash" unicode="&#x2013;" horiz-adv-x="300" 
d="M200 400v-100h-200v100h200z" />
    <glyph glyph-name="emdash" unicode="&#x2014;" horiz-adv-x="500" 
d="M400 400v-100h-400v100h400z" />
    <glyph glyph-name="quoteleft" unicode="&#x2018;" horiz-adv-x="200" 
d="M100 700v-200h-100v200h100z" />
    <glyph glyph-name="quoteright" unicode="&#x2019;" horiz-adv-x="200" 
d="M100 700v-200h-100v200h100z" />
    <glyph glyph-name="quotesinglbase" unicode="&#x201a;" horiz-adv-x="200" 
d="M100 100v-200h-100v200h100z" />
    <glyph glyph-name="quotedblleft" unicode="&#x201c;" 
d="M100 700v-200h-100v200h100zM300 700v-200h-100v200h100z" />
    <glyph glyph-name="quotedblright" unicode="&#x201d;" 
d="M100 700v-200h-100v200h100zM300 700v-200h-100v200h100z" />
    <glyph glyph-name="quotedblbase" unicode="&#x201e;" 
d="M0 -100v200h100v-200h-100zM200 -100v200h100v-200h-100z" />
    <glyph glyph-name="dagger" unicode="&#x2020;" 
d="M0 600h100v100h100v-100h100v-100h-100v-500h-100v500h-100v100z" />
    <glyph glyph-name="daggerdbl" unicode="&#x2021;" 
d="M0 600h100v100h100v-100h100v-100h-100v-500h-100v500h-100v100zM300 200v-100h-300v100h300z" />
    <glyph glyph-name="bullet" unicode="&#x2022;" horiz-adv-x="200" 
d="M100 300v-100h-100v100h100z" />
    <glyph glyph-name="ellipsis" unicode="&#x2026;" horiz-adv-x="600" 
d="M100 100v-100h-100v100h100zM300 100v-100h-100v100h100zM500 100v-100h-100v100h100z" />
    <glyph glyph-name="perthousand" unicode="&#x2030;" horiz-adv-x="1100" 
d="M699 201v-101h-100v101h100zM499 301v-301h500v301h-500zM399 700v-300h-100v-400h100v300h100v400h-100zM199 601v-101h-100v101h100zM-1 701v-301h300v301h-300zM900 201v-101h-100v101h100z" />
    <glyph glyph-name="guilsinglleft" unicode="&#x2039;" horiz-adv-x="300" 
d="M101 299v-100h-100v100h100zM200 500v-200h-100v200h100zM200 200v-200h-100v200h100z" />
    <glyph glyph-name="guilsinglright" unicode="&#x203a;" horiz-adv-x="300" 
d="M200 299v-100h-100v100h100zM101 500v-200h-100v200h100zM101 200v-200h-100v200h100z" />
    <glyph glyph-name="fraction" unicode="&#x2044;" horiz-adv-x="300" 
d="M100 700v-300h-100l-1 -400h100l1 300h100v400h-100z" />
    <glyph glyph-name="Euro" unicode="&#x20ac;" horiz-adv-x="500" 
d="M100 700v-200h-100v-100h100v-100h-100v-100h100v-200h300v200h-100v-100h-100v500h100v-100h100v200h-300z" />
    <glyph glyph-name="trademark" unicode="&#x2122;" horiz-adv-x="700" 
d="M0 1000v-100h100v-200h100v200h100v100h-300zM300 1000v-300h100v100h100v-100h100v300h-100v-100h-100v100h-100z" />
    <glyph glyph-name="minus" unicode="&#x2212;" 
d="M300 500v-100h-300v100h300z" />
    <glyph glyph-name="numbersign" unicode="#" horiz-adv-x="600" 
d="M200 700v-700h-100v700h100zM400 700v-700h-100v700h100zM500 500v-100h-500v100h500zM500 300v-100h-500v100h500z" />
    <glyph glyph-name="exclam" unicode="!" horiz-adv-x="200" 
d="M100 100v-100h-100v100h100zM0 200v500h100v-500h-100z" />
    <glyph glyph-name="quotedbl" unicode="&#x22;" 
d="M100 700v-200h-100v200h100zM300 700v-200h-100v200h100z" />
    <glyph glyph-name="ampersand" unicode="&#x26;" horiz-adv-x="500" 
d="M300 600h-200v-200h100v-100h-100v-200h200v-100h-300v700h300v-100zM200 500v100h100v-100h-100zM400 400v-100h-100v100h100zM300 400v-300h-100v300h100z" />
    <glyph glyph-name="dollar" unicode="$" 
d="M0 700v-400h200v-200h-100v100h-100l1 -200h99v-100h100v100h100v400h-200v200h99v-100h100l1 200h-100v100h-101v-100h-99z" />
    <glyph glyph-name="percent" unicode="%" horiz-adv-x="900" 
d="M699 201v-101h-100v101h100zM499 301v-301h300v301h-300zM399 700v-300h-100v-400h100v300h100v400h-100zM199 601v-101h-100v101h100zM-1 701v-301h300v301h-300z" />
    <glyph glyph-name="twosuperior" unicode="&#xb2;" horiz-adv-x="300" 
d="M0 700h200v-300h-100v-100h100v-100h-200v300h100v100h-100v100z" />
    <glyph glyph-name="threesuperior" unicode="&#xb3;" horiz-adv-x="300" 
d="M0 700v-100h100v-100h-100v-100h100v-100h-100v-100h200v500h-200z" />
    <glyph glyph-name="onesuperior" unicode="&#xb9;" horiz-adv-x="300" 
d="M0 700h200v-500h-100v400h-100v100z" />
    <glyph glyph-name="quotesingle" unicode="'" horiz-adv-x="200" 
d="M100 700v-200h-100v200h100z" />
    <glyph glyph-name="dcaron" unicode="&#x10f;" horiz-adv-x="600" 
d="M200 700v-200h-200v-500h300v700h-100zM200 400v-300h-100v300h100zM500 700v-200h-100v200h100z" />
    <glyph glyph-name="Tcaron" unicode="&#x164;" 
d="M0 700v-100h100v-600h100v600h100v100h-300zM0 800v100h300v-100h-300z" />
    <glyph glyph-name="tcaron" unicode="&#x165;" 
d="M200 100h-100v300h100v100h-100v100h-100v-600h200v100zM300 700v-200h-100v200h100z" />
    <glyph glyph-name="Uring" unicode="&#x16e;" horiz-adv-x="500" 
d="M300 0v700h-100v-600h-100v600h-100v-700h300zM100 800v100h100v-100h-100z" />
    <glyph glyph-name="uring" unicode="&#x16f;" horiz-adv-x="500" 
d="M300 0v500h-100v-400h-100v400h-100v-500h300zM100 600v100h100v-100h-100z" />
    <glyph glyph-name="Amacron" unicode="&#x100;" horiz-adv-x="1000" 
d="M100 0v300h100v-300h100v700h-300v-700h100zM100 400v200h100v-200h-100z" />
    <glyph glyph-name="amacron" unicode="&#x101;" horiz-adv-x="500" 
d="M0 500v-100h200v-100h-200v-300h300v500h-300zM200 200v-100h-100v100h100zM0 600v100h300v-100h-300z" />
    <glyph glyph-name="Cdotaccent" unicode="&#x10a;" 
d="M0 700v-700h300v200h-100v-100h-100v500h100v-100h100v200h-300zM200 900v-100h-100v100h100z" />
    <glyph glyph-name="cdotaccent" unicode="&#x10b;" 
d="M300 0v200h-100v-100h-100v300h100v-100h100v200h-300v-500h300zM200 700v-100h-100v100h100z" />
    <glyph glyph-name="ccircumflex" unicode="&#x109;" 
d="M300 0v200h-100v-100h-100v300h100v-100h100v200h-300v-500h300zM0 600v100h300v-100h-300z" />
    <glyph glyph-name="Ccircumflex" unicode="&#x108;" 
d="M0 700v-700h300v200h-100v-100h-100v500h100v-100h100v200h-300zM0 800v100h300v-100h-300z" />
    <glyph glyph-name="Abreve" unicode="&#x102;" horiz-adv-x="1000" 
d="M100 0v300h100v-300h100v700h-300v-700h100zM100 400v200h100v-200h-100zM300 900v-100h-300v100h300z" />
    <glyph glyph-name="abreve" unicode="&#x103;" horiz-adv-x="500" 
d="M0 500v-100h200v-100h-200v-300h300v500h-300zM200 200v-100h-100v100h100zM0 600v100h300v-100h-300z" />
    <glyph glyph-name="Emacron" unicode="&#x112;" horiz-adv-x="300" 
d="M0 700v-700h200v100h-100v200h100v100h-100v200h100v100h-200zM200 900v-100h-200v100h200z" />
    <glyph glyph-name="emacron" unicode="&#x113;" 
d="M300 0v100h-200v100h200v300h-300v-500h300zM100 300v100h100v-100h-100zM300 700v-100h-300v100h300z" />
    <glyph glyph-name="ebreve" unicode="&#x115;" 
d="M300 0v100h-200v100h200v300h-300v-500h300zM100 300v100h100v-100h-100zM300 700v-100h-300v100h300z" />
    <glyph glyph-name="Ebreve" unicode="&#x114;" horiz-adv-x="300" 
d="M0 700v-700h200v100h-100v200h100v100h-100v200h100v100h-200zM200 900v-100h-200v100h200z" />
    <glyph glyph-name="Edotaccent" unicode="&#x116;" horiz-adv-x="300" 
d="M0 700v-700h200v100h-100v200h100v100h-100v200h100v100h-200zM200 900v-100h-100v100h100z" />
    <glyph glyph-name="edotaccent" unicode="&#x117;" 
d="M300 0v100h-200v100h200v300h-300v-500h300zM100 300v100h100v-100h-100zM200 700v-100h-100v100h100z" />
    <glyph glyph-name="Gdotaccent" unicode="&#x120;" 
d="M0 700v-700h300v400h-100v-300h-100v500h100v-100h100v200h-300zM200 900v-100h-100v100h100z" />
    <glyph glyph-name="gdotaccent" unicode="&#x121;" 
d="M300 -100v600h-300v-400h200v-100h-200v-100h300zM100 200v200h100v-200h-100zM200 700v-100h-100v100h100z" />
    <glyph glyph-name="Idotaccent" unicode="&#x130;" horiz-adv-x="200" 
d="M100 700v-700h-100v700h100zM200 900v-100h-100v100h100z" />
    <glyph glyph-name="Lacute" unicode="&#x139;" 
d="M0 700v-700h200v100h-100v600h-100zM300 800v-200h-100v200h100z" />
    <glyph glyph-name="lacute" unicode="&#x13a;" 
d="M100 700v-700h-100v700h100zM300 800v-200h-100v200h100z" />
    <glyph glyph-name="Ohungarumlaut" unicode="&#x150;" 
d="M0 700v-700h300v700h-300zM200 600v-500h-100v500h100zM100 1000v-200h-100v200h100zM300 1000v-200h-100v200h100z" />
    <glyph glyph-name="Obreve" unicode="&#x14e;" horiz-adv-x="500" 
d="M0 700v-700h300v700h-300zM200 600v-500h-100v500h100zM300 900v-100h-300v100h300z" />
    <glyph glyph-name="Omacron" unicode="&#x14c;" 
d="M0 700v-700h300v700h-300zM200 600v-500h-100v500h100z" />
    <glyph glyph-name="omacron" unicode="&#x14d;" 
d="M0 500v-500h300v500h-300zM200 400v-300h-100v300h100zM300 700v-100h-300v100h300z" />
    <glyph glyph-name="obreve" unicode="&#x14f;" 
d="M0 500v-500h300v500h-300zM200 400v-300h-100v300h100zM300 700v-100h-300v100h300z" />
    <glyph glyph-name="ohungarumlaut" unicode="&#x151;" 
d="M0 500v-500h300v500h-300zM200 400v-300h-100v300h100zM100 800v-200h-100v200h100zM300 800v-200h-100v200h100z" />
    <glyph glyph-name="Ubreve" unicode="&#x16c;" horiz-adv-x="500" 
d="M300 0v700h-100v-600h-100v600h-100v-700h300zM0 700v100h200v-100h-200z" />
    <glyph glyph-name="Umacron" unicode="&#x16a;" 
d="M300 0v700h-100v-600h-100v600h-100v-700h300z" />
    <glyph glyph-name="Uhungarumlaut" unicode="&#x170;" horiz-adv-x="500" 
d="M300 0v700h-100v-600h-100v600h-100v-700h300zM100 1000v-200h-100v200h100zM300 1000v-200h-100v200h100z" />
    <glyph glyph-name="umacron" unicode="&#x16b;" horiz-adv-x="500" 
d="M300 0v500h-100v-400h-100v400h-100v-500h300zM300 700v-100h-300v100h300z" />
    <glyph glyph-name="ubreve" unicode="&#x16d;" 
d="M300 0v500h-100v-400h-100v400h-100v-500h300zM300 700v-100h-300v100h300z" />
    <glyph glyph-name="uhungarumlaut" unicode="&#x171;" horiz-adv-x="500" 
d="M300 0v500h-100v-400h-100v400h-100v-500h300zM100 800v-200h-100v200h100zM300 800v-200h-100v200h100z" />
    <glyph glyph-name="Zdotaccent" unicode="&#x17b;" 
d="M300 700v-100h-300v100h300zM300 100v-100h-300v100h300zM300 600v-200h-100v200h100zM100 300v-200h-100v200h100zM200 400v-100h-100v100h100zM200 900v-100h-100v100h100z" />
    <glyph glyph-name="Utilde" unicode="&#x168;" horiz-adv-x="500" 
d="M300 0v700h-100v-600h-100v600h-100v-700h300zM100 1000v-200h-100v200h100zM300 1000v-200h-100v200h100z" />
    <glyph glyph-name="utilde" unicode="&#x169;" horiz-adv-x="500" 
d="M300 0v500h-100v-400h-100v400h-100v-500h300zM100 800v-200h-100v200h100zM300 800v-200h-100v200h100z" />
    <glyph glyph-name="Itilde" unicode="&#x128;" 
d="M200 700v-700h-100v700h100zM100 1000v-200h-100v200h100zM300 1000v-200h-100v200h100z" />
    <glyph glyph-name="itilde" unicode="&#x129;" horiz-adv-x="200" 
d="M100 500v-500h-100v500h100zM0 800v-200h-100v200h100zM200 800v-200h-100v200h100z" />
    <glyph glyph-name="Imacron" unicode="&#x12a;" horiz-adv-x="300" 
d="M200 700v-700h-100v700h100zM300 900v-100h-300v100h300z" />
    <glyph glyph-name="imacron" unicode="&#x12b;" horiz-adv-x="300" 
d="M200 500v-500h-100v500h100zM200 500v-100h-200v100h200z" />
    <glyph glyph-name="ibreve" unicode="&#x12d;" horiz-adv-x="200" 
d="M100 500v-500h-100v500h100zM-100 600v100h300v-100h-300z" />
    <glyph glyph-name="Ibreve" unicode="&#x12c;" horiz-adv-x="300" 
d="M200 700v-700h-100v700h100zM0 800v100h300v-100h-300z" />
    <glyph glyph-name="circumflex" unicode="&#x2c6;" horiz-adv-x="300" 
d="M0 400v100h200v-100h-200z" />
    <glyph glyph-name="breve_wide" horiz-adv-x="300" 
d="M0 400v100h200v-100h-200z" />
    <glyph glyph-name="dotlessj" horiz-adv-x="300" 
d="M200 0v-100h-200v100h200zM200 800v-900h-100v900h100z" />
    <glyph glyph-name="Uogonek" unicode="&#x172;" horiz-adv-x="500" 
d="M300 0v700h-100v-600h-100v600h-100v-700h300zM400 100v-200h-100v200h100z" />
    <glyph glyph-name="uogonek" unicode="&#x173;" horiz-adv-x="500" 
d="M300 0v500h-100v-400h-100v400h-100v-500h300zM400 100v-200h-100v200h100z" />
    <glyph glyph-name="Tcommaaccent" unicode="&#x162;" 
d="M200 0v-200h-100v200h100zM0 700v-100h100v-600h100v600h100v100h-300z" />
    <glyph glyph-name="tcommaaccent" unicode="&#x163;" horiz-adv-x="300" 
d="M200 100h-100v300h100v100h-100v100h-100v-600h200v100zM100 0v-200h-100v200h100z" />
    <glyph glyph-name="Iogonek" unicode="&#x12e;" 
d="M100 700v-700h-100v700h100zM100 100v-200h-100v200h100z" />
    <glyph glyph-name="iogonek" unicode="&#x12f;" horiz-adv-x="250" 
d="M100 700v-100h-100v100h100zM100 500v-500h-100v500h100zM100 100v-200h-100v200h100z" />
    <glyph glyph-name="Scedilla" unicode="&#x15e;" horiz-adv-x="500" 
d="M302 0v400h-201v200h100v-100h100v200h-300v-400h200v-200h-100l-1 101h-100l1 -201h301zM100 -100v100h100v-100h-100z" />
    <glyph glyph-name="scedilla" unicode="&#x15f;" horiz-adv-x="500" 
d="M0 500v-300h200v-100h-200v-100h300v300h-200v100h200v100h-300zM100 -100v100h100v-100h-100z" />
    <glyph glyph-name="ij" unicode="&#x133;" 
d="M100 700v-100h-100v100h100zM100 500v-500h-100v500h100zM301 700v-100h-100v100h100zM200 500l-1 -500h-100v-100h200l1 600h-100z" />
    <glyph glyph-name="lcaron" unicode="&#x13e;" 
d="M100 700v-700h-100v700h100zM300 700v-200h-100v200h100z" />
    <glyph glyph-name="Ldot" unicode="&#x13f;" 
d="M0 700v-700h200v100h-100v600h-100zM300 500v-100h-100v100h100z" />
    <glyph glyph-name="ldot" unicode="&#x140;" 
d="M100 700v-700h-100v700h100zM300 500v-100h-100v100h100z" />
    <glyph glyph-name="uni0394" unicode="&#x394;" horiz-adv-x="600" 
d="M300 600v-200h-100v200h100zM200 400v-200h-100v200h100zM400 400v-200h-100v200h100zM0 200v-200h500v200h-100v-100h-300v100h-100z" />
    <glyph glyph-name="uni03A9" unicode="&#x3a9;" horiz-adv-x="600" 
d="M0 0v100h100v100h100v-200h-200zM100 600v-400h-100v400h100zM500 600v-400h-100v400h100zM300 0v200h100v-100h100v-100h-200zM400 700v-100h-300v100h300z" />
    <glyph glyph-name="uni03BC" unicode="&#x3bc;" horiz-adv-x="750" 
d="M500 500v-100h-400v100h400zM500 500v-400h-100v400h100zM300 300v200h200v-200h-200zM300 300v-100h-100v100h100zM200 200v-100h-100v100h100zM100 100v-100h-100v100h100z" />
    <glyph glyph-name="pi" unicode="&#x3c0;" horiz-adv-x="600" 
d="M0 700v-100h100v-600h100v600h99v-600h100v600h100v100h-499z" />
    <glyph glyph-name="product" unicode="&#x220f;" 
d="M0 0v700h300v-700h-100v600h-100v-600h-100z" />
    <glyph glyph-name="summation" unicode="&#x2211;" horiz-adv-x="300" 
d="M199 400v-100h-100v100h100zM0 700v-301h100v201h200v100h-300zM300 0v100h-200v200h-100v-300h300zM300 600v-100h-100v100h100zM300 200v-100h-100v100h100z" />
    <glyph glyph-name="Delta" unicode="&#x2206;" horiz-adv-x="1000" 
d="M300 600v-200h-100v200h100zM200 400v-200h-100v200h100zM400 400v-200h-100v200h100zM0 200v-200h500v200h-100v-100h-300v100h-100z" />
    <glyph glyph-name="lessequal" unicode="&#x2264;" horiz-adv-x="300" 
d="M200 100v-100h-200v100h200zM100 500v-100h-100v100h100zM100 200v200h100v-200h-100zM100 499v200h100v-200h-100z" />
    <glyph glyph-name="greaterequal" unicode="&#x2265;" horiz-adv-x="300" 
d="M200 100v-100h-200v100h200zM200 500v-100h-100v100h100zM0 200v200h100v-200h-100zM0 499v200h100v-200h-100z" />
    <glyph glyph-name="notequal" unicode="&#x2260;" 
d="M0 400h100v100h100v-100h100v-100h-100v-100h100v-100h-100v-100h-100v100h-100v100h100v100h-100v100z" />
    <glyph glyph-name="approxequal" unicode="&#x2248;" 
d="M201 500v-100h-201v100h201zM201 300v-100h-201v100h201zM401 199v-100h-201v100h201zM401 400v-100h-201v100h201z" />
    <glyph glyph-name="infinity" unicode="&#x221e;" horiz-adv-x="800" 
d="M300 400h100v-200h-100v200zM600 200v-100h-200v100h200zM400 400v100h200v-100h-200zM300 200v-100h-200v100h200zM100 400v100h200v-100h-200zM600 400h100v-200h-100v200zM100 200h-100v200h100v-200z" />
    <glyph glyph-name="integral" unicode="&#x222b;" 
d="M300 900h-200v-1000h-100v-100h200v1000h100v100z" />
    <glyph glyph-name="radical" unicode="&#x221a;" horiz-adv-x="500" 
d="M100 400v-100h-100v100h100zM200 300v-100h-100v100h100zM300 400v-100h-100v100h100zM400 500v-100h-100v100h100z" />
    <glyph glyph-name="Omega" unicode="&#x2126;" horiz-adv-x="800" 
d="M0 0v100h100v100h100v-200h-200zM100 600v-400h-100v400h100zM500 600v-400h-100v400h100zM300 0v200h100v-100h100v-100h-200zM400 700v-100h-300v100h300z" />
    <glyph glyph-name="lozenge" unicode="&#x25ca;" horiz-adv-x="600" 
d="M300 500v-100h-100v100h100zM200 400v-100h-100v100h100zM100 300v-100h-100v100h100zM300 100v-100h-100v100h100zM400 200v-100h-100v100h100zM500 300v-100h-100v100h100zM400 400v-100h-100v100h100zM200 200v-100h-100v100h100z" />
    <glyph glyph-name="tilde_narrow" 
d="M100 700v-200h-100v200h100zM300 700v-200h-100v200h100z" />
    <glyph glyph-name="dieresis_wide" 
d="M0 600v100h100v-100h-100zM200 600v100h100v-100h-100z" />
    <glyph glyph-name="macron_narrow" horiz-adv-x="300" 
d="M200 700v-100h-200v100h200z" />
    <glyph glyph-name="caron_wide" horiz-adv-x="300" 
d="M0 400v100h200v-100h-200z" />
    <glyph glyph-name="macron_semi" horiz-adv-x="300" 
d="M200 700v-100h-200v100h200z" />
    <glyph glyph-name="comma_acc" horiz-adv-x="200" 
d="M100 100v-200h-100v200h100z" />
    <glyph glyph-name="eth" unicode="&#xf0;" horiz-adv-x="500" 
d="M0 500v-100h200v-100h-200v-300h300v400h100v100h-200v100h-100v-100h-100zM200 200v-100h-100v100h100z" />
    <glyph glyph-name="Scaron" unicode="&#x160;" 
d="M1 700v-400h200v-200h-101v100h-100l1 -200h300v400h-200v200h99v-100h100l1 200h-300zM300 900v-100h-300v100h300z" />
    <glyph glyph-name="scaron" unicode="&#x161;" 
d="M0 500v-300h200v-100h-200v-100h300v300h-200v100h200v100h-300zM300 700v-100h-300v100h300z" />
    <glyph glyph-name="Zcaron" unicode="&#x17d;" 
d="M300 700v-100h-300v100h300zM300 100v-100h-300v100h300zM300 600v-200h-100v200h100zM100 300v-200h-100v200h100zM200 400v-100h-100v100h100zM300 900v-100h-300v100h300z" />
    <glyph glyph-name="zcaron" unicode="&#x17e;" 
d="M0 500v-100h200v-100h-200v-300h300v100h-200v100h200v300h-300zM300 700v-100h-300v100h300z" />
    <glyph glyph-name="Ydieresis" unicode="&#x178;" 
d="M100 900v-100h-100v100h100zM300 900v-100h-100v100h100zM0 700v-500h200v-200h100v700h-100v-400h-100v400h-100zM200 100v-100h-200v100h200z" />
    <glyph glyph-name="ntilde" unicode="&#xf1;" 
d="M0 0v500h100v-500h-100zM300 500v-100h-300v100h300zM300 500v-500h-100v500h100zM300 700v-100h-300v100h300z" />
    <glyph glyph-name="soft hyphen" horiz-adv-x="600" 
d="M0 500v100h300v-100h-300zM500 200h-100v100h100v-100zM400 100h-100v100h100v-100zM200 100h-100v100h100v-100zM100 200h-100v100h100v-100zM300 0h-100v500h100v-500z" />
  </font>
</defs>
</svg>
