<?xml version="1.0" standalone="no"?>
<!DOCTYPE svg PUBLIC "-//W3C//DTD SVG 1.1//EN" "http://www.w3.org/Graphics/SVG/1.1/DTD/svg11.dtd" >
<svg xmlns="http://www.w3.org/2000/svg" xmlns:xlink="http://www.w3.org/1999/xlink" version="1.1">
<metadata>
Created by FontForge 20170924 at Tue Apr  2 15:01:46 2019
 By www-data
pxlxxl (c) Levi Szekeres 1990-2019. All Rights Reserved.
</metadata>
<defs>
<font id="pxlxxlLight" horiz-adv-x="320" >
  <font-face 
    font-family="pxlxxl Light"
    font-weight="300"
    font-stretch="normal"
    units-per-em="1000"
    panose-1="2 11 6 4 2 2 2 2 2 4"
    ascent="800"
    descent="-200"
    x-height="640"
    cap-height="800"
    bbox="-59 -280 1040 1200"
    underline-thickness="40"
    underline-position="-120"
    unicode-range="U+0020-FB02"
  />
<missing-glyph horiz-adv-x="400" 
d="M40 800h320v-800h-320v800zM80 40h240v720h-240v-720z" />
    <glyph glyph-name=".notdef" horiz-adv-x="400" 
d="M40 800h320v-800h-320v800zM80 40h240v720h-240v-720z" />
    <glyph glyph-name="space" unicode=" " horiz-adv-x="240" 
 />
    <glyph glyph-name="exclam" unicode="!" horiz-adv-x="120" 
d="M40 40h40v-40h-40v40zM40 800h40v-680h-40v680z" />
    <glyph glyph-name="quotedbl" unicode="&#x22;" horiz-adv-x="240" 
d="M40 960h40v-320h-40v320zM160 960h40v-320h-40v320z" />
    <glyph glyph-name="numbersign" unicode="#" horiz-adv-x="480" 
d="M320 160h-160v-160h-40v160h-80v40h80v400h-80v40h80v160h40v-160h160v160h40v-160h80v-40h-80v-400h80v-40h-80v-160h-40v160zM160 200h160v400h-160v-400z" />
    <glyph glyph-name="dollar" unicode="$" 
d="M40 240h40v-200h160v340h-200v420h100v80h40v-80h100v-240h-40v200h-160v-340h200v-420h-100v-80h-40v80h-100v240z" />
    <glyph glyph-name="percent" unicode="%" horiz-adv-x="880" 
d="M40 801h240v-240h-240v240zM80 601h160v160h-160v-160zM400 0h-40v420h120v380h40v-420h-120v-380zM600 241h240v-240h-240v240zM640 41h160v160h-160v-160z" />
    <glyph glyph-name="ampersand" unicode="&#x26;" horiz-adv-x="480" 
d="M240 760h-160v-340h120v-40h-120v-340h240v380h120v-40h-80v-380h-320v800h240v-240h-40v200z" />
    <glyph glyph-name="quotesingle" unicode="'" horiz-adv-x="120" 
d="M40 880h40v-320h-40v320z" />
    <glyph glyph-name="parenleft" unicode="(" horiz-adv-x="240" 
d="M40 960h160v-40h-120v-1040h120v-40h-160v1120z" />
    <glyph glyph-name="parenright" unicode=")" horiz-adv-x="240" 
d="M200.002 960h-159.99v-40h119.993v-1040h-119.993v-40h159.99v1120z" />
    <glyph glyph-name="asterisk" unicode="*" horiz-adv-x="200" 
d="M40 880h40v-40h-40v40zM120 880h40v-40h-40v40zM80 840h40v-40h-40v40zM120 800h40v-40h-40v40zM40 800h40v-40h-40v40z" />
    <glyph glyph-name="plus" unicode="+" horiz-adv-x="440" 
d="M40 420h160v140h40v-140h160v-40h-160v-140h-40v140h-160v40z" />
    <glyph glyph-name="comma" unicode="," horiz-adv-x="120" 
d="M40 120h40v-280h-40v280z" />
    <glyph glyph-name="period" unicode="." horiz-adv-x="120" 
d="M40 40h40v-40h-40v40z" />
    <glyph glyph-name="slash" unicode="/" horiz-adv-x="240" 
d="M80 0h-40v420h120v380h40v-420h-120v-380z" />
    <glyph glyph-name="zero" unicode="0" 
d="M40 800h240v-800h-240v800zM80 40h160v720h-160v-720z" />
    <glyph glyph-name="one" unicode="1" horiz-adv-x="280" 
d="M40 800h120v-760h80v-40h-200v40h80v720h-80v40z" />
    <glyph glyph-name="two" unicode="2" 
d="M40 800h240v-420h-200v-340h200v-40h-240v420h200v340h-160v-200h-40v240z" />
    <glyph glyph-name="three" unicode="3" 
d="M80 420h160v340h-160v-200h-40v240h240v-800h-240v240h40v-200h160v340h-160v40z" />
    <glyph glyph-name="four" unicode="4" 
d="M40 800h40v-380h160v380h40v-800h-40v380h-200v420z" />
    <glyph glyph-name="five" unicode="5" 
d="M40 0.0488281h240v419.975h-200v339.979h200v39.998h-240v-419.975h200v-339.979h-160v199.987h-40v-239.985z" />
    <glyph glyph-name="six" unicode="6" 
d="M40 800h240v-240h-40v200h-160v-340h200v-420h-240v800zM80 380v-340h160v340h-160z" />
    <glyph glyph-name="seven" unicode="7" 
d="M40 800h240v-420h-120v-380h-40v420h120v340h-200v40z" />
    <glyph glyph-name="eight" unicode="8" 
d="M40 800h240v-800h-240v800zM80 420h160v340h-160v-340zM240 40v340h-160v-340h160z" />
    <glyph glyph-name="nine" unicode="9" 
d="M280.002 0.0488281h-239.984v239.985h39.9971v-199.987h159.99v339.979h-199.987v419.975h239.984v-799.951zM240.005 420.023v339.979h-159.99v-339.979h159.99z" />
    <glyph glyph-name="colon" unicode=":" horiz-adv-x="120" 
d="M40 40h40v-40h-40v40zM40 400h40v-40h-40v40z" />
    <glyph glyph-name="semicolon" unicode=";" horiz-adv-x="120" 
d="M40 400h40v-40h-40v40zM40 120h40v-280h-40v280z" />
    <glyph glyph-name="less" unicode="&#x3c;" horiz-adv-x="200" 
d="M120 380h-80v40h80v180h40v-400h-40v180z" />
    <glyph glyph-name="equal" unicode="=" horiz-adv-x="480" 
d="M40 500h400v-40h-400v40zM40 340h400v-40h-400v40z" />
    <glyph glyph-name="greater" unicode="&#x3e;" horiz-adv-x="200" 
d="M80.0078 420.023h79.9941v-39.998h-79.9941v-179.988h-39.998v399.975h39.998v-179.988z" />
    <glyph glyph-name="question" unicode="?" 
d="M120 420h120v340h-160v-200h-40v240h240v-420h-120v-260h-40v300zM120 40h40v-40h-40v40z" />
    <glyph glyph-name="at" unicode="@" horiz-adv-x="720" 
d="M240 600h240v-480h160v640h-560v-840h480v-40h-520v920h640v-720h-440v520zM280 120h160v440h-160v-440z" />
    <glyph glyph-name="A" unicode="A" 
d="M40 800h240v-800h-40v380h-160v-380h-40v800zM80 420h160v340h-160v-340z" />
    <glyph glyph-name="B" unicode="B" 
d="M40 800h240v-380h-40v-40h40v-380h-240v800zM240 380h-160v-340h160v340zM240 760h-160v-340h160v340z" />
    <glyph glyph-name="C" unicode="C" 
d="M80 40h160v200h40v-240h-240v800h240v-240h-40v200h-160v-720z" />
    <glyph glyph-name="D" unicode="D" 
d="M40 800h200v-40h40v-720h-40v-40h-200v800zM80 40h160v720h-160v-720z" />
    <glyph glyph-name="E" unicode="E" 
d="M40 800h240v-40h-200v-340h200v-40h-200v-340h200v-40h-240v800z" />
    <glyph glyph-name="F" unicode="F" 
d="M40 800h240v-40h-200v-340h200v-40h-200v-380h-40v800z" />
    <glyph glyph-name="G" unicode="G" 
d="M160 420h120v-420h-240v800h240v-240h-40v200h-160v-720h160v340h-80v40z" />
    <glyph glyph-name="H" unicode="H" 
d="M240 380h-160v-380h-40v800h40v-380h160v380h40v-800h-40v380z" />
    <glyph glyph-name="I" unicode="I" horiz-adv-x="120" 
d="M40 800h40v-800h-40v800z" />
    <glyph glyph-name="J" unicode="J" 
d="M40 240h40v-200h160v720h-80v40h120v-800h-240v240z" />
    <glyph glyph-name="K" unicode="K" 
d="M240 380h-160v-380h-40v800h40v-380h160v380h40v-380h-40v-40h40v-380h-40v380z" />
    <glyph glyph-name="L" unicode="L" 
d="M40 800h40v-760h200v-40h-240v800z" />
    <glyph glyph-name="M" unicode="M" horiz-adv-x="480" 
d="M440 0h-40v760h-140v-760h-40v760h-140v-760h-40v800h400v-800z" />
    <glyph glyph-name="N" unicode="N" 
d="M40 800h240v-800h-40v760h-160v-760h-40v800z" />
    <glyph glyph-name="O" unicode="O" 
d="M40 800h240v-800h-240v800zM80 40h160v720h-160v-720z" />
    <glyph glyph-name="P" unicode="P" 
d="M40 800h240v-420h-200v-380h-40v800zM80 420h160v340h-160v-340z" />
    <glyph glyph-name="Q" unicode="Q" 
d="M240 0h-200v800h240v-1000h80v-40h-120v240zM80 40h160v720h-160v-720z" />
    <glyph glyph-name="R" unicode="R" 
d="M240 380h-160v-380h-40v800h240v-380h-40v-40h40v-380h-40v380zM240 760h-160v-340h160v340z" />
    <glyph glyph-name="S" unicode="S" 
d="M40 240h40v-200h160v340h-200v420h240v-240h-40v200h-160v-340h200v-420h-240v240z" />
    <glyph glyph-name="T" unicode="T" horiz-adv-x="440" 
d="M40 800h360v-40h-160v-760h-40v760h-160v40z" />
    <glyph glyph-name="U" unicode="U" 
d="M40 800h40v-760h160v760h40v-800h-240v800z" />
    <glyph glyph-name="V" unicode="V" 
d="M40 800h40v-760h160v760h40v-760h-40v-40h-160v40h-40v760z" />
    <glyph glyph-name="W" unicode="W" horiz-adv-x="480" 
d="M40 800h40v-760h140v760h40v-760h140v760h40v-800h-400v800z" />
    <glyph glyph-name="X" unicode="X" 
d="M40 800h40v-380h160v380h40v-380h-40v-40h40v-380h-40v380h-160v-380h-40v380h40v40h-40v380z" />
    <glyph glyph-name="Y" unicode="Y" 
d="M40 40h200v160h-200v600h40v-560h160v560h40v-800h-240v40z" />
    <glyph glyph-name="Z" unicode="Z" 
d="M40 800h240v-380h-40v-40h-160v-340h200v-40h-240v380h40v40h160v340h-200v40z" />
    <glyph glyph-name="bracketleft" unicode="[" horiz-adv-x="200" 
d="M40 960h120v-40h-80v-1040h80v-40h-120v1120z" />
    <glyph glyph-name="backslash" unicode="\" horiz-adv-x="240" 
d="M160.005 0h39.9971v420h-119.992v380h-39.998v-420h119.993v-380z" />
    <glyph glyph-name="bracketright" unicode="]" horiz-adv-x="200" 
d="M160.002 960h-119.992v-40h79.9951v-1040h-79.9951v-40h119.992v1120z" />
    <glyph glyph-name="asciicircum" unicode="^" 
d="M200 840v-40h80v-40h-240v40h80v40h80z" />
    <glyph glyph-name="underscore" unicode="_" 
d="M40 0h240v-40h-240v40z" />
    <glyph glyph-name="grave" unicode="`" horiz-adv-x="160" 
d="M40 960h40v-100h40v-140h-40v100h-40v140z" />
    <glyph glyph-name="a" unicode="a" 
d="M40 640h240v-640h-240v340h200v260h-200v40zM240 300h-160v-260h160v260z" />
    <glyph glyph-name="b" unicode="b" 
d="M40 800h40v-160h200v-640h-240v800zM80 40h160v560h-160v-560z" />
    <glyph glyph-name="c" unicode="c" 
d="M80 40h160v200h40v-240h-240v640h240v-240h-40v200h-160v-560z" />
    <glyph glyph-name="d" unicode="d" 
d="M280 0h-240v640h200v160h40v-800zM240 600h-160v-560h160v560z" />
    <glyph glyph-name="e" unicode="e" 
d="M280 0h-240v640h240v-340h-200v-260h200v-40zM80 340h160v260h-160v-260z" />
    <glyph glyph-name="f" unicode="f" horiz-adv-x="240" 
d="M40 880h160v-40h-120v-200h120v-40h-120v-600h-40v880z" />
    <glyph glyph-name="g" unicode="g" 
d="M40 -200h200v200h-200v640h240v-880h-240v40zM240 600h-160v-560h160v560z" />
    <glyph glyph-name="h" unicode="h" 
d="M40 800h40v-160h200v-640h-40v600h-160v-600h-40v800z" />
    <glyph glyph-name="i" unicode="i" horiz-adv-x="120" 
d="M40 640h40v-640h-40v640zM40 880h40v-40h-40v40z" />
    <glyph glyph-name="j" unicode="j" horiz-adv-x="120" 
d="M-40 -200h80v840h40v-880h-120v40zM40 880h40v-40h-40v40z" />
    <glyph glyph-name="k" unicode="k" 
d="M240 300h-160v-300h-40v800h40v-460h160v300h40v-300h-40v-40h40v-300h-40v300z" />
    <glyph glyph-name="l" unicode="l" horiz-adv-x="120" 
d="M40 800h40v-800h-40v800z" />
    <glyph glyph-name="m" unicode="m" horiz-adv-x="480" 
d="M440 0h-40v600h-140v-600h-40v600h-140v-600h-40v640h400v-640z" />
    <glyph glyph-name="n" unicode="n" 
d="M40 640h240v-640h-40v600h-160v-600h-40v640z" />
    <glyph glyph-name="o" unicode="o" 
d="M40 640h240v-640h-240v640zM80 40h160v560h-160v-560z" />
    <glyph glyph-name="p" unicode="p" 
d="M40 640h240v-640h-200v-160h-40v800zM80 40h160v560h-160v-560z" />
    <glyph glyph-name="q" unicode="q" 
d="M280 -160h-40v160h-200v640h240v-800zM240 600h-160v-560h160v560z" />
    <glyph glyph-name="r" unicode="r" horiz-adv-x="240" 
d="M40 640h160v-40h-120v-600h-40v640z" />
    <glyph glyph-name="s" unicode="s" 
d="M40 640h240v-40h-200v-260h200v-340h-240v40h200v260h-200v340z" />
    <glyph glyph-name="t" unicode="t" horiz-adv-x="240" 
d="M40 800h40v-160h120v-40h-120v-560h120v-40h-160v800z" />
    <glyph glyph-name="u" unicode="u" 
d="M280 0h-240v640h40v-600h160v600h40v-640z" />
    <glyph glyph-name="v" unicode="v" 
d="M40 640h40v-600h160v600h40v-600h-40v-40h-160v40h-40v600z" />
    <glyph glyph-name="w" unicode="w" horiz-adv-x="480" 
d="M40 640h40v-600h140v600h40v-600h140v600h40v-640h-400v640z" />
    <glyph glyph-name="x" unicode="x" 
d="M40 640h40v-300h160v300h40v-300h-40v-40h40v-300h-40v300h-160v-300h-40v300h40v40h-40v300z" />
    <glyph glyph-name="y" unicode="y" 
d="M240 640h40v-800h-240v40h200v160h-200v600h40v-560h160v560z" />
    <glyph glyph-name="z" unicode="z" 
d="M40 640h240v-300h-40v-40h-160v-260h200v-40h-240v300h40v40h160v260h-200v40z" />
    <glyph glyph-name="braceleft" unicode="{" horiz-adv-x="240" 
d="M40 420h40v540h120v-40h-80v-1040h80v-40h-120v540h-40v40z" />
    <glyph glyph-name="bar" unicode="|" horiz-adv-x="120" 
d="M40 960h40v-1120h-40v1120z" />
    <glyph glyph-name="braceright" unicode="}" horiz-adv-x="240" 
d="M200.002 420h-39.9971v540h-119.993v-40h79.9961v-1040h-79.9961v-40h119.993v540h39.9971v40z" />
    <glyph glyph-name="asciitilde" unicode="~" 
d="M40 800h240v-40h-240v40z" />
    <glyph glyph-name="exclamdown" unicode="&#xa1;" horiz-adv-x="120" 
d="M80.002 600.002h-39.9971v39.998h39.9971v-39.998zM80.002 -159.951h-39.9971v679.959h39.9971v-679.959z" />
    <glyph glyph-name="cent" unicode="&#xa2;" 
d="M240 240h40v-240h-100v-80h-40v80h-100v640h100v80h40v-80h100v-240h-40v200h-160v-560h160v200z" />
    <glyph glyph-name="sterling" unicode="&#xa3;" horiz-adv-x="440" 
d="M40 420h80v380h240v-240h-40v200h-160v-340h160v-40h-160v-340h240v-40h-360v40h80v340h-80v40z" />
    <glyph glyph-name="currency" unicode="&#xa4;" horiz-adv-x="560" 
d="M40 420h80v140h140v80h40v-80h140v-140h80v-40h-80v-140h-140v-80h-40v80h-140v140h-80v40zM160 280h240v240h-240v-240z" />
    <glyph glyph-name="yen" unicode="&#xa5;" 
d="M40 200h100v160h-100v440h40v-400h160v400h40v-440h-100v-160h100v-40h-100v-160h-40v160h-100v40z" />
    <glyph glyph-name="brokenbar" unicode="&#xa6;" horiz-adv-x="120" 
d="M40 360h40v-520h-40v520zM80 440h-40v520h40v-520z" />
    <glyph glyph-name="section" unicode="&#xa7;" 
d="M40 800h240v-240h-40v200h-160v-300h200v-700h-240v240h40v-200h160v300h-200v700zM80 140h160v280h-160v-280z" />
    <glyph glyph-name="dieresis" unicode="&#xa8;" horiz-adv-x="240" 
d="M40 760h40v-40h-40v40zM160 760h40v-40h-40v40z" />
    <glyph glyph-name="copyright" unicode="&#xa9;" horiz-adv-x="720" 
d="M40 800h640v-800h-640v800zM80 40h560v720h-560v-720zM440 560h-160v-320h160v120h40v-160h-240v400h240v-160h-40v120z" />
    <glyph glyph-name="ordfeminine" unicode="&#xaa;" 
d="M40 600h200v160h-200v40h240v-480h-240v280zM80 360h160v200h-160v-200z" />
    <glyph glyph-name="guillemotleft" unicode="&#xab;" horiz-adv-x="400" 
d="M120 380h-80v40h80v180h40v-400h-40v180zM320 380h-80v40h80v180h40v-400h-40v180z" />
    <glyph glyph-name="logicalnot" unicode="&#xac;" horiz-adv-x="480" 
d="M40 420h400v-160h-40v120h-360v40z" />
    <glyph glyph-name="registered" unicode="&#xae;" horiz-adv-x="720" 
d="M40 800h640v-800h-640v800zM80 40h560v720h-560v-720zM440 340h-160v-140h-40v400h240v-220h-40v180h-160v-180h160v-40h40v-140h-40v140z" />
    <glyph glyph-name="macron" unicode="&#xaf;" 
d="M40 760h240v-40h-240v40z" />
    <glyph glyph-name="degree" unicode="&#xb0;" 
d="M40 880h240v-240h-240v240zM80 680h160v160h-160v-160z" />
    <glyph glyph-name="plusminus" unicode="&#xb1;" horiz-adv-x="440" 
d="M40 420h160v140h40v-140h160v-40h-160v-140h-40v140h-160v40zM40 41h360v-40h-360v40z" />
    <glyph glyph-name="two.numr" unicode="&#xb2;" 
d="M40 580h200v180h-200v40h240v-260h-200v-180h200v-40h-240v260z" />
    <glyph glyph-name="three.numr" unicode="&#xb3;" horiz-adv-x="360" 
d="M120 580h160v180h-240v40h280v-480h-280v40h240v180h-160v40z" />
    <glyph glyph-name="acute" unicode="&#xb4;" horiz-adv-x="160" 
d="M80 720h-40v140h40v100h40v-140h-40v-100z" />
    <glyph glyph-name="mu1" unicode="&#xb5;" 
d="M240 640h40v-640h-200v-160h-40v800h40v-600h160v600z" />
    <glyph glyph-name="paragraph" unicode="&#xb6;" horiz-adv-x="520" 
d="M40 800h440v-800h-40v760h-160v-760h-40v360h-200v440z" />
    <glyph glyph-name="periodcentered" unicode="&#xb7;" horiz-adv-x="120" 
d="M40 360h40v-40h-40v40z" />
    <glyph glyph-name="cedilla" unicode="&#xb8;" horiz-adv-x="120" 
d="M-40 -120h80v160h40v-200h-120v40z" />
    <glyph glyph-name="one.numr" unicode="&#xb9;" horiz-adv-x="360" 
d="M40 360h120v400h-120v40h160v-440h120v-40h-280v40z" />
    <glyph glyph-name="ordmasculine" unicode="&#xba;" 
d="M40 800h240v-480h-240v480zM80 360h160v400h-160v-400z" />
    <glyph glyph-name="guillemotright" unicode="&#xbb;" horiz-adv-x="400" 
d="M80.0078 380h79.9941v40h-79.9941v180h-39.998v-400h39.998v180zM280.008 380h79.9941v40h-79.9941v180h-39.998v-400h39.998v180z" />
    <glyph glyph-name="onequarter" unicode="&#xbc;" horiz-adv-x="1000" 
d="M40 360h120v400h-120v40h160v-440h120v-40h-280v40zM480 0h-40v420h120v380h40v-420h-120v-380zM920 161h-200v320h40v-280h160v280h40v-480h-40v160z" />
    <glyph glyph-name="onehalf" unicode="&#xbd;" horiz-adv-x="1000" 
d="M40 360h120v400h-120v40h160v-440h120v-40h-280v40zM480 0h-40v420h120v380h40v-420h-120v-380zM720 261h200v180h-200v40h240v-260h-200v-180h200v-40h-240v260z" />
    <glyph glyph-name="threequarters" unicode="&#xbe;" horiz-adv-x="1000" 
d="M120 580h160v180h-240v40h280v-480h-280v40h240v180h-160v40zM480 0h-40v420h120v380h40v-420h-120v-380zM920 161h-200v320h40v-280h160v280h40v-480h-40v160z" />
    <glyph glyph-name="AE" unicode="&#xc6;" horiz-adv-x="520" 
d="M240 380h-160v-380h-40v800h440v-40h-200v-340h200v-40h-200v-340h200v-40h-240v380zM80 420h160v340h-160v-340z" />
    <glyph glyph-name="multiply" unicode="&#xd7;" horiz-adv-x="440" 
d="M400 560v-40h-80v-240h80v-40h-120v140h-120v-140h-120v40h80v240h-80v40h120v-140h120v140h120z" />
    <glyph glyph-name="Oslash" unicode="&#xd8;" 
d="M40 800h100v80h40v-80h100v-800h-100v-80h-40v80h-100v800zM80 40h160v720h-160v-720z" />
    <glyph glyph-name="germandbls" unicode="&#xdf;" 
d="M240 760h-160v-760h-40v800h240v-380h-40v-40h40v-380h-120v40h80v340h-80v40h80v340z" />
    <glyph glyph-name="ae" unicode="&#xe6;" horiz-adv-x="520" 
d="M480 0h-440v340h200v260h-200v40h440v-340h-200v-260h200v-40zM240 300h-160v-260h160v260zM280 340h160v260h-160v-260z" />
    <glyph glyph-name="eth" unicode="&#xf0;" 
d="M280 0h-240v560h200v200h-200v120h40v-80h200v-800zM240 520h-160v-480h160v480z" />
    <glyph glyph-name="oslash" unicode="&#xf8;" 
d="M40 640h100v80h40v-80h100v-640h-100v-80h-40v80h-100v640zM80 40h160v560h-160v-560z" />
    <glyph glyph-name="thorn" unicode="&#xfe;" 
d="M40 800h40v-160h200v-480h-200v-160h-40v800zM80 200h160v400h-160v-400z" />
    <glyph glyph-name="Dslash" unicode="&#x110;" horiz-adv-x="400" 
d="M160 420h80v-40h-80v-340h160v-40h-200v380h-80v40h80v380h200v-40h40v-720h-40v720h-160v-340z" />
    <glyph glyph-name="dotlessi" unicode="&#x131;" horiz-adv-x="120" 
d="M40 640h40v-640h-40v640z" />
    <glyph glyph-name="kgreenlandic" unicode="&#x138;" 
d="M240 300h-160v-300h-40v640h40v-300h160v300h40v-300h-40v-40h40v-300h-40v300z" />
    <glyph glyph-name="Eng" unicode="&#x14a;" 
d="M160 -200h80v960h-160v-760h-40v800h240v-1040h-120v40z" />
    <glyph glyph-name="eng" unicode="&#x14b;" 
d="M160 -200h80v800h-160v-600h-40v640h240v-880h-120v40z" />
    <glyph glyph-name="florin" unicode="&#x192;" horiz-adv-x="240" 
d="M-40 -200h80v1080h160v-40h-120v-200h120v-40h-120v-840h-120v40z" />
    <glyph glyph-name="Oslashacute" unicode="&#x1fe;" 
d="M40 800h100v80h40v-80h100v-800h-100v-80h-40v80h-100v800zM80 40h160v720h-160v-720zM180 960h-40v140h40v100h40v-140h-40v-100z" />
    <glyph glyph-name="oslashacute" unicode="&#x1ff;" 
d="M40 640h100v80h40v-80h100v-640h-100v-80h-40v80h-100v640zM80 40h160v560h-160v-560zM180 800h-40v140h40v100h40v-140h-40v-100z" />
    <glyph glyph-name="circumflex" unicode="&#x2c6;" horiz-adv-x="280" 
d="M40 760h80v80h40v-80h80v-40h-200v40z" />
    <glyph glyph-name="caron" unicode="&#x2c7;" horiz-adv-x="280" 
d="M40 840h200v-40h-80v-80h-40v80h-80v40z" />
    <glyph glyph-name="uni02C9" unicode="&#x2c9;" horiz-adv-x="360" 
d="M40 760h280v-40h-280v40z" />
    <glyph glyph-name="breve" unicode="&#x2d8;" horiz-adv-x="240" 
d="M40 800h40v-40h80v40h40v-80h-160v80z" />
    <glyph glyph-name="dotaccent" unicode="&#x2d9;" horiz-adv-x="120" 
d="M40 760h40v-40h-40v40z" />
    <glyph glyph-name="ring" unicode="&#x2da;" horiz-adv-x="200" 
d="M40 840h120v-120h-120v120zM80 760h40v40h-40v-40z" />
    <glyph glyph-name="ogonek" unicode="&#x2db;" horiz-adv-x="120" 
d="M40 40h40v-200h-40v200z" />
    <glyph glyph-name="tilde" unicode="&#x2dc;" 
d="M40 760h240v-40h-240v40z" />
    <glyph glyph-name="hungarumlaut" unicode="&#x2dd;" horiz-adv-x="240" 
d="M40 960h40v-240h-40v240zM160 960h40v-240h-40v240z" />
    <glyph glyph-name="tonos" unicode="&#x384;" horiz-adv-x="240" 
d="M80 720h-40v140h40v100h40v-140h-40v-100z" />
    <glyph glyph-name="Alpha" unicode="&#x391;" 
d="M40 800h240v-800h-40v380h-160v-380h-40v800zM80 420h160v340h-160v-340z" />
    <glyph glyph-name="Epsilon" unicode="&#x395;" 
d="M40 800h240v-40h-200v-340h200v-40h-200v-340h200v-40h-240v800z" />
    <glyph glyph-name="Zeta" unicode="&#x396;" 
d="M40 800h240v-380h-40v-40h-160v-340h200v-40h-240v380h40v40h160v340h-200v40z" />
    <glyph glyph-name="Iota" unicode="&#x399;" horiz-adv-x="120" 
d="M40 800h40v-800h-40v800z" />
    <glyph glyph-name="Kappa" unicode="&#x39a;" 
d="M240 380h-160v-380h-40v800h40v-380h160v380h40v-380h-40v-40h40v-380h-40v380z" />
    <glyph glyph-name="Mu" unicode="&#x39c;" horiz-adv-x="480" 
d="M440 0h-40v760h-140v-760h-40v760h-140v-760h-40v800h400v-800z" />
    <glyph glyph-name="Omicron" unicode="&#x39f;" 
d="M40 800h240v-800h-240v800zM80 40h160v720h-160v-720z" />
    <glyph glyph-name="Rho" unicode="&#x3a1;" 
d="M40 800h240v-420h-200v-380h-40v800zM80 420h160v340h-160v-340z" />
    <glyph glyph-name="Tau" unicode="&#x3a4;" horiz-adv-x="440" 
d="M40 800h360v-40h-160v-760h-40v760h-160v40z" />
    <glyph glyph-name="Upsilon" unicode="&#x3a5;" 
d="M40 40h200v160h-200v600h40v-560h160v560h40v-800h-240v40z" />
    <glyph glyph-name="Chi" unicode="&#x3a7;" 
d="M40 800h40v-380h160v380h40v-380h-40v-40h40v-380h-40v380h-160v-380h-40v380h40v40h-40v380z" />
    <glyph glyph-name="Iotadieresis" unicode="&#x3aa;" horiz-adv-x="120" 
d="M40 800h40v-800h-40v800zM-19 920h40v-40h-40v40zM101 920h40v-40h-40v40z" />
    <glyph glyph-name="Upsilondieresis" unicode="&#x3ab;" 
d="M40 40h200v160h-200v600h40v-560h160v560h40v-800h-240v40zM80 920h40v-40h-40v40zM200 920h40v-40h-40v40z" />
    <glyph glyph-name="mugreek" unicode="&#x3bc;" 
d="M240 640h40v-640h-200v-160h-40v800h40v-600h160v600z" />
    <glyph glyph-name="nu" unicode="&#x3bd;" 
d="M40 640h40v-600h160v600h40v-600h-40v-40h-160v40h-40v600z" />
    <glyph glyph-name="omicron" unicode="&#x3bf;" 
d="M40 640h240v-640h-240v640zM80 40h160v560h-160v-560z" />
    <glyph glyph-name="omicrontonos" unicode="&#x3cc;" 
d="M40 640h240v-640h-240v640zM80 40h160v560h-160v-560zM180 720h-40v140h40v100h40v-140h-40v-100z" />
    <glyph glyph-name="afii10023" unicode="&#x401;" 
d="M40 800h240v-40h-200v-340h200v-40h-200v-340h200v-40h-240v800zM80 920h40v-40h-40v40zM200 920h40v-40h-40v40z" />
    <glyph glyph-name="afii10054" unicode="&#x405;" 
d="M40 240h40v-200h160v340h-200v420h240v-240h-40v200h-160v-340h200v-420h-240v240z" />
    <glyph glyph-name="afii10055" unicode="&#x406;" horiz-adv-x="120" 
d="M40 800h40v-800h-40v800z" />
    <glyph glyph-name="afii10056" unicode="&#x407;" horiz-adv-x="120" 
d="M40 800h40v-800h-40v800zM-19 920h40v-40h-40v40zM101 920h40v-40h-40v40z" />
    <glyph glyph-name="afii10057" unicode="&#x408;" 
d="M40 240h40v-200h160v720h-80v40h120v-800h-240v240z" />
    <glyph glyph-name="afii10017" unicode="&#x410;" 
d="M40 800h240v-800h-40v380h-160v-380h-40v800zM80 420h160v340h-160v-340z" />
    <glyph glyph-name="afii10019" unicode="&#x412;" 
d="M40 800h240v-380h-40v-40h40v-380h-240v800zM240 380h-160v-340h160v340zM240 760h-160v-340h160v340z" />
    <glyph glyph-name="afii10022" unicode="&#x415;" 
d="M40 800h240v-40h-200v-340h200v-40h-200v-340h200v-40h-240v800z" />
    <glyph glyph-name="afii10030" unicode="&#x41c;" horiz-adv-x="480" 
d="M440 0h-40v760h-140v-760h-40v760h-140v-760h-40v800h400v-800z" />
    <glyph glyph-name="afii10031" unicode="&#x41d;" 
d="M240 380h-160v-380h-40v800h40v-380h160v380h40v-800h-40v380z" />
    <glyph glyph-name="afii10032" unicode="&#x41e;" 
d="M40 800h240v-800h-240v800zM80 40h160v720h-160v-720z" />
    <glyph glyph-name="afii10034" unicode="&#x420;" 
d="M40 800h240v-420h-200v-380h-40v800zM80 420h160v340h-160v-340z" />
    <glyph glyph-name="afii10035" unicode="&#x421;" 
d="M80 40h160v200h40v-240h-240v800h240v-240h-40v200h-160v-720z" />
    <glyph glyph-name="afii10036" unicode="&#x422;" horiz-adv-x="440" 
d="M40 800h360v-40h-160v-760h-40v760h-160v40z" />
    <glyph glyph-name="afii10039" unicode="&#x425;" 
d="M40 800h40v-380h160v380h40v-380h-40v-40h40v-380h-40v380h-160v-380h-40v380h40v40h-40v380z" />
    <glyph glyph-name="afii10049" unicode="&#x42f;" 
d="M80.0146 380h159.99v-380h39.9971v800h-239.984v-380h39.9971v-40h-39.9971v-380h39.9971v380zM80.0146 760h159.99v-340h-159.99v340z" />
    <glyph glyph-name="afii10065" unicode="&#x430;" 
d="M40 600h40v40h200v-640h-200v40h-40v560zM80 40h160v560h-160v-560z" />
    <glyph glyph-name="afii10070" unicode="&#x435;" 
d="M280 0h-240v640h240v-340h-200v-260h200v-40zM80 340h160v260h-160v-260z" />
    <glyph glyph-name="afii10080" unicode="&#x43e;" 
d="M40 640h240v-640h-240v640zM80 40h160v560h-160v-560z" />
    <glyph glyph-name="afii10082" unicode="&#x440;" 
d="M40 640h240v-640h-200v-160h-40v800zM80 40h160v560h-160v-560z" />
    <glyph glyph-name="afii10083" unicode="&#x441;" 
d="M80 40h160v200h40v-240h-240v640h240v-240h-40v200h-160v-560z" />
    <glyph glyph-name="afii10085" unicode="&#x443;" 
d="M240 640h40v-800h-240v40h200v160h-200v600h40v-560h160v560z" />
    <glyph glyph-name="afii10087" unicode="&#x445;" 
d="M40 640h40v-300h160v300h40v-300h-40v-40h40v-300h-40v300h-160v-300h-40v300h40v40h-40v300z" />
    <glyph glyph-name="afii10071" unicode="&#x451;" 
d="M280 0h-240v640h240v-340h-200v-260h200v-40zM80 340h160v260h-160v-260zM80 760h40v-40h-40v40zM200 760h40v-40h-40v40z" />
    <glyph glyph-name="afii10102" unicode="&#x455;" 
d="M40 640h240v-40h-200v-260h200v-340h-240v40h200v260h-200v340z" />
    <glyph glyph-name="afii10103" unicode="&#x456;" horiz-adv-x="120" 
d="M40 640h40v-640h-40v640zM40 880h40v-40h-40v40z" />
    <glyph glyph-name="afii10104" unicode="&#x457;" horiz-adv-x="120" 
d="M-19 760h40v-40h-40v40zM101 760h40v-40h-40v40zM40 640h40v-640h-40v640z" />
    <glyph glyph-name="afii10105" unicode="&#x458;" horiz-adv-x="120" 
d="M-40 -200h80v840h40v-880h-120v40zM40 880h40v-40h-40v40z" />
    <glyph glyph-name="afii10110" unicode="&#x45e;" 
d="M240 640h40v-800h-240v40h200v160h-200v600h40v-560h160v560zM80 800h40v-40h80v40h40v-80h-160v80z" />
    <glyph glyph-name="endash" unicode="&#x2013;" horiz-adv-x="560" 
d="M40 420h480v-40h-480v40z" />
    <glyph glyph-name="emdash" unicode="&#x2014;" horiz-adv-x="720" 
d="M40 420h640v-40h-640v40z" />
    <glyph glyph-name="underscoredbl" unicode="&#x2017;" horiz-adv-x="400" 
d="M40 -159h240v-40h-240v40zM40 0h240v-40h-240v40z" />
    <glyph glyph-name="quoteleft" unicode="&#x2018;" horiz-adv-x="160" 
d="M120.002 760.047h-39.9971v-119.993h-39.9971v159.99h39.9971v79.9951h39.9971v-119.992z" />
    <glyph glyph-name="quoteright" unicode="&#x2019;" horiz-adv-x="160" 
d="M40 760h40v120h40v-160h-40v-80h-40v120z" />
    <glyph glyph-name="quotesinglbase" unicode="&#x201a;" horiz-adv-x="160" 
d="M40 41h40v120h40v-160h-40v-80h-40v120z" />
    <glyph glyph-name="quotereversed" unicode="&#x201b;" horiz-adv-x="160" 
d="M120.002 760h-39.9971v120h-39.9971v-160h39.9971v-80h39.9971v120z" />
    <glyph glyph-name="quotedblleft" unicode="&#x201c;" 
d="M120.002 680.047h-39.9971v-119.993h-39.9971v159.99h39.9971v79.9951h39.9971v-119.992zM280.002 680.047h-39.9971v-119.993h-39.9971v159.99h39.9971v79.9951h39.9971v-119.992z" />
    <glyph glyph-name="quotedblright" unicode="&#x201d;" 
d="M40 760h40v120h40v-160h-40v-80h-40v120zM200 760h40v120h40v-160h-40v-80h-40v120z" />
    <glyph glyph-name="quotedblbase" unicode="&#x201e;" 
d="M40 41h40v120h40v-160h-40v-80h-40v120zM200 41h40v120h40v-160h-40v-80h-40v120z" />
    <glyph glyph-name="dagger" unicode="&#x2020;" horiz-adv-x="280" 
d="M40 640h80v160h40v-160h80v-40h-80v-760h-40v760h-80v40z" />
    <glyph glyph-name="daggerdbl" unicode="&#x2021;" horiz-adv-x="280" 
d="M40 40h80v560h-80v40h80v160h40v-160h80v-40h-80v-560h80v-40h-80v-160h-40v160h-80v40z" />
    <glyph glyph-name="bullet" unicode="&#x2022;" 
d="M40 480h40v40h160v-40h40v-160h-40v-40h-160v40h-40v160z" />
    <glyph glyph-name="perthousand" unicode="&#x2030;" horiz-adv-x="1080" 
d="M40 801h240v-240h-240v240zM80 601h160v160h-160v-160zM400 0h-40v420h120v380h40v-420h-120v-380zM600 241h240v-240h-240v240zM640 41h160v160h-160v-160zM800 241h240v-240h-240v240zM840 41h160v160h-160v-160z" />
    <glyph glyph-name="guilsinglleft" unicode="&#x2039;" horiz-adv-x="200" 
d="M120 380h-80v40h80v180h40v-400h-40v180z" />
    <glyph glyph-name="guilsinglright" unicode="&#x203a;" horiz-adv-x="200" 
d="M80.0078 420.023h79.9941v-39.998h-79.9941v-179.988h-39.998v399.975h39.998v-179.988z" />
    <glyph glyph-name="fraction" unicode="&#x2044;" horiz-adv-x="240" 
d="M80 0h-40v420h120v380h40v-420h-120v-380z" />
    <glyph glyph-name="nsuperior" unicode="&#x207f;" 
d="M40 800h240v-480h-40v440h-160v-440h-40v480z" />
    <glyph glyph-name="franc" unicode="&#x20a3;" horiz-adv-x="400" 
d="M40 200h80v600h240v-40h-200v-340h200v-40h-200v-180h80v-40h-80v-160h-40v160h-80v40z" />
    <glyph glyph-name="afii08941" unicode="&#x20a4;" horiz-adv-x="440" 
d="M40 420h80v380h240v-240h-40v200h-160v-340h160v-40h-160v-340h240v-40h-360v40h80v340h-80v40z" />
    <glyph glyph-name="peseta" unicode="&#x20a7;" horiz-adv-x="960" 
d="M40 800h240v-420h-200v-380h-40v800zM80 420h160v340h-160v-340zM400 800h40v-160h120v-40h-120v-560h120v-40h-160v800zM680 640h240v-40h-200v-260h200v-340h-240v40h200v260h-200v340z" />
    <glyph glyph-name="Euro" unicode="&#x20ac;" horiz-adv-x="400" 
d="M160 420h160v-40h-160v-340h160v200h40v-240h-240v380h-80v40h80v380h240v-240h-40v200h-160v-340z" />
    <glyph glyph-name="numero" unicode="&#x2116;" horiz-adv-x="680" 
d="M40 800h240v-800h-40v760h-160v-760h-40v800zM400 800h240v-480h-240v480zM440 360h160v400h-160v-400zM400 40h240v-40h-240v40z" />
    <glyph glyph-name="trademark" unicode="&#x2122;" horiz-adv-x="800" 
d="M40 800h280v-40h-120v-440h-40v440h-120v40zM440 320h-40v480h360v-480h-40v440h-120v-440h-40v440h-120v-440z" />
    <glyph glyph-name="Ohm" unicode="&#x2126;" horiz-adv-x="400" 
d="M280 200h40v560h-240v-560h40v-200h-80v40h40v160h-40v560h40v40h240v-40h40v-560h-40v-160h40v-40h-80v200z" />
    <glyph glyph-name="estimated" unicode="&#x212e;" horiz-adv-x="904" 
d="M219 401v-290q97 -94 234 -94q196 0 308 193l55 -35q-40 -57 -78 -97.5t-81 -67t-92.5 -38.5t-111.5 -12q-95 0 -171.5 34t-130 93.5t-82.5 140t-29 173.5q0 92 29 172t83 139.5t130.5 93.5t170.5 34q91 0 167 -32.5t130 -90.5t84 -139t30 -177h-645zM683 457v232
q-101 95 -233 95q-133 0 -231 -96v-231h464z" />
    <glyph glyph-name="onethird" unicode="&#x2153;" horiz-adv-x="1040" 
d="M40 360h120v400h-120v40h160v-440h120v-40h-280v40zM480 0h-40v420h120v380h40v-420h-120v-380zM800 261h160v180h-240v40h280v-480h-280v40h240v180h-160v40z" />
    <glyph glyph-name="twothirds" unicode="&#x2154;" horiz-adv-x="1000" 
d="M40 580h200v180h-200v40h240v-260h-200v-180h200v-40h-240v260zM440 0h-40v420h120v380h40v-420h-120v-380zM760 261h160v180h-240v40h280v-480h-280v40h240v180h-160v40z" />
    <glyph glyph-name="partialdiff" unicode="&#x2202;" 
d="M280.002 800h-239.984v-40h199.987v-120h-199.987v-640h239.984v800zM240.005 40h-159.99v560h159.99v-560z" />
    <glyph glyph-name="Delta" unicode="&#x2206;" horiz-adv-x="480" 
d="M40 40h80v720h40v-720h160v720h-160v40h160v-40h40v-720h80v-40h-400v40z" />
    <glyph glyph-name="product" unicode="&#x220f;" 
d="M40 800h240v-800h-40v760h-160v-760h-40v800z" />
    <glyph glyph-name="summation" unicode="&#x2211;" horiz-adv-x="360" 
d="M40 800h280v-40h-240v-340h120v-40h-120v-340h240v-40h-280v380h40v40h-40v380z" />
    <glyph glyph-name="minus" unicode="&#x2212;" horiz-adv-x="440" 
d="M40 420h360v-40h-360v40z" />
    <glyph glyph-name="radical" unicode="&#x221a;" 
d="M40 380h80v40h120v380h40v-420h-120v-380h-40v340h-80v40z" />
    <glyph glyph-name="infinity" unicode="&#x221e;" horiz-adv-x="560" 
d="M520 560v-320h-480v320h480zM80 280h180v240h-180v-240zM300 280h180v240h-180v-240z" />
    <glyph glyph-name="integral" unicode="&#x222b;" horiz-adv-x="120" 
d="M-40 -200h80v1160h120v-40h-80v-1160h-120v40z" />
    <glyph glyph-name="approxequal" unicode="&#x2248;" 
d="M40 501h240v-40h-240v40zM40 341h240v-40h-240v40z" />
    <glyph glyph-name="equivalence" unicode="&#x2261;" horiz-adv-x="440" 
d="M40 420h360v-40h-360v40zM40 580h360v-40h-360v40zM40 261h360v-40h-360v40z" />
    <glyph glyph-name="lozenge" unicode="&#x25ca;" horiz-adv-x="400" 
d="M320 420h40v-40h-40v40h-40v340h-160v40h160v-40h40v-340zM280 0h-160v40h-40v340h-40v40h40v-40h40v-340h160v-40zM320 40h-40v340h40v-340zM120 760v-340h-40v340h40z" />
    <glyph glyph-name="fi" unicode="&#xfb01;" horiz-adv-x="400" 
d="M40 880h320v-40h-280v-200h120v-40h-120v-600h-40v880zM320 640h40v-640h-40v640z" />
    <glyph glyph-name="fl" unicode="&#xfb02;" horiz-adv-x="400" 
d="M320 840h-240v-200h120v-40h-120v-600h-40v880h320v-880h-40v840z" />
    <glyph glyph-name="hyphen" unicode="-" 
d="M40 420h240v-40h-240v40z" />
    <glyph glyph-name="Ecaron" unicode="&#x11a;" 
d="M40 800h240v-40h-200v-340h200v-40h-200v-340h200v-40h-240v800zM60 1000h200v-40h-80v-80h-40v80h-80v40z" />
    <glyph glyph-name="ecaron" unicode="&#x11b;" 
d="M280 0h-240v640h240v-340h-200v-260h200v-40zM80 340h160v260h-160v-260zM60 840h200v-40h-80v-80h-40v80h-80v40z" />
    <glyph glyph-name="Dcaron" unicode="&#x10e;" 
d="M40 800h200v-40h40v-720h-40v-40h-200v800zM80 40h160v720h-160v-720zM60 1000h200v-40h-80v-80h-40v80h-80v40z" />
    <glyph glyph-name="Ccaron" unicode="&#x10c;" 
d="M80 40h160v200h40v-240h-240v800h240v-240h-40v200h-160v-720zM60 1000h200v-40h-80v-80h-40v80h-80v40z" />
    <glyph glyph-name="Scaron" unicode="&#x160;" 
d="M40 240h40v-200h160v340h-200v420h240v-240h-40v200h-160v-340h200v-420h-240v240zM60 1000h200v-40h-80v-80h-40v80h-80v40z" />
    <glyph glyph-name="scaron" unicode="&#x161;" 
d="M40 640h240v-40h-200v-260h200v-340h-240v40h200v260h-200v340zM60 840h200v-40h-80v-80h-40v80h-80v40z" />
    <glyph glyph-name="Zcaron" unicode="&#x17d;" 
d="M40 800h240v-380h-40v-40h-160v-340h200v-40h-240v380h40v40h160v340h-200v40zM60 1000h200v-40h-80v-80h-40v80h-80v40z" />
    <glyph glyph-name="zcaron" unicode="&#x17e;" 
d="M40 640h240v-300h-40v-40h-160v-260h200v-40h-240v300h40v40h160v260h-200v40zM60 840h200v-40h-80v-80h-40v80h-80v40z" />
    <glyph glyph-name="longs" unicode="&#x17f;" horiz-adv-x="280" 
d="M40 960h200v-40h-160v-920h-40v960z" />
    <glyph glyph-name="Ncaron" unicode="&#x147;" 
d="M40 800h240v-800h-40v760h-160v-760h-40v800zM60 1000h200v-40h-80v-80h-40v80h-80v40z" />
    <glyph glyph-name="ncaron" unicode="&#x148;" 
d="M40 640h240v-640h-40v600h-160v-600h-40v640zM60 840h200v-40h-80v-80h-40v80h-80v40z" />
    <glyph glyph-name="Uring" unicode="&#x16e;" 
d="M40 800h40v-760h160v760h40v-800h-240v800zM100 1000h120v-120h-120v120zM140 920h40v40h-40v-40z" />
    <glyph glyph-name="uring" unicode="&#x16f;" 
d="M280 0h-240v640h40v-600h160v600h40v-640zM100 840h120v-120h-120v120zM140 760h40v40h-40v-40z" />
    <glyph glyph-name="tcaron" unicode="&#x165;" horiz-adv-x="400" 
d="M40 800h40v-160h120v-40h-120v-560h120v-40h-160v800zM280 760h40v120h40v-160h-40v-80h-40v120z" />
    <glyph glyph-name="Ohungarumlaut" unicode="&#x150;" 
d="M40 800h240v-800h-240v800zM80 40h160v720h-160v-720zM80 1120h40v-240h-40v240zM200 1120h40v-240h-40v240z" />
    <glyph glyph-name="ohungarumlaut" unicode="&#x151;" 
d="M40 640h240v-640h-240v640zM80 40h160v560h-160v-560zM80 960h40v-240h-40v240zM200 960h40v-240h-40v240z" />
    <glyph glyph-name="Uhungarumlaut" unicode="&#x170;" 
d="M40 800h40v-760h160v760h40v-800h-240v800zM80 1120h40v-240h-40v240zM200 1120h40v-240h-40v240z" />
    <glyph glyph-name="uhungarumlaut" unicode="&#x171;" 
d="M280 0h-240v640h40v-600h160v600h40v-640zM80 960h40v-240h-40v240zM200 960h40v-240h-40v240z" />
    <glyph glyph-name="uni0191" unicode="&#x191;" 
d="M-40 -200h80v1000h240v-40h-200v-340h200v-40h-200v-620h-120v40z" />
    <glyph glyph-name="uni01DD" unicode="&#x1dd;" 
d="M40.0176 640h239.984v-639.961h-239.984v339.979h199.987v259.983h-199.987v39.998zM240.005 300.021h-159.99v-259.983h159.99v259.983z" />
    <glyph glyph-name="Beta" unicode="&#x392;" 
d="M40 800h240v-380h-40v-40h40v-380h-240v800zM240 380h-160v-340h160v340zM240 760h-160v-340h160v340z" />
    <glyph glyph-name="Gamma" unicode="&#x393;" 
d="M40 0.0488281h40v759.953h200v39.998h-240v-799.951z" />
    <glyph glyph-name="Eta" unicode="&#x397;" 
d="M240 380h-160v-380h-40v800h40v-380h160v380h40v-800h-40v380z" />
    <glyph glyph-name="Lambda" unicode="&#x39b;" 
d="M280.002 0.0488281h-39.9971v759.953h-159.99v-759.953h-39.9971v759.953h39.9971v39.998h159.99v-39.998h39.9971v-759.953z" />
    <glyph glyph-name="Nu" unicode="&#x39d;" 
d="M40 800h240v-800h-40v760h-160v-760h-40v800z" />
    <glyph glyph-name="uni0450" unicode="&#x450;" 
d="M280 0h-240v640h240v-340h-200v-260h200v-40zM80 340h160v260h-160v-260zM100 960h40v-100h40v-140h-40v100h-40v140z" />
    <glyph glyph-name="uni0400" unicode="&#x400;" 
d="M40 800h240v-40h-200v-340h200v-40h-200v-340h200v-40h-240v800zM102 1120h40v-100h40v-140h-40v100h-40v140z" />
    <glyph glyph-name="afii10020" unicode="&#x413;" 
d="M40 0.0488281h40v759.953h200v39.998h-240v-799.951z" />
    <glyph glyph-name="afii10025" unicode="&#x417;" 
d="M80 420h160v340h-160v-200h-40v240h240v-800h-240v240h40v-200h160v340h-160v40z" />
    <glyph glyph-name="afii10026" unicode="&#x418;" 
d="M280.002 800h-239.984v-800h39.9971v760h159.99v-760h39.9971v800z" />
    <glyph glyph-name="afii10028" unicode="&#x41a;" 
d="M240 380h-160v-380h-40v800h40v-380h160v380h40v-380h-40v-40h40v-380h-40v380z" />
    <glyph glyph-name="afii10046" unicode="&#x42c;" 
d="M40 0.0488281h240v419.975h-200v379.977h-40v-799.951zM80 380.025h160v-339.979h-160v339.979z" />
    <glyph glyph-name="afii10044" unicode="&#x42a;" horiz-adv-x="400" 
d="M40 800h120v-380h200v-420h-240v760h-80v40zM160 40h160v340h-160v-340z" />
    <glyph glyph-name="divide" unicode="&#xf7;" horiz-adv-x="440" 
d="M200 240h40v-40h-40v40zM200 600h40v-40h-40v40zM40 420h360v-40h-360v40z" />
    <glyph glyph-name="Eth" unicode="&#xd0;" horiz-adv-x="400" 
d="M160 420h80v-40h-80v-340h160v-40h-200v380h-80v40h80v380h200v-40h40v-720h-40v720h-160v-340z" />
    <glyph glyph-name="uni019D" unicode="&#x19d;" 
d="M-40 -200h80v1000h240v-800h-40v760h-160v-1000h-120v40z" />
    <glyph glyph-name="uni019E" unicode="&#x19e;" 
d="M40 640h240v-800h-40v760h-160v-600h-40v640z" />
    <glyph glyph-name="uni0190" unicode="&#x190;" 
d="M240.005 420h-159.99v340h159.99v-200h39.9971v240h-239.984v-800h239.984v240h-39.9971v-200h-159.99v340h159.99v40z" />
    <glyph glyph-name="uni018E" unicode="&#x18e;" 
d="M280.002 800h-239.984v-40h199.987v-340h-199.987v-40h199.987v-340h-199.987v-40h239.984v800z" />
    <glyph glyph-name="uni0189" unicode="&#x189;" horiz-adv-x="400" 
d="M160 420h80v-40h-80v-340h160v-40h-200v380h-80v40h80v380h200v-40h40v-720h-40v720h-160v-340z" />
    <glyph glyph-name="uni0183" unicode="&#x183;" 
d="M40 800h240v-40h-200v-120h200v-640h-240v800zM80 40h160v560h-160v-560z" />
    <glyph glyph-name="uni018C" unicode="&#x18c;" 
d="M280.002 800h-239.984v-40h199.987v-120h-199.987v-640h239.984v800zM240.005 40h-159.99v560h159.99v-560z" />
    <glyph glyph-name="uni0182" unicode="&#x182;" 
d="M40 800h240v-40h-200v-340h200v-420h-240v800zM80 40h160v340h-160v-340z" />
    <glyph glyph-name="uni018B" unicode="&#x18b;" 
d="M280.002 800h-239.984v-40h199.987v-340h-199.987v-420h239.984v800zM240.005 40h-159.99v340h159.99v-340z" />
    <glyph glyph-name="uni018A" unicode="&#x18a;" horiz-adv-x="400" 
d="M40 800h280v-40h40v-720h-40v720h-160v-720h160v-40h-200v760h-80v40z" />
    <glyph glyph-name="uni0181" unicode="&#x181;" horiz-adv-x="400" 
d="M320 380h40v-380h-240v760h-80v40h320v-380h-40v340h-160v-340h160v-40zM320 380h-160v-340h160v340z" />
    <glyph glyph-name="uni0180" unicode="&#x180;" horiz-adv-x="400" 
d="M120 800h40v-80h80v-40h-80v-80h200v-600h-240v680h-80v40h80v80zM160 40h160v520h-160v-520z" />
    <glyph glyph-name="uni01A7" unicode="&#x1a7;" 
d="M280.002 240h-39.9971v-200h-159.99v340h199.987v420h-239.984v-240h39.9971v200h159.99v-340h-199.987v-420h239.984v240z" />
    <glyph glyph-name="uni01A8" unicode="&#x1a8;" 
d="M280.002 640h-239.984v-40h199.987v-260h-199.987v-340h239.984v40h-199.987v260h199.987v340z" />
    <glyph glyph-name="uni01F0" unicode="&#x1f0;" horiz-adv-x="120" 
d="M-40 -200h80v840h40v-880h-120v40zM-39 840h200v-40h-80v-80h-40v80h-80v40z" />
    <glyph glyph-name="dotlessj" unicode="&#x237;" horiz-adv-x="120" 
d="M-40 -200h80v840h40v-880h-120v40z" />
    <glyph glyph-name="four.numr" unicode="&#x2074;" 
d="M240 480h-200v320h40v-280h160v280h40v-480h-40v160z" />
    <glyph glyph-name="hbar" unicode="&#x127;" horiz-adv-x="400" 
d="M160 0h-40v680h-80v40h80v80h40v-80h80v-40h-80v-80h200v-600h-40v560h-160v-560z" />
    <glyph glyph-name="uni0186" unicode="&#x186;" 
d="M240.005 40h-159.99v200h-39.9971v-240h239.984v800h-239.984v-240h39.9971v200h159.99v-720z" />
    <glyph glyph-name="Pi" unicode="&#x3a0;" horiz-adv-x="480" 
d="M40 800h400v-40h-80v-760h-40v760h-160v-760h-40v760h-80v40z" />
    <glyph glyph-name="afii10033" unicode="&#x41f;" horiz-adv-x="480" 
d="M40 800h400v-40h-80v-760h-40v760h-160v-760h-40v760h-80v40z" />
    <glyph glyph-name="uni2027" unicode="&#x2027;" horiz-adv-x="120" 
d="M40 360h40v-40h-40v40z" />
    <glyph glyph-name="uni2160" unicode="&#x2160;" horiz-adv-x="120" 
d="M40 800h40v-800h-40v800z" />
    <glyph glyph-name="uni2161" unicode="&#x2161;" horiz-adv-x="280" 
d="M40 800h40v-800h-40v800zM200 800h40v-800h-40v800z" />
    <glyph glyph-name="uni2162" unicode="&#x2162;" horiz-adv-x="440" 
d="M40 800h40v-800h-40v800zM200 800h40v-800h-40v800zM360 800h40v-800h-40v800z" />
    <glyph glyph-name="uni2163" unicode="&#x2163;" horiz-adv-x="480" 
d="M40 800h40v-800h-40v800zM200 800h40v-760h160v760h40v-760h-40v-40h-160v40h-40v760z" />
    <glyph glyph-name="uni2164" unicode="&#x2164;" 
d="M40 800h40v-760h160v760h40v-760h-40v-40h-160v40h-40v760z" />
    <glyph glyph-name="uni2165" unicode="&#x2165;" horiz-adv-x="480" 
d="M40 800h40v-760h160v760h40v-760h-40v-40h-160v40h-40v760zM400 800h40v-800h-40v800z" />
    <glyph glyph-name="uni2166" unicode="&#x2166;" horiz-adv-x="640" 
d="M40 800h40v-760h160v760h40v-760h-40v-40h-160v40h-40v760zM400 800h40v-800h-40v800zM560 800h40v-800h-40v800z" />
    <glyph glyph-name="uni2167" unicode="&#x2167;" horiz-adv-x="800" 
d="M40 800h40v-760h160v760h40v-760h-40v-40h-160v40h-40v760zM400 800h40v-800h-40v800zM560 800h40v-800h-40v800zM720 800h40v-800h-40v800z" />
    <glyph glyph-name="uni2168" unicode="&#x2168;" horiz-adv-x="480" 
d="M40 800h40v-800h-40v800zM200 800h40v-380h160v380h40v-380h-40v-40h40v-380h-40v380h-160v-380h-40v380h40v40h-40v380z" />
    <glyph glyph-name="uni2169" unicode="&#x2169;" 
d="M40 800h40v-380h160v380h40v-380h-40v-40h40v-380h-40v380h-160v-380h-40v380h40v40h-40v380z" />
    <glyph glyph-name="uni216A" unicode="&#x216a;" horiz-adv-x="480" 
d="M40 800h40v-380h160v380h40v-380h-40v-40h40v-380h-40v380h-160v-380h-40v380h40v40h-40v380zM400 800h40v-800h-40v800z" />
    <glyph glyph-name="uni216B" unicode="&#x216b;" horiz-adv-x="640" 
d="M40 800h40v-380h160v380h40v-380h-40v-40h40v-380h-40v380h-160v-380h-40v380h40v40h-40v380zM400 800h40v-800h-40v800zM560 800h40v-800h-40v800z" />
    <glyph glyph-name="uni216C" unicode="&#x216c;" 
d="M40 800h40v-760h200v-40h-240v800z" />
    <glyph glyph-name="uni216D" unicode="&#x216d;" 
d="M80 40h160v200h40v-240h-240v800h240v-240h-40v200h-160v-720z" />
    <glyph glyph-name="uni216E" unicode="&#x216e;" 
d="M40 800h200v-40h40v-720h-40v-40h-200v800zM80 40h160v720h-160v-720z" />
    <glyph glyph-name="uni216F" unicode="&#x216f;" horiz-adv-x="480" 
d="M440 0h-40v760h-140v-760h-40v760h-140v-760h-40v800h400v-800z" />
    <glyph glyph-name="uni2170" unicode="&#x2170;" horiz-adv-x="120" 
d="M40 640h40v-640h-40v640z" />
    <glyph glyph-name="uni2171" unicode="&#x2171;" horiz-adv-x="280" 
d="M40 640h40v-640h-40v640zM200 640h40v-640h-40v640z" />
    <glyph glyph-name="uni2172" unicode="&#x2172;" horiz-adv-x="440" 
d="M40 640h40v-640h-40v640zM200 640h40v-640h-40v640zM360 640h40v-640h-40v640z" />
    <glyph glyph-name="uni2173" unicode="&#x2173;" horiz-adv-x="480" 
d="M40 640h40v-640h-40v640zM200 640h40v-600h160v600h40v-600h-40v-40h-160v40h-40v600z" />
    <glyph glyph-name="uni2174" unicode="&#x2174;" 
d="M40 640h40v-600h160v600h40v-600h-40v-40h-160v40h-40v600z" />
    <glyph glyph-name="uni2175" unicode="&#x2175;" horiz-adv-x="480" 
d="M40 640h40v-600h160v600h40v-600h-40v-40h-160v40h-40v600zM400 640h40v-640h-40v640z" />
    <glyph glyph-name="uni2176" unicode="&#x2176;" horiz-adv-x="640" 
d="M40 640h40v-600h160v600h40v-600h-40v-40h-160v40h-40v600zM400 640h40v-640h-40v640zM560 640h40v-640h-40v640z" />
    <glyph glyph-name="uni2177" unicode="&#x2177;" horiz-adv-x="800" 
d="M40 640h40v-600h160v600h40v-600h-40v-40h-160v40h-40v600zM400 640h40v-640h-40v640zM560 640h40v-640h-40v640zM720 640h40v-640h-40v640z" />
    <glyph glyph-name="uni2178" unicode="&#x2178;" horiz-adv-x="480" 
d="M40 640h40v-640h-40v640zM200 640h40v-300h160v300h40v-300h-40v-40h40v-300h-40v300h-160v-300h-40v300h40v40h-40v300z" />
    <glyph glyph-name="uni2179" unicode="&#x2179;" 
d="M40 640h40v-300h160v300h40v-300h-40v-40h40v-300h-40v300h-160v-300h-40v300h40v40h-40v300z" />
    <glyph glyph-name="uni217A" unicode="&#x217a;" horiz-adv-x="480" 
d="M40 640h40v-300h160v300h40v-300h-40v-40h40v-300h-40v300h-160v-300h-40v300h40v40h-40v300zM400 640h40v-640h-40v640z" />
    <glyph glyph-name="uni217B" unicode="&#x217b;" horiz-adv-x="640" 
d="M40 640h40v-300h160v300h40v-300h-40v-40h40v-300h-40v300h-160v-300h-40v300h40v40h-40v300zM400 640h40v-640h-40v640zM560 640h40v-640h-40v640z" />
    <glyph glyph-name="uni217C" unicode="&#x217c;" 
d="M40 640h40v-600h200v-40h-240v640z" />
    <glyph glyph-name="uni217D" unicode="&#x217d;" 
d="M80 40h160v200h40v-240h-240v640h240v-240h-40v200h-160v-560z" />
    <glyph glyph-name="uni217E" unicode="&#x217e;" 
d="M40 640h200v-40h40v-560h-40v-40h-200v640zM80 40h160v560h-160v-560z" />
    <glyph glyph-name="uni217F" unicode="&#x217f;" horiz-adv-x="480" 
d="M440 0h-40v600h-140v-600h-40v600h-140v-600h-40v640h400v-640z" />
    <glyph glyph-name="dotbelowcomb" unicode="&#x323;" horiz-adv-x="120" 
d="M40 -80h40v-40h-40v40z" />
    <glyph glyph-name="uni0324" unicode="&#x324;" horiz-adv-x="240" 
d="M40 -80h40v-40h-40v40zM160 -80h40v-40h-40v40z" />
    <glyph glyph-name="uni0325" unicode="&#x325;" horiz-adv-x="200" 
d="M40 -80h120v-120h-120v120zM80 -160h40v40h-40v-40z" />
    <glyph glyph-name="uni0326" unicode="&#x326;" horiz-adv-x="160" 
d="M40 -160h40v80h40v-120h-40v-80h-40v120z" />
    <glyph glyph-name="uni0327" unicode="&#x327;" horiz-adv-x="120" 
d="M40 40h40v-200h-40v200z" />
    <glyph glyph-name="onedotenleader" unicode="&#x2024;" horiz-adv-x="120" 
d="M40 40h40v-40h-40v40z" />
    <glyph glyph-name="twodotenleader" unicode="&#x2025;" horiz-adv-x="280" 
d="M40 40h40v-40h-40v40zM200 40h40v-40h-40v40z" />
    <glyph glyph-name="ellipsis" unicode="&#x2026;" horiz-adv-x="440" 
d="M40 40h40v-40h-40v40zM200 40h40v-40h-40v40zM360 40h40v-40h-40v40z" />
    <glyph glyph-name="uni201F" unicode="&#x201f;" 
d="M120.002 760h-39.9971v120h-39.9971v-160h39.9971v-80h39.9971v120zM280.002 760h-39.9971v120h-39.9971v-160h39.9971v-80h39.9971v120z" />
    <glyph glyph-name="uni2023" unicode="&#x2023;" horiz-adv-x="160" 
d="M40 460h40v-40h40v-40h-40v-40h-40v120z" />
    <glyph glyph-name="jcircumflex" unicode="&#x135;" horiz-adv-x="120" 
d="M-40 -200h80v840h40v-880h-120v40zM-39 760h80v80h40v-80h80v-40h-200v40z" />
    <glyph glyph-name="Jcircumflex" unicode="&#x134;" 
d="M40 240h40v-200h160v720h-80v40h120v-800h-240v240zM120 920h80v80h40v-80h80v-40h-200v40z" />
    <glyph glyph-name="Lcaron" unicode="&#x13d;" 
d="M40 800h40v-760h200v-40h-240v800zM200 760h40v120h40v-160h-40v-80h-40v120z" />
    <glyph glyph-name="lcaron" unicode="&#x13e;" horiz-adv-x="280" 
d="M40 800h40v-800h-40v800zM160 760h40v120h40v-160h-40v-80h-40v120z" />
    <glyph glyph-name="Lacute" unicode="&#x139;" 
d="M40 800h40v-760h200v-40h-240v800zM80 880h-40v140h40v100h40v-140h-40v-100z" />
    <glyph glyph-name="lacute" unicode="&#x13a;" horiz-adv-x="120" 
d="M40 800h40v-800h-40v800zM80 880h-40v140h40v100h40v-140h-40v-100z" />
    <glyph glyph-name="dcroat" unicode="&#x111;" horiz-adv-x="400" 
d="M280 720h80v-40h-80v-680h-240v600h200v80h-80v40h80v80h40v-80zM240 560h-160v-520h160v520z" />
    <glyph glyph-name="dcaron" unicode="&#x10f;" horiz-adv-x="480" 
d="M280 0h-240v640h200v160h40v-800zM240 600h-160v-560h160v560zM360 760h40v120h40v-160h-40v-80h-40v120z" />
    <glyph glyph-name="napostrophe" unicode="&#x149;" horiz-adv-x="440" 
d="M160 640h240v-640h-40v600h-160v-600h-40v640zM40 760h40v120h40v-160h-40v-80h-40v120z" />
    <glyph glyph-name="Ldot" unicode="&#x13f;" 
d="M40 800h40v-760h200v-40h-240v800zM240 360h40v-40h-40v40z" />
    <glyph glyph-name="ldot" unicode="&#x140;" horiz-adv-x="280" 
d="M40 800h40v-800h-40v800zM200 360h40v-40h-40v40z" />
    <glyph glyph-name="Lslash" unicode="&#x141;" horiz-adv-x="400" 
d="M40 420h80v380h40v-380h80v-40h-80v-340h200v-40h-240v380h-80v40z" />
    <glyph glyph-name="lslash" unicode="&#x142;" horiz-adv-x="280" 
d="M40 420h80v380h40v-380h80v-40h-80v-380h-40v380h-80v40z" />
    <glyph glyph-name="Rcaron" unicode="&#x158;" 
d="M240 380h-160v-380h-40v800h240v-380h-40v-40h40v-380h-40v380zM240 760h-160v-340h160v340zM60 1000h200v-40h-80v-80h-40v80h-80v40z" />
    <glyph glyph-name="rcaron" unicode="&#x159;" horiz-adv-x="240" 
d="M40 640h160v-40h-120v-600h-40v640zM21 840h200v-40h-80v-80h-40v80h-80v40z" />
    <glyph glyph-name="Ncommaaccent" unicode="&#x145;" 
d="M40 800h240v-800h-40v760h-160v-760h-40v800zM100 -160h40v80h40v-120h-40v-80h-40v120z" />
    <glyph glyph-name="ncommaaccent" unicode="&#x146;" 
d="M40 640h240v-640h-40v600h-160v-600h-40v640zM100 -160h40v80h40v-120h-40v-80h-40v120z" />
    <glyph glyph-name="Kcommaaccent" unicode="&#x136;" 
d="M240 380h-160v-380h-40v800h40v-380h160v380h40v-380h-40v-40h40v-380h-40v380zM100 -160h40v80h40v-120h-40v-80h-40v120z" />
    <glyph glyph-name="kcommaaccent" unicode="&#x137;" 
d="M240 300h-160v-300h-40v800h40v-460h160v300h40v-300h-40v-40h40v-300h-40v300zM100 -160h40v80h40v-120h-40v-80h-40v120z" />
    <glyph glyph-name="lcommaaccent" unicode="&#x13c;" horiz-adv-x="120" 
d="M40 800h40v-800h-40v800zM1 -160h40v80h40v-120h-40v-80h-40v120z" />
    <glyph glyph-name="Gcommaaccent" unicode="&#x122;" 
d="M160 420h120v-420h-240v800h240v-240h-40v200h-160v-720h160v340h-80v40zM100 -160h40v80h40v-120h-40v-80h-40v120z" />
    <glyph glyph-name="gcommaaccent" unicode="&#x123;" 
d="M40 -200h200v200h-200v640h240v-880h-240v40zM240 600h-160v-560h160v560zM140 880h40v80h40v-120h-40v-80h-40v120z" />
    <glyph glyph-name="tbar" unicode="&#x167;" 
d="M40 340h80v460h40v-160h120v-40h-120v-260h80v-40h-80v-260h120v-40h-160v300h-80v40z" />
    <glyph glyph-name="Tbar" unicode="&#x166;" horiz-adv-x="440" 
d="M40 800h360v-40h-160v-340h80v-40h-80v-380h-40v380h-80v40h80v340h-160v40z" />
    <glyph glyph-name="uni0187" unicode="&#x187;" 
d="M80 40h160v200h40v-240h-240v800h200v80h40v-320h-40v200h-160v-720z" />
    <glyph glyph-name="uni0188" unicode="&#x188;" 
d="M80 40h160v200h40v-240h-240v640h200v80h40v-320h-40v200h-160v-560z" />
    <glyph glyph-name="uni01A9" unicode="&#x1a9;" horiz-adv-x="360" 
d="M40 800h280v-40h-240v-340h120v-40h-120v-340h240v-40h-280v380h40v40h-40v380z" />
    <glyph glyph-name="uni018F" unicode="&#x18f;" 
d="M280.002 800h-239.984v-240h39.9971v200h159.99v-340h-199.987v-420h239.984v800zM240.005 380v-340h-159.99v340h159.99z" />
    <glyph glyph-name="uni2262" unicode="&#x2262;" horiz-adv-x="440" 
d="M40 580h160v80h40v-80h160v-40h-160v-120h160v-40h-160v-120h160v-40h-160v-80h-40v80h-160v40h160v120h-160v40h160v120h-160v40z" />
    <glyph glyph-name="existential" unicode="&#x2203;" 
d="M280.002 800h-239.984v-40h199.987v-340h-199.987v-40h199.987v-340h-199.987v-40h239.984v800z" />
    <glyph glyph-name="uni2210" unicode="&#x2210;" 
d="M40 0.0488281h240v799.951h-40v-759.953h-160v759.953h-40v-799.951z" />
    <glyph glyph-name="gradient" unicode="&#x2207;" horiz-adv-x="480" 
d="M440.002 760.002h-79.9941v-719.955h-39.998v719.955h-159.99v-719.955h159.99v-39.998h-159.99v39.998h-39.998v719.955h-79.9941v39.998h399.975v-39.998z" />
    <glyph glyph-name="uni2263" unicode="&#x2263;" horiz-adv-x="480" 
d="M40 520h360v-40h-360v40zM40 720h360v-40h-360v40zM40 321h360v-40h-360v40zM40 121h360v-40h-360v40z" />
    <glyph glyph-name="arrowup" unicode="&#x2191;" horiz-adv-x="200" 
d="M120 800v-40h40v-40h-40v-720h-40v720h-40v40h40v40h40z" />
    <glyph glyph-name="arrowdown" unicode="&#x2193;" horiz-adv-x="200" 
d="M80.0078 0.0488281v39.998h-39.998v39.9971h39.998v719.956h39.9971v-719.956h39.9971v-39.9971h-39.9971v-39.998h-39.9971z" />
    <glyph glyph-name="arrowleft" unicode="&#x2190;" horiz-adv-x="720" 
d="M40 420h40v40h40v-40h560v-40h-560v-40h-40v40h-40v40z" />
    <glyph glyph-name="arrowright" unicode="&#x2192;" horiz-adv-x="720" 
d="M680.002 380.025h-39.9971v-39.9971h-39.9971v39.9971h-559.967v39.998h559.967v39.9971h39.9971v-39.9971h39.9971v-39.998z" />
    <glyph glyph-name="arrowboth" unicode="&#x2194;" horiz-adv-x="960" 
d="M920 380h-40v-40h-40v40h-720v-40h-40v40h-40v40h40v40h40v-40h720v40h40v-40h40v-40z" />
    <glyph glyph-name="arrownw" unicode="&#x2196;" horiz-adv-x="480" 
d="M40 760h40v40h40v-40h320v-440h-40v400h-280v-40h-40v40h-40v40z" />
    <glyph glyph-name="uni2197" unicode="&#x2197;" horiz-adv-x="480" 
d="M440.002 760h-39.9971v40h-39.9971v-40h-319.98v-440h39.9971v400h279.983v-40h39.9971v40h39.9971v40z" />
    <glyph glyph-name="uni2198" unicode="&#x2198;" horiz-adv-x="480" 
d="M440.002 40.0469h-39.9971v-39.998h-39.9971v39.998h-319.98v439.973h39.9971v-399.976h279.983v39.9971h39.9971v-39.9971h39.9971v-39.9971z" />
    <glyph glyph-name="uni2199" unicode="&#x2199;" horiz-adv-x="480" 
d="M40 40.0469h40v-39.998h40v39.998h320v439.973h-40v-399.976h-280v39.9971h-40v-39.9971h-40v-39.9971z" />
    <glyph glyph-name="uni2120" unicode="&#x2120;" horiz-adv-x="800" 
d="M440 320h-40v480h360v-480h-40v440h-120v-440h-40v440h-120v-440zM40 800h240v-40h-200v-180h200v-260h-240v40h200v180h-200v260z" />
    <glyph glyph-name="uni2121" unicode="&#x2121;" horiz-adv-x="960" 
d="M400 800h200v-40h-160v-180h120v-40h-120v-180h160v-40h-200v480zM40 800h280v-40h-120v-440h-40v440h-120v40zM720 800h40v-440h160v-40h-200v480z" />
    <glyph glyph-name="zero.numr" unicode="&#x2070;" 
d="M40 800h240v-480h-240v480zM80 360h160v400h-160v-400z" />
    <glyph glyph-name="zero.dnom" unicode="&#x2080;" 
d="M40 321h240v-480h-240v480zM80 -119h160v400h-160v-400z" />
    <glyph glyph-name="uni2081" unicode="&#x2081;" horiz-adv-x="360" 
d="M40 -119h120v400h-120v40h160v-440h120v-40h-280v40z" />
    <glyph glyph-name="uni2082" unicode="&#x2082;" 
d="M40 101h200v180h-200v40h240v-260h-200v-180h200v-40h-240v260z" />
    <glyph glyph-name="uni2083" unicode="&#x2083;" horiz-adv-x="360" 
d="M120 101h160v180h-240v40h280v-480h-280v40h240v180h-160v40z" />
    <glyph glyph-name="uni2084" unicode="&#x2084;" 
d="M240 1h-200v320h40v-280h160v280h40v-480h-40v160z" />
    <glyph glyph-name="five.numr" unicode="&#x2075;" 
d="M40 540.035h200v-179.988h-200v-39.998h240v259.984h-200v179.988h200v39.998h-240v-259.984z" />
    <glyph glyph-name="uni2085" unicode="&#x2085;" 
d="M40 60.0352h200v-179.988h-200v-39.998h240v259.984h-200v179.988h200v39.998h-240v-259.984z" />
    <glyph glyph-name="six.numr" unicode="&#x2076;" 
d="M40 800h240v-40h-200v-160h200v-280h-240v480zM80 560v-200h160v200h-160z" />
    <glyph glyph-name="uni2079" unicode="&#x2079;" 
d="M280.002 320.049h-239.984v39.998h199.987v159.99h-199.987v279.982h239.984v-479.971zM240.005 560.034v199.987h-159.99v-199.987h159.99z" />
    <glyph glyph-name="uni2086" unicode="&#x2086;" 
d="M40 321h240v-40h-200v-160h200v-280h-240v480zM80 81v-200h160v200h-160z" />
    <glyph glyph-name="eight.numr" unicode="&#x2078;" 
d="M40 800h240v-480h-240v480zM80 540v-180h160v180h-160zM80 580h160v180h-160v-180z" />
    <glyph glyph-name="seven.numr" unicode="&#x2077;" horiz-adv-x="360" 
d="M40 800h280v-260h-120v-220h-40v260h120v180h-240v40z" />
    <glyph glyph-name="uni2087" unicode="&#x2087;" horiz-adv-x="360" 
d="M40 321h280v-260h-120v-220h-40v260h120v180h-240v40z" />
    <glyph glyph-name="uni2088" unicode="&#x2088;" 
d="M40 321h240v-480h-240v480zM80 61v-180h160v180h-160zM80 101h160v180h-160v-180z" />
    <glyph glyph-name="uni2089" unicode="&#x2089;" 
d="M280.002 -159.951h-239.984v39.998h199.987v159.99h-199.987v279.982h239.984v-479.971zM240.005 80.0342v199.987h-159.99v-199.987h159.99z" />
    <glyph glyph-name="uni2071" unicode="&#x2071;" horiz-adv-x="120" 
d="M40 800h40v-40h-40v40zM40 680h40v-360h-40v360z" />
    <glyph glyph-name="uni212B" unicode="&#x212b;" 
d="M40 800h240v-800h-40v380h-160v-380h-40v800zM80 420h160v340h-160v-340zM100 1000h120v-120h-120v120zM140 920h40v40h-40v-40z" />
    <glyph glyph-name="uni03A9" unicode="&#x3a9;" horiz-adv-x="400" 
d="M280 200h40v560h-240v-560h40v-200h-80v40h40v160h-40v560h40v40h240v-40h40v-560h-40v-160h40v-40h-80v200z" />
    <glyph glyph-name="alpha" unicode="&#x3b1;" 
d="M40 600h40v40h200v-640h-200v40h-40v560zM80 40h160v560h-160v-560z" />
    <glyph glyph-name="Sigma" unicode="&#x3a3;" horiz-adv-x="360" 
d="M40 800h280v-40h-240v-340h120v-40h-120v-340h240v-40h-280v380h40v40h-40v380z" />
    <glyph glyph-name="uni0394" unicode="&#x394;" horiz-adv-x="480" 
d="M40 40h80v720h40v-720h160v720h-160v40h160v-40h40v-720h80v-40h-400v40z" />
    <glyph glyph-name="upsilon" unicode="&#x3c5;" 
d="M40 640h40v-600h160v600h40v-600h-40v-40h-200v640z" />
    <glyph glyph-name="upsilontonos" unicode="&#x3cd;" 
d="M40 640h40v-600h160v600h40v-600h-40v-40h-200v640zM180 720h-40v140h40v100h40v-140h-40v-100z" />
    <glyph glyph-name="alphatonos" unicode="&#x3ac;" 
d="M40 600h40v40h200v-640h-200v40h-40v560zM80 40h160v560h-160v-560zM180 720h-40v140h40v100h40v-140h-40v-100z" />
    <glyph glyph-name="upsilondieresis" unicode="&#x3cb;" 
d="M40 640h40v-600h160v600h40v-600h-40v-40h-200v640zM80 760h40v-40h-40v40zM200 760h40v-40h-40v40z" />
    <glyph glyph-name="kappa" unicode="&#x3ba;" 
d="M240 300h-160v-300h-40v640h40v-300h160v300h40v-300h-40v-40h40v-300h-40v300z" />
    <glyph glyph-name="iota" unicode="&#x3b9;" horiz-adv-x="200" 
d="M40 640h40v-600h80v-40h-120v640z" />
    <glyph glyph-name="iotatonos" unicode="&#x3af;" horiz-adv-x="200" 
d="M40 640h40v-600h80v-40h-120v640zM80 720h-40v140h40v100h40v-140h-40v-100z" />
    <glyph glyph-name="iotadieresis" unicode="&#x3ca;" horiz-adv-x="200" 
d="M40 640h40v-600h80v-40h-120v640zM-19 760h40v-40h-40v40zM101 760h40v-40h-40v40z" />
    <glyph glyph-name="afii10076" unicode="&#x43a;" 
d="M240 300h-160v-300h-40v640h40v-300h160v300h40v-300h-40v-40h40v-300h-40v300z" />
    <glyph glyph-name="afii10109" unicode="&#x45c;" 
d="M240 300h-160v-300h-40v640h40v-300h160v300h40v-300h-40v-40h40v-300h-40v300zM180 720h-40v140h40v100h40v-140h-40v-100z" />
    <glyph glyph-name="ydieresis" unicode="&#xff;" 
d="M240 640h40v-800h-240v40h200v160h-200v600h40v-560h160v560zM80 760h40v-40h-40v40zM200 760h40v-40h-40v40z" />
    <glyph glyph-name="yacute" unicode="&#xfd;" 
d="M240 640h40v-800h-240v40h200v160h-200v600h40v-560h160v560zM180 720h-40v140h40v100h40v-140h-40v-100z" />
    <glyph glyph-name="ccaron" unicode="&#x10d;" 
d="M80 40h160v200h40v-240h-240v640h240v-240h-40v200h-160v-560zM60 840h200v-40h-80v-80h-40v80h-80v40z" />
    <glyph glyph-name="omacron" unicode="&#x14d;" 
d="M40 640h240v-640h-240v640zM80 40h160v560h-160v-560zM40 760h240v-40h-240v40z" />
    <glyph glyph-name="racute" unicode="&#x155;" horiz-adv-x="240" 
d="M40 640h160v-40h-120v-600h-40v640zM140 720h-40v140h40v100h40v-140h-40v-100z" />
    <glyph glyph-name="emacron" unicode="&#x113;" 
d="M280 0h-240v640h240v-340h-200v-260h200v-40zM80 340h160v260h-160v-260zM40 760h240v-40h-240v40z" />
    <glyph glyph-name="Ydieresis" unicode="&#x178;" 
d="M40 40h200v160h-200v600h40v-560h160v560h40v-800h-240v40zM80 920h40v-40h-40v40zM200 920h40v-40h-40v40z" />
    <glyph glyph-name="Zacute" unicode="&#x179;" 
d="M40 800h240v-380h-40v-40h-160v-340h200v-40h-240v380h40v40h160v340h-200v40zM180 880h-40v140h40v100h40v-140h-40v-100z" />
    <glyph glyph-name="zacute" unicode="&#x17a;" 
d="M40 640h240v-300h-40v-40h-160v-260h200v-40h-240v300h40v40h160v260h-200v40zM180 720h-40v140h40v100h40v-140h-40v-100z" />
    <glyph glyph-name="Zdotaccent" unicode="&#x17b;" 
d="M40 800h240v-380h-40v-40h-160v-340h200v-40h-240v380h40v40h160v340h-200v40zM140 920h40v-40h-40v40z" />
    <glyph glyph-name="zdotaccent" unicode="&#x17c;" 
d="M40 640h240v-300h-40v-40h-160v-260h200v-40h-240v300h40v40h160v260h-200v40zM140 760h40v-40h-40v40z" />
    <glyph glyph-name="Wcircumflex" unicode="&#x174;" horiz-adv-x="480" 
d="M40 800h40v-760h140v760h40v-760h140v760h40v-800h-400v800zM140 920h80v80h40v-80h80v-40h-200v40z" />
    <glyph glyph-name="umacron" unicode="&#x16b;" 
d="M280 0h-240v640h40v-600h160v600h40v-640zM40 760h240v-40h-240v40z" />
    <glyph glyph-name="utilde" unicode="&#x169;" 
d="M280 0h-240v640h40v-600h160v600h40v-640zM40 760h240v-40h-240v40z" />
    <glyph glyph-name="Umacron" unicode="&#x16a;" 
d="M40 800h40v-760h160v760h40v-800h-240v800zM40 920h240v-40h-240v40z" />
    <glyph glyph-name="Utilde" unicode="&#x168;" 
d="M40 800h40v-760h160v760h40v-800h-240v800zM40 920h240v-40h-240v40z" />
    <glyph glyph-name="Racute" unicode="&#x154;" 
d="M240 380h-160v-380h-40v800h240v-380h-40v-40h40v-380h-40v380zM240 760h-160v-340h160v340zM180 880h-40v140h40v100h40v-140h-40v-100z" />
    <glyph glyph-name="oe" unicode="&#x153;" horiz-adv-x="520" 
d="M40 640h440v-340h-200v-260h200v-40h-440v640zM80 40h160v560h-160v-560zM280 340h160v260h-160v-260z" />
    <glyph glyph-name="OE" unicode="&#x152;" horiz-adv-x="520" 
d="M40 800h440v-40h-200v-340h200v-40h-200v-340h200v-40h-440v800zM80 40h160v720h-160v-720z" />
    <glyph glyph-name="sacute" unicode="&#x15b;" 
d="M40 640h240v-40h-200v-260h200v-340h-240v40h200v260h-200v340zM160 720h-40v140h40v100h40v-140h-40v-100z" />
    <glyph glyph-name="Sacute" unicode="&#x15a;" 
d="M40 240h40v-200h160v340h-200v420h240v-240h-40v200h-160v-340h200v-420h-240v240zM180 880h-40v140h40v100h40v-140h-40v-100z" />
    <glyph glyph-name="cdotaccent" unicode="&#x10b;" 
d="M80 40h160v200h40v-240h-240v640h240v-240h-40v200h-160v-560zM140 760h40v-40h-40v40z" />
    <glyph glyph-name="Cdotaccent" unicode="&#x10a;" 
d="M80 40h160v200h40v-240h-240v800h240v-240h-40v200h-160v-720zM140 920h40v-40h-40v40z" />
    <glyph glyph-name="cacute" unicode="&#x107;" 
d="M80 40h160v200h40v-240h-240v640h240v-240h-40v200h-160v-560zM180 720h-40v140h40v100h40v-140h-40v-100z" />
    <glyph glyph-name="Cacute" unicode="&#x106;" 
d="M80 40h160v200h40v-240h-240v800h240v-240h-40v200h-160v-720zM180 880h-40v140h40v100h40v-140h-40v-100z" />
    <glyph glyph-name="edotaccent" unicode="&#x117;" 
d="M280 0h-240v640h240v-340h-200v-260h200v-40zM80 340h160v260h-160v-260zM140 760h40v-40h-40v40z" />
    <glyph glyph-name="Edotaccent" unicode="&#x116;" 
d="M40 800h240v-40h-200v-340h200v-40h-200v-340h200v-40h-240v800zM140 920h40v-40h-40v40z" />
    <glyph glyph-name="uni01F3" unicode="&#x1f3;" horiz-adv-x="680" 
d="M280 0h-240v640h200v160h40v-800zM240 600h-160v-560h160v560zM400 640h240v-300h-40v-40h-160v-260h200v-40h-240v300h40v40h160v260h-200v40z" />
    <glyph glyph-name="uni01F2" unicode="&#x1f2;" horiz-adv-x="680" 
d="M40 800h200v-40h40v-720h-40v-40h-200v800zM80 40h160v720h-160v-720zM400 640h240v-300h-40v-40h-160v-260h200v-40h-240v300h40v40h160v260h-200v40z" />
    <glyph glyph-name="uni01F1" unicode="&#x1f1;" horiz-adv-x="720" 
d="M40 800h200v-40h40v-720h-40v-40h-200v800zM80 40h160v720h-160v-720zM400 800h240v-380h-40v-40h-160v-340h200v-40h-240v380h40v40h160v340h-200v40z" />
    <glyph glyph-name="Scommaaccent" unicode="&#x218;" 
d="M40 240h40v-200h160v340h-200v420h240v-240h-40v200h-160v-340h200v-420h-240v240zM100 -160h40v80h40v-120h-40v-80h-40v120z" />
    <glyph glyph-name="scommaaccent" unicode="&#x219;" 
d="M40 640h240v-40h-200v-260h200v-340h-240v40h200v260h-200v340zM100 -160h40v80h40v-120h-40v-80h-40v120z" />
    <glyph glyph-name="uni021A" unicode="&#x21a;" horiz-adv-x="440" 
d="M40 800h360v-40h-160v-760h-40v760h-160v40zM160 -160h40v80h40v-120h-40v-80h-40v120z" />
    <glyph glyph-name="uni021B" unicode="&#x21b;" horiz-adv-x="240" 
d="M40 800h40v-160h120v-40h-120v-560h120v-40h-160v800zM40 -160h40v80h40v-120h-40v-80h-40v120z" />
    <glyph glyph-name="uni0226" unicode="&#x226;" 
d="M40 800h240v-800h-40v380h-160v-380h-40v800zM80 420h160v340h-160v-340zM140 920h40v-40h-40v40z" />
    <glyph glyph-name="uni0227" unicode="&#x227;" 
d="M40 640h240v-640h-240v340h200v260h-200v40zM240 300h-160v-260h160v260zM140 760h40v-40h-40v40z" />
    <glyph glyph-name="uni1E03" unicode="&#x1e03;" 
d="M40 800h40v-160h200v-640h-240v800zM80 40h160v560h-160v-560zM40 920h40v-40h-40v40z" />
    <glyph glyph-name="uni1E02" unicode="&#x1e02;" 
d="M40 800h240v-380h-40v-40h40v-380h-240v800zM240 380h-160v-340h160v340zM240 760h-160v-340h160v340zM140 920h40v-40h-40v40z" />
    <glyph glyph-name="uni1E97" unicode="&#x1e97;" horiz-adv-x="240" 
d="M40 800h40v-160h120v-40h-120v-560h120v-40h-160v800zM-19 920h40v-40h-40v40zM101 920h40v-40h-40v40z" />
    <glyph glyph-name="uni1E26" unicode="&#x1e26;" 
d="M240 380h-160v-380h-40v800h40v-380h160v380h40v-800h-40v380zM80 920h40v-40h-40v40zM200 920h40v-40h-40v40z" />
    <glyph glyph-name="uni1E27" unicode="&#x1e27;" 
d="M40 800h40v-160h200v-640h-40v600h-160v-600h-40v800zM40 920h40v-40h-40v40zM160 920h40v-40h-40v40z" />
    <glyph glyph-name="uni1E0A" unicode="&#x1e0a;" 
d="M40 800h200v-40h40v-720h-40v-40h-200v800zM80 40h160v720h-160v-720zM140 920h40v-40h-40v40z" />
    <glyph glyph-name="uni1E0B" unicode="&#x1e0b;" 
d="M280 0h-240v640h200v160h40v-800zM240 600h-160v-560h160v560zM240 920h40v-40h-40v40z" />
    <glyph glyph-name="uni1E30" unicode="&#x1e30;" 
d="M240 380h-160v-380h-40v800h40v-380h160v380h40v-380h-40v-40h40v-380h-40v380zM180 880h-40v140h40v100h40v-140h-40v-100z" />
    <glyph glyph-name="uni1E31" unicode="&#x1e31;" 
d="M240 300h-160v-300h-40v800h40v-460h160v300h40v-300h-40v-40h40v-300h-40v300zM80 880h-40v140h40v100h40v-140h-40v-100z" />
    <glyph glyph-name="uni1E22" unicode="&#x1e22;" 
d="M240 380h-160v-380h-40v800h40v-380h160v380h40v-800h-40v380zM140 920h40v-40h-40v40z" />
    <glyph glyph-name="uni1E23" unicode="&#x1e23;" 
d="M40 800h40v-160h200v-640h-40v600h-160v-600h-40v800zM40 920h40v-40h-40v40z" />
    <glyph glyph-name="Ygrave" unicode="&#x1ef2;" 
d="M40 40h200v160h-200v600h40v-560h160v560h40v-800h-240v40zM100 1120h40v-100h40v-140h-40v100h-40v140z" />
    <glyph glyph-name="ygrave" unicode="&#x1ef3;" 
d="M240 640h40v-800h-240v40h200v160h-200v600h40v-560h160v560zM100 960h40v-100h40v-140h-40v100h-40v140z" />
    <glyph glyph-name="Hbar" unicode="&#x126;" 
d="M240 380h-160v-380h-40v800h40v-380h160v380h40v-800h-40v380zM40 920h240v-40h-240v40z" />
    <glyph glyph-name="hcircumflex" unicode="&#x125;" 
d="M40 800h40v-160h200v-640h-40v600h-160v-600h-40v800zM60 920h80v80h40v-80h80v-40h-200v40z" />
    <glyph glyph-name="Itilde" unicode="&#x128;" horiz-adv-x="120" 
d="M40 800h40v-800h-40v800zM-59 920h240v-40h-240v40z" />
    <glyph glyph-name="Lcommaaccent" unicode="&#x13b;" 
d="M40 800h40v-760h200v-40h-240v800zM100 -160h40v80h40v-120h-40v-80h-40v120z" />
    <glyph glyph-name="Omacron" unicode="&#x14c;" 
d="M40 800h240v-800h-240v800zM80 40h160v720h-160v-720zM40 920h240v-40h-240v40z" />
    <glyph glyph-name="Obreve" unicode="&#x14e;" 
d="M40 800h240v-800h-240v800zM80 40h160v720h-160v-720zM80 960h40v-40h80v40h40v-80h-160v80z" />
    <glyph glyph-name="obreve" unicode="&#x14f;" 
d="M40 640h240v-640h-240v640zM80 40h160v560h-160v-560zM80 800h40v-40h80v40h40v-80h-160v80z" />
    <glyph glyph-name="Ccircumflex" unicode="&#x108;" 
d="M80 40h160v200h40v-240h-240v800h240v-240h-40v200h-160v-720zM60 920h80v80h40v-80h80v-40h-200v40z" />
    <glyph glyph-name="ccircumflex" unicode="&#x109;" 
d="M80 40h160v200h40v-240h-240v640h240v-240h-40v200h-160v-560zM60 760h80v80h40v-80h80v-40h-200v40z" />
    <glyph glyph-name="Rcommaaccent" unicode="&#x156;" 
d="M240 380h-160v-380h-40v800h240v-380h-40v-40h40v-380h-40v380zM240 760h-160v-340h160v340zM100 -160h40v80h40v-120h-40v-80h-40v120z" />
    <glyph glyph-name="Hcircumflex" unicode="&#x124;" 
d="M240 380h-160v-380h-40v800h40v-380h160v380h40v-800h-40v380zM60 920h80v80h40v-80h80v-40h-200v40z" />
    <glyph glyph-name="Amacron" unicode="&#x100;" 
d="M40 800h240v-800h-40v380h-160v-380h-40v800zM80 420h160v340h-160v-340zM40 920h240v-40h-240v40z" />
    <glyph glyph-name="wcircumflex" unicode="&#x175;" horiz-adv-x="480" 
d="M40 640h40v-600h140v600h40v-600h140v600h40v-640h-400v640zM140 760h80v80h40v-80h80v-40h-200v40z" />
    <glyph glyph-name="Ycircumflex" unicode="&#x176;" 
d="M40 40h200v160h-200v600h40v-560h160v560h40v-800h-240v40zM60 920h80v80h40v-80h80v-40h-200v40z" />
    <glyph glyph-name="ycircumflex" unicode="&#x177;" 
d="M240 640h40v-800h-240v40h200v160h-200v600h40v-560h160v560zM60 760h80v80h40v-80h80v-40h-200v40z" />
    <glyph glyph-name="Ubreve" unicode="&#x16c;" 
d="M40 800h40v-760h160v760h40v-800h-240v800zM80 960h40v-40h80v40h40v-80h-160v80z" />
    <glyph glyph-name="ubreve" unicode="&#x16d;" 
d="M280 0h-240v640h40v-600h160v600h40v-640zM80 800h40v-40h80v40h40v-80h-160v80z" />
    <glyph glyph-name="Scircumflex" unicode="&#x15c;" 
d="M40 240h40v-200h160v340h-200v420h240v-240h-40v200h-160v-340h200v-420h-240v240zM60 920h80v80h40v-80h80v-40h-200v40z" />
    <glyph glyph-name="Gcircumflex" unicode="&#x11c;" 
d="M160 420h120v-420h-240v800h240v-240h-40v200h-160v-720h160v340h-80v40zM60 920h80v80h40v-80h80v-40h-200v40z" />
    <glyph glyph-name="gcircumflex" unicode="&#x11d;" 
d="M40 -200h200v200h-200v640h240v-880h-240v40zM240 600h-160v-560h160v560zM60 760h80v80h40v-80h80v-40h-200v40z" />
    <glyph glyph-name="gbreve" unicode="&#x11f;" 
d="M40 -200h200v200h-200v640h240v-880h-240v40zM240 600h-160v-560h160v560zM80 800h40v-40h80v40h40v-80h-160v80z" />
    <glyph glyph-name="Gdotaccent" unicode="&#x120;" 
d="M160 420h120v-420h-240v800h240v-240h-40v200h-160v-720h160v340h-80v40zM140 920h40v-40h-40v40z" />
    <glyph glyph-name="gdotaccent" unicode="&#x121;" 
d="M40 -200h200v200h-200v640h240v-880h-240v40zM240 600h-160v-560h160v560zM140 760h40v-40h-40v40z" />
    <glyph glyph-name="Emacron" unicode="&#x112;" 
d="M40 800h240v-40h-200v-340h200v-40h-200v-340h200v-40h-240v800zM40 920h240v-40h-240v40z" />
    <glyph glyph-name="aogonek" unicode="&#x105;" 
d="M40 640h240v-640h-240v340h200v260h-200v40zM240 300h-160v-260h160v260zM240 40h40v-200h-40v200z" />
    <glyph glyph-name="Aogonek" unicode="&#x104;" 
d="M40 800h240v-800h-40v380h-160v-380h-40v800zM80 420h160v340h-160v-340zM240 40h40v-200h-40v200z" />
    <glyph glyph-name="Iogonek" unicode="&#x12e;" horiz-adv-x="120" 
d="M40 800h40v-800h-40v800zM40 40h40v-200h-40v200z" />
    <glyph glyph-name="iogonek" unicode="&#x12f;" horiz-adv-x="120" 
d="M40 640h40v-640h-40v640zM40 880h40v-40h-40v40zM40 40h40v-200h-40v200z" />
    <glyph glyph-name="Eogonek" unicode="&#x118;" 
d="M40 800h240v-40h-200v-340h200v-40h-200v-340h200v-40h-240v800zM240 40h40v-200h-40v200z" />
    <glyph glyph-name="eogonek" unicode="&#x119;" 
d="M280 0h-240v640h240v-340h-200v-260h200v-40zM80 340h160v260h-160v-260zM240 40h40v-200h-40v200z" />
    <glyph glyph-name="Uogonek" unicode="&#x172;" horiz-adv-x="360" 
d="M40 800h40v-760h160v760h40v-800h-240v800zM280 40h40v-200h-40v200z" />
    <glyph glyph-name="uogonek" unicode="&#x173;" horiz-adv-x="360" 
d="M280 0h-240v640h40v-600h160v600h40v-640zM280 40h40v-200h-40v200z" />
    <glyph glyph-name="Scedilla" unicode="&#x15e;" 
d="M40 240h40v-200h160v340h-200v420h240v-240h-40v200h-160v-340h200v-420h-240v240zM140 40h40v-200h-40v200z" />
    <glyph glyph-name="scedilla" unicode="&#x15f;" 
d="M40 640h240v-40h-200v-260h200v-340h-240v40h200v260h-200v340zM140 40h40v-200h-40v200z" />
    <glyph glyph-name="tcommaaccent" unicode="&#x163;" horiz-adv-x="240" 
d="M40 800h40v-160h120v-40h-120v-560h120v-40h-160v800zM100 40h40v-200h-40v200z" />
    <glyph glyph-name="rcommaaccent" unicode="&#x157;" horiz-adv-x="240" 
d="M40 640h160v-40h-120v-600h-40v640zM1 -160h40v80h40v-120h-40v-80h-40v120z" />
    <glyph glyph-name="Idotaccent" unicode="&#x130;" horiz-adv-x="120" 
d="M40 800h40v-800h-40v800zM40 920h40v-40h-40v40z" />
    <glyph glyph-name="Tcommaaccent" unicode="&#x162;" horiz-adv-x="440" 
d="M40 800h360v-40h-160v-760h-40v760h-160v40zM200 40h40v-200h-40v200z" />
    <glyph glyph-name="Tcaron" unicode="&#x164;" horiz-adv-x="440" 
d="M40 800h360v-40h-160v-760h-40v760h-160v40zM120 1000h200v-40h-80v-80h-40v80h-80v40z" />
    <glyph glyph-name="afii10084" unicode="&#x442;" horiz-adv-x="440" 
d="M40 640h360v-40h-160v-600h-40v600h-160v40z" />
    <glyph glyph-name="afii10079" unicode="&#x43d;" 
d="M240 300h-160v-300h-40v640h40v-300h160v300h40v-640h-40v300z" />
    <glyph glyph-name="afii10081" unicode="&#x43f;" horiz-adv-x="480" 
d="M40 640h400v-40h-80v-600h-40v600h-160v-600h-40v600h-80v40z" />
    <glyph glyph-name="afii10045" unicode="&#x42b;" horiz-adv-x="480" 
d="M40 0.0488281h240v419.975h-200v379.977h-40v-799.951zM80 380.025h160v-339.979h-160v339.979zM400 800h40v-800h-40v800z" />
    <glyph glyph-name="afii10077" unicode="&#x43b;" horiz-adv-x="400" 
d="M40 40h80v600h240v-640h-40v600h-160v-600h-120v40z" />
    <glyph glyph-name="afii10029" unicode="&#x41b;" horiz-adv-x="400" 
d="M40 40h80v760h240v-800h-40v760h-160v-760h-120v40z" />
    <glyph glyph-name="afii10068" unicode="&#x433;" horiz-adv-x="280" 
d="M40 640h200v-40h-160v-600h-40v640z" />
    <glyph glyph-name="afii10145" unicode="&#x40f;" 
d="M40 800h40v-760h160v760h40v-800h-100v-160h-40v160h-100v800z" />
    <glyph glyph-name="afii10088" unicode="&#x446;" horiz-adv-x="360" 
d="M40 0v640h40v-600h160v600h40v-600h40v-200h-40v160h-240z" />
    <glyph glyph-name="afii10048" unicode="&#x42e;" horiz-adv-x="480" 
d="M200 380h-120v-380h-40v800h40v-380h120v380h240v-800h-240v380zM240 40h160v720h-160v-720z" />
    <glyph glyph-name="afii10096" unicode="&#x44e;" horiz-adv-x="480" 
d="M200 300h-120v-300h-40v640h40v-300h120v300h240v-640h-240v300zM240 40h160v560h-160v-560z" />
    <glyph glyph-name="afii10193" unicode="&#x45f;" 
d="M40 640h40v-600h160v600h40v-640h-100v-160h-40v160h-100v640z" />
    <glyph glyph-name="afii10024" unicode="&#x416;" horiz-adv-x="480" 
d="M80 420h140v380h40v-380h140v380h40v-380h-40v-40h40v-380h-40v380h-140v-380h-40v380h-140v-380h-40v380h40v40h-40v380h40v-380z" />
    <glyph glyph-name="afii10042" unicode="&#x428;" horiz-adv-x="480" 
d="M40 800h40v-760h140v760h40v-760h140v760h40v-800h-400v800z" />
    <glyph glyph-name="afii10043" unicode="&#x429;" horiz-adv-x="520" 
d="M40 800h40v-760h140v760h40v-760h140v760h40v-760h40v-200h-40v160h-400v800z" />
    <glyph glyph-name="afii10072" unicode="&#x436;" horiz-adv-x="480" 
d="M80 340h140v300h40v-300h140v300h40v-300h-40v-40h40v-300h-40v300h-140v-300h-40v300h-140v-300h-40v300h40v40h-40v300h40v-300z" />
    <glyph glyph-name="afii10040" unicode="&#x426;" horiz-adv-x="360" 
d="M40 0v800h40v-760h160v760h40v-760h40v-200h-40v160h-240z" />
    <glyph glyph-name="afii10090" unicode="&#x448;" horiz-adv-x="480" 
d="M40 640h40v-600h140v600h40v-600h140v600h40v-640h-400v640z" />
    <glyph glyph-name="afii10091" unicode="&#x449;" horiz-adv-x="520" 
d="M40 640h40v-600h140v600h40v-600h140v600h40v-600h40v-200h-40v160h-400v640z" />
    <glyph glyph-name="pi" unicode="&#x3c0;" horiz-adv-x="480" 
d="M40 640h400v-40h-80v-600h-40v600h-160v-600h-40v600h-80v40z" />
    <glyph glyph-name="rho" unicode="&#x3c1;" 
d="M40 640h240v-640h-200v-160h-40v800zM80 40h160v560h-160v-560z" />
    <glyph glyph-name="Xi" unicode="&#x39e;" horiz-adv-x="400" 
d="M40 800h320v-40h-320v40zM40 40h320v-40h-320v40zM80 420h240v-40h-240v40z" />
    <glyph glyph-name="eta" unicode="&#x3b7;" 
d="M40 640h240v-800h-40v760h-160v-600h-40v640z" />
    <glyph glyph-name="lessequal" unicode="&#x2264;" horiz-adv-x="240" 
d="M40 40h160v-40h-160v40zM80 380h-40v40h40v180h120v-40h-80v-320h80v-40h-120v180z" />
    <glyph glyph-name="greaterequal" unicode="&#x2265;" horiz-adv-x="240" 
d="M200.002 40h-159.99v-40h159.99v40zM160.005 380h39.9971v40h-39.9971v180h-119.993v-40h79.9961v-320h-79.9961v-40h119.993v180z" />
    <glyph glyph-name="uni25FC" unicode="&#x25fc;" horiz-adv-x="880" 
d="M40 800h800v-800h-800v800z" />
    <glyph glyph-name="Egrave" unicode="&#xc8;" 
d="M40 800h240v-40h-200v-340h200v-40h-200v-340h200v-40h-240v800zM100 1120h40v-100h40v-140h-40v100h-40v140z" />
    <glyph glyph-name="Eacute" unicode="&#xc9;" 
d="M40 800h240v-40h-200v-340h200v-40h-200v-340h200v-40h-240v800zM180 880h-40v140h40v100h40v-140h-40v-100z" />
    <glyph glyph-name="Ecircumflex" unicode="&#xca;" 
d="M40 800h240v-40h-200v-340h200v-40h-200v-340h200v-40h-240v800zM60 920h80v80h40v-80h80v-40h-200v40z" />
    <glyph glyph-name="Edieresis" unicode="&#xcb;" 
d="M40 800h240v-40h-200v-340h200v-40h-200v-340h200v-40h-240v800zM80 920h40v-40h-40v40zM200 920h40v-40h-40v40z" />
    <glyph glyph-name="Igrave" unicode="&#xcc;" horiz-adv-x="120" 
d="M40 800h40v-800h-40v800zM1 1120h40v-100h40v-140h-40v100h-40v140z" />
    <glyph glyph-name="Iacute" unicode="&#xcd;" horiz-adv-x="120" 
d="M40 800h40v-800h-40v800zM80 880h-40v140h40v100h40v-140h-40v-100z" />
    <glyph glyph-name="Icircumflex" unicode="&#xce;" horiz-adv-x="120" 
d="M40 800h40v-800h-40v800zM-39 920h80v80h40v-80h80v-40h-200v40z" />
    <glyph glyph-name="Idieresis" unicode="&#xcf;" horiz-adv-x="120" 
d="M40 800h40v-800h-40v800zM-19 920h40v-40h-40v40zM101 920h40v-40h-40v40z" />
    <glyph glyph-name="Ugrave" unicode="&#xd9;" 
d="M40 800h40v-760h160v760h40v-800h-240v800zM100 1120h40v-100h40v-140h-40v100h-40v140z" />
    <glyph glyph-name="Uacute" unicode="&#xda;" 
d="M40 800h40v-760h160v760h40v-800h-240v800zM180 880h-40v140h40v100h40v-140h-40v-100z" />
    <glyph glyph-name="Ucircumflex" unicode="&#xdb;" 
d="M40 800h40v-760h160v760h40v-800h-240v800zM60 920h80v80h40v-80h80v-40h-200v40z" />
    <glyph glyph-name="Udieresis" unicode="&#xdc;" 
d="M40 800h40v-760h160v760h40v-800h-240v800zM80 920h40v-40h-40v40zM200 920h40v-40h-40v40z" />
    <glyph glyph-name="Yacute" unicode="&#xdd;" 
d="M40 40h200v160h-200v600h40v-560h160v560h40v-800h-240v40zM180 880h-40v140h40v100h40v-140h-40v-100z" />
    <glyph glyph-name="agrave" unicode="&#xe0;" 
d="M40 640h240v-640h-240v340h200v260h-200v40zM240 300h-160v-260h160v260zM100 960h40v-100h40v-140h-40v100h-40v140z" />
    <glyph glyph-name="aacute" unicode="&#xe1;" 
d="M40 640h240v-640h-240v340h200v260h-200v40zM240 300h-160v-260h160v260zM180 720h-40v140h40v100h40v-140h-40v-100z" />
    <glyph glyph-name="acircumflex" unicode="&#xe2;" 
d="M40 640h240v-640h-240v340h200v260h-200v40zM240 300h-160v-260h160v260zM60 760h80v80h40v-80h80v-40h-200v40z" />
    <glyph glyph-name="atilde" unicode="&#xe3;" 
d="M40 640h240v-640h-240v340h200v260h-200v40zM240 300h-160v-260h160v260zM40 760h240v-40h-240v40z" />
    <glyph glyph-name="adieresis" unicode="&#xe4;" 
d="M40 640h240v-640h-240v340h200v260h-200v40zM240 300h-160v-260h160v260zM80 760h40v-40h-40v40zM200 760h40v-40h-40v40z" />
    <glyph glyph-name="aring" unicode="&#xe5;" 
d="M40 640h240v-640h-240v340h200v260h-200v40zM240 300h-160v-260h160v260zM100 840h120v-120h-120v120zM140 760h40v40h-40v-40z" />
    <glyph glyph-name="igrave" unicode="&#xec;" horiz-adv-x="120" 
d="M1 960h40v-100h40v-140h-40v100h-40v140zM40 640h40v-640h-40v640z" />
    <glyph glyph-name="iacute" unicode="&#xed;" horiz-adv-x="120" 
d="M80 720h-40v140h40v100h40v-140h-40v-100zM40 640h40v-640h-40v640z" />
    <glyph glyph-name="icircumflex" unicode="&#xee;" horiz-adv-x="120" 
d="M-39 760h80v80h40v-80h80v-40h-200v40zM40 640h40v-640h-40v640z" />
    <glyph glyph-name="idieresis" unicode="&#xef;" horiz-adv-x="120" 
d="M40 640h40v-640h-40v640zM-19 760h40v-40h-40v40zM101 760h40v-40h-40v40z" />
    <glyph glyph-name="ntilde" unicode="&#xf1;" 
d="M40 640h240v-640h-40v600h-160v-600h-40v640zM40 760h240v-40h-240v40z" />
    <glyph glyph-name="ograve" unicode="&#xf2;" 
d="M40 640h240v-640h-240v640zM80 40h160v560h-160v-560zM100 960h40v-100h40v-140h-40v100h-40v140z" />
    <glyph glyph-name="oacute" unicode="&#xf3;" 
d="M40 640h240v-640h-240v640zM80 40h160v560h-160v-560zM180 720h-40v140h40v100h40v-140h-40v-100z" />
    <glyph glyph-name="ocircumflex" unicode="&#xf4;" 
d="M40 640h240v-640h-240v640zM80 40h160v560h-160v-560zM60 760h80v80h40v-80h80v-40h-200v40z" />
    <glyph glyph-name="otilde" unicode="&#xf5;" 
d="M40 640h240v-640h-240v640zM80 40h160v560h-160v-560zM40 760h240v-40h-240v40z" />
    <glyph glyph-name="odieresis" unicode="&#xf6;" 
d="M40 640h240v-640h-240v640zM80 40h160v560h-160v-560zM80 760h40v-40h-40v40zM200 760h40v-40h-40v40z" />
    <glyph glyph-name="edieresis" unicode="&#xeb;" 
d="M280 0h-240v640h240v-340h-200v-260h200v-40zM80 340h160v260h-160v-260zM80 760h40v-40h-40v40zM200 760h40v-40h-40v40z" />
    <glyph glyph-name="ecircumflex" unicode="&#xea;" 
d="M280 0h-240v640h240v-340h-200v-260h200v-40zM80 340h160v260h-160v-260zM60 760h80v80h40v-80h80v-40h-200v40z" />
    <glyph glyph-name="eacute" unicode="&#xe9;" 
d="M280 0h-240v640h240v-340h-200v-260h200v-40zM80 340h160v260h-160v-260zM180 720h-40v140h40v100h40v-140h-40v-100z" />
    <glyph glyph-name="egrave" unicode="&#xe8;" 
d="M280 0h-240v640h240v-340h-200v-260h200v-40zM80 340h160v260h-160v-260zM100 960h40v-100h40v-140h-40v100h-40v140z" />
    <glyph glyph-name="udieresis" unicode="&#xfc;" 
d="M280 0h-240v640h40v-600h160v600h40v-640zM80 760h40v-40h-40v40zM200 760h40v-40h-40v40z" />
    <glyph glyph-name="ucircumflex" unicode="&#xfb;" 
d="M280 0h-240v640h40v-600h160v600h40v-640zM60 760h80v80h40v-80h80v-40h-200v40z" />
    <glyph glyph-name="uacute" unicode="&#xfa;" 
d="M280 0h-240v640h40v-600h160v600h40v-640zM180 720h-40v140h40v100h40v-140h-40v-100z" />
    <glyph glyph-name="ugrave" unicode="&#xf9;" 
d="M280 0h-240v640h40v-600h160v600h40v-640zM100 960h40v-100h40v-140h-40v100h-40v140z" />
    <glyph glyph-name="Agrave" unicode="&#xc0;" 
d="M40 800h240v-800h-40v380h-160v-380h-40v800zM80 420h160v340h-160v-340zM100 1120h40v-100h40v-140h-40v100h-40v140z" />
    <glyph glyph-name="Aacute" unicode="&#xc1;" 
d="M40 800h240v-800h-40v380h-160v-380h-40v800zM80 420h160v340h-160v-340zM180 880h-40v140h40v100h40v-140h-40v-100z" />
    <glyph glyph-name="Acircumflex" unicode="&#xc2;" 
d="M40 800h240v-800h-40v380h-160v-380h-40v800zM80 420h160v340h-160v-340zM60 920h80v80h40v-80h80v-40h-200v40z" />
    <glyph glyph-name="Atilde" unicode="&#xc3;" 
d="M40 800h240v-800h-40v380h-160v-380h-40v800zM80 420h160v340h-160v-340zM40 920h240v-40h-240v40z" />
    <glyph glyph-name="Adieresis" unicode="&#xc4;" 
d="M40 800h240v-800h-40v380h-160v-380h-40v800zM80 420h160v340h-160v-340zM80 920h40v-40h-40v40zM200 920h40v-40h-40v40z" />
    <glyph glyph-name="Aring" unicode="&#xc5;" 
d="M40 800h240v-800h-40v380h-160v-380h-40v800zM80 420h160v340h-160v-340zM100 1000h120v-120h-120v120zM140 920h40v40h-40v-40z" />
    <glyph glyph-name="Ntilde" unicode="&#xd1;" 
d="M40 800h240v-800h-40v760h-160v-760h-40v800zM40 920h240v-40h-240v40z" />
    <glyph glyph-name="Ograve" unicode="&#xd2;" 
d="M40 800h240v-800h-240v800zM80 40h160v720h-160v-720zM100 1120h40v-100h40v-140h-40v100h-40v140z" />
    <glyph glyph-name="amacron" unicode="&#x101;" 
d="M40 640h240v-640h-240v340h200v260h-200v40zM240 300h-160v-260h160v260zM40 760h240v-40h-240v40z" />
    <glyph glyph-name="abreve" unicode="&#x103;" 
d="M40 640h240v-640h-240v340h200v260h-200v40zM240 300h-160v-260h160v260zM80 800h40v-40h80v40h40v-80h-160v80z" />
    <glyph glyph-name="Abreve" unicode="&#x102;" 
d="M40 800h240v-800h-40v380h-160v-380h-40v800zM80 420h160v340h-160v-340zM80 960h40v-40h80v40h40v-80h-160v80z" />
    <glyph glyph-name="ebreve" unicode="&#x115;" 
d="M280 0h-240v640h240v-340h-200v-260h200v-40zM80 340h160v260h-160v-260zM80 800h40v-40h80v40h40v-80h-160v80z" />
    <glyph glyph-name="Ebreve" unicode="&#x114;" 
d="M40 800h240v-40h-200v-340h200v-40h-200v-340h200v-40h-240v800zM80 960h40v-40h80v40h40v-80h-160v80z" />
    <glyph glyph-name="Gbreve" unicode="&#x11e;" 
d="M160 420h120v-420h-240v800h240v-240h-40v200h-160v-720h160v340h-80v40zM80 960h40v-40h80v40h40v-80h-160v80z" />
    <glyph glyph-name="uni012D" unicode="&#x12d;" horiz-adv-x="120" 
d="M40 640h40v-640h-40v640zM-19 800h40v-40h80v40h40v-80h-160v80z" />
    <glyph glyph-name="Ibreve" unicode="&#x12c;" horiz-adv-x="120" 
d="M40 800h40v-800h-40v800zM-19 960h40v-40h80v40h40v-80h-160v80z" />
    <glyph glyph-name="imacron" unicode="&#x12b;" horiz-adv-x="120" 
d="M-59 760h240v-40h-240v40zM40 640h40v-640h-40v640z" />
    <glyph glyph-name="uni012A" unicode="&#x12a;" horiz-adv-x="120" 
d="M40 800h40v-800h-40v800zM-59 920h240v-40h-240v40z" />
    <glyph glyph-name="itilde" unicode="&#x129;" horiz-adv-x="120" 
d="M-59 760h240v-40h-240v40zM40 640h40v-640h-40v640z" />
    <glyph glyph-name="ij" unicode="&#x133;" horiz-adv-x="280" 
d="M40 640h40v-640h-40v640zM40 880h40v-40h-40v40zM120 -200h80v840h40v-880h-120v40zM200 880h40v-40h-40v40z" />
    <glyph glyph-name="IJ" unicode="&#x132;" horiz-adv-x="440" 
d="M40 800h40v-800h-40v800zM160 240h40v-200h160v720h-80v40h120v-800h-240v240z" />
    <glyph glyph-name="Nacute" unicode="&#x143;" 
d="M40 800h240v-800h-40v760h-160v-760h-40v800zM180 880h-40v140h40v100h40v-140h-40v-100z" />
    <glyph glyph-name="nacute" unicode="&#x144;" 
d="M40 640h240v-640h-40v600h-160v-600h-40v640zM180 720h-40v140h40v100h40v-140h-40v-100z" />
    <glyph glyph-name="scircumflex" unicode="&#x15d;" 
d="M40 640h240v-40h-200v-260h200v-340h-240v40h200v260h-200v340zM60 760h80v80h40v-80h80v-40h-200v40z" />
    <glyph glyph-name="Otilde" unicode="&#xd5;" 
d="M40 800h240v-800h-240v800zM80 40h160v720h-160v-720zM40 920h240v-40h-240v40z" />
    <glyph glyph-name="Thorn" unicode="&#xde;" 
d="M40 800h40v-160h200v-480h-200v-160h-40v800zM80 200h160v400h-160v-400z" />
    <glyph glyph-name="Oacute" unicode="&#xd3;" 
d="M40 800h240v-800h-240v800zM80 40h160v720h-160v-720zM180 880h-40v140h40v100h40v-140h-40v-100z" />
    <glyph glyph-name="Ocircumflex" unicode="&#xd4;" 
d="M40 800h240v-800h-240v800zM80 40h160v720h-160v-720zM60 920h80v80h40v-80h80v-40h-200v40z" />
    <glyph glyph-name="questiondown" unicode="&#xbf;" 
d="M200.008 220.025h-119.993v-339.979h159.99v199.987h39.9971v-239.985h-239.984v419.975h119.992v259.984h39.998v-299.982zM200.008 600.002h-39.998v39.998h39.998v-39.998z" />
    <glyph glyph-name="Ccedilla" unicode="&#xc7;" 
d="M80 40h160v200h40v-240h-240v800h240v-240h-40v200h-160v-720zM140 40h40v-200h-40v200z" />
    <glyph glyph-name="ccedilla" unicode="&#xe7;" 
d="M80 40h160v200h40v-240h-240v640h240v-240h-40v200h-160v-560zM140 40h40v-200h-40v200z" />
    <glyph glyph-name="Odieresis" unicode="&#xd6;" 
d="M40 800h240v-800h-240v800zM80 40h160v720h-160v-720zM80 920h40v-40h-40v40zM200 920h40v-40h-40v40z" />
    <glyph glyph-name="notequal" unicode="&#x2260;" 
d="M40 500h100v80h40v-80h100v-40h-100v-120h100v-40h-100v-80h-40v80h-100v40h100v120h-100v40z" />
    <glyph glyph-name="uni01A4" unicode="&#x1a4;" horiz-adv-x="400" 
d="M40 800h320v-420h-200v-380h-40v760h-80v40zM160 420h160v340h-160v-340z" />
    <glyph glyph-name="uni0184" unicode="&#x184;" 
d="M40 0.0488281h240v419.975h-200v379.977h-40v-799.951zM80 380.025h160v-339.979h-160v339.979z" />
    <glyph glyph-name="uni018D" unicode="&#x18d;" 
d="M280.002 0.0488281h-239.984v39.998h199.987v119.992h-199.987v639.961h239.984v-799.951zM240.005 760.002h-159.99v-559.965h159.99v559.965z" />
    <glyph glyph-name="uni0185" unicode="&#x185;" 
d="M40 800h40v-160h200v-640h-240v800zM80 40h160v560h-160v-560z" />
    <glyph glyph-name="uni019F" unicode="&#x19f;" 
d="M40 800h240v-800h-240v800zM240 40v340h-160v-340h160zM80 420h160v340h-160v-340z" />
    <glyph glyph-name="uni01C7" unicode="&#x1c7;" horiz-adv-x="640" 
d="M40 800h40v-760h200v-40h-240v800zM360 240h40v-200h160v720h-80v40h120v-800h-240v240z" />
    <glyph glyph-name="uni01C8" unicode="&#x1c8;" horiz-adv-x="440" 
d="M40 800h40v-760h200v-40h-240v800zM280 -200h80v840h40v-880h-120v40zM360 880h40v-40h-40v40z" />
    <glyph glyph-name="uni01C9" unicode="&#x1c9;" horiz-adv-x="280" 
d="M40 800h40v-800h-40v800zM120 -200h80v840h40v-880h-120v40zM200 880h40v-40h-40v40z" />
    <glyph glyph-name="uni01CA" unicode="&#x1ca;" horiz-adv-x="640" 
d="M40 800h240v-800h-40v760h-160v-760h-40v800zM360 240h40v-200h160v720h-80v40h120v-800h-240v240z" />
    <glyph glyph-name="uni01CB" unicode="&#x1cb;" horiz-adv-x="480" 
d="M40 800h240v-800h-40v760h-160v-760h-40v800zM320 -200h80v840h40v-880h-120v40zM400 880h40v-40h-40v40z" />
    <glyph glyph-name="uni01CC" unicode="&#x1cc;" horiz-adv-x="480" 
d="M40 640h240v-640h-40v600h-160v-600h-40v640zM320 -200h80v840h40v-880h-120v40zM400 880h40v-40h-40v40z" />
    <glyph glyph-name="uni01CD" unicode="&#x1cd;" 
d="M40 800h240v-800h-40v380h-160v-380h-40v800zM80 420h160v340h-160v-340zM60 1000h200v-40h-80v-80h-40v80h-80v40z" />
    <glyph glyph-name="uni01CE" unicode="&#x1ce;" 
d="M40 640h240v-640h-240v340h200v260h-200v40zM240 300h-160v-260h160v260zM60 840h200v-40h-80v-80h-40v80h-80v40z" />
    <glyph glyph-name="uni01CF" unicode="&#x1cf;" horiz-adv-x="120" 
d="M40 800h40v-800h-40v800zM-39 1000h200v-40h-80v-80h-40v80h-80v40z" />
    <glyph glyph-name="uni01D0" unicode="&#x1d0;" horiz-adv-x="120" 
d="M40 640h40v-640h-40v640zM-39 840h200v-40h-80v-80h-40v80h-80v40z" />
    <glyph glyph-name="uni01D1" unicode="&#x1d1;" 
d="M40 800h240v-800h-240v800zM80 40h160v720h-160v-720zM60 1000h200v-40h-80v-80h-40v80h-80v40z" />
    <glyph glyph-name="uni01D2" unicode="&#x1d2;" 
d="M40 640h240v-640h-240v640zM80 40h160v560h-160v-560zM60 840h200v-40h-80v-80h-40v80h-80v40z" />
    <glyph glyph-name="uni01D3" unicode="&#x1d3;" 
d="M40 800h40v-760h160v760h40v-800h-240v800zM60 1000h200v-40h-80v-80h-40v80h-80v40z" />
    <glyph glyph-name="uni01D4" unicode="&#x1d4;" 
d="M280 0h-240v640h40v-600h160v600h40v-640zM60 840h200v-40h-80v-80h-40v80h-80v40z" />
    <glyph glyph-name="uni022E" unicode="&#x22e;" 
d="M40 800h240v-800h-240v800zM80 40h160v720h-160v-720zM140 920h40v-40h-40v40z" />
    <glyph glyph-name="uni022F" unicode="&#x22f;" 
d="M40 640h240v-640h-240v640zM80 40h160v560h-160v-560zM140 760h40v-40h-40v40z" />
    <glyph glyph-name="uni0232" unicode="&#x232;" 
d="M40 40h200v160h-200v600h40v-560h160v560h40v-800h-240v40zM40 920h240v-40h-240v40z" />
    <glyph glyph-name="uni0233" unicode="&#x233;" 
d="M240 640h40v-800h-240v40h200v160h-200v600h40v-560h160v560zM40 760h240v-40h-240v40z" />
    <glyph glyph-name="uni01E2" unicode="&#x1e2;" horiz-adv-x="520" 
d="M240 380h-160v-380h-40v800h440v-40h-200v-340h200v-40h-200v-340h200v-40h-240v380zM80 420h160v340h-160v-340zM140 920h240v-40h-240v40z" />
    <glyph glyph-name="uni01E3" unicode="&#x1e3;" horiz-adv-x="520" 
d="M480 0h-440v340h200v260h-200v40h440v-340h-200v-260h200v-40zM240 300h-160v-260h160v260zM280 340h160v260h-160v-260zM140 760h240v-40h-240v40z" />
    <glyph glyph-name="AEacute" unicode="&#x1fc;" horiz-adv-x="520" 
d="M240 380h-160v-380h-40v800h440v-40h-200v-340h200v-40h-200v-340h200v-40h-240v380zM80 420h160v340h-160v-340zM280 880h-40v140h40v100h40v-140h-40v-100z" />
    <glyph glyph-name="aeacute" unicode="&#x1fd;" horiz-adv-x="520" 
d="M480 0h-440v340h200v260h-200v40h440v-340h-200v-260h200v-40zM240 300h-160v-260h160v260zM280 340h160v260h-160v-260zM280 720h-40v140h40v100h40v-140h-40v-100z" />
    <glyph glyph-name="Gcaron" unicode="&#x1e6;" 
d="M160 420h120v-420h-240v800h240v-240h-40v200h-160v-720h160v340h-80v40zM60 1000h200v-40h-80v-80h-40v80h-80v40z" />
    <glyph glyph-name="gcaron" unicode="&#x1e7;" 
d="M40 -200h200v200h-200v640h240v-880h-240v40zM240 600h-160v-560h160v560zM60 840h200v-40h-80v-80h-40v80h-80v40z" />
    <glyph glyph-name="uni01E8" unicode="&#x1e8;" 
d="M240 380h-160v-380h-40v800h40v-380h160v380h40v-380h-40v-40h40v-380h-40v380zM60 1000h200v-40h-80v-80h-40v80h-80v40z" />
    <glyph glyph-name="uni01E9" unicode="&#x1e9;" 
d="M240 300h-160v-300h-40v800h40v-460h160v300h40v-300h-40v-40h40v-300h-40v300zM80 1000h200v-40h-80v-80h-40v80h-80v40z" />
    <glyph glyph-name="uni01F4" unicode="&#x1f4;" 
d="M160 420h120v-420h-240v800h240v-240h-40v200h-160v-720h160v340h-80v40zM180 880h-40v140h40v100h40v-140h-40v-100z" />
    <glyph glyph-name="uni01F5" unicode="&#x1f5;" 
d="M40 -200h200v200h-200v640h240v-880h-240v40zM240 600h-160v-560h160v560zM180 720h-40v140h40v100h40v-140h-40v-100z" />
    <glyph glyph-name="uni01F8" unicode="&#x1f8;" 
d="M40 800h240v-800h-40v760h-160v-760h-40v800zM100 1120h40v-100h40v-140h-40v100h-40v140z" />
    <glyph glyph-name="uni01F9" unicode="&#x1f9;" 
d="M40 640h240v-640h-40v600h-160v-600h-40v640zM100 960h40v-100h40v-140h-40v100h-40v140z" />
    <glyph glyph-name="uni0196" unicode="&#x196;" horiz-adv-x="200" 
d="M40 800h40v-760h80v-40h-120v800z" />
    <glyph glyph-name="Alphatonos" unicode="&#x386;" horiz-adv-x="520" 
d="M240 800h240v-800h-40v380h-160v-380h-40v800zM280 420h160v340h-160v-340zM80 641h-40v140h40v100h40v-140h-40v-100z" />
    <glyph glyph-name="Epsilontonos" unicode="&#x388;" horiz-adv-x="520" 
d="M240 800h240v-40h-200v-340h200v-40h-200v-340h200v-40h-240v800zM80 641h-40v140h40v100h40v-140h-40v-100z" />
    <glyph glyph-name="Etatonos" unicode="&#x389;" horiz-adv-x="520" 
d="M440 380h-160v-380h-40v800h40v-380h160v380h40v-800h-40v380zM80 641h-40v140h40v100h40v-140h-40v-100z" />
    <glyph glyph-name="Iotatonos" unicode="&#x38a;" 
d="M240 800h40v-800h-40v800zM80 641h-40v140h40v100h40v-140h-40v-100z" />
    <glyph glyph-name="Omicrontonos" unicode="&#x38c;" horiz-adv-x="520" 
d="M240 800h240v-800h-240v800zM280 40h160v720h-160v-720zM80 641h-40v140h40v100h40v-140h-40v-100z" />
    <glyph glyph-name="Upsilontonos" unicode="&#x38e;" horiz-adv-x="520" 
d="M240 40h200v160h-200v600h40v-560h160v560h40v-800h-240v40zM80 641h-40v140h40v100h40v-140h-40v-100z" />
    <glyph glyph-name="Omegatonos" unicode="&#x38f;" horiz-adv-x="600" 
d="M480 200h40v560h-240v-560h40v-200h-80v40h40v160h-40v560h40v40h240v-40h40v-560h-40v-160h40v-40h-80v200zM80 641h-40v140h40v100h40v-140h-40v-100z" />
    <glyph glyph-name="uni1E8A" unicode="&#x1e8a;" 
d="M40 800h40v-380h160v380h40v-380h-40v-40h40v-380h-40v380h-160v-380h-40v380h40v40h-40v380zM140 920h40v-40h-40v40z" />
    <glyph glyph-name="uni1E8B" unicode="&#x1e8b;" 
d="M40 640h40v-300h160v300h40v-300h-40v-40h40v-300h-40v300h-160v-300h-40v300h40v40h-40v300zM140 760h40v-40h-40v40z" />
    <glyph glyph-name="uni1E8C" unicode="&#x1e8c;" 
d="M40 800h40v-380h160v380h40v-380h-40v-40h40v-380h-40v380h-160v-380h-40v380h40v40h-40v380zM80 920h40v-40h-40v40zM200 920h40v-40h-40v40z" />
    <glyph glyph-name="uni1E8D" unicode="&#x1e8d;" 
d="M40 640h40v-300h160v300h40v-300h-40v-40h40v-300h-40v300h-160v-300h-40v300h40v40h-40v300zM80 760h40v-40h-40v40zM200 760h40v-40h-40v40z" />
    <glyph glyph-name="uni1E8E" unicode="&#x1e8e;" 
d="M40 40h200v160h-200v600h40v-560h160v560h40v-800h-240v40zM140 920h40v-40h-40v40z" />
    <glyph glyph-name="uni1E8F" unicode="&#x1e8f;" 
d="M240 640h40v-800h-240v40h200v160h-200v600h40v-560h160v560zM140 760h40v-40h-40v40z" />
    <glyph glyph-name="Wgrave" unicode="&#x1e80;" horiz-adv-x="480" 
d="M40 800h40v-760h140v760h40v-760h140v760h40v-800h-400v800zM180 1120h40v-100h40v-140h-40v100h-40v140z" />
    <glyph glyph-name="wgrave" unicode="&#x1e81;" horiz-adv-x="480" 
d="M40 640h40v-600h140v600h40v-600h140v600h40v-640h-400v640zM180 960h40v-100h40v-140h-40v100h-40v140z" />
    <glyph glyph-name="Wacute" unicode="&#x1e82;" horiz-adv-x="480" 
d="M40 800h40v-760h140v760h40v-760h140v760h40v-800h-400v800zM260 880h-40v140h40v100h40v-140h-40v-100z" />
    <glyph glyph-name="wacute" unicode="&#x1e83;" horiz-adv-x="480" 
d="M40 640h40v-600h140v600h40v-600h140v600h40v-640h-400v640zM260 720h-40v140h40v100h40v-140h-40v-100z" />
    <glyph glyph-name="Wdieresis" unicode="&#x1e84;" horiz-adv-x="480" 
d="M40 800h40v-760h140v760h40v-760h140v760h40v-800h-400v800zM160 920h40v-40h-40v40zM280 920h40v-40h-40v40z" />
    <glyph glyph-name="wdieresis" unicode="&#x1e85;" horiz-adv-x="480" 
d="M40 640h40v-600h140v600h40v-600h140v600h40v-640h-400v640zM160 760h40v-40h-40v40zM280 760h40v-40h-40v40z" />
    <glyph glyph-name="uni1E86" unicode="&#x1e86;" horiz-adv-x="480" 
d="M40 800h40v-760h140v760h40v-760h140v760h40v-800h-400v800zM220 920h40v-40h-40v40z" />
    <glyph glyph-name="uni1E87" unicode="&#x1e87;" horiz-adv-x="480" 
d="M40 640h40v-600h140v600h40v-600h140v600h40v-640h-400v640zM220 760h40v-40h-40v40z" />
    <glyph glyph-name="uni1E6A" unicode="&#x1e6a;" horiz-adv-x="440" 
d="M40 800h360v-40h-160v-760h-40v760h-160v40zM200 920h40v-40h-40v40z" />
    <glyph glyph-name="uni1E6B" unicode="&#x1e6b;" horiz-adv-x="240" 
d="M40 800h40v-160h120v-40h-120v-560h120v-40h-160v800zM40 920h40v-40h-40v40z" />
    <glyph glyph-name="uni1E60" unicode="&#x1e60;" 
d="M40 240h40v-200h160v340h-200v420h240v-240h-40v200h-160v-340h200v-420h-240v240zM140 920h40v-40h-40v40z" />
    <glyph glyph-name="uni1E61" unicode="&#x1e61;" 
d="M40 640h240v-40h-200v-260h200v-340h-240v40h200v260h-200v340zM140 760h40v-40h-40v40z" />
    <glyph glyph-name="uni1E3E" unicode="&#x1e3e;" horiz-adv-x="480" 
d="M440 0h-40v760h-140v-760h-40v760h-140v-760h-40v800h400v-800zM260 880h-40v140h40v100h40v-140h-40v-100z" />
    <glyph glyph-name="uni1E3F" unicode="&#x1e3f;" horiz-adv-x="480" 
d="M440 0h-40v600h-140v-600h-40v600h-140v-600h-40v640h400v-640zM260 720h-40v140h40v100h40v-140h-40v-100z" />
    <glyph glyph-name="uni1E40" unicode="&#x1e40;" horiz-adv-x="480" 
d="M440 0h-40v760h-140v-760h-40v760h-140v-760h-40v800h400v-800zM220 920h40v-40h-40v40z" />
    <glyph glyph-name="uni1E41" unicode="&#x1e41;" horiz-adv-x="480" 
d="M440 0h-40v600h-140v-600h-40v600h-140v-600h-40v640h400v-640zM220 760h40v-40h-40v40z" />
  </font>
</defs>
</svg>
