<?xml version="1.0" standalone="no"?>
<!DOCTYPE svg PUBLIC "-//W3C//DTD SVG 1.1//EN" "http://www.w3.org/Graphics/SVG/1.1/DTD/svg11.dtd" >
<svg xmlns="http://www.w3.org/2000/svg" xmlns:xlink="http://www.w3.org/1999/xlink" version="1.1">
<metadata>
Created by FontForge 20170924 at Fri Oct  1 09:52:54 2010
 By www-data
Copyright (c) gosub communications,, 2001. All rights reserved.
</metadata>
<defs>
<font id="Serious1" horiz-adv-x="670" >
  <font-face 
    font-family="serious1"
    font-weight="400"
    font-stretch="normal"
    units-per-em="1000"
    panose-1="0 0 0 0 0 0 0 0 0 0"
    ascent="800"
    descent="-200"
    x-height="590"
    cap-height="588"
    bbox="0 -361 1313 1072"
    underline-thickness="50"
    underline-position="-125"
    unicode-range="U+0020-0108"
  />
<missing-glyph horiz-adv-x="500" 
d="M63 0v750h375v-750h-375zM125 63h250v625h-250v-625z" />
    <glyph glyph-name=".notdef" horiz-adv-x="500" 
d="M63 0v750h375v-750h-375zM125 63h250v625h-250v-625z" />
    <glyph glyph-name=".null" horiz-adv-x="0" 
 />
    <glyph glyph-name="nonmarkingreturn" horiz-adv-x="500" 
 />
    <glyph glyph-name="space" unicode=" " horiz-adv-x="500" 
 />
    <glyph glyph-name="exclam" unicode="!" horiz-adv-x="308" 
d="M108 108v-108h-108v108h108zM108 588v-348h-108v348h108z" />
    <glyph glyph-name="quotedbl" unicode="&#x22;" horiz-adv-x="549" 
d="M108 590v-229h-108v229h108zM349 590v-229h-108v229h108z" />
    <glyph glyph-name="numbersign" unicode="#" horiz-adv-x="790" 
d="M0 114v121h108v120h-108v121h114v114h121v-108h120v108h121v-114h114v-121h-108v-120h108v-121h-114v-114h-121v108h-120v-108h-121v114h-114zM241 241h108v108h-108v-108z" />
    <glyph glyph-name="dollar" unicode="$" horiz-adv-x="549" 
d="M0 -6v121h229v120h-229v361h114v114h121v-114h114v-120h-229v-121h229v-361h-114v-114h-121v114h-114z" />
    <glyph glyph-name="percent" unicode="%" horiz-adv-x="790" 
d="M114 114v121h121v120h120v121h121v114h114v-114h-114v-121h-121v-120h-120v-121h-121v-114h-114v114h114zM476 114v115h114v-229h-229v114h115zM229 590v-114h-115v-115h-114v229h229z" />
    <glyph glyph-name="ampersand" unicode="&#x26;" horiz-adv-x="790" 
d="M114 235v355h356v-476h-115v-114h-355v235h114zM590 108v-108h-108v108h108zM120 120h229v109h-229v-109zM241 361h108v109h-108v-109z" />
    <glyph glyph-name="quotesingle" unicode="'" horiz-adv-x="308" 
d="M108 589v-228h-108v228h108z" />
    <glyph glyph-name="parenleft" unicode="(" horiz-adv-x="429" 
d="M229 590v-114h-108v-362h108v-114h-229v590h229z" />
    <glyph glyph-name="parenright" unicode=")" horiz-adv-x="429" 
d="M108 114v362h-108v114h229v-590h-229v114h108z" />
    <glyph glyph-name="asterisk" unicode="*" horiz-adv-x="549" 
d="M235 354v115h114v-115h-114v-114h-115v114h115zM114 475v114h115v-114h-115v-115h-114v115h114z" />
    <glyph glyph-name="plus" unicode="+" horiz-adv-x="549" 
d="M0 234v121h114v114h121v-114h114v-121h-114v-114h-121v114h-114z" />
    <glyph glyph-name="comma" unicode="," horiz-adv-x="308" 
d="M108 108v-228h-108v228h108z" />
    <glyph glyph-name="hyphen" unicode="-" horiz-adv-x="429" 
d="M229 348v-108h-229v108h229z" />
    <glyph glyph-name="period" unicode="." horiz-adv-x="308" 
d="M108 108v-108h-108v108h108z" />
    <glyph glyph-name="slash" unicode="/" horiz-adv-x="790" 
d="M114 114v121h121v120h120v121h121v114h114v-114h-114v-121h-121v-120h-120v-121h-121v-114h-114v114h114z" />
    <glyph glyph-name="zero" unicode="0" 
d="M470 590v-590h-470v590h470zM241 121h108v228h-108v-228zM121 362h108v108h-108v-108z" />
    <glyph glyph-name="one" unicode="1" horiz-adv-x="429" 
d="M0 476v114h229v-590h-115v476h-114z" />
    <glyph glyph-name="two" unicode="2" 
d="M349 355v121h-349v114h470v-355h-349v-121h349v-114h-470v355h349z" />
    <glyph glyph-name="three" unicode="3" 
d="M349 114v121h-349v120h349v121h-349v114h470v-590h-470v114h349z" />
    <glyph glyph-name="four" unicode="4" 
d="M0 235v355h114v-228h241v228h115v-590h-115v235h-355z" />
    <glyph glyph-name="five" unicode="5" 
d="M349 114v121h-349v355h470v-114h-349v-121h349v-355h-470v114h349z" />
    <glyph glyph-name="six" unicode="6" 
d="M470 590v-114h-349v-121h349v-355h-470v590h470zM121 121h228v108h-228v-108z" />
    <glyph glyph-name="seven" unicode="7" 
d="M0 476v114h470v-590h-115v476h-355z" />
    <glyph glyph-name="eight" unicode="8" 
d="M470 590v-590h-470v590h470zM121 121h228v108h-228v-108zM121 362h228v108h-228v-108z" />
    <glyph glyph-name="nine" unicode="9" 
d="M0 235v355h470v-590h-115v235h-355zM121 362h228v108h-228v-108z" />
    <glyph glyph-name="colon" unicode=":" horiz-adv-x="308" 
d="M108 228v-108h-108v108h108zM108 468v-108h-108v108h108z" />
    <glyph glyph-name="semicolon" unicode=";" horiz-adv-x="308" 
d="M108 108v-228h-108v228h108zM108 348v-108h-108v108h108z" />
    <glyph glyph-name="less" unicode="&#x3c;" horiz-adv-x="549" 
d="M349 108v-108h-108v108h108zM229 229v-109h-109v109h109zM114 355v120h121v115h114v-115h-114v-120h-121v-114h-114v114h114z" />
    <glyph glyph-name="equal" unicode="=" horiz-adv-x="549" 
d="M349 228v-108h-349v108h349zM349 469v-108h-349v108h349z" />
    <glyph glyph-name="greater" unicode="&#x3e;" horiz-adv-x="549" 
d="M114 114v121h121v114h114v-114h-114v-121h-121v-114h-114v114h114zM229 469v-108h-109v108h109zM108 590v-109h-108v109h108z" />
    <glyph glyph-name="question" unicode="?" horiz-adv-x="549" 
d="M229 108v-108h-109v108h109zM229 355v120h-229v115h349v-349h-229v114h109z" />
    <glyph glyph-name="at" unicode="@" horiz-adv-x="1152" 
d="M711 -132v-108h-470v108h470zM229 -11v-108h-108v108h108zM114 597v121h121v114h476v-114h-476v-121h-121v-596h-114v596h114zM590 115v356h-235v-349h-114v355h114v120h362v115h114v-115h-108v-475h114v469h115v-476h-115v-114h-475v114h228z" />
    <glyph glyph-name="A" unicode="A" 
d="M470 590v-590h-115v229h-241v-229h-114v590h470zM121 362h228v108h-228v-108z" />
    <glyph glyph-name="B" unicode="B" 
d="M470 590v-590h-470v590h470zM121 121h228v108h-228v-108zM121 362h228v108h-228v-108z" />
    <glyph glyph-name="C" unicode="C" 
d="M470 590v-228h-115v108h-234v-349h234v108h115v-229h-470v590h470z" />
    <glyph glyph-name="D" unicode="D" 
d="M349 590v-114h-228v-355h234v349h115v-356h-115v-114h-355v590h349z" />
    <glyph glyph-name="E" unicode="E" 
d="M470 590v-114h-349v-121h228v-120h-228v-121h349v-114h-470v590h470z" />
    <glyph glyph-name="F" unicode="F" 
d="M470 590v-114h-349v-121h228v-120h-235v-235h-114v590h470z" />
    <glyph glyph-name="G" unicode="G" 
d="M470 590v-114h-349v-355h228v114h-108v114h229v-349h-470v590h470z" />
    <glyph glyph-name="H" unicode="H" 
d="M114 590v-228h241v228h115v-590h-115v229h-241v-229h-114v590h114z" />
    <glyph glyph-name="I" unicode="I" horiz-adv-x="308" 
d="M108 588v-588h-108v588h108z" />
    <glyph glyph-name="J" unicode="J" horiz-adv-x="549" 
d="M235 114v476h114v-476h-114v-114h-235v114h235z" />
    <glyph glyph-name="K" unicode="K" 
d="M114 590v-228h121v114h120v114h115v-114h-115v-121h-120v-120h-121v-235h-114v590h114zM470 108v-108h-108v108h108zM349 229v-108h-108v108h108z" />
    <glyph glyph-name="L" unicode="L" 
d="M114 590v-476h356v-114h-470v590h114z" />
    <glyph glyph-name="M" unicode="M" horiz-adv-x="790" 
d="M229 590v-114h-115v-476h-114v590h229zM355 470v-229h-114v235h114v114h235v-590h-114v470h-121z" />
    <glyph glyph-name="N" unicode="N" 
d="M114 590v-114h115v-121h-115v-355h-114v590h114zM241 235v120h114v235h115v-590h-115v235h-114z" />
    <glyph glyph-name="O" unicode="O" 
d="M470 590v-590h-470v590h470zM121 121h228v349h-228v-349z" />
    <glyph glyph-name="P" unicode="P" 
d="M470 590v-355h-356v-235h-114v590h470zM121 362h228v108h-228v-108z" />
    <glyph glyph-name="Q" unicode="Q" 
d="M470 590v-590h-470v590h470zM121 121h114v114h114v235h-228v-349z" />
    <glyph glyph-name="R" unicode="R" 
d="M470 590v-235h-115v-120h-241v-235h-114v590h470zM470 229v-229h-108v229h108zM121 362h228v108h-228v-108z" />
    <glyph glyph-name="S" unicode="S" 
d="M349 114v121h-349v355h470v-114h-349v-121h349v-355h-470v114h349z" />
    <glyph glyph-name="T" unicode="T" 
d="M0 476v114h470v-114h-235v-476h-121v476h-114z" />
    <glyph glyph-name="U" unicode="U" 
d="M114 590v-469h241v469h115v-590h-470v590h114z" />
    <glyph glyph-name="V" unicode="V" 
d="M355 114v476h115v-476h-115v-114h-234v114h234zM108 590v-469h-108v469h108z" />
    <glyph glyph-name="W" unicode="W" horiz-adv-x="790" 
d="M114 590v-470h121v229h114v-235h-114v-114h-235v590h114zM476 114v476h114v-590h-229v114h115z" />
    <glyph glyph-name="X" unicode="X" 
d="M114 235v120h241v235h115v-235h-115v-120h-241v-235h-114v235h114zM470 229v-229h-108v229h108zM108 590v-228h-108v228h108z" />
    <glyph glyph-name="Y" unicode="Y" horiz-adv-x="549" 
d="M235 235v355h114v-355h-114v-235h-115v235h115zM108 590v-349h-108v349h108z" />
    <glyph glyph-name="Z" unicode="Z" 
d="M114 235v120h235v121h-349v114h470v-235h-115v-120h-234v-121h349v-114h-470v235h114z" />
    <glyph glyph-name="bracketleft" unicode="[" horiz-adv-x="429" 
d="M229 711v-114h-108v-603h108v-114h-229v831h229z" />
    <glyph glyph-name="backslash" unicode="\" horiz-adv-x="790" 
d="M590 114v-114h-114v114h-121v121h-120v120h-121v121h-114v114h114v-114h121v-121h120v-120h121v-121h114z" />
    <glyph glyph-name="bracketright" unicode="]" horiz-adv-x="429" 
d="M108 -6v603h-108v114h229v-831h-229v114h108z" />
    <glyph glyph-name="underscore" unicode="_" 
d="M470 108v-108h-470v108h470z" />
    <glyph glyph-name="grave" unicode="`" horiz-adv-x="308" 
d="M108 589v-228h-108v228h108z" />
    <glyph glyph-name="a" unicode="a" 
d="M470 590v-590h-115v229h-241v-229h-114v590h470zM121 362h228v108h-228v-108z" />
    <glyph glyph-name="b" unicode="b" 
d="M470 590v-590h-470v590h470zM121 121h228v108h-228v-108zM121 362h228v108h-228v-108z" />
    <glyph glyph-name="c" unicode="c" 
d="M470 590v-228h-115v108h-234v-349h234v108h115v-229h-470v590h470z" />
    <glyph glyph-name="d" unicode="d" 
d="M349 590v-114h-228v-355h234v349h115v-356h-115v-114h-355v590h349z" />
    <glyph glyph-name="e" unicode="e" 
d="M470 590v-114h-349v-121h228v-120h-228v-121h349v-114h-470v590h470z" />
    <glyph glyph-name="f" unicode="f" 
d="M470 590v-114h-349v-121h228v-120h-235v-235h-114v590h470z" />
    <glyph glyph-name="g" unicode="g" 
d="M470 590v-114h-349v-355h228v114h-108v114h229v-349h-470v590h470z" />
    <glyph glyph-name="h" unicode="h" 
d="M114 590v-228h241v228h115v-590h-115v229h-241v-229h-114v590h114z" />
    <glyph glyph-name="i" unicode="i" horiz-adv-x="308" 
d="M108 588v-588h-108v588h108z" />
    <glyph glyph-name="j" unicode="j" horiz-adv-x="549" 
d="M235 114v476h114v-476h-114v-114h-235v114h235z" />
    <glyph glyph-name="k" unicode="k" 
d="M114 590v-228h121v114h120v114h115v-114h-115v-121h-120v-120h-121v-235h-114v590h114zM470 108v-108h-108v108h108zM349 229v-108h-108v108h108z" />
    <glyph glyph-name="l" unicode="l" 
d="M114 590v-476h356v-114h-470v590h114z" />
    <glyph glyph-name="m" unicode="m" horiz-adv-x="790" 
d="M229 590v-114h-115v-476h-114v590h229zM355 470v-229h-114v235h114v114h235v-590h-114v470h-121z" />
    <glyph glyph-name="n" unicode="n" 
d="M114 590v-114h115v-121h-115v-355h-114v590h114zM241 235v120h114v235h115v-590h-115v235h-114z" />
    <glyph glyph-name="o" unicode="o" 
d="M470 590v-590h-470v590h470zM121 121h228v349h-228v-349z" />
    <glyph glyph-name="p" unicode="p" 
d="M470 590v-355h-356v-235h-114v590h470zM121 362h228v108h-228v-108z" />
    <glyph glyph-name="q" unicode="q" 
d="M470 590v-590h-470v590h470zM121 121h114v114h114v235h-228v-349z" />
    <glyph glyph-name="r" unicode="r" 
d="M470 590v-235h-115v-120h-241v-235h-114v590h470zM470 229v-229h-108v229h108zM121 362h228v108h-228v-108z" />
    <glyph glyph-name="s" unicode="s" 
d="M349 114v121h-349v355h470v-114h-349v-121h349v-355h-470v114h349z" />
    <glyph glyph-name="t" unicode="t" 
d="M0 476v114h470v-114h-235v-476h-121v476h-114z" />
    <glyph glyph-name="u" unicode="u" 
d="M114 590v-469h241v469h115v-590h-470v590h114z" />
    <glyph glyph-name="v" unicode="v" 
d="M355 114v476h115v-476h-115v-114h-234v114h234zM108 590v-469h-108v469h108z" />
    <glyph glyph-name="w" unicode="w" horiz-adv-x="790" 
d="M114 590v-470h121v229h114v-235h-114v-114h-235v590h114zM476 114v476h114v-590h-229v114h115z" />
    <glyph glyph-name="x" unicode="x" 
d="M114 235v120h241v235h115v-235h-115v-120h-241v-235h-114v235h114zM470 229v-229h-108v229h108zM108 590v-228h-108v228h108z" />
    <glyph glyph-name="y" unicode="y" horiz-adv-x="549" 
d="M235 235v355h114v-355h-114v-235h-115v235h115zM108 590v-349h-108v349h108z" />
    <glyph glyph-name="z" unicode="z" 
d="M114 235v120h235v121h-349v114h470v-235h-115v-120h-234v-121h349v-114h-470v235h114z" />
    <glyph glyph-name="braceleft" unicode="{" horiz-adv-x="549" 
d="M0 235v120h114v355h235v-114h-108v-602h108v-114h-235v355h-114z" />
    <glyph glyph-name="bar" unicode="|" horiz-adv-x="308" 
d="M108 708v-828h-108v828h108z" />
    <glyph glyph-name="braceright" unicode="}" horiz-adv-x="549" 
d="M108 -6v602h-108v114h235v-355h114v-120h-114v-355h-235v114h108z" />
    <glyph glyph-name="asciitilde" unicode="~" 
d="M235 234v115h114v-115h-114v-114h-114v114h114zM470 228v-108h-108v108h108zM108 349v-108h-108v108h108z" />
    <glyph glyph-name="quotesinglbase" horiz-adv-x="308" 
d="M108 589v-228h-108v228h108z" />
    <glyph glyph-name="quotedblbase" horiz-adv-x="549" 
d="M108 590v-229h-108v229h108zM349 590v-229h-108v229h108z" />
    <glyph glyph-name="quoteleft" horiz-adv-x="308" 
d="M108 589v-228h-108v228h108z" />
    <glyph glyph-name="quoteright" horiz-adv-x="308" 
d="M108 589v-228h-108v228h108z" />
    <glyph glyph-name="quotedblleft" horiz-adv-x="549" 
d="M108 590v-229h-108v229h108zM349 590v-229h-108v229h108z" />
    <glyph glyph-name="quotedblright" horiz-adv-x="549" 
d="M108 590v-229h-108v229h108zM349 590v-229h-108v229h108z" />
    <glyph glyph-name="bullet" horiz-adv-x="549" 
d="M349 469v-349h-349v349h349zM120 240h109v109h-109v-109z" />
    <glyph glyph-name="endash" horiz-adv-x="429" 
d="M229 348v-108h-229v108h229z" />
    <glyph glyph-name="section" unicode="&#xa7;" horiz-adv-x="1513" 
d="M711 -247v362h-109v120h235v121h121v120h120v121h121v114h114v-596h-114v-121h-121v-120h-120v-121h-121v-114h-235v114h109zM590 -132v-109h-229v109h229zM349 -12v-108h-229v108h229zM843 -120h115v114h120v121h115v355h-115v-114h-120v-121h-115v-355zM114 597v120
h121v121h120v120h121v114h235v-114h-235v-120h-121v-121h-120v-120h-115v-121h229v-120h-235v-356h-114v597h114zM590 350v-109h-229v109h229zM1193 832v-109h-229v109h229zM952 952v-108h-229v108h229z" />
    <glyph glyph-name="copyright" unicode="&#xa9;" horiz-adv-x="1152" 
d="M717 -6v121h120v476h115v-476h-115v-121h-120v-114h-476v114h476zM229 109v-108h-108v108h108zM114 597v120h121v115h476v-115h-476v-120h-121v-476h-114v476h114zM590 229v-108h-228v108h228zM355 476v115h235v-115h-235v-234h-114v234h114zM831 711v-108h-108v108h108z
" />
    <glyph glyph-name="minus" unicode="&#xad;" horiz-adv-x="429" 
d="M229 348v-108h-229v108h229z" />
    <glyph glyph-name="registered" unicode="&#xae;" horiz-adv-x="1152" 
d="M717 -6v121h120v476h115v-476h-115v-121h-120v-114h-476v114h476zM235 115v476h355v-115h-228v-114h234v108h115v-114h-115v-121h-241v-120h-120v-114h-114v114h114zM114 597v120h121v115h476v-115h-476v-120h-121v-476h-114v476h114zM711 229v-108h-108v108h108z
M831 711v-108h-108v108h108z" />
    <glyph glyph-name="periodcentered" unicode="&#xb7;" horiz-adv-x="308" 
d="M108 589v-228h-108v228h108z" />
    <glyph glyph-name="Adieresis" unicode="&#xc4;" 
d="M470 595v-595h-115v233h-241v-233h-114v595h470zM121 366h228v108h-228v-108zM108 836v-108h-108v108h108zM470 836v-108h-108v108h108z" />
    <glyph glyph-name="Odieresis" unicode="&#xd6;" 
d="M470 590v-590h-470v590h470zM121 121h228v348h-228v-348zM108 831v-108h-108v108h108zM470 831v-108h-108v108h108z" />
    <glyph glyph-name="Udieresis" unicode="&#xdc;" 
d="M114 586v-465h241v465h115v-586h-470v586h114zM108 827v-108h-108v108h108zM470 827v-108h-108v108h108z" />
    <glyph glyph-name="germandbls" unicode="&#xdf;" horiz-adv-x="1272" 
d="M349 114v121h-349v355h470v-114h-350v-121h350v-355h-470v114h349zM952 114v121h-350v355h470v-114h-349v-121h349v-355h-470v114h350z" />
    <glyph glyph-name="adieresis" unicode="&#xe4;" 
d="M470 470v-470h-115v108h-241v-108h-114v470h470zM121 241h228v108h-228v-108zM108 711v-108h-108v108h108zM470 711v-108h-108v108h108z" />
    <glyph glyph-name="odieresis" unicode="&#xf6;" 
d="M470 470v-470h-470v470h470zM121 121h228v228h-228v-228zM108 711v-108h-108v108h108zM470 711v-108h-108v108h108z" />
    <glyph glyph-name="udieresis" unicode="&#xfc;" 
d="M114 470v-349h241v349h115v-470h-470v470h114zM108 711v-108h-108v108h108zM470 711v-108h-108v108h108z" />
    <glyph glyph-name="u.012" unicode="&#x100;" horiz-adv-x="790" 
d="M0 115v120h108v121h-108v120h114v235h476v-115h-349v-120h229v-120h-229v-121h229v-120h-229v-121h349v-114h-476v235h-114z" />
    <glyph glyph-name="u.012" unicode="&#x20ac;" horiz-adv-x="790" 
d="M0 115v120h108v121h-108v120h114v235h476v-115h-349v-120h229v-120h-229v-121h229v-120h-229v-121h349v-114h-476v235h-114z" />
    <glyph glyph-name="FL0130" unicode="&#x101;" horiz-adv-x="308" 
d="M108 589v-228h-108v228h108z" />
    <glyph glyph-name="FL0132" unicode="&#x102;" horiz-adv-x="549" 
d="M108 590v-229h-108v229h108zM349 590v-229h-108v229h108z" />
    <glyph glyph-name="FL0145" unicode="&#x103;" horiz-adv-x="308" 
d="M108 589v-228h-108v228h108z" />
    <glyph glyph-name="FL0146" unicode="&#x104;" horiz-adv-x="308" 
d="M108 589v-228h-108v228h108z" />
    <glyph glyph-name="FL0147" unicode="&#x105;" horiz-adv-x="549" 
d="M108 590v-229h-108v229h108zM349 590v-229h-108v229h108z" />
    <glyph glyph-name="FL0148" unicode="&#x106;" horiz-adv-x="549" 
d="M108 590v-229h-108v229h108zM349 590v-229h-108v229h108z" />
    <glyph glyph-name="FL0149" unicode="&#x107;" horiz-adv-x="549" 
d="M349 469v-349h-349v349h349zM120 240h109v109h-109v-109z" />
    <glyph glyph-name="FL0150" unicode="&#x108;" horiz-adv-x="429" 
d="M229 348v-108h-229v108h229z" />
  </font>
</defs>
</svg>
