<?xml version="1.0" standalone="no"?>
<!DOCTYPE svg PUBLIC "-//W3C//DTD SVG 1.1//EN" "http://www.w3.org/Graphics/SVG/1.1/DTD/svg11.dtd" >
<svg xmlns="http://www.w3.org/2000/svg" xmlns:xlink="http://www.w3.org/1999/xlink" version="1.1">
<metadata>
Created by FontForge 20170924 at Wed May 23 19:25:10 2001
 By www-data
(C) 2001 SHAKAGRAPHICS
</metadata>
<defs>
<font id="SHAKAGRAPHICS09" horiz-adv-x="500" >
  <font-face 
    font-family="SG09"
    font-weight="400"
    font-stretch="normal"
    units-per-em="1000"
    panose-1="0 0 4 0 0 0 0 0 0 0"
    ascent="750"
    descent="-250"
    x-height="374"
    cap-height="750"
    bbox="-1 -250 626 750"
    underline-thickness="20"
    underline-position="-143"
    unicode-range="U+0020-00A5"
  />
<missing-glyph 
d="M63 0v750h375v-750h-375zM125 63h250v625h-250v-625z" />
    <glyph glyph-name=".notdef" 
d="M63 0v750h375v-750h-375zM125 63h250v625h-250v-625z" />
    <glyph glyph-name=".null" horiz-adv-x="0" 
 />
    <glyph glyph-name="nonmarkingreturn" horiz-adv-x="375" 
 />
    <glyph glyph-name="space" unicode=" " horiz-adv-x="375" 
 />
    <glyph glyph-name="exclam" unicode="!" horiz-adv-x="249" 
d="M124 248h-125v501h125v-501zM124 -128h-125v251h125v-251z" />
    <glyph glyph-name="quotedbl" unicode="&#x22;" horiz-adv-x="501" 
d="M125 500h-125v250h125v-250zM376 500h-126v250h126v-250z" />
    <glyph glyph-name="numbersign" unicode="#" horiz-adv-x="751" 
d="M626 500h-125v-126h125v-125h-125v-125h-125v125h-126v-125h-125v125h-125v125h125v126h-125v125h125v125h125v-125h126v125h125v-125h125v-125zM376 374v126h-126v-126h126z" />
    <glyph glyph-name="dollar" unicode="$" horiz-adv-x="501" 
d="M376 500h-251v-126h251v-375h-126v-125h-125v125h-125v125h250v125h-250v376h125v125h125v-125h126v-125z" />
    <glyph glyph-name="percent" unicode="%" 
d="M0 -126v375h125v125h125v376h126v-376h-126v-125h-125v-375h-125zM125 625h-125v125h125v-125zM376 -126h-126v125h126v-125z" />
    <glyph glyph-name="ampersand" unicode="&#x26;" 
d="M376 500h-251v-126h251v-125h-251v-125h251v-125h-126v-125h-125v125h-125v626h125v125h125v-125h126v-125z" />
    <glyph glyph-name="quotesingle" unicode="'" horiz-adv-x="249" 
d="M125 499h-125v251h125v-251z" />
    <glyph glyph-name="parenleft" unicode="(" horiz-adv-x="376" 
d="M250 -126h-125v125h-125v626h125v125h125v-125h-125v-626h125v-125z" />
    <glyph glyph-name="parenright" unicode=")" horiz-adv-x="378" 
d="M1 -126v125h125v626h-125v125h125v-125h125v-626h-125v-125h-125z" />
    <glyph glyph-name="asterisk" unicode="*" horiz-adv-x="750" 
d="M625 125h-125v125h-126v-249h-125v249h-124v-125h-125v125h125v125h-125v125h125v-125h124v251h125v-251h126v125h125v-125h-125v-125h125v-125z" />
    <glyph glyph-name="plus" unicode="+" horiz-adv-x="501" 
d="M376 374v-125h-126v-125h-125v125h-125v125h125v126h125v-126h126z" />
    <glyph glyph-name="comma" unicode="," horiz-adv-x="376" 
d="M125 124h125v-125h-125v-125h-125v125h125v125z" />
    <glyph glyph-name="hyphen" unicode="-" horiz-adv-x="501" 
d="M376 249h-376v125h376v-125z" />
    <glyph glyph-name="hyphen" unicode="&#x2010;" horiz-adv-x="501" 
d="M376 249h-376v125h376v-125z" />
    <glyph glyph-name="period" unicode="." horiz-adv-x="252" 
d="M125 -1v-125h-125v125h125z" />
    <glyph glyph-name="slash" unicode="/" horiz-adv-x="501" 
d="M376 625v-251h-126v-250h-125v-250h-125v250h125v250h125v251h126z" />
    <glyph glyph-name="zero" unicode="0" horiz-adv-x="499" 
d="M0 750h376v-876h-376v876zM250 -1v626h-125v-626h125z" />
    <glyph glyph-name="one" unicode="1" horiz-adv-x="501" 
d="M250 -1h126v-125h-376v125h125v626h-125v125h250v-751z" />
    <glyph glyph-name="two" unicode="2" horiz-adv-x="501" 
d="M125 -1h251v-125h-376v500h250v251h-250v125h376v-501h-251v-250z" />
    <glyph glyph-name="three" unicode="3" horiz-adv-x="501" 
d="M0 750h376v-876h-376v125h250v250h-250v125h250v251h-250v125z" />
    <glyph glyph-name="four" unicode="4" horiz-adv-x="499" 
d="M250 750h125v-875h-125v375h-250v500h125v-375h125v375z" />
    <glyph glyph-name="five" unicode="5" 
d="M125 374h251v-500h-376v125h250v250h-250v501h376v-125h-251v-251z" />
    <glyph glyph-name="six" unicode="6" horiz-adv-x="501" 
d="M125 374h251v-500h-376v876h376v-125h-251v-251zM250 -1v250h-125v-250h125z" />
    <glyph glyph-name="seven" unicode="7" horiz-adv-x="501" 
d="M0 750h376v-876h-126v751h-250v125z" />
    <glyph glyph-name="eight" unicode="8" horiz-adv-x="501" 
d="M0 750h376v-876h-376v876zM125 625v-251h125v251h-125zM125 -1h125v250h-125v-250z" />
    <glyph glyph-name="nine" unicode="9" 
d="M0 750h376v-876h-376v125h250v250h-250v501zM250 374v251h-125v-251h125z" />
    <glyph glyph-name="colon" unicode=":" horiz-adv-x="251" 
d="M127 249v-125h-125v125h125zM127 499v-125h-125v125h125z" />
    <glyph glyph-name="semicolon" unicode=";" horiz-adv-x="373" 
d="M249 499v-125h-125v125h125zM0 -1v125h124v125h125v-125h-125v-125h-124z" />
    <glyph glyph-name="less" unicode="&#x3c;" horiz-adv-x="501" 
d="M376 625v-125h-126v-126h-125v-125h125v-125h126v-125h-126v125h-125v125h-125v125h125v126h125v125h126z" />
    <glyph glyph-name="equal" unicode="=" horiz-adv-x="502" 
d="M376 374h-376v126h376v-126zM376 124h-376v125h376v-125z" />
    <glyph glyph-name="greater" unicode="&#x3e;" horiz-adv-x="501" 
d="M0 625h125v-125h125v-126h126v-125h-126v-125h-125v-125h-125v125h125v125h125v125h-125v126h-125v125z" />
    <glyph glyph-name="question" unicode="?" 
d="M0 750h376v-626h-251v125h125v376h-125v-125h-125v250zM125 -1h125v-125h-125v125z" />
    <glyph glyph-name="at" unicode="@" horiz-adv-x="750" 
d="M0 750h625v-876h-625v876zM501 -1v250h-125v-250h125zM501 374v251h-376v-626h125v375h251z" />
    <glyph glyph-name="A" unicode="A" horiz-adv-x="501" 
d="M0 750h376v-876h-126v375h-125v-375h-125v876zM250 374v251h-125v-251h125z" />
    <glyph glyph-name="B" unicode="B" horiz-adv-x="501" 
d="M0 750h376v-876h-376v876zM125 625v-251h125v251h-125zM125 -1h125v250h-125v-250z" />
    <glyph glyph-name="C" unicode="C" horiz-adv-x="501" 
d="M125 -1h251v-125h-376v876h376v-125h-251v-626z" />
    <glyph glyph-name="D" unicode="D" horiz-adv-x="501" 
d="M250 -1v-125h-250v876h250v-125h126v-626h-126zM250 625h-125v-626h125v626z" />
    <glyph glyph-name="E" unicode="E" 
d="M125 -1h251v-125h-376v876h376v-125h-251v-251h251v-125h-251v-250z" />
    <glyph glyph-name="F" unicode="F" horiz-adv-x="502" 
d="M125 249v-375h-125v876h376v-125h-251v-251h251v-125h-251z" />
    <glyph glyph-name="G" unicode="G" 
d="M250 374h126v-500h-376v876h376v-125h-251v-626h125v375z" />
    <glyph glyph-name="H" unicode="H" horiz-adv-x="501" 
d="M250 750h126v-876h-126v375h-125v-375h-125v876h125v-376h125v376z" />
    <glyph glyph-name="I" unicode="I" horiz-adv-x="248" 
d="M125 -126h-125v876h125v-876z" />
    <glyph glyph-name="J" unicode="J" horiz-adv-x="501" 
d="M250 750h125v-876h-375v375h125v-250h125v751z" />
    <glyph glyph-name="K" unicode="K" 
d="M250 249h-125v-375h-125v876h125v-376h125v376h126v-376h-126v-125h126v-375h-126v375z" />
    <glyph glyph-name="L" unicode="L" 
d="M125 -1h251v-125h-376v876h125v-751z" />
    <glyph glyph-name="M" unicode="M" horiz-adv-x="750" 
d="M0 750h626v-876h-125v751h-125v-751h-126v751h-125v-751h-125v876z" />
    <glyph glyph-name="N" unicode="N" horiz-adv-x="501" 
d="M0 750h376v-876h-126v751h-125v-751h-125v876z" />
    <glyph glyph-name="O" unicode="O" horiz-adv-x="501" 
d="M0 750h376v-876h-376v876zM250 -1v626h-125v-626h125z" />
    <glyph glyph-name="P" unicode="P" 
d="M376 750v-501h-251v-375h-125v876h376zM250 374v251h-125v-251h125z" />
    <glyph glyph-name="Q" unicode="Q" horiz-adv-x="499" 
d="M375 750v-875h-125v-125h-125v125h-125v875h375zM250 0v625h-125v-625h125z" />
    <glyph glyph-name="R" unicode="R" horiz-adv-x="501" 
d="M125 374h125v251h-125v-251zM376 -126h-126v375h-125v-375h-125v876h376v-376h-126v-125h126v-375z" />
    <glyph glyph-name="S" unicode="S" 
d="M125 374h251v-500h-376v125h250v250h-250v501h376v-125h-251v-251z" />
    <glyph glyph-name="T" unicode="T" horiz-adv-x="501" 
d="M125 625h-125v125h376v-125h-126v-751h-125v751z" />
    <glyph glyph-name="U" unicode="U" 
d="M250 750h126v-876h-376v876h125v-751h125v751z" />
    <glyph glyph-name="V" unicode="V" 
d="M125 -1h125v751h126v-751h-126v-125h-125v125h-125v751h125v-751z" />
    <glyph glyph-name="W" unicode="W" horiz-adv-x="751" 
d="M501 750h125v-751h-125v-125h-125v125h-126v-125h-125v125h-125v751h125v-751h125v751h126v-751h125v751z" />
    <glyph glyph-name="X" unicode="X" 
d="M376 750v-376h-126v-125h126v-375h-126v375h-125v-375h-125v375h125v125h-125v376h125v-376h125v376h126z" />
    <glyph glyph-name="Y" unicode="Y" 
d="M376 750v-501h-126v-375h-125v375h-125v501h125v-376h125v376h126z" />
    <glyph glyph-name="Z" unicode="Z" horiz-adv-x="501" 
d="M250 374v251h-250v125h376v-376h-126v-125h-125v-250h251v-125h-376v375h125v125h125z" />
    <glyph glyph-name="bracketleft" unicode="[" horiz-adv-x="376" 
d="M125 -1h125v-125h-250v876h250v-125h-125v-626z" />
    <glyph glyph-name="backslash" unicode="\" horiz-adv-x="376" 
d="M0 625h125v-251h125v-250h126v-250h-126v250h-125v250h-125v251z" />
    <glyph glyph-name="bracketright" unicode="]" horiz-adv-x="378" 
d="M125 -1v626h-125v125h250v-876h-250v125h125z" />
    <glyph glyph-name="asciicircum" unicode="^" horiz-adv-x="502" 
d="M0 500v125h125v125h125v-125h126v-125h-126v125h-125v-125h-125z" />
    <glyph glyph-name="underscore" unicode="_" horiz-adv-x="374" 
d="M376 -1v-125h-376v125h376z" />
    <glyph glyph-name="grave" unicode="`" horiz-adv-x="377" 
d="M125 625h-125v125h125v-125h125v-125h-125v125z" />
    <glyph glyph-name="a" unicode="a" 
d="M125 249v-250h125v250h-125zM125 374h251v-500h-376v375h125v125z" />
    <glyph glyph-name="b" unicode="b" horiz-adv-x="502" 
d="M125 374h251v-500h-376v876h125v-376zM250 -1v250h-125v-250h125z" />
    <glyph glyph-name="c" unicode="c" horiz-adv-x="501" 
d="M125 -1h249v-125h-374v500h374v-125h-249v-250z" />
    <glyph glyph-name="d" unicode="d" horiz-adv-x="501" 
d="M0 374h250v376h126v-876h-376v500zM125 249v-250h125v250h-125z" />
    <glyph glyph-name="e" unicode="e" 
d="M125 -1h251v-125h-376v500h376v-250h-126v125h-125v-250z" />
    <glyph glyph-name="f" unicode="f" 
d="M125 750v-377h-125v-125h125v-374h125v374h126v125h-126v252h126v125h-251z" />
    <glyph glyph-name="g" unicode="g" 
d="M0 375h375v-625h-125v125h-250v500zM125 250v-250h125v250h-125z" />
    <glyph glyph-name="h" unicode="h" horiz-adv-x="501" 
d="M125 374h251v-500h-126v375h-125v-375h-125v876h125v-376z" />
    <glyph glyph-name="i" unicode="i" horiz-adv-x="249" 
d="M125 374v-500h-125v500h125zM125 500h-125v126h125v-126z" />
    <glyph glyph-name="j" unicode="j" horiz-adv-x="376" 
d="M250 500h-125v126h125v-126zM125 374h125v-500h-250v125h125v375z" />
    <glyph glyph-name="k" unicode="k" horiz-adv-x="501" 
d="M125 374h125v125h126v-125h-126v-125h126v-375h-126v375h-125v-375h-125v876h125v-376z" />
    <glyph glyph-name="l" unicode="l" horiz-adv-x="250" 
d="M125 -126h-125v876h125v-876z" />
    <glyph glyph-name="m" unicode="m" horiz-adv-x="751" 
d="M0 374h626v-500h-125v375h-125v-375h-126v375h-125v-375h-125v500z" />
    <glyph glyph-name="n" unicode="n" 
d="M0 374h376v-500h-126v375h-125v-375h-125v500z" />
    <glyph glyph-name="o" unicode="o" 
d="M0 374h376v-500h-376v500zM250 -1v250h-125v-250h125z" />
    <glyph glyph-name="p" unicode="p" 
d="M0 375h375v-500h-250v-125h-125v625zM250 0v250h-125v-250h125z" />
    <glyph glyph-name="q" unicode="q" 
d="M375 375v-500h-125v-125h-125v125h-125v500h375zM250 0v250h-125v-250h125z" />
    <glyph glyph-name="r" unicode="r" 
d="M125 249v-375h-125v500h376v-125h-251z" />
    <glyph glyph-name="s" unicode="s" 
d="M125 124h-125v250h376v-125h-251v-125zM250 124h126v-250h-376v125h250v125z" />
    <glyph glyph-name="t" unicode="t" 
d="M376 248h-126v-249h126v-125h-251v374h-125v125h125v127h125v-127h126v-125z" />
    <glyph glyph-name="u" unicode="u" 
d="M250 374h126v-500h-376v500h125v-375h125v375z" />
    <glyph glyph-name="v" unicode="v" horiz-adv-x="501" 
d="M125 -1h125v375h126v-375h-126v-125h-125v125h-125v375h125v-375z" />
    <glyph glyph-name="w" unicode="w" horiz-adv-x="750" 
d="M501 374h125v-375h-125v-125h-125v125h-126v-125h-125v125h-125v375h125v-375h125v375h126v-375h125v375z" />
    <glyph glyph-name="x" unicode="x" 
d="M125 249h-125v125h125v-125h125v125h126v-125h-126v-250h126v-125h-126v125h-125v-125h-125v125h125v250z" />
    <glyph glyph-name="y" unicode="y" horiz-adv-x="499" 
d="M375 375v-500h-125v-125h-125v125h-125v500h125v-375h125v375h125z" />
    <glyph glyph-name="z" unicode="z" 
d="M250 249h-250v125h376v-250h-126v125zM125 -1h251v-125h-376v250h125v-125z" />
    <glyph glyph-name="braceleft" unicode="{" horiz-adv-x="503" 
d="M126 249h-126v125h126v251h125v125h125v-125h-125v-251h-125v-125h125v-250h125v-125h-125v125h-125v250z" />
    <glyph glyph-name="bar" unicode="|" horiz-adv-x="249" 
d="M125 -126h-125v876h125v-876z" />
    <glyph glyph-name="braceright" unicode="}" horiz-adv-x="502" 
d="M250 249v-250h-125v-125h-125v125h125v250h125v125h-125v251h-125v125h125v-125h125v-251h126v-125h-126z" />
    <glyph glyph-name="asciitilde" unicode="~" horiz-adv-x="625" 
d="M376 750h125v-125h-125v-125h-126v125h-125v-125h-125v125h125v125h125v-125h126v125z" />
    <glyph glyph-name="yen" unicode="&#xa5;" horiz-adv-x="501" 
d="M376 750v-125h-126v-125h126v-126h-126v-125h126v-125h-126v-250h-125v250h-125v125h125v125h-125v126h125v125h-125v125h125v-125h125v125h126z" />
    <glyph glyph-name="nonbreakingspace" unicode="&#xa0;" horiz-adv-x="623" 
 />
  </font>
</defs>
</svg>
