<?xml version="1.0" standalone="no"?>
<!DOCTYPE svg PUBLIC "-//W3C//DTD SVG 1.1//EN" "http://www.w3.org/Graphics/SVG/1.1/DTD/svg11.dtd" >
<svg xmlns="http://www.w3.org/2000/svg" xmlns:xlink="http://www.w3.org/1999/xlink" version="1.1">
<metadata>
Created by FontForge 20170924 at Fri Jan  1 00:00:00 1904
 By www-data
</metadata>
<defs>
<font id=".squarepusherv2." horiz-adv-x="792" >
  <font-face 
    font-family="[.squarepusherv2.]"
    font-weight="400"
    font-stretch="normal"
    units-per-em="720"
    panose-1="2 11 6 3 5 3 2 2 2 4"
    ascent="576"
    descent="-144"
    x-height="360"
    cap-height="360"
    bbox="0 -143 648 504"
    underline-thickness="0"
    underline-position="0"
    unicode-range="U+0020-2019"
  />
<missing-glyph horiz-adv-x="720" 
d="M0 360h648v-360h-648v360zM288 216h72v-72h-72v72zM576 72v216h-504v-216h504z" />
    <glyph glyph-name=".notdef" horiz-adv-x="720" 
d="M0 360h648v-360h-648v360zM288 216h72v-72h-72v72zM576 72v216h-504v-216h504z" />
    <glyph glyph-name="glyph1" horiz-adv-x="0" 
 />
    <glyph glyph-name="glyph2" horiz-adv-x="720" 
 />
    <glyph glyph-name="space" unicode=" " 
 />
    <glyph glyph-name="zero" unicode="0" 
d="M0 360h648v-360h-648v360zM288 216h72v-72h-72v72zM576 72v216h-504v-216h504z" />
    <glyph glyph-name="quoteleft" unicode="&#x2018;" horiz-adv-x="216" 
d="M0 432h72v-144h-72v144z" />
    <glyph glyph-name="quoteright" unicode="&#x2019;" horiz-adv-x="216" 
d="M0 432h72v-144h-72v144z" />
    <glyph glyph-name="acute" unicode="&#xb4;" horiz-adv-x="216" 
d="M0 432h72v-144h-72v144z" />
    <glyph glyph-name="one" unicode="1" 
d="M0 72h288v216h-288v72h360v-288h288v-72h-648v72z" />
    <glyph glyph-name="two" unicode="2" 
d="M0 360h648v-216h-576v-72h576v-72h-648v216h576v72h-576v72z" />
    <glyph glyph-name="three" unicode="3" 
d="M0 360h648v-360h-648v72h576v72h-576v72h576v72h-576v72z" />
    <glyph glyph-name="four" unicode="4" 
d="M0 360h72v-144h432v144h72v-144h72v-72h-72v-144h-72v144h-504v216z" />
    <glyph glyph-name="five" unicode="5" 
d="M0 360h648v-72h-576v-72h576v-216h-648v72h576v72h-576v216z" />
    <glyph glyph-name="six" unicode="6" 
d="M72 288v-72h576v-216h-648v360h72h576v-72h-576zM576 72v72h-504v-72h504z" />
    <glyph glyph-name="seven" unicode="7" 
d="M0 360h648v-360h-72v288h-576v72z" />
    <glyph glyph-name="eight" unicode="8" 
d="M0 360h648v-360h-648v360zM72 72h504v72h-504v-72zM72 216h504v72h-504v-72z" />
    <glyph glyph-name="nine" unicode="9" 
d="M0 360h648v-360h-648v72h576v72h-576v216zM576 216v72h-504v-72h504z" />
    <glyph glyph-name="at" unicode="@" 
d="M648 360v-360h-216h-216v216h216v-144h144v216h-504v-288h-72v360h648zM288 72h72v72h-72v-72z" />
    <glyph glyph-name="plus" unicode="+" 
d="M0 216h288v144h72v-144h288v-72h-288v-144h-72v144h-288v72z" />
    <glyph glyph-name="A" unicode="A" 
d="M0 360h648v-360h-72v144h-504v-144h-72v360zM72 288v-72h504v72h-504z" />
    <glyph glyph-name="question" unicode="?" 
d="M0 360h648v-216h-360v72h288v72h-576v72zM288 72h72v-72h-72v72z" />
    <glyph glyph-name="B" unicode="B" 
d="M0 360h648v-360h-504v72h432v72h-432v72h432v72h-504v-288h-72v360z" />
    <glyph glyph-name="D" unicode="D" 
d="M0 360h648v-360h-648v216h72v-144h504v216h-576v72z" />
    <glyph glyph-name="E" unicode="E" 
d="M0 360h648v-72h-576v-72h576v-72h-576v-72h576v-72h-648v360z" />
    <glyph glyph-name="F" unicode="F" 
d="M0 360h648v-72h-576v-72h576v-72h-576v-144h-72v360z" />
    <glyph glyph-name="G" unicode="G" 
d="M0 360h648v-72h-576v-216h504v72h-288v72h360v-216h-648v360z" />
    <glyph glyph-name="H" unicode="H" 
d="M0 360h72v-144h504v144h72v-360h-72v144h-504v-144h-72v360z" />
    <glyph glyph-name="K" unicode="K" 
d="M0 360h72v-144h360v144h72v-144h144v-216h-72v144h-504v-144h-72v360z" />
    <glyph glyph-name="N" unicode="N" 
d="M0 360h360v-288h216v288h72v-360h-360v288h-216v-288h-72v360z" />
    <glyph glyph-name="O" unicode="O" 
d="M0 360h648v-360h-648v360zM576 72v216h-504v-216h504z" />
    <glyph glyph-name="P" unicode="P" 
d="M0 360h648v-216h-576v-144h-72v360zM576 216v72h-504v-72h504z" />
    <glyph glyph-name="Q" unicode="Q" 
d="M0 360h576v-288h72v-72h-648v360zM72 288v-216h432v216h-432z" />
    <glyph glyph-name="R" unicode="R" 
d="M0 360h648v-216h-432v-72h432v-72h-504v216h432v72h-504v-288h-72v360z" />
    <glyph glyph-name="T" unicode="T" 
d="M0 360h648v-72h-288v-288h-72v288h-288v72z" />
    <glyph glyph-name="V" unicode="V" 
d="M0 360h72v-144h144v-144h216v144h144v144h72v-216h-144v-144h-360v144h-144v216z" />
    <glyph glyph-name="Y" unicode="Y" 
d="M0 360h72v-144h504v144h72v-216h-288v-144h-72v144h-288v216z" />
    <glyph glyph-name="I" unicode="I" 
d="M288 360h72v-288h288v-72h-648v72h288v288z" />
    <glyph glyph-name="underscore" unicode="_" 
d="M0 72h648v-72h-648v72z" />
    <glyph glyph-name="dollar" unicode="$" 
d="M0 360h288v144h72v-144h288v-72h-288v-72h288v-216h-288v-143h-72v143h-288v72h288v72h-288v216zM288 288h-216v-72h216v72zM360 72h216v72h-216v-72z" />
    <glyph glyph-name="numbersign" unicode="#" 
d="M0 360h453l72 72h102l-72 -72h93v-360h-453l-72 -71h-102l72 71h-93v360zM483 288l-216 -216h309v216h-93zM165 72l216 216h-309v-216h93z" />
    <glyph glyph-name="percent" unicode="%" 
d="M0 360h288v144h72v-144h288v-144h-72v72h-216v-216h216v72h72v-144h-288v-143h-72v143h-288v360zM288 288h-216v-216h216v216z" />
    <glyph glyph-name="J" unicode="J" 
d="M0 72h576v288h72v-360h-648v72z" />
    <glyph glyph-name="L" unicode="L" 
d="M0 360h72v-288h576v-72h-648v360z" />
    <glyph glyph-name="S" unicode="S" 
d="M0 360h648v-72h-576v-72h576v-216h-648v72h576v72h-576v216z" />
    <glyph glyph-name="X" unicode="X" 
d="M576 288v72h72v-144h-288v-72h288v-144h-72v72h-504v-72h-72v144h288v72h-288v144h72v-72h504z" />
    <glyph glyph-name="Z" unicode="Z" 
d="M0 360h648v-216h-576v-72h576v-72h-648v216h576v72h-576v72z" />
    <glyph glyph-name="a" unicode="a" 
d="M0 360h648v-360h-648v360zM576 216h-144v-72h-144v-72h288v144zM360 216v72h-288v-144h144v72h144z" />
    <glyph glyph-name="b" unicode="b" 
d="M0 360h648v-360h-648v360zM576 216h-144v-72h-144v-72h288v144zM360 216v72h-288v-144h144v72h144z" />
    <glyph glyph-name="c" unicode="c" 
d="M0 360h648v-360h-648v360zM576 216h-144v-72h-144v-72h288v144zM360 216v72h-288v-144h144v72h144z" />
    <glyph glyph-name="d" unicode="d" 
d="M0 360h648v-360h-648v360zM576 216h-144v-72h-144v-72h288v144zM360 216v72h-288v-144h144v72h144z" />
    <glyph glyph-name="e" unicode="e" 
d="M0 360h648v-360h-648v360zM576 216h-144v-72h-144v-72h288v144zM360 216v72h-288v-144h144v72h144z" />
    <glyph glyph-name="f" unicode="f" 
d="M0 360h648v-360h-648v360zM576 216h-144v-72h-144v-72h288v144zM360 216v72h-288v-144h144v72h144z" />
    <glyph glyph-name="g" unicode="g" 
d="M0 360h648v-360h-648v360zM576 216h-144v-72h-144v-72h288v144zM360 216v72h-288v-144h144v72h144z" />
    <glyph glyph-name="h" unicode="h" 
d="M0 360h648v-360h-648v360zM576 216h-144v-72h-144v-72h288v144zM360 216v72h-288v-144h144v72h144z" />
    <glyph glyph-name="i" unicode="i" 
d="M0 360h648v-360h-648v360zM576 216h-144v-72h-144v-72h288v144zM360 216v72h-288v-144h144v72h144z" />
    <glyph glyph-name="j" unicode="j" 
d="M0 360h648v-360h-648v360zM576 216h-144v-72h-144v-72h288v144zM360 216v72h-288v-144h144v72h144z" />
    <glyph glyph-name="k" unicode="k" 
d="M0 360h648v-360h-648v360zM576 216h-144v-72h-144v-72h288v144zM360 216v72h-288v-144h144v72h144z" />
    <glyph glyph-name="l" unicode="l" 
d="M0 360h648v-360h-648v360zM576 216h-144v-72h-144v-72h288v144zM360 216v72h-288v-144h144v72h144z" />
    <glyph glyph-name="m" unicode="m" 
d="M0 360h648v-360h-648v360zM576 216h-144v-72h-144v-72h288v144zM360 216v72h-288v-144h144v72h144z" />
    <glyph glyph-name="n" unicode="n" 
d="M0 360h648v-360h-648v360zM576 216h-144v-72h-144v-72h288v144zM360 216v72h-288v-144h144v72h144z" />
    <glyph glyph-name="o" unicode="o" 
d="M0 360h648v-360h-648v360zM576 216h-144v-72h-144v-72h288v144zM360 216v72h-288v-144h144v72h144z" />
    <glyph glyph-name="p" unicode="p" 
d="M0 360h648v-360h-648v360zM576 216h-144v-72h-144v-72h288v144zM360 216v72h-288v-144h144v72h144z" />
    <glyph glyph-name="q" unicode="q" 
d="M0 360h648v-360h-648v360zM576 216h-144v-72h-144v-72h288v144zM360 216v72h-288v-144h144v72h144z" />
    <glyph glyph-name="r" unicode="r" 
d="M0 360h648v-360h-648v360zM576 216h-144v-72h-144v-72h288v144zM360 216v72h-288v-144h144v72h144z" />
    <glyph glyph-name="s" unicode="s" 
d="M0 360h648v-360h-648v360zM576 216h-144v-72h-144v-72h288v144zM360 216v72h-288v-144h144v72h144z" />
    <glyph glyph-name="t" unicode="t" 
d="M0 360h648v-360h-648v360zM576 216h-144v-72h-144v-72h288v144zM360 216v72h-288v-144h144v72h144z" />
    <glyph glyph-name="u" unicode="u" 
d="M0 360h648v-360h-648v360zM576 216h-144v-72h-144v-72h288v144zM360 216v72h-288v-144h144v72h144z" />
    <glyph glyph-name="v" unicode="v" 
d="M0 360h648v-360h-648v360zM576 216h-144v-72h-144v-72h288v144zM360 216v72h-288v-144h144v72h144z" />
    <glyph glyph-name="w" unicode="w" 
d="M0 360h648v-360h-648v360zM576 216h-144v-72h-144v-72h288v144zM360 216v72h-288v-144h144v72h144z" />
    <glyph glyph-name="x" unicode="x" 
d="M0 360h648v-360h-648v360zM576 216h-144v-72h-144v-72h288v144zM360 216v72h-288v-144h144v72h144z" />
    <glyph glyph-name="y" unicode="y" 
d="M0 360h648v-360h-648v360zM576 216h-144v-72h-144v-72h288v144zM360 216v72h-288v-144h144v72h144z" />
    <glyph glyph-name="z" unicode="z" 
d="M0 360h648v-360h-648v360zM576 216h-144v-72h-144v-72h288v144zM360 216v72h-288v-144h144v72h144z" />
    <glyph glyph-name="ampersand" unicode="&#x26;" 
d="M0 360h648v-360h-648v360zM576 216h-144v-72h-144v-72h288v144zM360 216v72h-288v-144h144v72h144z" />
    <glyph glyph-name="comma" unicode="," 
d="M288 72h72v-143h-72v143z" />
    <glyph glyph-name="colon" unicode=":" 
d="M216 144h216v-215h-216v215zM216 432h216v-216h-216v216zM360 288v72h-72v-72h72zM360 0v72h-72v-72h72z" />
    <glyph glyph-name="equal" unicode="=" 
d="M144 288h360v-72h-360v72zM144 144h360v-72h-360v72z" />
    <glyph glyph-name="bracketleft" unicode="[" 
d="M288 432v-503h144v-72h-216v647h216v-72h-144z" />
    <glyph glyph-name="bracketright" unicode="]" 
d="M360 432h-144v72h216v-647h-216v72h144v503z" />
    <glyph glyph-name="hyphen" unicode="-" 
d="M144 216h360v-72h-360v72z" />
    <glyph glyph-name="period" unicode="." 
d="M216 216h216v-216h-216v216zM360 72v72h-72v-72h72z" />
    <glyph glyph-name="backslash" unicode="\" 
d="M576 72v-72h-216v144h-144v144h-144v72h216v-144h144v-144h144z" />
    <glyph glyph-name="slash" unicode="/" 
d="M72 72h144v144h144v144h216v-72h-144v-144h-144v-144h-216v72z" />
    <glyph glyph-name="C" unicode="C" 
d="M0 360h648v-144h-72v72h-504v-216h504v72h72v-144h-648v360z" />
    <glyph glyph-name="M" unicode="M" 
d="M0 360h648v-360h-72v288h-216v-288h-72v288h-216v-288h-72v360z" />
    <glyph glyph-name="U" unicode="U" 
d="M0 360h72v-288h504v288h72v-360h-648v360z" />
    <glyph glyph-name="quotedbl" unicode="&#x22;" 
d="M216 432h72v-144h-72v144zM360 432h72v-144h-72v144z" />
    <glyph glyph-name="semicolon" unicode=";" 
d="M216 432h72v-144h-72v144zM360 432h72v-144h-72v144z" />
    <glyph glyph-name="grave" unicode="`" 
d="M288 432h72v-144h-72v144z" />
    <glyph glyph-name="quotesingle" unicode="'" 
d="M288 432h72v-144h-72v144z" />
    <glyph glyph-name="W" unicode="W" 
d="M0 360h72v-288h216v288h72v-288h216v288h72v-360h-648v360z" />
  </font>
</defs>
</svg>
