<?xml version="1.0" standalone="no"?>
<!DOCTYPE svg PUBLIC "-//W3C//DTD SVG 1.1//EN" "http://www.w3.org/Graphics/SVG/1.1/DTD/svg11.dtd" >
<svg xmlns="http://www.w3.org/2000/svg" xmlns:xlink="http://www.w3.org/1999/xlink" version="1.1">
<metadata>
Created by FontForge 20170924 at Sun May 17 12:25:17 2015
 By www-data
Copyright (c) 2015 by Marco Nunes. All rights reserved.
</metadata>
<defs>
<font id="Topo" horiz-adv-x="833" >
  <font-face 
    font-family="Topo"
    font-weight="400"
    font-stretch="normal"
    units-per-em="1000"
    panose-1="0 0 0 0 0 0 0 0 0 0"
    ascent="750"
    descent="-250"
    x-height="736"
    cap-height="736"
    bbox="0 0 735 737"
    underline-thickness="50"
    underline-position="-100"
    unicode-range="U+000D-00FF"
  />
<missing-glyph horiz-adv-x="300" 
 />
    <glyph glyph-name=".notdef" horiz-adv-x="300" 
 />
    <glyph glyph-name="NULL" horiz-adv-x="0" 
 />
    <glyph glyph-name="NULL" horiz-adv-x="0" 
 />
    <glyph glyph-name="nonmarkingreturn" unicode="&#xd;" horiz-adv-x="300" 
 />
    <glyph glyph-name="space" unicode=" " horiz-adv-x="300" 
 />
    <glyph glyph-name="C" unicode="C" 
d="M735 589h-588v-441h588v-146h-735v0v734v0h735v-147v0z" />
    <glyph glyph-name="c" unicode="c" 
d="M735 589h-588v-441h588v-146h-735v0v734v0h735v-147v0z" />
    <glyph glyph-name="D" unicode="D" 
d="M0 148h588v441h-588v147h734h1v-734h-1h-734v146v0z" />
    <glyph glyph-name="d" unicode="d" 
d="M0 148h588v441h-588v147h734h1v-734h-1h-734v146v0z" />
    <glyph glyph-name="E" unicode="E" 
d="M0 736h734v-147h-734v147zM0 295v147h734v-147h-734zM0 2v146h734v-146h-734z" />
    <glyph glyph-name="e" unicode="e" 
d="M0 736h734v-147h-734v147zM0 295v147h734v-147h-734zM0 2v146h734v-146h-734z" />
    <glyph glyph-name="F" unicode="F" 
d="M0 442h734v-147h-587v-293h-147v440zM0 736h734v-147h-734v147v0v0z" />
    <glyph glyph-name="f" unicode="f" 
d="M0 442h734v-147h-587v-293h-147v440zM0 736h734v-147h-734v147v0v0z" />
    <glyph glyph-name="G" unicode="G" 
d="M588 295h146v-293h-734v0v0v734v0h734v-147h-587v-441h441v147v0z" />
    <glyph glyph-name="g" unicode="g" 
d="M588 295h146v-293h-734v0v0v734v0h734v-147h-587v-441h441v147v0z" />
    <glyph glyph-name="H" unicode="H" 
d="M588 736h146v-734h-146v293h-441v-293h-147v734h147v-294h441v294v0z" />
    <glyph glyph-name="h" unicode="h" 
d="M588 736h146v-734h-146v293h-441v-293h-147v734h147v-294h441v294v0z" />
    <glyph glyph-name="I" unicode="I" 
d="M734 589h-293v-441h293v-146h-734v146h294v441h-294v147h734v-147v0z" />
    <glyph glyph-name="i" unicode="i" 
d="M734 589h-293v-441h293v-146h-734v146h294v441h-294v147h734v-147v0z" />
    <glyph glyph-name="J" unicode="J" 
d="M0 148h588v441h-147v147h293h1v-734h-1h-734v146v0z" />
    <glyph glyph-name="j" unicode="j" 
d="M0 148h588v441h-147v147h293h1v-734h-1h-734v146v0z" />
    <glyph glyph-name="K" unicode="K" 
d="M588 737h146v-146h-146v-147h-147v147h147v146zM294 444h147v-147h-147v-147h-147v-150h-147v734h147v-437h147v147zM588 297v-147h146v-147h-146v147h-147v147h147z" />
    <glyph glyph-name="k" unicode="k" 
d="M588 737h146v-146h-146v-147h-147v147h147v146zM294 444h147v-147h-147v-147h-147v-150h-147v734h147v-437h147v147zM588 297v-147h146v-147h-146v147h-147v147h147z" />
    <glyph glyph-name="L" unicode="L" 
d="M734 148v-146h-734v734h147v-588h587v0z" />
    <glyph glyph-name="l" unicode="l" 
d="M734 148v-146h-734v734h147v-588h587v0z" />
    <glyph glyph-name="M" unicode="M" 
d="M588 736h146v-734h-146v734zM294 148v588h147v-588h-147zM0 2v734h147v-734h-147z" />
    <glyph glyph-name="m" unicode="m" 
d="M588 736h146v-734h-146v734zM294 148v588h147v-588h-147zM0 2v734h147v-734h-147z" />
    <glyph glyph-name="N" unicode="N" 
d="M588 736h146v-734h-146v146h-147v147h147v441zM294 442h147v-147h-147v147h-147v-440h-147v734h147v-147h147v-147z" />
    <glyph glyph-name="n" unicode="n" 
d="M588 736h146v-734h-146v146h-147v147h147v441zM294 442h147v-147h-147v147h-147v-440h-147v734h147v-147h147v-147z" />
    <glyph glyph-name="P" unicode="P" 
d="M0 736h734v-441v0h-587v-293h-147v440h588v147h-588v147v0z" />
    <glyph glyph-name="p" unicode="p" 
d="M0 736h734v-441v0h-587v-293h-147v440h588v147h-588v147v0z" />
    <glyph glyph-name="O" unicode="O" 
d="M0 736h734v0v-734v0h-734v734zM588 148v441h-441v-441h441z" />
    <glyph glyph-name="o" unicode="o" 
d="M0 736h734v0v-734v0h-734v734zM588 148v441h-441v-441h441z" />
    <glyph glyph-name="Q" unicode="Q" 
d="M0 736h734v0v-734h-734v734zM588 148v441h-441v-441h147v115h147v-115h147z" />
    <glyph glyph-name="q" unicode="q" 
d="M0 736h734v0v-734h-734v734zM588 148v441h-441v-441h147v115h147v-115h147z" />
    <glyph glyph-name="R" unicode="R" 
d="M0 736h734v0v-734v0h-146v293h-588v147h588v147h-588v147v0z" />
    <glyph glyph-name="r" unicode="r" 
d="M0 736h734v0v-734v0h-146v293h-588v147h588v147h-588v147v0z" />
    <glyph glyph-name="S" unicode="S" 
d="M734 589h-587v-147h587v-440h-734v146h588v147h-588v441h734v-147v0z" />
    <glyph glyph-name="s" unicode="s" 
d="M734 589h-587v-147h587v-440h-734v146h588v147h-588v441h734v-147v0z" />
    <glyph glyph-name="T" unicode="T" 
d="M734 736v-147h-293v-587h-147v587h-294v147h734v0z" />
    <glyph glyph-name="t" unicode="t" 
d="M734 736v-147h-293v-587h-147v587h-294v147h734v0z" />
    <glyph glyph-name="U" unicode="U" 
d="M147 736v-588h441v588h146v-734v-1h-734v1v734h147v0z" />
    <glyph glyph-name="u" unicode="u" 
d="M147 736v-588h441v588h146v-734v-1h-734v1v734h147v0z" />
    <glyph glyph-name="V" unicode="V" 
d="M588 736h146v-443h-146v443zM0 736h147v-443h-147v443zM441 148v145h147v-147h-147v-144h-147v144h-147v147h147v-145h147z" />
    <glyph glyph-name="v" unicode="v" 
d="M588 736h146v-443h-146v443zM0 736h147v-443h-147v443zM441 148v145h147v-147h-147v-144h-147v144h-147v147h147v-145h147z" />
    <glyph glyph-name="W" unicode="W" 
d="M0 2v734h147v-734h-147zM294 2v587h147v-587h-147zM588 736h146v-734h-146v734z" />
    <glyph glyph-name="w" unicode="w" 
d="M0 2v734h147v-734h-147zM294 2v587h147v-587h-147zM588 736h146v-734h-146v734z" />
    <glyph glyph-name="X" unicode="X" 
d="M0 736h147v-147h-147v147zM588 148h-147v147h147v-147zM734 2h-146v146h146v-146zM588 442h-147v-147h-147v-147h-147v147h147v147h-147v147h147v-147h147v147h147v-147zM734 736v-147h-146v147h146zM0 2v146h147v-146h-147z" />
    <glyph glyph-name="x" unicode="x" 
d="M0 736h147v-147h-147v147zM588 148h-147v147h147v-147zM734 2h-146v146h146v-146zM588 442h-147v-147h-147v-147h-147v147h147v147h-147v147h147v-147h147v147h147v-147zM734 736v-147h-146v147h146zM0 2v146h147v-146h-147z" />
    <glyph glyph-name="Y" unicode="Y" 
d="M0 736h147v-147h-147v147zM441 442v147h147v-147h-147v-440h-147v440h-147v147h147v-147h147zM588 736h146v-147h-146v147z" />
    <glyph glyph-name="y" unicode="y" 
d="M0 736h147v-147h-147v147zM441 442v147h147v-147h-147v-440h-147v440h-147v147h147v-147h147zM588 736h146v-147h-146v147z" />
    <glyph glyph-name="Z" unicode="Z" 
d="M441 295h-147v-147h440v-146h-734v146h147v147h147v147h147v147h-441v147h734v-147h-146v-147h-147v-147v0z" />
    <glyph glyph-name="z" unicode="z" 
d="M441 295h-147v-147h440v-146h-734v146h147v147h147v147h147v147h-441v147h734v-147h-146v-147h-147v-147v0z" />
    <glyph glyph-name="zero" unicode="0" 
d="M0 736h734v0v-734v0h-734v734zM588 148v441h-441v-441h441zM441 442v-147h-147v147h147z" />
    <glyph glyph-name="one" unicode="1" 
d="M0 589v147h734v-734h-146v587h-588v0z" />
    <glyph glyph-name="two" unicode="2" 
d="M0 589v147h734v-441h-587v-147h587v-146h-734v440h588v147h-588v0z" />
    <glyph glyph-name="three" unicode="3" 
d="M734 736v-734v0v0h-146v0h-588v146h588v147h-441v147h441v147h-588v147h588h146v0v0z" />
    <glyph glyph-name="four" unicode="4" 
d="M588 736h146v-734h-146v288h-588v0v440h147v-294h441v300v0z" />
    <glyph glyph-name="five" unicode="5" 
d="M588 589h-441v-147h587v-440h-734v146h588v147h-588v441h588v-147v0z" />
    <glyph glyph-name="six" unicode="6" 
d="M734 589h-587v-147h587v-440h-734v734h734v-147zM588 295h-441v-147h441v147z" />
    <glyph glyph-name="seven" unicode="7" 
d="M734 589v-147h-146v-147h-147v147h147v147h-588v147h734v-147v0zM294 148v147h147v-147h-147v-146h-147v146h147z" />
    <glyph glyph-name="eight" unicode="8" 
d="M0 736h734v0v-734h-734v0v734zM588 148v147h-441v-147h441zM588 442v147h-441v-147h441z" />
    <glyph glyph-name="nine" unicode="9" 
d="M0 148h588v147h-588v441h734v-734h-734v146zM147 442h441v147h-441v-147z" />
    <glyph glyph-name="_0000" horiz-adv-x="200" 
 />
    <glyph glyph-name="hyphen" unicode="-" 
d="M0 295v147h734v-147h-734v0z" />
    <glyph glyph-name="plus" unicode="+" 
d="M734 442v-147h-293v-293h-147v293h-294v147h294v294h147v-294h293v0z" />
    <glyph glyph-name="b" unicode="b" 
d="M0 736h734v0v-734v0h-734v146h588v147h-588v147h588v147h-588v147v0z" />
    <glyph glyph-name="ydieresis" unicode="&#xff;" 
 />
    <glyph glyph-name="A" unicode="A" 
d="M734 736v0v-734h-146v293h-441v-293h-147v734h734zM147 442h441v147h-441v-147z" />
    <glyph glyph-name="a" unicode="a" 
d="M734 736v0v-734h-146v293h-441v-293h-147v734h734zM147 442h441v147h-441v-147z" />
    <glyph glyph-name="B" unicode="B" 
d="M0 736h734v0v-734v0h-734v146h588v147h-588v147h588v147h-588v147v0z" />
  </font>
</defs>
</svg>
